<?xml version="1.0" standalone="no"?>
<!DOCTYPE svg PUBLIC "-//W3C//DTD SVG 1.1//EN" "http://www.w3.org/Graphics/SVG/1.1/DTD/svg11.dtd" >
<svg xmlns="http://www.w3.org/2000/svg">
<metadata></metadata>
<defs>
<font id="switzerlandnarrowitalic" horiz-adv-x="936" >
<font-face units-per-em="2048" ascent="1638" descent="-410" />
<missing-glyph horiz-adv-x="469" />
<glyph horiz-adv-x="2048" />
<glyph horiz-adv-x="2048" />
<glyph unicode="&#xd;" horiz-adv-x="0" />
<glyph unicode=" "  horiz-adv-x="469" />
<glyph unicode="&#x09;" horiz-adv-x="469" />
<glyph unicode="&#xa0;" horiz-adv-x="469" />
<glyph unicode="!" horiz-adv-x="469" d="M213 0l31 228h160l-32 -228h-159zM307 340l49 469l113 690h143l-112 -690l-113 -469h-80z" />
<glyph unicode="&#x22;" horiz-adv-x="596" d="M307 936v293l33 223h160l-31 -223l-97 -293h-65zM563 936v293l33 223h164l-33 -223l-99 -293h-65z" />
<glyph unicode="#" d="M80 387l32 176h185l94 293h-163l32 176h188l132 404h147l-131 -404h209l131 404h144l-132 -404h148l-31 -176h-172l-97 -293h172l-32 -176h-196l-144 -434h-144l140 434h-207l-141 -434h-148l144 434h-160zM444 563h208l96 293h-212z" />
<glyph unicode="$" d="M100 312q10 108 12 124h148l-6.5 -58.5l-5.5 -49.5q6 -196 172 -216l96 535q-12 9 -70 32t-102.5 51t-77.5 82q-32 54 -34 140q11 129 60.5 239.5t141.5 181.5q94 71 222 79l24 127h96l-20 -131q153 -8 214.5 -88t61.5 -240v-72h-143v80q0 180 -158 180l-88 -503 q142 -40 227.5 -107.5t85.5 -207.5q0 -16 -4 -54q-15 -120 -69.5 -227.5t-151 -174.5t-227.5 -67l-35 -223h-113l35 223q-287 25 -291 345zM385 1020q2 -65 41 -117q39 -51 119 -75l83 480q-65 -8 -120.5 -51t-88.5 -107.5t-34 -129.5zM532 116q112 11 186 99q74 89 74 189 q0 78 -45 140t-131 84z" />
<glyph unicode="%" horiz-adv-x="1499" d="M205 996q0 16 4 52q14 96 66 178t128 130.5t156 48.5q74 0 132.5 -39.5t91 -107.5t32.5 -154q0 -74 -26.5 -146t-74 -131t-113 -95t-140.5 -36q-74 0 -132 39t-91 107t-33 154zM340 -33l920 1469h128l-919 -1469h-129zM344 1016q3 -69 43.5 -114.5t100.5 -45.5 q55 0 99 33.5t68.5 86t24.5 104.5q0 72 -40 117.5t-100 45.5q-70 0 -126 -57q-56 -58 -66 -138q0 -20 -4 -32zM901 258q0 33 2 49q14 96 66.5 178.5t129 130.5t157.5 48q72 0 129 -39t90 -107t33 -154q0 -95 -46 -191t-127 -158t-180 -62q-110 0 -182 87.5t-72 217.5z M1040 307q0 -86 38 -138.5t102 -52.5q56 0 100 33.5t68 86t24 104.5q0 72 -37.5 118t-97.5 46q-44 0 -87 -26.5t-72.5 -72t-37.5 -98.5z" />
<glyph unicode="&#x26;" horiz-adv-x="1112" d="M129 244q0 128 45.5 242t127.5 200t190 142q-74 138 -80 280q3 151 95 247.5t269 96.5q110 0 169 -67t59 -177q0 -94 -41.5 -179t-112 -153t-154.5 -112l168 -324q22 36 50 111t38 145h144q-13 -68 -62.5 -201t-93.5 -206l144 -289h-191l-78 152q-66 -74 -169 -136.5 t-210 -62.5q-88 0 -155.5 35t-107 101t-44.5 155zM307 276q18 -144 154 -147q147 3 291 160l-197 407q-248 -156 -248 -420zM568 1112q6 -120 65 -215q90 38 156.5 118t66.5 173q0 56 -28 88t-84 32q-86 0 -130 -55q-42 -55 -46 -141z" />
<glyph unicode="'" horiz-adv-x="372" d="M276 983l17 82q85 19 111 178h-80l32 225h160l-32 -225q-12 -106 -64 -177t-144 -83z" />
<glyph unicode="(" horiz-adv-x="563" d="M188 219q6 631 455 1297h117q-114 -184 -213.5 -411.5t-162 -481t-64.5 -502.5q6 -296 100 -557h-96q-130 318 -136 655z" />
<glyph unicode=")" horiz-adv-x="563" d="M-16 -436q151 231 247.5 463t140.5 450.5t44 421.5q0 325 -92 600h96q139 -283 139 -631q0 -213 -49.5 -421.5t-126 -388t-158 -307t-145.5 -187.5h-96z" />
<glyph unicode="*" horiz-adv-x="659" d="M260 1260l64 128l160 -96l32 240h112l-48 -240l180 80l32 -129l-196 -47l84 -213l-117 -47l-63 176l-128 -176l-79 80l143 160z" />
<glyph unicode="+" horiz-adv-x="983" d="M160 387l20 162h344l72 419h131l-75 -419h348l-19 -162h-357l-75 -434h-129l76 434h-336z" />
<glyph unicode="," horiz-adv-x="469" d="M96 -303l16 94q55 32 89.5 87.5t38.5 121.5h-96l32 228h180l-32 -228q-8 -66 -38 -126t-78 -104.5t-112 -72.5z" />
<glyph unicode="-" horiz-adv-x="563" d="M148 484l32 159h416l-33 -159h-415z" />
<glyph unicode="." horiz-adv-x="469" d="M164 0l32 228h176l-32 -228h-176z" />
<glyph unicode="/" horiz-adv-x="469" d="M-33 -33l661 1501h99l-663 -1501h-97z" />
<glyph unicode="0" d="M164 387q4 121 32 309q122 772 548 772q142 -6 199 -127t57 -313q0 -143 -32 -348q-40 -224 -106 -382t-171 -244.5t-255 -86.5q-141 15 -205 123t-67 297zM312 424q6 -276 172 -276q84 0 146 59t109 180t85 309q36 176 36 312q0 284 -164 284q-86 0 -155 -80 t-118 -217.5t-83 -314.5q-22 -126 -28 -256z" />
<glyph unicode="1" d="M340 1032l16 164q146 0 226 53t104 108t41 128h113l-260 -1485h-160l176 1032h-256z" />
<glyph unicode="2" d="M33 0q33 216 121.5 350t166.5 188t252.5 157t235.5 177q71 84 71 212q0 90 -43 148t-129 60q-118 0 -192 -76t-129 -264h-159q30 134 95.5 252t168 191t233.5 73q168 -8 237 -110q70 -102 70 -278q0 -95 -37.5 -185t-112.5 -170q-76 -79 -186 -145q-80 -34 -178 -96 t-175 -138t-99 -150h628l-32 -196h-807z" />
<glyph unicode="3" d="M108 293q4 65 21 143h147q-5 -22 -8 -61t-4 -47q4 -107 58 -160q52 -52 134 -52q68 2 126 27.5t102 70.5t68 103q24 57 24 123q0 206 -217 207q-47 0 -75 -4l16 181q37 0 53 -5q122 4 205 63q84 60 86 198q0 88 -44 138t-120 50q-65 0 -127.5 -34t-107.5 -101t-58 -165 h-143q36 146 86.5 247.5t143 161t238.5 59.5q152 0 228 -91t76 -225q0 -81 -28 -160.5t-79 -137.5t-117 -78q70 -19 109 -92t39 -177q0 -120 -56 -240.5t-167 -199.5t-265 -82q-182 0 -261 97.5t-83 242.5z" />
<glyph unicode="4" d="M96 340l16 176l712 936h128l-160 -936h160l-32 -176h-160l-64 -340h-164l64 340h-500zM276 516h352l116 612z" />
<glyph unicode="5" d="M116 289q4 26 13 83h164q-2 -14 -2 -42q1 -200 193 -201q96 0 169 61.5t111 155.5q37 94 37 190q0 104 -45 172q-46 68 -128 68q-86 0 -141.5 -29t-91.5 -67q-37 -37 -39 -37h-143l239 809h628l-32 -192h-499l-113 -388q52 42 84 54q32 10 108 26q176 0 262.5 -103 t86.5 -265q0 -117 -34.5 -230t-101.5 -203.5t-165 -144.5q-100 -53 -224 -53q-90 0 -166 42.5t-122 119t-48 174.5z" />
<glyph unicode="6" d="M148 391q2 41 9 119t7 86q41 247 119.5 436.5t194.5 296.5t266 107q132 0 208 -86t76 -210q0 -52 -12 -92h-144q6 28 6 50q0 72 -43 115t-110 43q-100 0 -176 -80q-58 -58 -107.5 -168t-101.5 -281q66 84 148 128q84 44 164 44q94 0 163 -51.5t105 -133.5q36 -84 36 -174 q0 -140 -61.5 -276t-174 -223.5t-251.5 -87.5q-313 0 -321 438zM303 356q3 -101 54 -164t143 -63q89 0 153.5 53.5t97.5 137.5t33 172q0 104 -44 169.5t-128 65.5q-93 -3 -162.5 -58t-106.5 -140t-40 -173z" />
<glyph unicode="7" d="M244 0q64 222 208 490t286 481t214 305h-645l33 176h788l-16 -176q-136 -174 -218.5 -288t-165 -253t-165.5 -317t-176 -418h-143z" />
<glyph unicode="8" d="M104 289q2 18 4 50t4 48q9 60 41.5 132.5t88.5 137.5t130 103q-94 70 -100 217q2 108 56 214.5t150 175.5t218 69q102 0 174 -41t109 -110t37 -153q0 -67 -23 -134.5t-69.5 -129t-114.5 -108.5q59 -32 91 -108.5t32 -176.5q0 -125 -56 -246t-168 -198.5t-272 -77.5 q-172 7 -250 98t-82 238zM276 336q4 -83 50.5 -140t142.5 -67q88 0 156.5 49t105.5 127.5t37 159.5q0 89 -43 148t-129 67q-86 0 -159 -51.5t-115 -132.5q-44 -80 -46 -160zM440 991q3 -66 42.5 -108.5t113.5 -42.5q76 0 132 37.5t86 97.5q30 61 30 121q0 74 -38 125.5 t-110 54.5q-72 0 -129.5 -42.5t-90.5 -108.5q-34 -66 -36 -134z" />
<glyph unicode="9" d="M140 244q8 74 8 96h145q0 -20 -4 -33q4 -70 47.5 -124t132.5 -54q85 0 164 89.5t131 217.5t60 228q-24 -49 -71 -90.5t-103 -65.5t-101 -24q-168 0 -251.5 96t-84.5 248q1 142 68 288t182 241t249 95q106 0 197 -85t91 -271q0 -12 1 -35.5t1 -34.5q0 -190 -34 -378 t-104.5 -343t-182 -251t-261.5 -101q-272 1 -280 291zM385 884q2 -98 46.5 -161t131.5 -63q90 4 157.5 60t101.5 142q34 84 34 174q0 104 -54.5 172t-158.5 68q-122 -14 -182.5 -130t-75.5 -262z" />
<glyph unicode=":" horiz-adv-x="469" d="M180 0l33 228h191l-32 -228h-192zM324 856l32 209h193l-33 -209h-192z" />
<glyph unicode=";" horiz-adv-x="469" d="M156 -324l16 101q56 30 91 83.5t36 123.5h-94l35 225h176l-31 -225q-25 -216 -229 -308zM356 824l31 224h176l-31 -224h-176z" />
<glyph unicode="&#x3c;" horiz-adv-x="983" d="M164 387l16 162l900 403l-32 -160l-708 -323l596 -340l-33 -162z" />
<glyph unicode="=" horiz-adv-x="983" d="M112 213l36 159h820l-32 -159h-824zM180 563l33 164h819l-32 -164h-820z" />
<glyph unicode="&#x3e;" horiz-adv-x="983" d="M64 -33l32 181l696 321l-579 340l31 174l756 -434l-32 -162z" />
<glyph unicode="?" d="M307 1048q10 104 57 215.5t141.5 190t234.5 78.5q93 0 164.5 -48t109.5 -124t38 -156q-6 -92 -30.5 -156.5t-90.5 -150.5q-66 -85 -206 -237q-46 -48 -71 -116q-26 -68 -26 -140h-159q-1 206 143 356q22 24 84 86t103 112t67 106q27 56 27 116q0 78 -47.5 127t-137.5 49 q-84 0 -134 -34t-73.5 -82.5t-32.5 -99.5q-10 -52 -16 -92h-145zM387 0l49 223h160l-47 -223h-162z" />
<glyph unicode="@" horiz-adv-x="1712" d="M125 496q7 294 155 536q70 120 165 211t205 151t225.5 91t228.5 35q158 0 307 -69.5t243.5 -212t94.5 -349.5q0 -176 -67.5 -352t-197.5 -295.5t-308 -133.5q-84 0 -131 38t-49 98q4 12 4 32q-28 -56 -106 -110t-167 -54q-114 12 -171.5 87t-59.5 192q2 148 80 310.5 t209 270.5t280 108q62 -11 107.5 -58.5t56.5 -118.5l47 129h144l-261 -612q-21 -62 -27 -113q0 -65 64 -71q47 2 106.5 38.5t117.5 105.5q58 68 92 152q76 162 75 348q0 104 -29.5 190t-90 150t-155 100t-216.5 36q-186 -6 -354 -100t-282 -255q-112 -161 -144 -354 q-16 -114 -19 -182q0 -172 60 -306.5t176.5 -211t277.5 -76.5q147 -1 317 65l31 -145q-181 -88 -379 -88q-186 0 -335 90.5t-234.5 270.5t-85.5 432zM680 416q7 -156 129 -156q42 0 98 51t109.5 133t86.5 169t33 159q0 136 -120 148q-80 0 -157 -81.5t-127 -202t-52 -220.5z " />
<glyph unicode="A" horiz-adv-x="1112" d="M0 0l712 1499h191l193 -1499h-176l-64 452h-469l-191 -452h-196zM469 612h371l-64 664z" />
<glyph unicode="B" horiz-adv-x="1112" d="M112 0l260 1499h500q108 0 180.5 -43.5t106 -115.5t33.5 -160q0 -84 -29.5 -167t-81 -142t-113.5 -79q92 -42 138.5 -119t46.5 -177q0 -116 -59 -232t-158.5 -190t-214.5 -74h-609zM320 192h380q72 0 132 44.5t94 114t34 137.5q0 84 -50.5 138t-149.5 54h-356zM440 872 h316q70 0 128 42t91 107t33 132q0 83 -51 135t-156 52h-281z" />
<glyph unicode="C" horiz-adv-x="1212" d="M172 584q2 118 27 234t69 225.5t104 203.5q182 280 484 285q157 0 251.5 -74t131.5 -186t37 -240h-164q-16 140 -74 232t-198 92q-136 -2 -245.5 -112t-173 -279t-69.5 -337q0 -209 66 -347.5t219 -140.5q4 3 5 4h1q119 2 207.5 65t141 155t73.5 185h164 q-30 -109 -75.5 -208t-118 -183t-178 -136.5t-241.5 -54.5q-226 0 -331 187.5t-113 429.5z" />
<glyph unicode="D" horiz-adv-x="1212" d="M148 0l272 1499h420q134 0 234 -55.5t155 -169.5t55 -278q0 -111 -24 -236q-40 -200 -88 -337t-121 -232.5t-177 -143t-250 -47.5h-476zM340 176h332q112 0 192 62t135 186q55 126 97 320q32 152 32 260q0 146 -70.5 232.5t-248.5 86.5h-260z" />
<glyph unicode="E" horiz-adv-x="1112" d="M148 0l272 1499h856l-33 -176h-694l-80 -467h659l-32 -176h-660l-96 -516h725l-33 -164h-884z" />
<glyph unicode="F" horiz-adv-x="1032" d="M129 0l258 1499h842l-33 -176h-664l-80 -451h580l-32 -176h-580l-113 -696h-178z" />
<glyph unicode="G" horiz-adv-x="1308" d="M180 549q5 134 33 260q54 209 138.5 372t232.5 265t368 102q124 0 217.5 -57t144 -152t50.5 -207q0 -32 -8 -84h-160q0 68 -15 130t-80 116t-198 62q-164 -8 -289.5 -123t-194.5 -290t-71 -351q2 -123 41 -224.5t117 -160.5t190 -59q84 0 158 32t134 94t104 152t67 202 h-383l48 181h499l-127 -809h-116v180q-28 -44 -90 -94t-147 -84.5t-183 -34.5q-180 0 -286.5 86t-149 215.5t-44.5 280.5z" />
<glyph unicode="H" horiz-adv-x="1212" d="M129 0l275 1499h159l-115 -627h600l111 627h164l-258 -1499h-162l113 696h-600l-127 -696h-160z" />
<glyph unicode="I" horiz-adv-x="469" d="M148 0l256 1499h176l-256 -1499h-176z" />
<glyph unicode="J" horiz-adv-x="835" d="M72 223q2 12 4 37t4 37l32 187h164l-28 -156q0 -12 -8 -56q7 -132 151 -132q98 0 150.5 47t70.5 153l212 1159h159l-191 -1127q-38 -210 -128 -309t-268 -106q-141 0 -231 67q-89 68 -93 199z" />
<glyph unicode="K" horiz-adv-x="1112" d="M112 0l260 1499h160l-128 -755l741 755h211l-612 -627l336 -872h-177l-291 744l-240 -228l-96 -516h-164z" />
<glyph unicode="L" d="M129 0l258 1499h162l-225 -1319h596l-31 -180h-760z" />
<glyph unicode="M" horiz-adv-x="1405" d="M129 0l258 1499h225l132 -1271l564 1271h224l-256 -1499h-164l211 1176l-531 -1176h-180l-112 1176l-207 -1176h-164z" />
<glyph unicode="N" horiz-adv-x="1212" d="M112 0l260 1499h191l405 -1206l208 1206h164l-275 -1499h-176l-405 1176l-208 -1176h-164z" />
<glyph unicode="O" horiz-adv-x="1308" d="M160 536q10 154 16 204q19 148 74.5 283t149.5 243.5t230 172.5t310 64q112 -3 199 -46t144 -119t85 -179t28 -223q0 -163 -46 -335.5t-140 -320.5t-236 -237.5t-322 -89.5q-136 2 -231 48.5t-152 127.5t-82 182t-27 225zM332 563q3 -200 84.5 -312.5t247.5 -119.5 q130 0 240.5 77.5t186.5 206.5t109 273q24 108 24 224t-32.5 208t-109 146.5t-198.5 54.5q-132 0 -247 -74.5t-193 -211t-100 -310.5q-2 -26 -4 -53.5t-4 -54.5z" />
<glyph unicode="P" horiz-adv-x="1112" d="M164 0l256 1499h516q110 0 185 -46.5t111 -124.5t36 -175q0 -92 -31 -186t-86 -170.5t-130 -122.5t-161 -46h-424l-112 -628h-160zM465 809h379q64 0 119 48.5t88 124.5q33 74 33 150q0 86 -45 138.5t-140 52.5h-350z" />
<glyph unicode="Q" horiz-adv-x="1308" d="M164 528q8 100 16 152q39 248 131.5 436t245.5 294t363 106q240 0 356 -152t116 -396q0 -32 -4 -96q-6 -98 -25 -195t-54 -191t-86 -177t-119 -153l120 -148l-108 -124l-133 163q-70 -45 -163 -69.5t-183 -24.5q-156 0 -262.5 80.5t-157.5 211.5t-53 283zM328 553 q2 -130 47 -224.5t119 -144.5t162 -53q24 0 40 -2q114 4 188 51l-108 127l113 113l115 -144q68 74 117 175t74 212t25 217q0 98 -20 180.5t-62 145t-105 98.5t-144 36q-120 0 -233.5 -68t-198.5 -219.5t-117 -388.5q-2 -18 -6 -56.5t-6 -54.5z" />
<glyph unicode="R" horiz-adv-x="1212" d="M164 0l256 1499h580q157 0 230.5 -86.5t73.5 -224.5q0 -92 -32 -187t-86.5 -169t-120.5 -105q107 -69 107 -187q0 -72 -24 -204t-28 -184q7 -84 39 -88l-14 -64h-177q-20 46 -24 104q4 58 28 180t24 191q0 168 -236 168h-324l-112 -643h-160zM469 824h428q56 0 108.5 47 t85.5 119t33 142q0 80 -46 128t-142 48h-387z" />
<glyph unicode="S" horiz-adv-x="1112" d="M140 320q6 80 24 164h143q0 -18 -8 -76q3 -136 79 -200q78 -65 194 -73q143 0 251.5 78t108.5 207q0 69 -34 122q-34 52 -89 70l-293 100q-216 68 -223 279q5 126 63 252q56 114 173 193.5t295 79.5q144 0 260 -74q116 -76 116 -304q0 -58 -4 -90h-164q8 42 8 68 q0 72 -37 125t-100 80t-131 27q-82 0 -149 -36t-109 -99t-49 -142q5 -120 147 -168l277 -94q113 -40 174 -127.5t61 -206.5q0 -110 -45 -205.5t-124 -166.5t-181 -110.5t-211 -39.5q-174 0 -297.5 93.5t-125.5 273.5z" />
<glyph unicode="T" horiz-adv-x="1032" d="M260 1323l33 176h983l-33 -176h-403l-260 -1323h-160l260 1323h-420z" />
<glyph unicode="U" horiz-adv-x="1212" d="M200 328q2 9 6 39.5t7 52.5l191 1079h159l-186 -1038q-3 -18 -5 -39.5t-4 -34.5q3 -114 72.5 -172.5t187.5 -58.5q301 0 355 288l197 1055h156l-200 -1079q-52 -288 -204 -379.5t-332 -91.5q-134 0 -223 51.5t-131 137.5q-44 86 -46 190z" />
<glyph unicode="V" horiz-adv-x="1112" d="M307 1499h162l127 -1255l563 1255h181l-697 -1499h-174z" />
<glyph unicode="W" horiz-adv-x="1579" d="M276 1499h176l32 -1175l468 1175h176l68 -1192l432 1192h180l-565 -1499h-178l-82 1196l-483 -1196h-160z" />
<glyph unicode="X" horiz-adv-x="1112" d="M33 0l563 776l-272 723h192l211 -563l418 563h195l-531 -723l287 -776h-207l-209 596l-436 -596h-211z" />
<glyph unicode="Y" horiz-adv-x="1112" d="M293 1499h191l228 -707l464 707h196l-612 -903l-96 -596h-164l96 596z" />
<glyph unicode="Z" horiz-adv-x="1032" d="M47 0l17 164l936 1159h-676l32 176h887l-31 -191l-919 -1128h723l-33 -180h-936z" />
<glyph unicode="[" horiz-adv-x="469" d="M16 -436l324 1952h324l-21 -160h-174l-273 -1628h176l-32 -164h-324z" />
<glyph unicode="\" horiz-adv-x="469" d="M244 1499h96l129 -1532h-97z" />
<glyph unicode="]" horiz-adv-x="469" d="M-47 -436l31 164h164l288 1612h-176l33 159h319l-336 -1935h-323z" />
<glyph unicode="^" horiz-adv-x="792" d="M196 680l400 788h131l113 -788h-128l-84 612l-304 -612h-128z" />
<glyph unicode="_" d="M-96 -352l16 112h1016l-16 -112h-1016z" />
<glyph unicode="`" horiz-adv-x="563" d="M588 1988h192l113 -304h-113z" />
<glyph unicode="a" d="M112 228q18 176 109 258t228 107t227 40t100 63l29 140q0 55 -52.5 85.5t-128.5 30.5q-178 0 -237 -192h-143l32 96q23 78 77.5 136.5t133.5 89t177 30.5q122 0 205 -58t83 -165l-112 -693q0 -24 -4 -36q0 -24 10 -36t38 -16q14 4 36 4l-17 -145l-94 -14 q-54 0 -91.5 40.5t-37.5 118.5q-148 -159 -338 -159h-2q-97 0 -162.5 69.5t-65.5 205.5zM276 244q0 -124 132 -132q90 8 185 63t119 132l32 209q-52 -23 -161 -40t-160.5 -30.5t-96 -60t-50.5 -141.5z" />
<glyph unicode="b" d="M80 0l260 1499h160l-96 -547q56 68 124 106t168 38q148 0 224 -112t76 -288q0 -124 -37 -255t-104.5 -242.5t-159.5 -178.5q-91 -67 -195 -67q-76 0 -152 36.5t-120 122.5l-15 -112h-133zM307 391q4 -126 51.5 -202.5t141.5 -76.5q82 0 154.5 88t116.5 221t44 251 q-1 248 -187 248q-126 -6 -216 -152q-45 -79 -73 -178.5t-32 -198.5z" />
<glyph unicode="c" horiz-adv-x="835" d="M112 356q0 134 54.5 313t174 311t302.5 132q166 0 231.5 -95t65.5 -233q0 -16 -2 -40t-2 -32h-144v44q0 88 -31 138t-133 58q-95 0 -174 -85.5t-125 -216.5q-47 -130 -49 -254q3 -120 53.5 -193.5t150.5 -73.5q59 0 109 39.5t83.5 98t50.5 120.5h145q-20 -97 -69 -192 t-141 -165.5t-226 -76.5q-98 0 -171 44t-113 134.5t-40 224.5z" />
<glyph unicode="d" d="M121 408q8 98 8 108q14 98 51.5 201t98.5 194t146 146t187 55q107 0 166 -52t78 -108l96 547h144l-256 -1499h-128l15 112q-43 -70 -129.5 -116.5t-165.5 -46.5q-119 6 -188.5 79.5t-94.5 172.5t-28 207zM297 400q2 -118 47 -192.5t127 -78.5q88 0 163 81.5t118 207.5 q44 126 44 246q0 123 -50 197.5t-150 74.5q-92 -4 -160 -86.5t-103.5 -205t-35.5 -244.5z" />
<glyph unicode="e" d="M140 340q2 71 24 240q27 140 90.5 260t167.5 196t242 76q160 -6 234.5 -108.5t74.5 -268.5q0 -99 -37 -251h-629q-8 -43 -14 -144q3 -64 17 -112t52.5 -81t106.5 -35q221 0 275 228h159q-38 -174 -151 -280.5t-287 -106.5q-317 8 -325 387zM340 628h469q0 18 1 54t1 53 q0 111 -38.5 172t-144.5 61q-73 0 -136 -57t-102.5 -138t-49.5 -145z" />
<glyph unicode="f" horiz-adv-x="469" d="M148 0l159 920h-111l32 160h112l47 243q35 185 233 185q32 0 92 -9l-32 -143h-60q-40 0 -65 -19t-39 -77l-32 -180h144l-32 -160h-144l-159 -920h-145z" />
<glyph unicode="g" d="M41 -174q0 30 6 62h149q0 -18 -4 -32q3 -73 47 -116q43 -43 117 -43q100 0 163 50.5t95 121t45.5 139t20.5 104.5q-145 -168 -293 -168q-79 0 -143 51t-101 143t-39 210q6 95 25 184q48 229 160 399t307 181q74 0 123 -26.5t71 -56.5q22 -31 50 -77l16 128h144 q-14 -76 -39.5 -236.5t-45 -280t-45.5 -259.5q-27 -142 -61 -288q-66 -276 -184.5 -380.5t-276.5 -104.5q-73 0 -144.5 34.5t-117 102.5t-45.5 158zM268 385q3 -124 52 -198.5t149 -74.5q67 7 122 55t94 123t59 162.5t20 175.5q0 130 -46 211t-138 81q-82 -4 -153.5 -87.5 t-113.5 -206.5q-43 -124 -45 -241z" />
<glyph unicode="h" d="M100 0l240 1532h144l-84 -549q62 68 148 106.5t169 38.5q98 0 162.5 -55t64.5 -157q0 -16 -4 -48l-139 -868h-141l128 809q0 155 -147 155q-94 0 -179 -69q-86 -69 -106 -195l-116 -700h-140z" />
<glyph unicode="i" horiz-adv-x="372" d="M96 0l180 1080h144l-176 -1080h-148zM307 1292l33 224h144l-32 -224h-145z" />
<glyph unicode="j" horiz-adv-x="372" d="M-112 -452l16 163q86 0 125 33.5t51 126.5l196 1209h144l-192 -1224q-15 -110 -45 -177t-88.5 -100t-158.5 -33q-32 0 -48 2zM307 1292l49 224h144l-48 -224h-145z" />
<glyph unicode="k" horiz-adv-x="835" d="M80 0l244 1516h145l-129 -873l436 437h192l-372 -384l244 -696h-176l-195 563l-162 -159l-63 -404h-164z" />
<glyph unicode="l" horiz-adv-x="372" d="M112 0l244 1516h144l-240 -1516h-148z" />
<glyph unicode="m" horiz-adv-x="1405" d="M112 0l164 1080h144l-16 -112q102 160 304 160q59 0 116 -38t65 -138q29 72 119 124t184 52q213 0 213 -256l-129 -872h-148l115 792q0 72 -36.5 114t-98.5 42q-73 0 -140.5 -64t-95.5 -188l-112 -696h-148l115 776q0 172 -127 172q-50 0 -100 -28t-88 -83t-48 -129 l-104 -708h-148z" />
<glyph unicode="n" d="M96 0l197 1080h143l-16 -112q40 70 127 111t178 41q99 0 165 -52t66 -150q0 -12 -4 -46l-143 -872h-145l128 744q4 36 4 48q0 80 -37 120t-99 40q-54 0 -115 -35t-109 -101t-64 -152l-128 -664h-148z" />
<glyph unicode="o" d="M129 387q3 166 65 334.5t183 279.5t287 111q300 -10 300 -395q0 -22 -2 -56t-4 -61.5t-6 -67.5q-21 -124 -72.5 -254t-155.5 -228.5t-259 -98.5q-29 0 -45 2q-74 7 -141 59.5t-108.5 149t-41.5 225.5zM284 396q4 -116 49 -189.5t136 -77.5q97 0 174 80.5t119.5 203.5 t42.5 243q0 124 -44.5 202t-132.5 78q-228 0 -321 -373q-17 -83 -23 -167z" />
<glyph unicode="p" d="M0 -452l260 1532h127l-15 -112q144 144 308 144q102 -2 170 -58t100.5 -150t32.5 -212q0 -171 -64.5 -343.5t-182.5 -284t-267 -111.5q-64 0 -133 45q-68 46 -92 114l-96 -564h-148zM303 416q3 -120 48 -194t133 -74q95 0 167 78t111 200t39 242q0 127 -43.5 205.5 t-129.5 78.5q-95 -8 -168.5 -91t-113.5 -205q-40 -120 -43 -240z" />
<glyph unicode="q" d="M106 391q0 51 6 109q41 272 173.5 450t342.5 178q178 -18 228 -160l16 112h144l-256 -1516h-148l84 548q-48 -64 -127 -104.5t-161 -40.5t-151 43.5t-110 138.5t-41 242zM276 432q0 -266 189 -272q56 0 114 39t103.5 107t65.5 150q32 134 32 248q0 248 -184 248 q-81 0 -152.5 -79.5t-116.5 -202t-51 -238.5z" />
<glyph unicode="r" horiz-adv-x="563" d="M129 0l178 1080h145l-20 -132q144 180 312 180l-32 -192q-71 0 -143.5 -35t-126.5 -108t-70 -181l-96 -612h-147z" />
<glyph unicode="s" horiz-adv-x="835" d="M100 236q2 23 6 54.5t6 49.5h132q0 -109 58 -166.5t146 -61.5q90 3 159 62.5t69 149.5q0 48 -32 74t-81 40t-84 23q-103 34 -162.5 65.5t-89 77.5t-31.5 117q8 47 9 71q11 98 70 171t149 111q88 38 188 38q264 0 264 -264q0 -12 -2 -37t-2 -35h-145q4 25 4 33 q0 62 -46 97q-45 34 -117 34q-76 0 -143 -43t-73 -117q8 -98 148 -137q60 -18 126 -38.5t108 -45.5t68 -70t26 -117q0 -107 -51 -200.5t-141 -152.5t-200 -66q-330 1 -336 283z" />
<glyph unicode="t" horiz-adv-x="469" d="M168 104q10 62 12 76l127 723h-127l33 177h127l47 292h145l-48 -292h144l-32 -177h-144l-116 -643q-4 -34 -12 -100q0 -42 44 -48q60 11 84 17l-16 -145q-4 -7 -37 -16t-75 -9h-2q-148 0 -154 145z" />
<glyph unicode="u" d="M156 215q2 16 3.5 43t4.5 49l129 773h143l-129 -708q-6 -42 -6 -75q0 -164 127 -168q62 0 129 38.5t116 104.5t62 144l121 664h144l-191 -1080h-145l16 96q-48 -58 -134 -97.5t-169 -39.5q-96 0 -157.5 62.5t-63.5 193.5z" />
<glyph unicode="v" horiz-adv-x="835" d="M196 1080h176l64 -867l404 867h176l-532 -1080h-160z" />
<glyph unicode="w" horiz-adv-x="1212" d="M196 1080h160l16 -820l324 820h176l17 -820l323 820h160l-452 -1080h-160l-33 792l-307 -792h-176z" />
<glyph unicode="x" horiz-adv-x="835" d="M16 0l404 549l-207 531h174l145 -384l292 384h159l-403 -531l212 -549h-180l-143 387l-289 -387h-164z" />
<glyph unicode="y" horiz-adv-x="835" d="M0 -436l33 180q33 -20 79 -20q42 0 74 25.5t53 64t37.5 85t30.5 85.5l-94 1096h159l80 -804l372 804h159l-631 -1344q-88 -188 -244 -188q-44 0 -108 16z" />
<glyph unicode="z" horiz-adv-x="835" d="M64 0l16 148l647 755h-467l16 177h660l-16 -144l-627 -756h516l-33 -180h-712z" />
<glyph unicode="{" horiz-adv-x="563" d="M148 469l32 143q56 0 105 56t71 188l64 404q38 227 188 239l119 17l-15 -144q-29 -5 -56.5 -10.5t-46.5 -19.5t-33.5 -47.5t-26.5 -98.5l-49 -293q-16 -114 -62 -221q-46 -108 -131 -150q46 -46 65 -89t19 -107q0 -12 -2 -36t-2 -40l-80 -452q0 -14 -8 -40 q3 -36 28 -46.5t93 -10.5l-33 -147l-111 16q-97 10 -104 168q2 16 4 47t4 45l64 420q0 10 2 27t2 29q0 119 -100 153z" />
<glyph unicode="|" horiz-adv-x="436" d="M80 -452l340 1951h112l-336 -1951h-116z" />
<glyph unicode="}" horiz-adv-x="563" d="M-33 -420l33 148h47q45 0 73 26t40 106l68 412q18 97 65 169.5t111 107.5q-91 70 -97 186q9 47 9 61l71 416q13 82 13 92q0 62 -36 68l-71 16l31 144l96 -16q116 -16 116 -180q0 -10 -2 -31t-2 -29l-63 -436q0 -22 -8 -72q6 -124 88 -156l-17 -143q0 -3 -19 -6t-42 -16 t-50 -54t-49 -117l-79 -436q-44 -268 -246 -268q-22 0 -80 8z" />
<glyph unicode="~" horiz-adv-x="983" d="M223 600q0 76 24.5 146t70 113.5t106.5 43.5q78 1 156 -63l164 -128q24 -17 52 -24q46 3 76.5 56.5t30.5 111.5h97q0 -67 -26 -140.5t-75 -123.5t-115 -52q-80 8 -141 60l-159 127q-40 37 -80 37q-42 0 -63 -52t-21 -112h-97z" />
<glyph unicode="&#xa1;" horiz-adv-x="563" d="M112 -436l101 584l143 579h80l-64 -547l-112 -616h-148zM340 856l32 209h144l-32 -209h-144z" />
<glyph unicode="&#xa2;" d="M148 344q4 92 32 236q56 214 154 328.5t194 151.5q96 36 180 36h52l76 180h80l-84 -201q88 -36 121.5 -107.5t33.5 -179.5q0 -14 -2 -45t-2 -47h-143v48q0 160 -68 180l-328 -789q14 -4 30 -5.5t38 -4.5q100 3 182 74t98 188h132q-12 -132 -75.5 -229.5t-161.5 -148 t-212 -50.5q-41 0 -103 8l-79 -207h-84l98 240q-153 90 -159 344zM312 372q6 -146 69 -192l319 768q-90 0 -163.5 -52t-122 -134t-70.5 -174q-26 -116 -32 -216z" />
<glyph unicode="&#xa3;" d="M64 96q292 232 292 432q0 56 -16 100h-192l32 132h127q-35 72 -43 192q2 94 33.5 186t91.5 167t146 119t192 44q182 0 256 -94t74 -250q-1 -46 -9 -141h-145q5 37 5 105q0 112 -45 158t-151 46q-64 0 -126 -43.5t-103 -121t-43 -175.5q8 -102 44 -192h276l-16 -132h-244 q4 -16 4 -60q0 -92 -61 -207t-183 -232q110 71 201 71q52 0 140 -28t120 -32q84 4 168 56l31 -132q0 -10 -35.5 -43t-86 -59t-102.5 -26q-40 0 -79 12.5t-97 37t-103 38t-93 13.5q-94 0 -195 -70z" />
<glyph unicode="&#xa4;" d="M180 387l88 105q-18 52 -24 124q4 84 34 167t70 129l-72 120l128 113l75 -109q72 44 158 44q85 0 159 -52l124 117l80 -129l-111 -113q10 -48 10 -131q0 -168 -88 -280l78 -105l-129 -111l-72 96q-88 -56 -188 -60q-94 6 -152 60l-88 -112zM396 643q3 -70 37 -114.5 t99 -44.5q66 4 114 42t73 96t25 118q0 78 -35 129t-97 51q-60 0 -109.5 -41t-77 -105.5t-29.5 -130.5z" />
<glyph unicode="&#xa5;" d="M164 356l16 113h289l31 143h-287l15 115h256l-224 725h127l209 -676l436 676h127l-463 -725h256l-16 -115h-308l-32 -143h307l-14 -113h-309l-64 -356h-129l65 356h-288z" />
<glyph unicode="&#xa6;" horiz-adv-x="555" d="M80 -452l340 1951h112l-336 -1951h-116z" />
<glyph unicode="&#xa7;" d="M88 -152q6 66 24 136h144q-4 -31 -12 -72q4 -86 46 -137t114 -51q72 10 118 66t46 134q0 84 -48 144.5t-150 150t-154 164t-56 180.5q0 89 31 169.5t90.5 143t138.5 92.5q-56 78 -64 187q2 94 55 173.5t140 125t189 45.5q108 -5 177.5 -68t69.5 -194q-1 -73 -19 -157 h-149q13 54 13 96q0 81 -38 120q-40 40 -86 44q-63 0 -120 -44q-56 -42 -60 -116q8 -130 197 -260q114 -81 166.5 -182.5t52.5 -209.5q0 -89 -35 -170.5t-94 -138.5t-123 -75q52 -61 52 -181q0 -98 -41 -190.5t-126 -151.5t-209 -59q-32 0 -48 2q-56 4 -108.5 37t-87 96 t-36.5 151zM324 643q7 -112 112 -223l192 -197q36 18 70 55.5t56 88.5t22 104q0 78 -44.5 149.5t-115.5 140.5q-70 69 -132 128q-156 -107 -160 -246z" />
<glyph unicode="&#xa8;" horiz-adv-x="563" d="M260 1243l33 209h143l-32 -209h-144zM549 1243l31 209h164l-32 -209h-163z" />
<glyph unicode="&#xa9;" horiz-adv-x="1239" d="M88 616q8 100 8 128q14 139 73.5 276.5t161 249.5t239.5 179t302 67q154 0 277.5 -72t193.5 -209t70 -325q0 -70 -8 -134q-20 -157 -83.5 -301t-167.5 -258.5t-243.5 -179.5t-306.5 -65q-198 6 -313 103t-158 239q-43 140 -45 302zM180 624q0 -242 110 -401t353 -159 q146 2 272 74t217.5 193t140 264t48.5 281q0 110 -28.5 208.5t-87.5 174.5t-146 118.5t-203 42.5q-174 -9 -321 -99.5t-240.5 -249.5t-110.5 -359q-4 -64 -4 -88zM404 652q2 30 12 116q17 86 65 186t138.5 177t220.5 81q95 0 152 -40.5t80.5 -100.5t23.5 -123v-45h-96 q0 81 -31 137t-145 56q-86 0 -157 -68t-112 -173t-43 -212q3 -110 53.5 -181t146.5 -71q85 0 152.5 52.5t87.5 152.5h96q-18 -108 -100 -206q-84 -97 -252 -97q-146 0 -218 103q-70 104 -74 256z" />
<glyph unicode="&#xaa;" horiz-adv-x="612" d="M180 628l16 116h468l-21 -116h-463zM223 1004q8 108 55 155t122.5 60.5t139.5 25t88 47.5l15 80q0 35 -24.5 53.5t-65.5 18.5q-54 0 -101.5 -30t-64.5 -91h-80q46 225 256 225q80 0 130.5 -40t50.5 -120l-64 -356q0 -18 -8 -68q0 -32 24 -36q6 2 16 4t15 4l-15 -80 l-69 -16q-42 0 -51 14q-10 14 -29 66q-26 -33 -83.5 -59.5t-115.5 -28.5q-142 8 -141 172zM324 1016q0 -94 76 -100q48 2 97.5 34.5t82.5 91.5q32 60 32 134q-28 -12 -111 -23.5t-127 -39t-50 -97.5z" />
<glyph unicode="&#xab;" d="M244 484l32 180l304 239l-31 -176l-193 -164l144 -159l-31 -176zM580 484l32 180l308 239l-31 -176l-193 -164l144 -159l-31 -176z" />
<glyph unicode="&#xac;" horiz-adv-x="983" d="M164 563l32 164h852l-112 -563h-127l80 399h-725z" />
<glyph unicode="&#xad;" horiz-adv-x="563" d="M148 484l32 159h416l-33 -159h-415z" />
<glyph unicode="&#xae;" horiz-adv-x="1239" d="M88 616q8 100 8 128q14 139 73.5 276.5t161 249.5t239.5 179t302 67q154 0 277.5 -72t193.5 -209t70 -325q0 -70 -8 -134q-20 -157 -83.5 -301t-167.5 -258.5t-243.5 -179.5t-306.5 -65q-198 6 -313 103t-158 239q-43 140 -45 302zM180 624q0 -242 110 -401t353 -159 q146 2 272 74t217.5 193t140 264t48.5 281q0 110 -28.5 208.5t-87.5 174.5t-146 118.5t-203 42.5q-174 -9 -321 -99.5t-240.5 -249.5t-110.5 -359q-4 -64 -4 -88zM436 293l144 903h356q99 0 149.5 -55t50.5 -141q0 -72 -35 -142.5t-100 -116t-145 -45.5l144 -403h-97 l-143 403h-164l-64 -403h-96zM612 792h212q66 0 113 26t71 67t24 83q0 54 -32.5 89t-96.5 39h-239z" />
<glyph unicode="&#xb4;" horiz-adv-x="563" d="M372 1229l208 303h196l-292 -303h-112z" />
<glyph unicode="&#xb6;" horiz-adv-x="903" d="M232 899q7 115 28 197q40 138 112 232t178 141t242 47h353l-33 -144h-96l-304 -1740h-116l307 1740h-127l-307 -1740h-113l160 900q-89 6 -152.5 55t-96.5 130t-35 182z" />
<glyph unicode="&#xb7;" horiz-adv-x="579" d="M276 764q3 61 46.5 108.5t113.5 47.5q72 -6 72 -88q0 -60 -40.5 -114t-95.5 -54q-88 6 -96 100z" />
<glyph unicode="&#xb8;" horiz-adv-x="563" d="M0 -336l64 80q86 -84 159 -84q43 0 74 29t31 71q0 58 -52 64q-30 -8 -48 -16l-15 16l80 176h63l-32 -96q6 0 32 8q51 0 80 -38t29 -93q0 -60 -34 -113.5t-90.5 -84.5t-117.5 -31q-128 0 -223 112z" />
<glyph unicode="&#xba;" horiz-adv-x="612" d="M213 628l15 132h452l-16 -132h-451zM276 1096q21 182 93.5 317t226.5 135q96 0 146 -75t50 -193q0 -72 -20 -148.5t-61 -143t-106 -107.5t-149 -41q-86 6 -131 77t-49 179zM377 1108q7 -156 111 -156t150 104.5t46 223.5q0 156 -121 156q-69 0 -116 -74t-62 -178 q0 -26 -8 -76z" />
<glyph unicode="&#xbb;" d="M196 213l32 174l208 162l-143 163l14 177l225 -246l-32 -191zM532 213l31 174l213 162l-148 163l15 177l229 -246l-32 -191z" />
<glyph unicode="&#xbf;" horiz-adv-x="1032" d="M140 -112q2 14 4 40.5t4 38.5q12 104 59 179.5t139 163.5t132 134q38 47 54 119l17 133h163l-16 -147q-6 -57 -42 -112t-98.5 -116.5t-105.5 -103t-63 -69.5q-78 -116 -84 -232q3 -74 41 -120t108 -52q67 0 131.5 32.5t108.5 104t52 183.5h145q0 -108 -45.5 -220 t-147.5 -188t-260 -76q-93 0 -159.5 39t-100.5 109t-36 160zM580 856l32 224h164l-32 -224h-164z" />
<glyph unicode="&#xc0;" horiz-adv-x="1112" d="M0 0l712 1499h191l193 -1499h-176l-64 452h-469l-191 -452h-196zM469 612h371l-64 664zM648 1900h192l113 -304h-113z" />
<glyph unicode="&#xc1;" horiz-adv-x="1112" d="M0 0l712 1499h191l193 -1499h-176l-64 452h-469l-191 -452h-196zM469 612h371l-64 664zM675 1601l208 303h196l-292 -303h-112z" />
<glyph unicode="&#xc2;" horiz-adv-x="1112" d="M0 0l712 1499h191l193 -1499h-176l-64 452h-469l-191 -452h-196zM469 612h371l-64 664zM596 1597l225 320h159l116 -320h-116l-112 193l-160 -193h-112z" />
<glyph unicode="&#xc3;" horiz-adv-x="1112" d="M0 0l712 1499h191l193 -1499h-176l-64 452h-469l-191 -452h-196zM469 612h371l-64 664zM565 1608q24 96 71.5 164t123.5 68q37 0 53 -4l102 -35q10 -3 22.5 -5t18.5 -4q72 5 108 93h80q-31 -110 -73.5 -174.5t-122.5 -67.5q-18 5 -60 13l-96 32q-38 8 -55 8 q-44 0 -63.5 -23t-28.5 -65h-80z" />
<glyph unicode="&#xc4;" horiz-adv-x="1112" d="M0 0l712 1499h191l193 -1499h-176l-64 452h-469l-191 -452h-196zM469 612h371l-64 664zM616 1647l33 209h143l-32 -209h-144zM905 1647l31 209h164l-32 -209h-163z" />
<glyph unicode="&#xc5;" horiz-adv-x="1112" d="M0 0l712 1499h191l193 -1499h-176l-64 452h-469l-191 -452h-196zM469 612h371l-64 664zM688 1669q26 104 61 157.5t127 53.5q62 0 93 -37t31 -103q0 -85 -48 -150q-48 -66 -132 -66q-124 0 -132 145zM760 1684q3 -36 22.5 -58t49.5 -22q46 3 73 38q27 34 27 82 q0 76 -68 76q-38 0 -56 -16t-33 -58z" />
<glyph unicode="&#xc6;" horiz-adv-x="1675" d="M0 0l760 1485h1065l-33 -177h-633l-79 -468h596l-32 -176h-596l-80 -484h644l-33 -180h-803l64 436h-436l-224 -436h-180zM500 612h372l128 696h-160z" />
<glyph unicode="&#xc7;" horiz-adv-x="1212" d="M176 520q10 173 48 339.5t117.5 313.5t208 241t306.5 102q160 0 257.5 -70t138 -179t40.5 -235h-180q-15 136 -73.5 222t-198.5 86q-142 -2 -252.5 -118t-171.5 -294q-62 -178 -64 -356q8 -102 16 -156q58 -268 296 -268q88 2 173 67t147 162.5t81 185.5h164 q-61 -223 -196 -388.5t-361 -207.5l-25 -63q6 0 33 8q51 0 79.5 -38t28.5 -93q0 -60 -34 -113.5t-89.5 -84.5t-115.5 -31q-131 0 -225 112l63 80q86 -84 162 -84q44 0 73.5 30t29.5 74q0 54 -52 60q-6 -2 -16.5 -5t-16 -5t-14.5 -6l-17 16l64 143q-416 32 -424 553z" />
<glyph unicode="&#xc8;" horiz-adv-x="1112" d="M148 0l272 1499h856l-33 -176h-694l-80 -467h659l-32 -176h-660l-96 -516h725l-33 -164h-884zM680 1920h192l113 -304h-113z" />
<glyph unicode="&#xc9;" horiz-adv-x="1112" d="M148 0l272 1499h856l-33 -176h-694l-80 -467h659l-32 -176h-660l-96 -516h725l-33 -164h-884zM740 1614l208 303h196l-292 -303h-112z" />
<glyph unicode="&#xca;" horiz-adv-x="1112" d="M148 0l272 1499h856l-33 -176h-694l-80 -467h659l-32 -176h-660l-96 -516h725l-33 -164h-884zM629 1616l225 320h159l116 -320h-116l-112 193l-160 -193h-112z" />
<glyph unicode="&#xcb;" horiz-adv-x="1112" d="M148 0l272 1499h856l-33 -176h-694l-80 -467h659l-32 -176h-660l-96 -516h725l-33 -164h-884zM664 1647l33 209h143l-32 -209h-144zM953 1647l31 209h164l-32 -209h-163z" />
<glyph unicode="&#xcc;" horiz-adv-x="469" d="M148 0l256 1499h176l-256 -1499h-176zM320 1916h192l113 -304h-113z" />
<glyph unicode="&#xcd;" horiz-adv-x="469" d="M148 0l256 1499h176l-256 -1499h-176zM372 1616l208 303h196l-292 -303h-112z" />
<glyph unicode="&#xce;" horiz-adv-x="469" d="M148 0l256 1499h176l-256 -1499h-176zM277 1612l225 320h159l116 -320h-116l-112 193l-160 -193h-112z" />
<glyph unicode="&#xcf;" horiz-adv-x="469" d="M148 0l256 1499h176l-256 -1499h-176zM293 1651l33 209h143l-32 -209h-144zM582 1651l31 209h164l-32 -209h-163z" />
<glyph unicode="&#xd1;" horiz-adv-x="1212" d="M112 0l260 1499h191l405 -1206l208 1206h164l-275 -1499h-176l-405 1176l-208 -1176h-164zM621 1628q24 96 71.5 164t123.5 68q37 0 53 -4l102 -35q10 -3 22.5 -5t18.5 -4q72 5 108 93h80q-31 -110 -73.5 -174.5t-122.5 -67.5q-18 5 -60 13l-96 32q-38 8 -55 8 q-44 0 -63.5 -23t-28.5 -65h-80z" />
<glyph unicode="&#xd2;" horiz-adv-x="1308" d="M160 536q10 154 16 204q19 148 74.5 283t149.5 243.5t230 172.5t310 64q112 -3 199 -46t144 -119t85 -179t28 -223q0 -163 -46 -335.5t-140 -320.5t-236 -237.5t-322 -89.5q-136 2 -231 48.5t-152 127.5t-82 182t-27 225zM332 563q3 -200 84.5 -312.5t247.5 -119.5 q130 0 240.5 77.5t186.5 206.5t109 273q24 108 24 224t-32.5 208t-109 146.5t-198.5 54.5q-132 0 -247 -74.5t-193 -211t-100 -310.5q-2 -26 -4 -53.5t-4 -54.5zM744 1932h192l113 -304h-113z" />
<glyph unicode="&#xd3;" horiz-adv-x="1308" d="M160 536q10 154 16 204q19 148 74.5 283t149.5 243.5t230 172.5t310 64q112 -3 199 -46t144 -119t85 -179t28 -223q0 -163 -46 -335.5t-140 -320.5t-236 -237.5t-322 -89.5q-136 2 -231 48.5t-152 127.5t-82 182t-27 225zM332 563q3 -200 84.5 -312.5t247.5 -119.5 q130 0 240.5 77.5t186.5 206.5t109 273q24 108 24 224t-32.5 208t-109 146.5t-198.5 54.5q-132 0 -247 -74.5t-193 -211t-100 -310.5q-2 -26 -4 -53.5t-4 -54.5zM788 1649l208 303h196l-292 -303h-112z" />
<glyph unicode="&#xd4;" horiz-adv-x="1308" d="M160 536q10 154 16 204q19 148 74.5 283t149.5 243.5t230 172.5t310 64q112 -3 199 -46t144 -119t85 -179t28 -223q0 -163 -46 -335.5t-140 -320.5t-236 -237.5t-322 -89.5q-136 2 -231 48.5t-152 127.5t-82 182t-27 225zM332 563q3 -200 84.5 -312.5t247.5 -119.5 q130 0 240.5 77.5t186.5 206.5t109 273q24 108 24 224t-32.5 208t-109 146.5t-198.5 54.5q-132 0 -247 -74.5t-193 -211t-100 -310.5q-2 -26 -4 -53.5t-4 -54.5zM680 1648l225 320h159l116 -320h-116l-112 193l-160 -193h-112z" />
<glyph unicode="&#xd5;" horiz-adv-x="1308" d="M160 536q10 154 16 204q19 148 74.5 283t149.5 243.5t230 172.5t310 64q112 -3 199 -46t144 -119t85 -179t28 -223q0 -163 -46 -335.5t-140 -320.5t-236 -237.5t-322 -89.5q-136 2 -231 48.5t-152 127.5t-82 182t-27 225zM332 563q3 -200 84.5 -312.5t247.5 -119.5 q130 0 240.5 77.5t186.5 206.5t109 273q24 108 24 224t-32.5 208t-109 146.5t-198.5 54.5q-132 0 -247 -74.5t-193 -211t-100 -310.5q-2 -26 -4 -53.5t-4 -54.5zM653 1632q24 96 71.5 164t123.5 68q37 0 53 -4l102 -35q10 -3 22.5 -5t18.5 -4q72 5 108 93h80 q-31 -110 -73.5 -174.5t-122.5 -67.5q-18 5 -60 13l-96 32q-38 8 -55 8q-44 0 -63.5 -23t-28.5 -65h-80z" />
<glyph unicode="&#xd6;" horiz-adv-x="1308" d="M160 536q10 154 16 204q19 148 74.5 283t149.5 243.5t230 172.5t310 64q112 -3 199 -46t144 -119t85 -179t28 -223q0 -163 -46 -335.5t-140 -320.5t-236 -237.5t-322 -89.5q-136 2 -231 48.5t-152 127.5t-82 182t-27 225zM332 563q3 -200 84.5 -312.5t247.5 -119.5 q130 0 240.5 77.5t186.5 206.5t109 273q24 108 24 224t-32.5 208t-109 146.5t-198.5 54.5q-132 0 -247 -74.5t-193 -211t-100 -310.5q-2 -26 -4 -53.5t-4 -54.5zM708 1615l33 209h143l-32 -209h-144zM997 1615l31 209h164l-32 -209h-163z" />
<glyph unicode="&#xd8;" horiz-adv-x="1308" d="M47 37l172 182q-51 128 -59 330q9 143 16 203q24 200 116.5 377.5t257 288t390.5 110.5q210 -6 324 -148l141 152l47 -64l-139 -151q79 -140 79 -369q0 -165 -45.5 -338.5t-139 -323.5t-233.5 -242q-140 -91 -322 -91q-268 9 -392 195l-160 -176zM332 596q4 -94 28 -215 l776 858q-84 105 -252 105q-130 0 -246 -76t-193.5 -215.5t-100.5 -317.5q-2 -24 -6 -69.5t-6 -69.5zM391 297q93 -156 273 -162q131 0 241 79t186 209.5t109 276.5q24 106 24 224q0 156 -44 248z" />
<glyph unicode="&#xd9;" horiz-adv-x="1212" d="M200 328q2 9 6 39.5t7 52.5l191 1079h159l-186 -1038q-3 -18 -5 -39.5t-4 -34.5q3 -114 72.5 -172.5t187.5 -58.5q301 0 355 288l197 1055h156l-200 -1079q-52 -288 -204 -379.5t-332 -91.5q-134 0 -223 51.5t-131 137.5q-44 86 -46 190zM696 1951h192l113 -304h-113z " />
<glyph unicode="&#xda;" horiz-adv-x="1212" d="M200 328q2 9 6 39.5t7 52.5l191 1079h159l-186 -1038q-3 -18 -5 -39.5t-4 -34.5q3 -114 72.5 -172.5t187.5 -58.5q301 0 355 288l197 1055h156l-200 -1079q-52 -288 -204 -379.5t-332 -91.5q-134 0 -223 51.5t-131 137.5q-44 86 -46 190zM744 1616l208 303h196l-292 -303 h-112z" />
<glyph unicode="&#xdb;" horiz-adv-x="1212" d="M200 328q2 9 6 39.5t7 52.5l191 1079h159l-186 -1038q-3 -18 -5 -39.5t-4 -34.5q3 -114 72.5 -172.5t187.5 -58.5q301 0 355 288l197 1055h156l-200 -1079q-52 -288 -204 -379.5t-332 -91.5q-134 0 -223 51.5t-131 137.5q-44 86 -46 190zM616 1599l225 320h159l116 -320 h-116l-112 193l-160 -193h-112z" />
<glyph unicode="&#xdc;" horiz-adv-x="1212" d="M200 328q2 9 6 39.5t7 52.5l191 1079h159l-186 -1038q-3 -18 -5 -39.5t-4 -34.5q3 -114 72.5 -172.5t187.5 -58.5q301 0 355 288l197 1055h156l-200 -1079q-52 -288 -204 -379.5t-332 -91.5q-134 0 -223 51.5t-131 137.5q-44 86 -46 190zM664 1579l33 209h143l-32 -209 h-144zM953 1579l31 209h164l-32 -209h-163z" />
<glyph unicode="&#xdd;" horiz-adv-x="1112" d="M293 1499h191l228 -707l464 707h196l-612 -903l-96 -596h-164l96 596zM675 1597l208 303h196l-292 -303h-112z" />
<glyph unicode="&#xdf;" horiz-adv-x="1032" d="M196 0l208 1145q19 108 80.5 186.5t147 118t173.5 39.5q130 0 214.5 -84.5t84.5 -251.5q-8 -94 -54 -184.5t-147 -144.5q81 -40 121.5 -122.5t40.5 -189.5q0 -136 -60.5 -265t-170.5 -209.5t-250 -80.5q-64 0 -100 10l32 162q19 0 47 -8q95 4 169 62.5t113 148t39 180.5 q0 200 -256 200l15 177l4 -5q276 24 289 275q0 74 -40 116t-108 42q-88 0 -164 -73.5t-92 -211.5l-176 -1032h-160z" />
<glyph unicode="&#xe0;" d="M112 228q18 176 109 258t228 107t227 40t100 63l29 140q0 55 -52.5 85.5t-128.5 30.5q-178 0 -237 -192h-143l32 96q23 78 77.5 136.5t133.5 89t177 30.5q122 0 205 -58t83 -165l-112 -693q0 -24 -4 -36q0 -24 10 -36t38 -16q14 4 36 4l-17 -145l-94 -14 q-54 0 -91.5 40.5t-37.5 118.5q-149 -160 -340 -159q-97 0 -162.5 69.5t-65.5 205.5zM276 244q0 -124 132 -132q90 8 185 63t119 132l32 209q-52 -23 -161 -40t-160.5 -30.5t-96 -60t-50.5 -141.5zM467 1513h192l113 -304h-113z" />
<glyph unicode="&#xe1;" d="M112 228q18 176 109 258t228 107t227 40t100 63l29 140q0 55 -52.5 85.5t-128.5 30.5q-178 0 -237 -192h-143l32 96q23 78 77.5 136.5t133.5 89t177 30.5q122 0 205 -58t83 -165l-112 -693q0 -24 -4 -36q0 -24 10 -36t38 -16q14 4 36 4l-17 -145l-94 -14 q-54 0 -91.5 40.5t-37.5 118.5q-149 -160 -340 -159q-97 0 -162.5 69.5t-65.5 205.5zM276 244q0 -124 132 -132q90 8 185 63t119 132l32 209q-52 -23 -161 -40t-160.5 -30.5t-96 -60t-50.5 -141.5zM548 1209l208 303h196l-292 -303h-112z" />
<glyph unicode="&#xe2;" d="M112 228q18 176 109 258t228 107t227 40t100 63l29 140q0 55 -52.5 85.5t-128.5 30.5q-178 0 -237 -192h-143l32 96q23 78 77.5 136.5t133.5 89t177 30.5q122 0 205 -58t83 -165l-112 -693q0 -24 -4 -36q0 -24 10 -36t38 -16q14 4 36 4l-17 -145l-94 -14 q-54 0 -91.5 40.5t-37.5 118.5q-149 -160 -340 -159q-97 0 -162.5 69.5t-65.5 205.5zM276 244q0 -124 132 -132q90 8 185 63t119 132l32 209q-52 -23 -161 -40t-160.5 -30.5t-96 -60t-50.5 -141.5zM424 1212l225 320h159l116 -320h-116l-112 193l-160 -193h-112z" />
<glyph unicode="&#xe3;" d="M112 228q18 176 109 258t228 107t227 40t100 63l29 140q0 55 -52.5 85.5t-128.5 30.5q-178 0 -237 -192h-143l32 96q23 78 77.5 136.5t133.5 89t177 30.5q122 0 205 -58t83 -165l-112 -693q0 -24 -4 -36q0 -24 10 -36t38 -16q14 4 36 4l-17 -145l-94 -14 q-54 0 -91.5 40.5t-37.5 118.5q-149 -160 -340 -159q-97 0 -162.5 69.5t-65.5 205.5zM276 244q0 -124 132 -132q90 8 185 63t119 132l32 209q-52 -23 -161 -40t-160.5 -30.5t-96 -60t-50.5 -141.5zM413 1208q24 96 71.5 164t123.5 68q37 0 53 -4l102 -35q10 -3 22.5 -5 t18.5 -4q72 5 108 93h80q-31 -110 -73.5 -174.5t-122.5 -67.5q-18 5 -60 13l-96 32q-38 8 -55 8q-44 0 -63.5 -23t-28.5 -65h-80z" />
<glyph unicode="&#xe4;" d="M112 228q18 176 109 258t228 107t227 40t100 63l29 140q0 55 -52.5 85.5t-128.5 30.5q-178 0 -237 -192h-143l32 96q23 78 77.5 136.5t133.5 89t177 30.5q122 0 205 -58t83 -165l-112 -693q0 -24 -4 -36q0 -24 10 -36t38 -16q14 4 36 4l-17 -145l-94 -14 q-54 0 -91.5 40.5t-37.5 118.5q-149 -160 -340 -159q-97 0 -162.5 69.5t-65.5 205.5zM276 244q0 -124 132 -132q90 8 185 63t119 132l32 209q-52 -23 -161 -40t-160.5 -30.5t-96 -60t-50.5 -141.5zM456 1247l33 209h143l-32 -209h-144zM745 1247l31 209h164l-32 -209h-163z " />
<glyph unicode="&#xe5;" d="M112 228q18 176 109 258t228 107t227 40t100 63l29 140q0 55 -52.5 85.5t-128.5 30.5q-178 0 -237 -192h-143l32 96q23 78 77.5 136.5t133.5 89t177 30.5q122 0 205 -58t83 -165l-112 -693q0 -24 -4 -36q0 -24 10 -36t38 -16q14 4 36 4l-17 -145l-94 -14 q-54 0 -91.5 40.5t-37.5 118.5q-149 -160 -340 -159q-97 0 -162.5 69.5t-65.5 205.5zM276 244q0 -124 132 -132q90 8 185 63t119 132l32 209q-52 -23 -161 -40t-160.5 -30.5t-96 -60t-50.5 -141.5zM528 1301q26 104 61 157.5t127 53.5q62 0 93 -37t31 -103q0 -85 -48 -150 q-48 -66 -132 -66q-124 0 -132 145zM600 1316q3 -36 22.5 -58t49.5 -22q46 3 73 38q27 34 27 82q0 76 -68 76q-38 0 -56 -16t-33 -58z" />
<glyph unicode="&#xe6;" horiz-adv-x="1499" d="M84 240q6 112 61 206t161 153t257 65q91 0 152 40t61 120q0 144 -148 144q-248 0 -272 -208h-143q59 368 451 368q190 0 225 -176q127 176 323 176q167 0 237.5 -117.5t70.5 -289.5q0 -131 -31 -252h-633q0 -49 -4 -78q6 -279 180 -279q126 0 198 85t93 159h145 q-50 -180 -172 -291.5t-296 -111.5q-104 0 -177 61.5t-111 165.5q-150 -223 -396 -223q-109 0 -170.5 78.5t-61.5 204.5zM260 260q0 -142 127 -148q61 2 127 33.5t112 84t54 110.5l32 209q-44 -29 -157 -50t-155 -32t-88 -59t-52 -148zM889 628h479q8 74 8 107 q0 233 -200 233q-130 0 -201.5 -107t-85.5 -233z" />
<glyph unicode="&#xe7;" horiz-adv-x="835" d="M112 356q0 134 54.5 313t174 311t302.5 132q166 0 231.5 -95t65.5 -233q0 -16 -2 -40t-2 -32h-144v44q0 88 -31 138t-133 58q-95 0 -174 -85.5t-125 -216.5q-47 -130 -49 -254q3 -120 53.5 -193.5t150.5 -73.5q59 0 109 39.5t83.5 98t50.5 120.5h145q-33 -152 -126 -278 t-267 -152l-10 -45q7 0 31 8q52 0 80 -38.5t28 -94.5q0 -58 -34.5 -111.5t-91 -84.5t-118.5 -31q-126 0 -220 108l65 84q83 -84 159 -84q42 0 72.5 29t30.5 71q1 58 -55 64q-34 -12 -44 -16l-20 16l60 121q-92 6 -159 51.5t-104 134.5t-37 217z" />
<glyph unicode="&#xe8;" d="M140 340q2 71 24 240q27 140 90.5 260t167.5 196t242 76q160 -6 234.5 -108.5t74.5 -268.5q0 -99 -37 -251h-629q-8 -43 -14 -144q3 -64 17 -112t52.5 -81t106.5 -35q221 0 275 228h159q-38 -174 -151 -280.5t-287 -106.5q-317 8 -325 387zM340 628h469q0 18 1 54t1 53 q0 111 -38.5 172t-144.5 61q-73 0 -136 -57t-102.5 -138t-49.5 -145zM480 1517h192l113 -304h-113z" />
<glyph unicode="&#xe9;" d="M140 340q2 71 24 240q27 140 90.5 260t167.5 196t242 76q160 -6 234.5 -108.5t74.5 -268.5q0 -99 -37 -251h-629q-8 -43 -14 -144q3 -64 17 -112t52.5 -81t106.5 -35q221 0 275 228h159q-38 -174 -151 -280.5t-287 -106.5q-317 8 -325 387zM340 628h469q0 18 1 54t1 53 q0 111 -38.5 172t-144.5 61q-73 0 -136 -57t-102.5 -138t-49.5 -145zM552 1196l208 303h196l-292 -303h-112z" />
<glyph unicode="&#xea;" d="M140 340q2 71 24 240q27 140 90.5 260t167.5 196t242 76q160 -6 234.5 -108.5t74.5 -268.5q0 -99 -37 -251h-629q-8 -43 -14 -144q3 -64 17 -112t52.5 -81t106.5 -35q221 0 275 228h159q-38 -174 -151 -280.5t-287 -106.5q-317 8 -325 387zM340 628h469q0 18 1 54t1 53 q0 111 -38.5 172t-144.5 61q-73 0 -136 -57t-102.5 -138t-49.5 -145zM424 1196l225 320h159l116 -320h-116l-112 193l-160 -193h-112z" />
<glyph unicode="&#xeb;" d="M140 340q2 71 24 240q27 140 90.5 260t167.5 196t242 76q160 -6 234.5 -108.5t74.5 -268.5q0 -99 -37 -251h-629q-8 -43 -14 -144q3 -64 17 -112t52.5 -81t106.5 -35q221 0 275 228h159q-38 -174 -151 -280.5t-287 -106.5q-317 8 -325 387zM340 628h469q0 18 1 54t1 53 q0 111 -38.5 172t-144.5 61q-73 0 -136 -57t-102.5 -138t-49.5 -145zM436 1227l33 209h143l-32 -209h-144zM725 1227l31 209h164l-32 -209h-163z" />
<glyph unicode="&#xec;" horiz-adv-x="469" d="M148 0l176 1096h145l-176 -1096h-145zM256 1517h192l113 -304h-113z" />
<glyph unicode="&#xed;" horiz-adv-x="469" d="M148 0l176 1096h145l-176 -1096h-145zM329 1213l208 303h196l-292 -303h-112z" />
<glyph unicode="&#xee;" horiz-adv-x="469" d="M148 0l176 1096h145l-176 -1096h-145zM193 1212l225 320h159l116 -320h-116l-112 193l-160 -193h-112z" />
<glyph unicode="&#xef;" horiz-adv-x="469" d="M148 0l176 1096h145l-176 -1096h-145zM227 1259l33 209h143l-32 -209h-144zM516 1259l31 209h164l-32 -209h-163z" />
<glyph unicode="&#xf1;" d="M96 0l197 1080h143l-16 -112q40 70 127 111t178 41q99 0 165 -52t66 -150q0 -12 -4 -46l-143 -872h-145l128 744q4 36 4 48q0 80 -37 120t-99 40q-54 0 -115 -35t-109 -101t-64 -152l-128 -664h-148zM409 1192q24 96 71.5 164t123.5 68q37 0 53 -4l102 -35q10 -3 22.5 -5 t18.5 -4q72 5 108 93h80q-31 -110 -73.5 -174.5t-122.5 -67.5q-18 5 -60 13l-96 32q-38 8 -55 8q-44 0 -63.5 -23t-28.5 -65h-80z" />
<glyph unicode="&#xf2;" d="M129 387q3 166 65 334.5t183 279.5t287 111q300 -10 300 -395q0 -22 -2 -56t-4 -61.5t-6 -67.5q-21 -124 -72.5 -254t-155.5 -228.5t-259 -98.5q-29 0 -45 2q-74 7 -141 59.5t-108.5 149t-41.5 225.5zM284 396q4 -116 49 -189.5t136 -77.5q97 0 174 80.5t119.5 203.5 t42.5 243q0 124 -44.5 202t-132.5 78q-228 0 -321 -373q-17 -83 -23 -167zM484 1532h192l113 -304h-113z" />
<glyph unicode="&#xf3;" d="M129 387q3 166 65 334.5t183 279.5t287 111q300 -10 300 -395q0 -22 -2 -56t-4 -61.5t-6 -67.5q-21 -124 -72.5 -254t-155.5 -228.5t-259 -98.5q-29 0 -45 2q-74 7 -141 59.5t-108.5 149t-41.5 225.5zM284 396q4 -116 49 -189.5t136 -77.5q97 0 174 80.5t119.5 203.5 t42.5 243q0 124 -44.5 202t-132.5 78q-228 0 -321 -373q-17 -83 -23 -167zM552 1229l208 303h196l-292 -303h-112z" />
<glyph unicode="&#xf4;" d="M129 387q3 166 65 334.5t183 279.5t287 111q300 -10 300 -395q0 -22 -2 -56t-4 -61.5t-6 -67.5q-21 -124 -72.5 -254t-155.5 -228.5t-259 -98.5q-29 0 -45 2q-74 7 -141 59.5t-108.5 149t-41.5 225.5zM284 396q4 -116 49 -189.5t136 -77.5q97 0 174 80.5t119.5 203.5 t42.5 243q0 124 -44.5 202t-132.5 78q-228 0 -321 -373q-17 -83 -23 -167zM424 1212l225 320h159l116 -320h-116l-112 193l-160 -193h-112z" />
<glyph unicode="&#xf5;" d="M129 387q3 166 65 334.5t183 279.5t287 111q300 -10 300 -395q0 -22 -2 -56t-4 -61.5t-6 -67.5q-21 -124 -72.5 -254t-155.5 -228.5t-259 -98.5q-29 0 -45 2q-74 7 -141 59.5t-108.5 149t-41.5 225.5zM284 396q4 -116 49 -189.5t136 -77.5q97 0 174 80.5t119.5 203.5 t42.5 243q0 124 -44.5 202t-132.5 78q-228 0 -321 -373q-17 -83 -23 -167zM401 1192q24 96 71.5 164t123.5 68q37 0 53 -4l102 -35q10 -3 22.5 -5t18.5 -4q72 5 108 93h80q-31 -110 -73.5 -174.5t-122.5 -67.5q-18 5 -60 13l-96 32q-38 8 -55 8q-44 0 -63.5 -23t-28.5 -65 h-80z" />
<glyph unicode="&#xf6;" d="M129 387q3 166 65 334.5t183 279.5t287 111q300 -10 300 -395q0 -22 -2 -56t-4 -61.5t-6 -67.5q-21 -124 -72.5 -254t-155.5 -228.5t-259 -98.5q-29 0 -45 2q-74 7 -141 59.5t-108.5 149t-41.5 225.5zM284 396q4 -116 49 -189.5t136 -77.5q97 0 174 80.5t119.5 203.5 t42.5 243q0 124 -44.5 202t-132.5 78q-228 0 -321 -373q-17 -83 -23 -167zM469 1206l33 209h143l-32 -209h-144zM758 1206l31 209h164l-32 -209h-163z" />
<glyph unicode="&#xf8;" horiz-adv-x="1032" d="M37 0l135 152q-43 96 -43 235q3 166 65 334.5t183 279.5t287 111q170 -6 239 -135l145 151l32 -63l-140 -157q24 -88 24 -204q0 -122 -28.5 -253.5t-88.5 -245t-155.5 -184t-224.5 -70.5q-31 0 -47 2q-130 10 -211 135l-141 -152zM284 396q9 -80 15 -107l481 543 q-56 104 -152 104q-120 0 -194 -86t-108 -210q-34 -122 -42 -244zM324 219q50 -82 145 -90q98 0 174.5 81.5t119 205.5t42.5 244q0 66 -4 88z" />
<glyph unicode="&#xf9;" d="M156 215q2 16 3.5 43t4.5 49l129 773h143l-129 -708q-6 -42 -6 -75q0 -164 127 -168q62 0 129 38.5t116 104.5t62 144l121 664h144l-191 -1080h-145l16 96q-48 -58 -134 -97.5t-169 -39.5q-96 0 -157.5 62.5t-63.5 193.5zM484 1513h192l113 -304h-113z" />
<glyph unicode="&#xfa;" d="M156 215q2 16 3.5 43t4.5 49l129 773h143l-129 -708q-6 -42 -6 -75q0 -164 127 -168q62 0 129 38.5t116 104.5t62 144l121 664h144l-191 -1080h-145l16 96q-48 -58 -134 -97.5t-169 -39.5q-96 0 -157.5 62.5t-63.5 193.5zM532 1192l208 303h196l-292 -303h-112z" />
<glyph unicode="&#xfb;" d="M156 215q2 16 3.5 43t4.5 49l129 773h143l-129 -708q-6 -42 -6 -75q0 -164 127 -168q62 0 129 38.5t116 104.5t62 144l121 664h144l-191 -1080h-145l16 96q-48 -58 -134 -97.5t-169 -39.5q-96 0 -157.5 62.5t-63.5 193.5zM428 1196l225 320h159l116 -320h-116l-112 193 l-160 -193h-112z" />
<glyph unicode="&#xfc;" d="M156 215q2 16 3.5 43t4.5 49l129 773h143l-129 -708q-6 -42 -6 -75q0 -164 127 -168q62 0 129 38.5t116 104.5t62 144l121 664h144l-191 -1080h-145l16 96q-48 -58 -134 -97.5t-169 -39.5q-96 0 -157.5 62.5t-63.5 193.5zM440 1243l33 209h143l-32 -209h-144zM729 1243 l31 209h164l-32 -209h-163z" />
<glyph unicode="&#xfd;" horiz-adv-x="835" d="M0 -436l33 180q33 -20 79 -20q42 0 74 25.5t53 64t37.5 85t30.5 85.5l-94 1096h159l80 -804l372 804h159l-631 -1344q-88 -188 -244 -188q-44 0 -108 16zM544 1213l208 303h196l-292 -303h-112z" />
<glyph unicode="&#xff;" horiz-adv-x="835" d="M0 -436l33 180q33 -20 79 -20q42 0 74 25.5t53 64t37.5 85t30.5 85.5l-94 1096h159l80 -804l372 804h159l-631 -1344q-88 -188 -244 -188q-44 0 -108 16zM404 1239l33 209h143l-32 -209h-144zM693 1239l31 209h164l-32 -209h-163z" />
<glyph unicode="&#x152;" horiz-adv-x="1675" d="M176 479q5 142 37 330q25 108 67 222t119 230t196 193.5t277 77.5q204 0 256 -176l17 160h727l-33 -176h-563l-80 -484h549l-17 -176h-569l-79 -500h564l-16 -180h-739l31 148q-24 -30 -45.5 -58t-57 -58t-95.5 -52q-58 -22 -142 -27q-396 0 -404 526zM336 528 q3 -174 63.5 -278t188.5 -104q26 0 40 2q90 0 178 61.5t146 177.5q12 95 33.5 212t46.5 239q24 124 48 242q-2 80 -38 143t-96 98t-131 35q-91 0 -183 -65.5t-166 -207.5t-110 -356q-16 -117 -20 -199z" />
<glyph unicode="&#x153;" horiz-adv-x="1579" d="M140 387q2 22 4 64.5t4 64.5q19 130 63.5 241t113 195t158.5 130t197 46q108 0 175 -67t97 -158q42 85 138 155t218 70q308 0 308 -380q0 -42 -3.5 -85.5t-9.5 -94.5q-5 -50 -7 -68h-644q-6 -46 -12 -113q7 -258 219 -258q78 0 144.5 53.5t101.5 157.5h143 q-20 -76 -70 -162.5t-132 -148.5t-187 -62q-14 -2 -43 -2q-117 0 -187.5 55t-104.5 160q-32 -62 -92.5 -112t-133 -77.5t-146.5 -27.5q-132 0 -221 104.5t-91 319.5zM297 400q2 -118 46 -193.5t126 -77.5q100 0 181.5 87t127.5 219.5t46 256.5q0 127 -48 201.5t-148 74.5 q-88 0 -164.5 -88t-121.5 -222q-44 -132 -45 -258zM983 664l485 -4q4 28 4 84q0 112 -52 162t-168 50q-66 -8 -124 -63t-96.5 -122t-48.5 -107z" />
<glyph unicode="&#x2c6;" horiz-adv-x="563" d="M244 1212l225 320h159l116 -320h-116l-112 193l-160 -193h-112z" />
<glyph unicode="&#x2dc;" horiz-adv-x="563" d="M213 1208q24 96 71.5 164t123.5 68q37 0 53 -4l102 -35q10 -3 22.5 -5t18.5 -4q72 5 108 93h80q-31 -110 -73.5 -174.5t-122.5 -67.5q-18 5 -60 13l-96 32q-38 8 -55 8q-44 0 -63.5 -23t-28.5 -65h-80z" />
<glyph unicode="&#x2000;" horiz-adv-x="994" />
<glyph unicode="&#x2001;" horiz-adv-x="1988" />
<glyph unicode="&#x2002;" horiz-adv-x="994" />
<glyph unicode="&#x2003;" horiz-adv-x="1988" />
<glyph unicode="&#x2004;" horiz-adv-x="662" />
<glyph unicode="&#x2005;" horiz-adv-x="497" />
<glyph unicode="&#x2006;" horiz-adv-x="331" />
<glyph unicode="&#x2007;" horiz-adv-x="331" />
<glyph unicode="&#x2008;" horiz-adv-x="248" />
<glyph unicode="&#x2009;" horiz-adv-x="397" />
<glyph unicode="&#x200a;" horiz-adv-x="110" />
<glyph unicode="&#x2010;" horiz-adv-x="563" d="M148 484l32 159h416l-33 -159h-415z" />
<glyph unicode="&#x2011;" horiz-adv-x="563" d="M148 484l32 159h416l-33 -159h-415z" />
<glyph unicode="&#x2012;" horiz-adv-x="563" d="M148 484l32 159h416l-33 -159h-415z" />
<glyph unicode="&#x2013;" d="M80 484l32 159h953l-33 -159h-952z" />
<glyph unicode="&#x2014;" horiz-adv-x="1675" d="M64 484l32 159h1712l-32 -159h-1712z" />
<glyph unicode="&#x2018;" horiz-adv-x="372" d="M284 932l28 223q16 108 75 188.5t158 120.5l-17 -96q-58 -32 -93 -89t-35 -124h92l-31 -223h-177z" />
<glyph unicode="&#x2019;" horiz-adv-x="372" d="M276 983l17 82q85 19 111 178h-80l32 225h160l-32 -225q-12 -106 -64 -177t-144 -83z" />
<glyph unicode="&#x201c;" horiz-adv-x="563" d="M228 952l32 224q8 58 56 156q48 96 168 136l-15 -80q-110 -36 -129 -212h80l-33 -224h-159zM500 952l32 224q8 58 56 156q48 96 172 136l-16 -80q-112 -40 -132 -212h84l-32 -224h-164z" />
<glyph unicode="&#x201d;" horiz-adv-x="563" d="M260 968l16 80q88 23 111 181h-80l33 223h160l-31 -223q-8 -69 -34 -125.5t-70 -92t-105 -43.5zM516 968l16 80q88 23 111 181h-80l33 223h164l-33 -223q-11 -106 -65 -177.5t-146 -83.5z" />
<glyph unicode="&#x201e;" horiz-adv-x="563" d="M0 -320l16 97q48 32 90 87.5t42 119.5h-101l49 229h180l-48 -229q-8 -62 -46.5 -126t-90 -113t-91.5 -65zM276 -320l17 97q47 31 87 87t40 120h-96l48 229h177l-49 -229q-12 -90 -85 -184t-139 -120z" />
<glyph unicode="&#x2022;" horiz-adv-x="469" d="M215 680q4 16 4 47q13 115 79 185.5t167 70.5q90 0 136 -59t46 -160q0 -75 -27 -147.5t-82 -118.5q-54 -46 -134 -46q-90 0 -138 63t-51 165z" />
<glyph unicode="&#x2026;" horiz-adv-x="1675" d="M180 -16l33 229h174l-31 -229h-176zM744 -16l32 229h176l-32 -229h-176zM1308 -16l32 229h176l-31 -229h-177z" />
<glyph unicode="&#x202f;" horiz-adv-x="397" />
<glyph unicode="&#x2039;" horiz-adv-x="563" d="M228 469l32 174l303 246l-31 -177l-192 -163l144 -162l-32 -174z" />
<glyph unicode="&#x203a;" horiz-adv-x="563" d="M180 228l33 176l207 159l-144 164l17 176l223 -239l-32 -195z" />
<glyph unicode="&#x205f;" horiz-adv-x="497" />
<glyph unicode="&#x2122;" horiz-adv-x="1675" d="M340 1388l16 128h580l-16 -128h-224l-133 -745h-127l127 745h-223zM903 643l162 873h178l97 -613l304 613h195l-163 -873h-112l132 729l-373 -729h-63l-115 729l-129 -729h-113z" />
<glyph unicode="&#xe000;" horiz-adv-x="1080" d="M0 0v1080h1080v-1080h-1080z" />
</font>
</defs>
</svg>
