<?xml version="1.0" standalone="no"?>
<!DOCTYPE svg PUBLIC "-//W3C//DTD SVG 1.1//EN" "http://www.w3.org/Graphics/SVG/1.1/DTD/svg11.dtd" >
<svg xmlns="http://www.w3.org/2000/svg">
<metadata></metadata>
<defs>
<font id="daxcondensed-lightregular" horiz-adv-x="913" >
<font-face units-per-em="2048" ascent="1638" descent="-410" />
<missing-glyph horiz-adv-x="565" />
<glyph horiz-adv-x="2048" />
<glyph horiz-adv-x="2048" />
<glyph unicode="&#xd;" horiz-adv-x="565" />
<glyph unicode=" "  horiz-adv-x="565" />
<glyph unicode="&#x09;" horiz-adv-x="565" />
<glyph unicode="&#xa0;" horiz-adv-x="565" />
<glyph unicode="!" horiz-adv-x="546" d="M205 82q0 41 27.5 68.5t66.5 27.5q41 0 67.5 -26.5t26.5 -69.5q0 -39 -26.5 -67.5t-67.5 -28.5q-39 0 -66.5 27.5t-27.5 68.5zM217 1409h164l-39 -969h-86z" />
<glyph unicode="&#x22;" horiz-adv-x="702" d="M170 1382q23 43 70 43t69 -43l-43 -471h-55zM436 1382q23 43 70 43t69 -43l-43 -471h-55z" />
<glyph unicode="#" d="M14 494v77h211l47 301h-198v78h211l71 459h78l-72 -459h236l72 459h78l-72 -459h201v-78h-213l-48 -301h201v-77h-213l-76 -494h-77l75 494h-235l-78 -494h-76l76 494h-199zM303 571h236l47 301h-236z" />
<glyph unicode="$" d="M131 61l39 109q41 -33 94 -53.5t131 -20.5q100 0 166 61.5t66 170.5t-51.5 180.5t-179.5 169.5t-189.5 193.5t-61.5 209.5q0 141 80 234.5t201 109.5l-16 222h102l-18 -217q74 0 126 -22t91 -60l-35 -95q-33 27 -84 48.5t-115 21.5q-96 0 -150.5 -58.5t-54.5 -162.5 q0 -98 51.5 -171t179.5 -171t193.5 -191.5t65.5 -216.5q0 -156 -83 -255t-224 -115l20 -230h-113l21 228q-80 0 -142.5 21.5t-109.5 59.5z" />
<glyph unicode="%" horiz-adv-x="1406" d="M109 950q0 266 61 374t162 108q127 0 175 -139.5t48 -342.5q0 -201 -48 -342t-175 -141t-175 141.5t-48 341.5zM195 950q0 -174 26.5 -292.5t110.5 -118.5q98 0 117.5 151.5t19.5 259.5q0 178 -26.5 299t-110.5 121q-82 0 -109.5 -124t-27.5 -296zM465 10l401 1409 l72 -20l-401 -1409zM852 463q0 266 61.5 372.5t161.5 106.5q127 0 175 -139t48 -340q0 -203 -48 -344.5t-175 -141.5t-175 141.5t-48 344.5zM938 463q0 -176 26.5 -295t110.5 -119q98 0 117.5 153.5t19.5 260.5q0 176 -26.5 297t-110.5 121q-98 0 -117.5 -154t-19.5 -264z " />
<glyph unicode="&#x26;" horiz-adv-x="1048" d="M106 385q0 147 86.5 251.5t215.5 160.5q-102 39 -164 117.5t-62 199.5q0 133 82 224.5t234 91.5q80 0 138 -22t99 -60l-39 -82q-27 23 -79 45t-103 22q-94 0 -150.5 -57t-56.5 -164q0 -109 67.5 -176.5t166.5 -67.5q111 0 229.5 47.5t222.5 116.5l41 -94 q-31 -18 -91.5 -44t-111.5 -40v-793q-86 -82 -294 -81q-193 0 -312 108.5t-119 296.5zM238 393q0 -139 78.5 -230t222.5 -91q115 0 174 30v715q-264 -74 -369.5 -165t-105.5 -259z" />
<glyph unicode="'" horiz-adv-x="458" d="M170 1382q29 43 80 43q53 0 82 -43l-49 -471h-66z" />
<glyph unicode="(" horiz-adv-x="616" d="M121 586q0 483 360 1048l76 -47q-141 -229 -221 -483t-80 -518t80 -517t221 -487l-76 -47q-184 287 -272 541t-88 510z" />
<glyph unicode=")" horiz-adv-x="616" d="M59 -418q143 233 221 484t78 520q0 266 -78.5 518t-220.5 483l76 47q182 -287 271.5 -540.5t89.5 -507.5q0 -258 -87.5 -508t-273.5 -543z" />
<glyph unicode="*" horiz-adv-x="765" d="M129 1405q0 31 21.5 52.5t52.5 21.5t51 -20.5t20 -53.5q0 -31 -20 -51.5t-51 -20.5t-52.5 21.5t-21.5 50.5zM207 1165q0 31 20.5 51.5t51.5 20.5q29 0 51 -20.5t22 -51.5t-21 -52t-52 -21t-51.5 20.5t-20.5 52.5zM334 1554q0 29 20.5 50.5t51.5 21.5t52 -21.5t21 -50.5 q0 -31 -21 -52t-52 -21t-51.5 20.5t-20.5 52.5zM348 1337q0 25 16.5 41.5t41.5 16.5t41 -16.5t16 -41.5q0 -23 -16 -39t-41 -16q-23 0 -40.5 15.5t-17.5 39.5zM459 1165q0 31 20.5 51.5t52.5 20.5q29 0 50.5 -19.5t21.5 -52.5q0 -31 -21.5 -52t-50.5 -21q-31 0 -52 21.5 t-21 51.5zM537 1405q0 31 21.5 52.5t51.5 21.5q31 0 52.5 -21.5t21.5 -52.5t-20.5 -51.5t-53.5 -20.5q-31 0 -52 21.5t-21 50.5z" />
<glyph unicode="+" d="M125 639v96h283v369h96v-369h284v-96h-284v-371h-96v371h-283z" />
<glyph unicode="," horiz-adv-x="446" d="M14 -352l152 483q27 53 98 53q55 0 62 -51l-244 -485h-68z" />
<glyph unicode="-" horiz-adv-x="600" d="M109 623v122h383v-122h-383z" />
<glyph unicode="." horiz-adv-x="432" d="M121 86q0 41 27.5 68.5t66.5 27.5q41 0 68.5 -27.5t27.5 -66.5q0 -41 -27.5 -68.5t-66.5 -27.5q-41 0 -68.5 27.5t-27.5 66.5z" />
<glyph unicode="/" horiz-adv-x="978" d="M37 -422l819 2048l86 -35l-819 -2048z" />
<glyph unicode="0" d="M106 705q0 315 77 520t274 205t273.5 -203t76.5 -522q0 -315 -76.5 -520t-273.5 -205t-274 202.5t-77 522.5zM233 705q0 -307 45.5 -463t178.5 -156t178 154.5t45 464.5q0 311 -45 469.5t-178 158.5t-178.5 -158.5t-45.5 -469.5z" />
<glyph unicode="1" d="M143 1188q125 16 227.5 78.5t141.5 142.5h84v-1409h-127v1194q-55 -27 -146.5 -46.5t-168.5 -27.5z" />
<glyph unicode="2" d="M78 0l442 721q66 106 89.5 178t23.5 152q0 117 -64.5 191.5t-187.5 74.5q-55 0 -101.5 -12.5t-97.5 -47.5l-45 91q49 35 123 58.5t160 23.5q150 0 249 -95.5t99 -273.5q0 -82 -33 -171t-114 -218l-353 -557h504v-115h-694z" />
<glyph unicode="3" d="M88 61l43 97q35 -29 96.5 -48.5t141.5 -19.5q121 0 195.5 89t74.5 227q0 152 -95 242.5t-261 90.5v82q139 0 228 77t89 198q0 94 -59.5 159.5t-157.5 65.5q-63 0 -111.5 -15.5t-83.5 -41.5l-47 82q53 45 113.5 64.5t157.5 19.5q145 0 230 -89.5t85 -228.5 q0 -129 -59.5 -203.5t-139.5 -111.5q94 -37 167 -133.5t73 -257.5q0 -174 -109.5 -300t-271.5 -126q-197 0 -299 81z" />
<glyph unicode="4" d="M106 332v106l492 971h111v-979h100v-98h-100v-332h-117v332h-486zM207 430h383v639l4 141q-12 -27 -34 -70.5t-36 -72.5z" />
<glyph unicode="5" d="M98 61l41 97q41 -31 101.5 -50.5t140.5 -19.5q109 0 187.5 95.5t78.5 219.5q0 156 -76.5 250.5t-244.5 94.5q-70 0 -160 -19l43 680h543v-115h-447l-29 -465q47 8 99 9q188 0 293.5 -116t105.5 -314q0 -176 -109.5 -302t-273.5 -126q-190 0 -293 81z" />
<glyph unicode="6" d="M104 510q0 299 109 496.5t237 291t232 125.5l35 -94q-143 -57 -266 -178t-187 -340q27 12 75 21.5t99 9.5q176 0 274.5 -116t98.5 -314q0 -174 -90 -303t-258 -129q-172 0 -265.5 142t-93.5 388zM231 510q0 -205 58.5 -316.5t175.5 -111.5q109 0 164 96t55 236 q0 158 -67.5 247t-202.5 89q-53 0 -92 -7.5t-76 -21.5q-10 -53 -12.5 -95t-2.5 -116z" />
<glyph unicode="7" d="M117 1294v115h721l-174 -459q-98 -258 -184.5 -531.5t-121.5 -418.5h-159l481 1294h-563z" />
<glyph unicode="8" d="M106 332q0 127 59.5 214t201.5 202q-123 104 -172.5 184t-49.5 188q0 135 89.5 222.5t220.5 87.5q129 0 221 -88.5t92 -221.5q0 -102 -55.5 -182t-184.5 -182q150 -121 214.5 -211t64.5 -217q0 -154 -101 -251t-251 -97q-147 0 -248 98t-101 254zM223 332 q0 -109 64.5 -179.5t167.5 -70.5q100 0 164.5 68.5t64.5 177.5q0 100 -56.5 177t-183.5 179q-221 -174 -221 -352zM262 1120q0 -141 189 -303q111 88 155.5 153.5t44.5 151.5q0 90 -57 151.5t-139 61.5q-84 0 -138.5 -60.5t-54.5 -154.5z" />
<glyph unicode="9" d="M104 995q0 174 89.5 304.5t257.5 130.5q174 0 267 -141.5t93 -391.5q0 -299 -109.5 -497.5t-237 -290.5t-233.5 -125l-32 94q137 55 265 183t187 335q-29 -12 -77 -21.5t-99 -9.5q-170 0 -270.5 117t-100.5 313zM231 993q0 -158 68 -247t203 -89q53 0 92 7.5t76 21.5 q14 98 14 211q0 201 -60 315.5t-175 114.5q-111 0 -164.5 -95t-53.5 -239z" />
<glyph unicode=":" horiz-adv-x="430" d="M121 82q0 41 26.5 69.5t67.5 28.5t67.5 -28.5t26.5 -69.5q0 -39 -26.5 -67.5t-67.5 -28.5q-39 0 -66.5 27.5t-27.5 68.5zM121 692q0 41 27.5 68.5t66.5 27.5q41 0 67.5 -26.5t26.5 -69.5q0 -39 -26.5 -67.5t-67.5 -28.5q-39 0 -66.5 27.5t-27.5 68.5z" />
<glyph unicode=";" horiz-adv-x="446" d="M14 -352l152 483q27 53 98 53q55 0 62 -51l-244 -485h-68zM137 692q0 41 26.5 70t67.5 29q37 0 66 -29t29 -70t-28 -68.5t-67 -27.5q-41 0 -67.5 26.5t-26.5 69.5z" />
<glyph unicode="&#x3c;" d="M125 633v102l663 281v-109l-575 -223l575 -223v-109z" />
<glyph unicode="=" d="M125 479v94h663v-94h-663zM125 795v94h663v-94h-663z" />
<glyph unicode="&#x3e;" d="M125 352v109l573 223l-573 223v109l663 -279v-104z" />
<glyph unicode="?" horiz-adv-x="768" d="M123 1346q45 39 106.5 61.5t139.5 22.5q141 0 229 -90.5t88 -237.5q0 -119 -81 -201.5t-165 -109.5l-16 -353h-86l-19 402q88 18 162 86.5t74 175.5q0 86 -52 151.5t-147 65.5q-61 0 -108 -17.5t-80 -44.5zM287 80q0 41 27.5 68.5t66.5 27.5q41 0 68.5 -27.5t27.5 -68.5 t-27.5 -68.5t-68.5 -27.5q-39 0 -66.5 27.5t-27.5 68.5z" />
<glyph unicode="@" horiz-adv-x="1515" d="M123 451q0 397 222 688t538 291q219 0 353 -157t134 -431q0 -229 -101.5 -472t-267.5 -243q-125 0 -124 197q-61 -98 -120 -145.5t-141 -47.5q-98 0 -148 91t-50 227q0 186 94 373.5t244 187.5q80 0 113.5 -41t80.5 -156l29 162h84l-53 -297q-25 -133 -36 -209t-11 -125 q0 -88 12 -111.5t57 -23.5q115 0 194 233.5t79 399.5q0 236 -116 378t-308 142q-289 0 -488.5 -276.5t-199.5 -636.5q0 -301 155.5 -479.5t405.5 -178.5q221 0 337.5 85t219.5 216l37 -51q-131 -164 -245 -243t-349 -79q-276 0 -453.5 197t-177.5 535zM514 455 q0 -102 34 -172t109 -70q117 0 190 158.5t73 308.5q0 123 -46.5 186.5t-107.5 63.5q-117 0 -184.5 -160t-67.5 -315z" />
<glyph unicode="A" horiz-adv-x="1011" d="M43 0l414 1409h102l410 -1409h-133l-125 467h-416l-127 -467h-125zM322 563h362l-129 494l-49 203l-51 -203z" />
<glyph unicode="B" horiz-adv-x="985" d="M154 61v1287q47 37 123.5 59.5t171.5 22.5q172 0 278.5 -96.5t106.5 -256.5q0 -127 -63.5 -210t-156.5 -113q102 -31 185.5 -119t83.5 -248q0 -201 -120 -304t-298 -103q-197 0 -311 81zM279 111q33 -14 74.5 -22.5t103.5 -8.5q129 0 211 74.5t82 222.5 q0 172 -93.5 248.5t-314.5 76.5h-63v-591zM279 786h59q195 0 281 60.5t86 220.5q-1 272 -261 272q-98 0 -165 -28v-525z" />
<glyph unicode="C" horiz-adv-x="862" d="M117 705q0 307 119.5 516t324.5 209q80 0 135.5 -19.5t102.5 -62.5l-37 -86q-31 25 -80 44t-109 19q-162 0 -240.5 -178t-78.5 -442q0 -258 81 -436.5t236 -178.5q63 0 110.5 16.5t84.5 47.5l35 -93q-35 -39 -96.5 -60t-149.5 -21q-205 0 -321.5 200.5t-116.5 524.5z" />
<glyph unicode="D" horiz-adv-x="1056" d="M154 61v1287q49 39 126.5 60.5t176.5 21.5q229 0 356 -186.5t127 -520.5q0 -344 -120.5 -543.5t-358.5 -199.5q-104 0 -184 22.5t-123 58.5zM285 113q25 -12 66.5 -19.5t94.5 -7.5q186 0 271.5 163t85.5 474q0 297 -90.5 453.5t-268.5 156.5q-102 0 -159 -26v-1194z" />
<glyph unicode="E" horiz-adv-x="790" d="M154 0v1409h551v-102h-420v-525h381v-102h-381v-578h420v-102h-551z" />
<glyph unicode="F" horiz-adv-x="770" d="M154 0v1409h548v-102h-417v-525h381v-102h-381v-680h-131z" />
<glyph unicode="G" horiz-adv-x="1042" d="M117 715q0 344 142 529.5t341 185.5q193 0 281 -82l-39 -91q-37 29 -96.5 47.5t-137.5 18.5q-164 0 -259 -157.5t-95 -469.5q0 -264 91 -440t251 -176q76 0 114 8t62 23v565h-219v106h350v-721q-55 -39 -129 -60t-176 -21q-203 0 -342 183t-139 552z" />
<glyph unicode="H" horiz-adv-x="1048" d="M154 0v1409h131v-629h477v629h133v-1409h-133v680h-477v-680h-131z" />
<glyph unicode="I" horiz-adv-x="446" d="M162 0v1409h131v-1409h-131z" />
<glyph unicode="J" horiz-adv-x="456" d="M-57 -358q90 29 158.5 140.5t68.5 266.5v1360h133v-1360q0 -197 -113.5 -341.5t-246.5 -162.5v97z" />
<glyph unicode="K" horiz-adv-x="905" d="M162 0v1409h127v-664l426 664h129l-432 -661l458 -748h-147l-430 739l-4 -739h-127z" />
<glyph unicode="L" horiz-adv-x="716" d="M162 0v1409h131v-1307h381v-102h-512z" />
<glyph unicode="M" horiz-adv-x="1343" d="M100 0l146 1409h149l242 -1038q14 -63 22.5 -105.5t12.5 -75.5q6 33 12 63t27 116l237 1040h150l145 -1409h-125l-96 1114l-8 162q-6 -31 -17.5 -77t-19.5 -85l-258 -1114h-101l-260 1112q-12 47 -19 87t-13 77q-4 -35 -8.5 -94.5t-4.5 -69.5l-94 -1112h-119z" />
<glyph unicode="N" horiz-adv-x="1132" d="M154 0v1409h153l512 -1081q27 -57 37 -83t21 -55v144v1075h106v-1409h-123l-543 1130q-16 35 -33.5 80t-25.5 64v-141v-1133h-104z" />
<glyph unicode="O" horiz-adv-x="1081" d="M117 705q0 324 101 524.5t323 200.5q219 0 321.5 -203t102.5 -522q0 -326 -101.5 -525.5t-322.5 -199.5q-219 0 -321.5 200.5t-102.5 524.5zM248 707q0 -268 64.5 -442.5t228.5 -174.5t228.5 174t64.5 443q0 266 -66.5 443t-226.5 177q-158 0 -225.5 -178t-67.5 -442z " />
<glyph unicode="P" horiz-adv-x="886" d="M154 0v1348q43 35 118.5 58.5t157.5 23.5q188 0 288.5 -115t100.5 -307q0 -186 -103.5 -299t-314.5 -113q-18 0 -41.5 2t-37.5 2l-41 4v-604h-127zM281 700l41 -4q16 -2 31.5 -2h31.5q162 0 235.5 85t73.5 233q0 162 -65.5 242.5t-208.5 80.5q-92 0 -139 -24v-611z" />
<glyph unicode="Q" horiz-adv-x="1081" d="M117 705q0 324 101 524.5t323 200.5q219 0 321.5 -203t102.5 -522q0 -231 -54.5 -405.5t-171.5 -262.5l181 -258l-107 -111l-147 332q-61 -20 -125 -20q-219 0 -321.5 201.5t-102.5 523.5zM248 709q0 -272 63.5 -446.5t229.5 -174.5q164 0 229.5 175t65.5 446 q0 272 -65.5 445t-229.5 173q-160 0 -226.5 -176t-66.5 -442z" />
<glyph unicode="R" horiz-adv-x="923" d="M154 0v1348q45 39 116.5 60.5t159.5 21.5q190 0 289.5 -110t99.5 -314q0 -158 -108.5 -268.5t-253.5 -110.5l393 -627h-148l-417 678l-4 -678h-127zM279 700q25 -6 47 -6q152 0 260 67.5t108 242.5q0 170 -64.5 252.5t-205.5 82.5q-92 0 -145 -28v-611z" />
<glyph unicode="S" horiz-adv-x="823" d="M90 61l39 109q41 -33 94 -53.5t131 -20.5q100 0 166 61.5t66 170.5t-51.5 180.5t-179.5 169.5t-189.5 193.5t-61.5 209.5q0 156 94.5 252.5t233.5 96.5q82 0 140.5 -22t97.5 -60l-35 -95q-33 27 -84 48.5t-115 21.5q-96 0 -150.5 -58.5t-54.5 -162.5q0 -98 51.5 -171 t179.5 -171t193.5 -191.5t65.5 -216.5q0 -168 -96 -270t-258 -102q-96 0 -160 19t-117 62z" />
<glyph unicode="T" horiz-adv-x="716" d="M45 1307v102h627v-102h-248v-1307h-131v1307h-248z" />
<glyph unicode="U" horiz-adv-x="1034" d="M154 385v1024h131v-1055q0 -115 66.5 -187.5t172.5 -72.5q104 0 172 72t68 188v1055h117v-1026q0 -186 -101.5 -296t-263.5 -110q-160 0 -261 110t-101 298z" />
<glyph unicode="V" horiz-adv-x="925" d="M57 1409h138l239 -1063l27 -149l35 149l245 1063h127l-350 -1409h-108z" />
<glyph unicode="W" horiz-adv-x="1398" d="M63 1409h138l184 -1057q8 -43 12 -91t9 -64q2 16 11 61t19 94l221 1057h97l217 -1055q10 -53 15 -96t7 -61q6 33 9.5 51t19.5 106l192 1055h121l-286 -1409h-113l-205 1001q-10 53 -16 103.5t-10 71.5q-6 -35 -13.5 -72t-21.5 -105l-209 -999h-113z" />
<glyph unicode="X" horiz-adv-x="868" d="M35 0l334 729l-297 680h143l221 -557l242 557h125l-301 -664l332 -745h-150l-250 616l-266 -616h-133z" />
<glyph unicode="Y" horiz-adv-x="866" d="M35 1409h145l258 -657l267 657h126l-331 -770v-639h-131v639z" />
<glyph unicode="Z" horiz-adv-x="780" d="M61 0l467 1307h-440v102h614l-466 -1307h473v-102h-648z" />
<glyph unicode="[" horiz-adv-x="585" d="M154 -440v2048h356v-88h-240v-1872h240v-88h-356z" />
<glyph unicode="\" horiz-adv-x="989" d="M47 1589l86 37l819 -2048l-86 -35z" />
<glyph unicode="]" horiz-adv-x="585" d="M76 -352h239v1872h-239v88h356v-2048h-356v88z" />
<glyph unicode="^" horiz-adv-x="911" d="M139 1016l246 362q33 47 72 47q41 0 71 -47l246 -362l-43 -53l-274 358l-275 -358z" />
<glyph unicode="_" d="M-20 -301h954v-100h-954v100z" />
<glyph unicode="`" horiz-adv-x="313" d="M-25 1503q6 31 50 31q43 0 84 -31l122 -276h-63z" />
<glyph unicode="a" horiz-adv-x="858" d="M96 303q0 205 139.5 296t374.5 120v63q0 127 -56 185.5t-153 58.5q-61 0 -119.5 -20.5t-97.5 -49.5l-30 86q45 35 111.5 58.5t146.5 23.5q135 0 224 -79.5t89 -262.5v-721q-55 -39 -128 -60t-163 -21q-168 0 -253 88t-85 235zM213 303q0 -117 60.5 -177t172.5 -60 q49 0 93.5 10t70.5 26v531q-207 -31 -302 -100.5t-95 -229.5z" />
<glyph unicode="b" horiz-adv-x="905" d="M133 61v1547h123v-537q27 23 72 36t108 13q166 0 265.5 -149.5t99.5 -399.5q0 -264 -104.5 -427.5t-301.5 -163.5q-94 0 -154.5 20t-107.5 61zM256 104q45 -26 131 -26h6q150 0 218.5 132t68.5 361q0 201 -67.5 333t-194.5 132q-47 0 -84 -9t-78 -36v-887z" />
<glyph unicode="c" horiz-adv-x="735" d="M104 551q0 268 96.5 420.5t258.5 152.5q78 0 128 -21.5t85 -60.5l-31 -84q-27 29 -70 47.5t-96 18.5q-125 0 -185.5 -127t-60.5 -338q0 -213 63.5 -343t178.5 -130q55 0 97 17.5t71 48.5l33 -91q-29 -35 -85 -58t-132 -23q-164 0 -257.5 150.5t-93.5 420.5z" />
<glyph unicode="d" horiz-adv-x="907" d="M104 535q0 274 115 428.5t299 154.5q72 0 133 -20v510h123v-1547q-39 -35 -112.5 -58t-159.5 -23q-195 0 -296.5 149.5t-101.5 405.5zM227 549q0 -219 67.5 -346t215.5 -127q49 0 83 5t58 23v908q-41 10 -61.5 14t-57.5 4q-162 0 -233.5 -137t-71.5 -344z" />
<glyph unicode="e" horiz-adv-x="909" d="M104 555q0 276 100.5 422.5t262.5 146.5q164 0 254 -133t90 -407l-590 -72q0 -203 80 -314.5t213 -111.5q78 0 137.5 20.5t96.5 51.5l34 -97q-39 -35 -110.5 -58t-159.5 -23q-182 0 -295 141t-113 434zM219 600l463 59q0 182 -56.5 272.5t-160.5 90.5q-106 0 -176 -110.5 t-70 -311.5z" />
<glyph unicode="f" horiz-adv-x="530" d="M86 1020v84h100v166q0 156 76 247t219 91v-95q-74 0 -125 -56t-51 -169v-184h176v-84h-176v-1020h-119v1020h-100z" />
<glyph unicode="g" horiz-adv-x="905" d="M104 530q0 264 105.5 429t302.5 165q94 0 155.5 -21.5t106.5 -60.5v-1065q0 -201 -90 -319.5t-254 -118.5q-88 0 -160.5 22.5t-115.5 59.5l45 92q29 -25 92 -46t125 -21q121 0 179 87t58 228v74q-39 -29 -85 -41t-101 -12q-166 0 -264.5 147t-98.5 401zM227 530 q0 -205 69 -331.5t191 -126.5q45 0 80 8t86 39v878q-45 29 -143 29q-143 0 -213 -131t-70 -365z" />
<glyph unicode="h" horiz-adv-x="907" d="M133 0v1608h123v-547q98 63 205 63q139 0 226 -78.5t87 -242.5v-803h-123v803q0 111 -54 169t-142 58q-115 0 -199 -59v-971h-123z" />
<glyph unicode="i" horiz-adv-x="411" d="M127 1415q0 35 22.5 57.5t55.5 22.5t56.5 -23.5t23.5 -56.5t-22.5 -55.5t-57.5 -22.5q-33 0 -55.5 22.5t-22.5 55.5zM143 0v1104h123v-1104h-123z" />
<glyph unicode="j" horiz-adv-x="403" d="M-41 -360q80 31 129 128t49 273v1063h121v-1065q0 -217 -90 -347.5t-209 -146.5v95zM121 1415q0 35 22.5 57.5t55.5 22.5t55 -22.5t22 -57.5q0 -33 -22 -55.5t-55 -22.5t-55.5 22.5t-22.5 55.5z" />
<glyph unicode="k" horiz-adv-x="827" d="M141 0v1608h119v-1020l404 516h124l-405 -514l432 -590h-137l-414 584l-4 -584h-119z" />
<glyph unicode="l" horiz-adv-x="417" d="M147 0v1608h123v-1608h-123z" />
<glyph unicode="m" horiz-adv-x="1425" d="M133 0v1042q63 41 133 61.5t174 20.5t171 -33.5t108 -95.5q106 129 285 129q123 0 205.5 -83t82.5 -232v-809h-123v809q0 102 -52 160.5t-140 58.5q-121 0 -203 -106v-922h-123v807q0 98 -60.5 160.5t-156.5 62.5q-66 0 -102.5 -8t-75.5 -29v-993h-123z" />
<glyph unicode="n" horiz-adv-x="907" d="M133 0v1042q61 41 141 61.5t191 20.5q141 0 225 -74.5t84 -240.5v-809h-123v809q0 221 -205 221q-70 0 -109.5 -9t-80.5 -30v-991h-123z" />
<glyph unicode="o" horiz-adv-x="911" d="M104 551q0 258 85 415.5t266 157.5q182 0 267 -156.5t85 -416.5q0 -254 -85 -412.5t-265 -158.5q-182 0 -267.5 157.5t-85.5 413.5zM227 551q0 -205 51.5 -339t178.5 -134q129 0 178 132t49 341t-49 348t-178 139q-127 0 -178.5 -139t-51.5 -348z" />
<glyph unicode="p" horiz-adv-x="907" d="M133 -440v1482q49 39 119 60.5t156 21.5q195 0 295 -150.5t100 -404.5q0 -276 -115 -431.5t-301 -155.5q-35 0 -65.5 5t-65.5 17v-444h-123zM256 94q31 -12 54.5 -17t62.5 -5q160 0 233.5 140t73.5 345q0 217 -70 347t-213 130q-49 0 -82.5 -8t-58.5 -22v-910z" />
<glyph unicode="q" horiz-adv-x="905" d="M104 530q0 264 105.5 429t302.5 165q92 0 152.5 -19.5t109.5 -62.5v-1482h-123v473q-31 -25 -80 -38t-104 -13q-166 0 -264.5 147t-98.5 401zM227 530q0 -205 70 -330.5t190 -125.5q53 0 90 11t74 32v882q-25 12 -58.5 20.5t-80.5 8.5q-143 0 -214 -132t-71 -366z" />
<glyph unicode="r" horiz-adv-x="552" d="M133 0v1042q76 45 151.5 63.5t233.5 18.5l-37 -116q-20 8 -46.5 12t-51.5 4q-78 0 -127 -37v-987h-123z" />
<glyph unicode="s" horiz-adv-x="708" d="M76 61l35 101q33 -33 83 -53.5t117 -20.5q74 0 126 48t52 126q0 88 -37.5 138.5t-150.5 131t-159 158.5t-46 158q0 117 74 196.5t190 79.5q143 0 222 -82l-35 -88q-33 33 -77 51.5t-101 18.5q-61 0 -106.5 -47t-45.5 -113q0 -61 33 -114.5t145.5 -134t169 -154.5 t56.5 -193t-89.5 -203.5t-212.5 -84.5q-80 0 -139 19t-104 62z" />
<glyph unicode="t" horiz-adv-x="540" d="M86 1020v84h100v262l119 51v-313h176v-84h-176v-762q0 -86 34 -127t89 -41l53 8v-92q-29 -12 -78 -12q-96 0 -156.5 65.5t-60.5 194.5v766h-100z" />
<glyph unicode="u" horiz-adv-x="894" d="M133 332v772h123v-787q0 -117 54.5 -179t148.5 -62q61 0 101 11t79 38v979h123v-1032q-55 -41 -132 -68t-181 -27q-315 0 -316 355z" />
<glyph unicode="v" horiz-adv-x="858" d="M63 1104h130l237 -920l246 920h119l-320 -1104h-92z" />
<glyph unicode="w" horiz-adv-x="1343" d="M74 1104h131l194 -920l228 920h102l215 -920l205 920h121l-283 -1104h-88l-221 909l-236 -909h-88z" />
<glyph unicode="x" horiz-adv-x="821" d="M59 0l289 567l-258 537h131l189 -434l206 434h117l-262 -516l291 -588h-133l-217 473l-228 -473h-125z" />
<glyph unicode="y" horiz-adv-x="860" d="M63 1104h132l215 -940l266 940h121l-473 -1544h-127l161 440z" />
<glyph unicode="z" horiz-adv-x="710" d="M49 0l428 1020h-391v84h555l-422 -1018h430v-86h-600z" />
<glyph unicode="{" horiz-adv-x="638" d="M104 623v94q72 0 97.5 54t25.5 210v328q0 150 79 224.5t229 74.5v-88q-90 0 -140.5 -53.5t-50.5 -159.5v-389q0 -113 -32.5 -169.5t-100.5 -74.5q66 -23 98.5 -78t32.5 -170v-391q0 -109 50 -161t143 -52v-90q-147 0 -227.5 73.5t-80.5 225.5v327q0 156 -25.5 210.5 t-97.5 54.5z" />
<glyph unicode="|" horiz-adv-x="401" d="M150 -440v2048h102v-2048h-102z" />
<glyph unicode="}" horiz-adv-x="638" d="M104 -180q90 0 140.5 53t50.5 160v391q0 113 32.5 169t98.5 75q-66 23 -98.5 78t-32.5 169v392q0 106 -49 159.5t-142 53.5v88q145 0 225.5 -76t80.5 -223v-326q0 -158 25.5 -211t99.5 -53v-94q-72 0 -97.5 -54.5t-25.5 -210.5v-327q0 -154 -80 -227.5t-228 -73.5v88z " />
<glyph unicode="~" horiz-adv-x="1017" d="M170 610q25 72 58.5 113t75.5 47t63 6q55 0 143 -56t129 -56q14 0 43 6t57.5 44t40.5 83l68 -72q-16 -68 -55 -109t-117 -55q-10 -2 -31 -2q-49 0 -141 55.5t-127 55.5q-16 0 -45 -5.5t-55.5 -40t-45.5 -83.5z" />
<glyph unicode="&#xa1;" horiz-adv-x="546" d="M205 889q0 41 27.5 68.5t66.5 27.5q41 0 67.5 -26.5t26.5 -69.5q0 -39 -26.5 -67.5t-67.5 -28.5q-39 0 -66.5 27.5t-27.5 68.5zM217 -440l39 970h86l39 -970h-164z" />
<glyph unicode="&#xa2;" d="M150 682q0 213 69.5 340t198.5 149l-12 193h96l-10 -190q53 -6 93 -26t62 -50l-31 -84q-18 20 -57 38.5t-90 18.5q-98 0 -145.5 -102.5t-47.5 -280.5t50.5 -285.5t142.5 -107.5q53 0 88 16.5t59 42.5l33 -96q-27 -31 -67 -50.5t-93 -19.5l13 -188h-99l11 188 q-125 25 -194.5 155t-69.5 339z" />
<glyph unicode="&#xa3;" d="M104 680v90h144q-18 76 -29.5 140.5t-11.5 142.5q0 174 97 275.5t255 101.5q88 0 150.5 -24t97.5 -58l-43 -91q-31 23 -83 41.5t-118 18.5q-117 0 -173 -83t-56 -214q0 -76 7 -131t21 -119h234v-90h-215q6 -53 10 -94t4 -92q0 -92 -29.5 -196.5t-76.5 -182.5h534v-115 h-708q70 102 119 232t49 262q0 102 -17 186h-162z" />
<glyph unicode="&#xa4;" d="M49 340l90 100q-45 57 -66.5 127t-21.5 148q0 76 21.5 146.5t66.5 127.5l-90 101l64 67l90 -98q111 98 254 98q68 0 134 -24.5t120 -73.5l92 98l61 -67l-88 -101q43 -55 65.5 -128t22.5 -146q0 -76 -21.5 -145.5t-66.5 -129.5l88 -100l-61 -68l-92 99q-109 -98 -254 -99 q-143 0 -254 99l-90 -99zM145 715q0 -143 89.5 -246.5t222.5 -103.5q135 0 224 102t89 248q0 143 -89 246.5t-224 103.5q-133 0 -222.5 -103.5t-89.5 -246.5z" />
<glyph unicode="&#xa5;" d="M68 1409h151l242 -668l256 668h129l-217 -506l180 15v-72l-197 14l-96 -219l293 14v-73l-287 14v-596h-129v596l-291 -14v73l297 -14l-96 219l-201 -14v72l183 -15z" />
<glyph unicode="&#xa6;" horiz-adv-x="401" d="M150 -358v716h102v-716h-102zM150 666v716h102v-716h-102z" />
<glyph unicode="&#xa7;" d="M152 557q0 121 54 203t134 143q-57 74 -84 130.5t-27 133.5q0 117 73 190t187 73q78 0 132.5 -24t87.5 -58l-41 -84q-23 23 -69 42t-99 19q-76 0 -113 -44t-37 -114q0 -53 28 -108t103 -131l123 -123q92 -92 132 -176t40 -187q0 -102 -64.5 -199.5t-138.5 -150.5 q70 -70 98.5 -133t28.5 -147q0 -117 -77.5 -195t-190.5 -78q-160 0 -242 82l43 98q31 -33 74 -52t107 -19q61 0 108 45t47 102q0 80 -16 123t-86 113l-170 170q-82 82 -113.5 166t-31.5 190zM260 569q0 -86 33 -157.5t86 -124.5l125 -127q51 35 102 108.5t51 151.5 q0 92 -22 151t-90 129l-137 140q-51 -37 -99.5 -110t-48.5 -161z" />
<glyph unicode="&#xa8;" horiz-adv-x="313" d="M-59 1331q0 31 20.5 53.5t52.5 22.5q31 0 53.5 -22.5t22.5 -53.5t-22.5 -53.5t-53.5 -22.5q-29 0 -51 22.5t-22 53.5zM223 1331q0 31 22.5 53.5t53.5 22.5q29 0 51.5 -22.5t22.5 -53.5t-20.5 -53.5t-53.5 -22.5q-31 0 -53.5 22.5t-22.5 53.5z" />
<glyph unicode="&#xa9;" horiz-adv-x="1679" d="M117 702q0 301 211 512t512 211t512 -210.5t211 -512.5q0 -299 -211 -509.5t-512 -210.5q-299 0 -511 209.5t-212 510.5zM186 702q0 -270 190.5 -460.5t463.5 -190.5q268 0 460.5 190.5t192.5 460.5t-191.5 462t-461.5 192t-462 -191.5t-192 -462.5zM410 707 q0 180 127 307t307 127q100 0 186 -42t150 -118l-60 -55q-49 63 -121.5 99t-154.5 36q-145 0 -250 -102.5t-105 -251.5q0 -145 103.5 -249t251.5 -104q80 0 151.5 34t122.5 95l62 -49q-61 -74 -148.5 -117t-187.5 -43q-178 0 -306 126t-128 307z" />
<glyph unicode="&#xaa;" horiz-adv-x="585" d="M76 928q0 123 95 177t259 73v36q0 80 -37 114t-106 34q-41 0 -83 -13.5t-67 -29.5l-22 51q29 18 78 33.5t100 15.5q94 0 155.5 -47t61.5 -158v-432q-37 -23 -88.5 -36t-112.5 -13q-115 0 -174 53.5t-59 141.5zM156 928q0 -143 161 -144q35 0 59.5 4.5t53.5 18.5v317 q-143 -18 -208.5 -59t-65.5 -137z" />
<glyph unicode="&#xab;" horiz-adv-x="921" d="M143 684l269 430l61 -55l-227 -375l227 -375l-61 -55zM428 684l268 430l64 -55l-230 -375l230 -375l-64 -55z" />
<glyph unicode="&#xac;" d="M125 635v98h663v-420h-98v324z" />
<glyph unicode="&#xad;" horiz-adv-x="600" d="M109 623v122h383v-122h-383z" />
<glyph unicode="&#xae;" horiz-adv-x="1679" d="M117 702q0 301 211 512t512 211t512 -210.5t211 -512.5q0 -299 -211 -509.5t-512 -210.5q-299 0 -511 209.5t-212 510.5zM186 702q0 -270 190.5 -460.5t463.5 -190.5q268 0 460.5 190.5t192.5 460.5t-191.5 462t-461.5 192t-462 -191.5t-192 -462.5zM625 276v852 q78 39 192 39q102 0 182 -59t80 -180q0 -111 -71.5 -172.5t-186.5 -61.5l305 -418h-88l-301 416h-35l-2 -416h-75zM700 752h88q92 0 152.5 42t60.5 136q0 90 -60 132t-136 42q-53 0 -105 -19v-333z" />
<glyph unicode="&#xb0;" horiz-adv-x="839" d="M123 1133q0 123 87 210t210 87t210 -87.5t87 -209.5q0 -123 -87 -210t-210 -87t-210 87t-87 210zM209 1133q0 -88 61.5 -149.5t149.5 -61.5t149.5 61t61.5 150q0 88 -61.5 149t-149.5 61t-149.5 -61t-61.5 -149z" />
<glyph unicode="&#xb1;" d="M125 147v97h663v-97h-663zM125 748v96h283v368h96v-368h284v-96h-284v-371h-96v371h-283z" />
<glyph unicode="&#xb2;" horiz-adv-x="638" d="M76 553l291 442q41 63 56 105.5t15 89.5q0 72 -38 112.5t-117 40.5q-43 0 -71 -9t-60 -27l-35 63q37 27 84 40t106 13q98 0 164 -58t66 -169q0 -96 -97 -235l-219 -326h318v-82h-463z" />
<glyph unicode="&#xb3;" horiz-adv-x="638" d="M88 592l33 70q23 -18 65.5 -32t89.5 -14q74 0 121 53.5t47 131.5q0 88 -60 140t-169 52v62q90 0 146.5 45t56.5 114q0 55 -35 92t-98 37q-39 0 -70 -9t-57 -27l-35 59q37 29 80 42t100 13q96 0 152.5 -54t56.5 -142q0 -76 -35 -122t-86 -69q59 -25 103.5 -83t44.5 -150 q0 -106 -72 -184t-178 -78q-127 0 -201 53z" />
<glyph unicode="&#xb4;" horiz-adv-x="313" d="M82 1225l119 274q41 31 86 31q43 0 49 -29l-191 -276h-63z" />
<glyph unicode="&#xb5;" horiz-adv-x="907" d="M133 -440v1544h123v-961q45 -31 95 -48t108 -17q55 0 97 8t95 39v979h123v-1032q-66 -45 -133 -66.5t-176 -21.5q-49 0 -104.5 19.5t-104.5 49.5v-493h-123z" />
<glyph unicode="&#xb6;" d="M47 1016q0 195 106.5 294t270.5 99h410v-80h-52v-1769h-80v1769h-286v-1769h-80v1089q-133 25 -211 118t-78 249z" />
<glyph unicode="&#xb8;" horiz-adv-x="313" d="M-25 -344l27 53q14 -2 27.5 -2h27.5q76 0 128.5 20.5t52.5 55.5q0 33 -36 46t-130 13l26 54q16 2 35 2h29q178 0 178 -111q0 -66 -77 -102.5t-189 -36.5q-56 0 -99 8z" />
<glyph unicode="&#xb9;" horiz-adv-x="638" d="M129 1276q82 10 148.5 48t91.5 85h63v-858h-94v713q-37 -14 -88 -24.5t-113 -16.5z" />
<glyph unicode="&#xba;" horiz-adv-x="620" d="M68 1079q0 158 57 251t184 93t185.5 -94t58.5 -250q0 -152 -59.5 -248t-182.5 -96q-127 0 -185 95.5t-58 248.5zM152 1079q0 -125 34.5 -204.5t124.5 -79.5q86 0 121 80.5t35 203.5q0 127 -34 210t-122 83q-90 0 -124.5 -83t-34.5 -210z" />
<glyph unicode="&#xbb;" horiz-adv-x="921" d="M164 309l229 375l-229 375l63 55l267 -430l-267 -430zM449 309l229 375l-229 375l63 55l268 -430l-268 -430z" />
<glyph unicode="&#xbc;" horiz-adv-x="1363" d="M88 1276q82 10 149.5 49t90.5 84h63v-858h-92v713q-39 -14 -91 -24.5t-112 -16.5zM373 18l579 1409l84 -34l-579 -1411zM813 199v71l317 588h82v-588h64v-71h-64v-199h-88v199h-311zM893 270h229v377q0 41 1 51.5t5 20.5q-6 -14 -13 -29.5t-23 -46.5z" />
<glyph unicode="&#xbd;" horiz-adv-x="1363" d="M88 1276q82 10 149.5 49t90.5 84h63v-858h-92v713q-39 -14 -91 -24.5t-112 -16.5zM317 18l580 1409l84 -34l-580 -1411zM813 0l291 442q39 59 54.5 105.5t15.5 89.5q0 70 -39 112t-117 42q-39 0 -69.5 -11.5t-59.5 -27.5l-35 65q37 27 84 40t106 13q98 0 164 -58t66 -169 q0 -47 -22.5 -104.5t-73.5 -132.5l-220 -326h318v-80h-463z" />
<glyph unicode="&#xbe;" horiz-adv-x="1363" d="M88 592l33 70q23 -18 65.5 -32t89.5 -14q72 0 119 53.5t47 131.5q0 88 -60 140t-167 52v62q90 0 146.5 45t56.5 114q0 53 -36 91t-97 38q-39 0 -70 -9t-57 -27l-37 59q74 55 182 55q96 0 152.5 -54t56.5 -142q0 -76 -37 -122t-84 -69q59 -25 103.5 -83t44.5 -150 q0 -106 -72 -184t-178 -78q-127 0 -201 53zM416 18l579 1409l86 -34l-579 -1411zM813 199v71l317 588h82v-588h64v-71h-64v-199h-88v199h-311zM893 270h229v377q0 41 1 51.5t5 18.5q-6 -14 -8.5 -21.5t-27.5 -52.5z" />
<glyph unicode="&#xbf;" horiz-adv-x="774" d="M123 -139q0 127 80 209t170 112l16 348h86l19 -399q-98 -23 -169 -90.5t-71 -179.5q0 -90 50 -150.5t149 -60.5q68 0 112.5 13t83.5 40l43 -84q-39 -35 -106.5 -56.5t-149.5 -21.5q-143 0 -228 87t-85 233zM338 889q0 41 27.5 68.5t66.5 27.5q41 0 68.5 -27.5t27.5 -68.5 t-27.5 -68.5t-68.5 -27.5q-39 0 -66.5 27.5t-27.5 68.5z" />
<glyph unicode="&#xc0;" horiz-adv-x="1011" d="M43 0l414 1409h102l410 -1409h-133l-125 467h-416l-127 -467h-125zM283 1790q4 31 47 31q45 0 86 -31l123 -274h-66zM322 563h362l-129 494l-49 203l-51 -203z" />
<glyph unicode="&#xc1;" horiz-adv-x="1011" d="M43 0l414 1409h102l410 -1409h-133l-125 467h-416l-127 -467h-125zM322 563h362l-129 494l-49 203l-51 -203zM477 1511l119 275q41 31 86 31q41 0 47 -29l-188 -277h-64z" />
<glyph unicode="&#xc2;" horiz-adv-x="1011" d="M43 0l414 1409h102l410 -1409h-133l-125 467h-416l-127 -467h-125zM295 1540l164 201q20 27 49 26q29 0 47 -26l164 -201l-29 -31l-182 156l-182 -156zM322 563h362l-129 494l-49 203l-51 -203z" />
<glyph unicode="&#xc3;" horiz-adv-x="1011" d="M43 0l414 1409h102l410 -1409h-133l-125 467h-416l-127 -467h-125zM287 1589q18 51 39.5 77t70.5 34q47 6 116 -37t101 -37q33 6 52.5 31.5t27.5 56.5l60 -67q-12 -45 -37 -72t-78 -37q-45 -8 -110.5 35t-104.5 37q-33 -6 -51.5 -30t-30.5 -56zM322 563h362l-129 494 l-49 203l-51 -203z" />
<glyph unicode="&#xc4;" horiz-adv-x="1011" d="M43 0l414 1409h102l410 -1409h-133l-125 467h-416l-127 -467h-125zM291 1614q0 33 21.5 54.5t52.5 21.5q33 0 54 -21.5t21 -54.5t-21 -54.5t-54 -21.5q-29 0 -51.5 22.5t-22.5 53.5zM322 563h362l-129 494l-49 203l-51 -203zM575 1614q0 33 21.5 54.5t52.5 21.5 t52.5 -21.5t21.5 -54.5q0 -31 -20.5 -53.5t-53.5 -22.5q-29 0 -51.5 22.5t-22.5 53.5z" />
<glyph unicode="&#xc5;" horiz-adv-x="1011" d="M43 0l414 1409h102l410 -1409h-133l-125 467h-416l-127 -467h-125zM322 561h362l-129 496l-49 203l-51 -203zM352 1665q0 66 45 111t111 45t111 -45t45 -111t-45 -111t-111 -45t-111 45t-45 111zM403 1665q0 -41 31 -71.5t74 -30.5t73.5 28.5t30.5 73.5q0 43 -30.5 73.5 t-73.5 30.5t-74 -30.5t-31 -73.5z" />
<glyph unicode="&#xc6;" horiz-adv-x="1298" d="M14 0l510 1409h623v-102h-496l117 -525h379v-102h-354l127 -578h335v-102h-444l-94 467h-414l-160 -467h-129zM334 559h364l-104 518q-8 45 -17.5 99.5t-11.5 72.5l-57 -170z" />
<glyph unicode="&#xc7;" horiz-adv-x="862" d="M117 705q0 307 119.5 516t324.5 209q80 0 135.5 -19.5t102.5 -62.5l-37 -86q-31 25 -80 44t-109 19q-162 0 -240.5 -178t-78.5 -442q0 -258 81 -436.5t236 -178.5q63 0 110.5 16.5t84.5 47.5l35 -93q-35 -39 -96.5 -60t-149.5 -21q-205 0 -321.5 200.5t-116.5 524.5z M334 -344l28 53q14 -2 27.5 -2h28.5q74 0 126 21.5t52 54.5t-36 46t-130 13l27 54q16 2 34.5 2h28.5q178 0 178 -111q0 -66 -76.5 -102.5t-189.5 -36.5q-55 0 -98 8z" />
<glyph unicode="&#xc8;" horiz-adv-x="790" d="M154 0v1409h551v-102h-420v-525h381v-104h-381v-576h420v-102h-551zM227 1790q6 31 49 31t84 -31l123 -274h-65z" />
<glyph unicode="&#xc9;" horiz-adv-x="790" d="M154 0v1409h551v-102h-420v-525h381v-102h-381v-578h420v-102h-551zM346 1511l119 275q41 31 86 31q41 0 47 -29l-188 -277h-64z" />
<glyph unicode="&#xca;" horiz-adv-x="790" d="M154 0v1409h551l-3 -102h-417v-525h381v-104h-381v-576h420v-102h-551zM207 1540l164 201q20 27 47 26q29 0 49 -26l164 -201l-29 -31l-184 156l-182 -156z" />
<glyph unicode="&#xcb;" horiz-adv-x="790" d="M154 0v1409h551v-102h-420v-525h381v-104h-381v-576h420v-102h-551zM213 1614q0 33 21.5 54.5t52.5 21.5q33 0 54 -21.5t21 -54.5t-21 -54.5t-54 -21.5q-29 0 -51.5 22.5t-22.5 53.5zM498 1614q0 33 21.5 54.5t51.5 21.5q31 0 52.5 -21.5t21.5 -54.5q0 -31 -20.5 -53.5 t-53.5 -22.5q-29 0 -51 22.5t-22 53.5z" />
<glyph unicode="&#xcc;" horiz-adv-x="452" d="M27 1790q6 31 49 31t84 -31l123 -274h-66zM168 0v1409h131v-1409h-131z" />
<glyph unicode="&#xcd;" horiz-adv-x="440" d="M154 0v1409h131v-1409h-131zM160 1511l121 275q41 31 86 31q41 0 47 -29l-189 -277h-65z" />
<glyph unicode="&#xce;" horiz-adv-x="448" d="M12 1540l164 201q20 27 47 26q29 0 49 -26l164 -201l-28 -31l-185 156l-182 -156zM158 0v1409h131v-1409h-131z" />
<glyph unicode="&#xcf;" horiz-adv-x="448" d="M8 1614q0 33 21.5 54.5t52.5 21.5q33 0 54.5 -21.5t21.5 -54.5q0 -31 -22.5 -53.5t-53.5 -22.5q-29 0 -51.5 22.5t-22.5 53.5zM158 0v1409h131v-1409h-131zM291 1614q0 31 22.5 53.5t53.5 22.5t52 -21.5t21 -54.5q0 -31 -20 -53.5t-53 -22.5q-31 0 -53.5 22.5t-22.5 53.5 z" />
<glyph unicode="&#xd0;" horiz-adv-x="1093" d="M80 723v84h110v541q51 39 132 60.5t176 21.5q225 0 352 -186.5t127 -520.5q0 -326 -116.5 -534.5t-354.5 -208.5q-211 0 -316 81v664zM324 117q25 -14 66.5 -20.5t92.5 -6.5q158 0 258.5 147.5t100.5 485.5q0 297 -93.5 453.5t-271.5 156.5q-102 0 -153 -22v-504h227v-82 h-227v-608z" />
<glyph unicode="&#xd1;" horiz-adv-x="1132" d="M154 0v1409h153l512 -1081q27 -57 37 -83t21 -55v144v1075h106v-1409h-123l-543 1130q-16 35 -33.5 80t-25.5 64v-141v-1133h-104zM326 1589q18 51 39.5 77t70.5 34q47 6 116 -37t101 -37q33 6 52.5 31.5t27.5 56.5l60 -67q-12 -45 -37 -72t-78 -37q-45 -8 -110.5 35 t-104.5 37q-33 -6 -51.5 -30t-30.5 -56z" />
<glyph unicode="&#xd2;" horiz-adv-x="1081" d="M117 705q0 324 101 524.5t323 200.5q219 0 321.5 -203t102.5 -522q0 -326 -101.5 -525.5t-322.5 -199.5q-219 0 -321.5 200.5t-102.5 524.5zM248 707q0 -268 64.5 -442.5t228.5 -174.5t228.5 174t64.5 443q0 266 -66.5 443t-226.5 177q-158 0 -225.5 -178t-67.5 -442z M336 1790q4 31 47 31q45 0 86 -31l123 -274h-66z" />
<glyph unicode="&#xd3;" horiz-adv-x="1081" d="M117 705q0 324 101 524.5t323 200.5q219 0 321.5 -203t102.5 -522q0 -326 -101.5 -525.5t-322.5 -199.5q-219 0 -321.5 200.5t-102.5 524.5zM248 707q0 -268 64.5 -442.5t228.5 -174.5t228.5 174t64.5 443q0 266 -66.5 443t-226.5 177q-158 0 -225.5 -178t-67.5 -442z M481 1511l121 275q41 31 86 31q41 0 47 -29l-188 -277h-66z" />
<glyph unicode="&#xd4;" horiz-adv-x="1081" d="M117 705q0 324 101 524.5t323 200.5q219 0 321.5 -203t102.5 -522q0 -326 -101.5 -525.5t-322.5 -199.5q-219 0 -321.5 200.5t-102.5 524.5zM248 707q0 -268 64.5 -442.5t228.5 -174.5t228.5 174t64.5 443q0 266 -66.5 443t-226.5 177q-158 0 -225.5 -178t-67.5 -442z M328 1540l164 201q20 27 49 26q29 0 47 -26l164 -201l-29 -31l-182 156l-183 -156z" />
<glyph unicode="&#xd5;" horiz-adv-x="1081" d="M117 705q0 324 101 524.5t323 200.5q219 0 321.5 -203t102.5 -522q0 -326 -101.5 -525.5t-322.5 -199.5q-219 0 -321.5 200.5t-102.5 524.5zM248 707q0 -268 64.5 -442.5t228.5 -174.5t228.5 174t64.5 443q0 266 -66.5 443t-226.5 177q-158 0 -225.5 -178t-67.5 -442z M305 1589q18 51 40 77t71 34q47 6 115.5 -37t101.5 -37t52.5 31.5t27.5 56.5l59 -67q-12 -45 -37 -72t-78 -37q-45 -8 -110.5 35t-104.5 37q-33 -6 -51 -30t-31 -56z" />
<glyph unicode="&#xd6;" horiz-adv-x="1081" d="M117 705q0 324 101 524.5t323 200.5q219 0 321.5 -203t102.5 -522q0 -326 -101.5 -525.5t-322.5 -199.5q-219 0 -321.5 200.5t-102.5 524.5zM248 707q0 -268 64.5 -442.5t228.5 -174.5t228.5 174t64.5 443q0 266 -66.5 443t-226.5 177q-158 0 -225.5 -178t-67.5 -442z M326 1614q0 33 21.5 54.5t51.5 21.5q31 0 52.5 -21.5t21.5 -54.5q0 -31 -20.5 -53.5t-53.5 -22.5q-29 0 -51 22.5t-22 53.5zM608 1614q0 33 21.5 54.5t52.5 21.5q33 0 54.5 -21.5t21.5 -54.5t-21.5 -54.5t-54.5 -21.5q-29 0 -51.5 22.5t-22.5 53.5z" />
<glyph unicode="&#xd7;" d="M125 242v98h663v-98h-663zM125 504v108l575 224l-575 223v108l663 -280v-103z" />
<glyph unicode="&#xd8;" horiz-adv-x="1163" d="M123 705q0 315 115.5 520t343.5 205q166 0 288 -130l121 228l47 -27l-131 -248q66 -98 99.5 -243.5t33.5 -304.5q0 -317 -114.5 -521t-343.5 -204q-166 0 -285 124l-125 -235l-45 27l133 254q-70 104 -103.5 244.5t-33.5 310.5zM240 709q0 -127 16 -233.5t63 -215.5 l500 942q-43 70 -101 107t-136 37q-186 0 -264 -195t-78 -442zM350 205q43 -66 99.5 -98.5t132.5 -32.5q186 0 264 193.5t78 441.5q0 119 -16.5 225.5t-57.5 212.5z" />
<glyph unicode="&#xd9;" horiz-adv-x="1034" d="M154 385v1024h131v-1055q0 -115 66.5 -187.5t172.5 -72.5q104 0 172 72t68 188v1055h117v-1026q0 -186 -101.5 -296t-263.5 -110q-160 0 -261 110t-101 298zM330 1790q4 31 47 31q45 0 86 -31l123 -274h-66z" />
<glyph unicode="&#xda;" horiz-adv-x="1034" d="M154 385v1024h131v-1055q0 -115 66.5 -187.5t172.5 -72.5q104 0 172 72t68 188v1055h117v-1026q0 -186 -101.5 -296t-263.5 -110q-160 0 -261 110t-101 298zM440 1511l121 275q41 31 86 31q41 0 47 -29l-188 -277h-66z" />
<glyph unicode="&#xdb;" horiz-adv-x="1034" d="M154 385v1024h131v-1055q0 -115 66.5 -187.5t172.5 -72.5q104 0 172 72t68 188v1055h117v-1026q0 -186 -101.5 -296t-263.5 -110q-160 0 -261 110t-101 298zM307 1540l164 201q20 27 47 26q29 0 49 -26l164 -201l-29 -31l-184 156l-182 -156z" />
<glyph unicode="&#xdc;" horiz-adv-x="1034" d="M154 385v1024h131v-1055q0 -115 66.5 -187.5t172.5 -72.5q104 0 172 72t68 188v1055h117v-1026q0 -186 -101.5 -296t-263.5 -110q-160 0 -261 110t-101 298zM305 1614q0 33 21.5 54.5t52.5 21.5q33 0 54.5 -21.5t21.5 -54.5t-21.5 -54.5t-54.5 -21.5q-29 0 -51.5 22.5 t-22.5 53.5zM590 1614q0 33 21.5 54.5t52.5 21.5t52 -21.5t21 -54.5q0 -31 -20 -53.5t-53 -22.5q-29 0 -51.5 22.5t-22.5 53.5z" />
<glyph unicode="&#xdd;" horiz-adv-x="864" d="M35 1409h145l258 -657l264 657h127l-329 -770v-639h-133v639zM375 1511l119 275q41 31 86 31q41 0 47 -29l-189 -277h-63z" />
<glyph unicode="&#xde;" horiz-adv-x="897" d="M154 0v1409h131v-254q31 10 59.5 17.5t83.5 7.5q184 0 285.5 -116t101.5 -308q0 -193 -121.5 -298.5t-367.5 -105.5l-41 2v-354h-131zM285 453l41 -4q14 -2 27.5 -2.5t27.5 -0.5q154 0 229.5 84t75.5 213q0 166 -73.5 255t-194.5 89q-76 0 -133 -20v-614z" />
<glyph unicode="&#xdf;" horiz-adv-x="927" d="M141 0v1106q0 238 83 380t243 142q154 0 230.5 -124t76.5 -318q0 -59 -6 -109.5t-20 -93.5q-102 -12 -151.5 -55t-49.5 -131q0 -82 115.5 -192.5t148.5 -170t33 -155.5q0 -129 -83 -210t-210 -81q-59 0 -104.5 13t-73.5 38l30 90q18 -16 54.5 -27.5t89.5 -11.5 q78 0 126 50t48 136q0 70 -25.5 116t-106.5 122t-118 138.5t-37 131.5q0 106 53.5 167t149.5 91q8 29 12 66t4 82q0 158 -42 251t-144 93q-113 0 -158 -119t-45 -307v-1108h-123z" />
<glyph unicode="&#xe0;" horiz-adv-x="858" d="M96 303q0 205 139.5 296t374.5 120v63q0 127 -56 185.5t-153 58.5q-61 0 -119.5 -20.5t-97.5 -49.5l-30 86q45 35 111.5 58.5t146.5 23.5q135 0 224 -79.5t89 -262.5v-721q-55 -39 -128 -60t-163 -21q-168 0 -253 88t-85 235zM213 303q0 -117 60.5 -177t172.5 -60 q49 0 93.5 10t70.5 26v531q-207 -31 -302 -100.5t-95 -229.5zM252 1503q6 31 49 31t84 -31l121 -274h-62z" />
<glyph unicode="&#xe1;" horiz-adv-x="858" d="M96 303q0 205 139.5 296t374.5 120v63q0 127 -56 185.5t-153 58.5q-61 0 -119.5 -20.5t-97.5 -49.5l-30 86q45 35 111.5 58.5t146.5 23.5q135 0 224 -79.5t89 -262.5v-721q-55 -39 -128 -60t-163 -21q-168 0 -253 88t-85 235zM213 303q0 -117 60.5 -177t172.5 -60 q49 0 93.5 10t70.5 26v531q-207 -31 -302 -100.5t-95 -229.5zM389 1225l119 274q41 31 86 31q41 0 47 -29l-188 -276h-64z" />
<glyph unicode="&#xe2;" horiz-adv-x="858" d="M96 303q0 205 139.5 296t374.5 120v63q0 127 -56 185.5t-153 58.5q-61 0 -119.5 -20.5t-97.5 -49.5l-30 86q45 35 111.5 58.5t146.5 23.5q135 0 224 -79.5t89 -262.5v-721q-55 -39 -128 -60t-163 -21q-168 0 -253 88t-85 235zM213 303q0 -117 60.5 -177t172.5 -60 q49 0 93.5 10t70.5 26v531q-207 -31 -302 -100.5t-95 -229.5zM223 1253l164 201q20 27 47 27q29 0 49 -27l164 -201l-29 -30l-182 155l-184 -155z" />
<glyph unicode="&#xe3;" horiz-adv-x="858" d="M96 303q0 205 139.5 296t374.5 120v63q0 127 -56 185.5t-153 58.5q-61 0 -119.5 -20.5t-97.5 -49.5l-30 86q45 35 111.5 58.5t146.5 23.5q135 0 224 -79.5t89 -262.5v-721q-55 -39 -128 -60t-163 -21q-168 0 -253 88t-85 235zM203 1303q14 47 37.5 74.5t72.5 35.5 q43 6 115 -37t102 -37q33 6 51.5 32t26.5 56l60 -67q-10 -45 -36 -72t-79 -37q-45 -8 -110.5 35t-104.5 37q-33 -6 -51.5 -30.5t-28.5 -55.5zM213 303q0 -117 60.5 -177t172.5 -60q49 0 93.5 10t70.5 26v531q-207 -31 -302 -100.5t-95 -229.5z" />
<glyph unicode="&#xe4;" horiz-adv-x="858" d="M96 303q0 205 139.5 296t374.5 120v63q0 127 -56 185.5t-153 58.5q-61 0 -119.5 -20.5t-97.5 -49.5l-30 86q45 35 111.5 58.5t146.5 23.5q135 0 224 -79.5t89 -262.5v-721q-55 -39 -128 -60t-163 -21q-168 0 -253 88t-85 235zM213 303q0 -117 60.5 -177t172.5 -60 q49 0 93.5 10t70.5 26v531q-207 -31 -302 -100.5t-95 -229.5zM223 1331q0 33 21.5 54.5t54.5 21.5q29 0 51.5 -22.5t22.5 -53.5t-20.5 -53.5t-53.5 -22.5q-31 0 -53.5 22.5t-22.5 53.5zM508 1331q0 31 20.5 53.5t53.5 22.5q29 0 51 -22.5t22 -53.5t-20 -53.5t-53 -22.5 q-29 0 -51.5 22.5t-22.5 53.5z" />
<glyph unicode="&#xe5;" horiz-adv-x="858" d="M96 303q0 205 139.5 296t374.5 120v63q0 127 -56 185.5t-153 58.5q-61 0 -119.5 -20.5t-97.5 -49.5l-30 86q45 35 111.5 58.5t146.5 23.5q135 0 224 -79.5t89 -262.5v-721q-55 -39 -128 -60t-163 -21q-168 0 -253 88t-85 235zM213 303q0 -117 60.5 -177t172.5 -60 q49 0 93.5 10t70.5 26v531q-207 -31 -302 -100.5t-95 -229.5zM285 1384q0 66 45 111t110 45q66 0 111 -45t45 -111t-45 -110.5t-111 -44.5t-110.5 45t-44.5 110zM336 1384q0 -41 30.5 -71.5t73.5 -30.5t73 29.5t30 72.5t-29 74t-74 31q-43 0 -73.5 -31t-30.5 -74z" />
<glyph unicode="&#xe6;" horiz-adv-x="1400" d="M96 305q0 199 122 293t396 121v63q0 123 -61 183.5t-162 60.5q-61 0 -113.5 -20.5t-89.5 -49.5l-28 86q41 35 106.5 58.5t143.5 23.5q98 0 169.5 -42t110.5 -146q43 92 113.5 140t154.5 48q166 0 255.5 -133t89.5 -407l-586 -72q0 -213 77.5 -320.5t213.5 -107.5 q78 0 137 22.5t96 51.5l35 -97q-37 -33 -114 -57t-158 -24q-106 0 -190.5 51t-127.5 141q-33 -92 -101.5 -142t-168.5 -50q-162 0 -241 88t-79 237zM211 303q0 -115 55.5 -174t153.5 -59q78 0 136 65.5t58 165.5v330q-225 -25 -314 -94.5t-89 -233.5zM715 600l459 59 q0 182 -57 272.5t-161 90.5t-172.5 -107.5t-68.5 -314.5z" />
<glyph unicode="&#xe7;" horiz-adv-x="735" d="M104 551q0 268 96.5 420.5t258.5 152.5q78 0 128 -21.5t85 -60.5l-31 -84q-27 29 -70 47.5t-96 18.5q-125 0 -185.5 -127t-60.5 -338q0 -213 63.5 -343t178.5 -130q55 0 97 17.5t71 48.5l33 -91q-29 -35 -85 -58t-132 -23q-164 0 -257.5 150.5t-93.5 420.5zM219 -344 l29 53q14 -2 27.5 -2h27.5q74 0 126 21.5t52 54.5t-35.5 46t-130.5 13l27 54q16 2 34.5 2h29.5q178 0 178 -111q0 -66 -77 -102.5t-190 -36.5q-55 0 -98 8z" />
<glyph unicode="&#xe8;" horiz-adv-x="909" d="M104 555q0 276 100.5 422.5t262.5 146.5q164 0 254 -133t90 -407l-590 -72q0 -203 80 -314.5t213 -111.5q78 0 137.5 20.5t96.5 51.5l34 -97q-39 -35 -110.5 -58t-159.5 -23q-182 0 -295 141t-113 434zM219 600l463 59q0 182 -56.5 272.5t-160.5 90.5q-106 0 -176 -110.5 t-70 -311.5zM262 1503q6 31 49 31t84 -31l121 -274h-61z" />
<glyph unicode="&#xe9;" horiz-adv-x="909" d="M104 555q0 276 100.5 422.5t262.5 146.5q164 0 254 -133t90 -407l-590 -72q0 -203 80 -314.5t213 -111.5q78 0 137.5 20.5t96.5 51.5l34 -97q-39 -35 -110.5 -58t-159.5 -23q-182 0 -295 141t-113 434zM219 600l463 59q0 182 -56.5 272.5t-160.5 90.5q-106 0 -176 -110.5 t-70 -311.5zM420 1225l119 274q41 31 86 31q41 0 47 -29l-189 -276h-63z" />
<glyph unicode="&#xea;" horiz-adv-x="909" d="M104 555q0 276 100.5 422.5t262.5 146.5q164 0 254 -133t90 -407l-590 -72q0 -203 80 -314.5t213 -111.5q78 0 137.5 20.5t96.5 51.5l34 -97q-39 -35 -110.5 -58t-159.5 -23q-182 0 -295 141t-113 434zM219 600l463 59q0 182 -56.5 272.5t-160.5 90.5q-106 0 -176 -110.5 t-70 -311.5zM258 1253l164 201q20 27 47 27q29 0 49 -27l164 -201l-29 -30l-182 155l-184 -155z" />
<glyph unicode="&#xeb;" horiz-adv-x="909" d="M104 555q0 276 100.5 422.5t262.5 146.5q164 0 254 -133t90 -407l-590 -72q0 -203 80 -314.5t213 -111.5q78 0 137.5 20.5t96.5 51.5l34 -97q-39 -35 -110.5 -58t-159.5 -23q-182 0 -295 141t-113 434zM219 600l463 59q0 182 -56.5 272.5t-160.5 90.5q-106 0 -176 -110.5 t-70 -311.5zM256 1331q0 33 21.5 54.5t54.5 21.5q29 0 51.5 -22.5t22.5 -53.5t-20.5 -53.5t-53.5 -22.5q-31 0 -53.5 22.5t-22.5 53.5zM541 1331q0 31 20.5 53.5t52.5 22.5q29 0 51.5 -22.5t22.5 -53.5t-20.5 -53.5t-53.5 -22.5q-29 0 -51 22.5t-22 53.5z" />
<glyph unicode="&#xec;" horiz-adv-x="407" d="M27 1503q6 31 49 31t84 -31l121 -274h-62zM158 0v1104h121v-1104h-121z" />
<glyph unicode="&#xed;" horiz-adv-x="405" d="M127 1225l119 274q41 31 86 31q41 0 47 -29l-189 -276h-63zM139 0v1104h123v-1104h-123z" />
<glyph unicode="&#xee;" horiz-adv-x="413" d="M-4 1253l164 201q20 27 47 27q29 0 49 -27l164 -201l-29 -30l-184 155l-182 -155zM150 0v1104h120v-1104h-120z" />
<glyph unicode="&#xef;" horiz-adv-x="448" d="M8 1331q0 31 20.5 53.5t53.5 22.5q31 0 53.5 -22.5t22.5 -53.5t-22.5 -53.5t-53.5 -22.5q-29 0 -51.5 22.5t-22.5 53.5zM164 0v1104h121v-1104h-121zM291 1331q0 31 22.5 53.5t53.5 22.5q29 0 51 -22.5t22 -53.5t-20 -53.5t-53 -22.5q-31 0 -53.5 22.5t-22.5 53.5z" />
<glyph unicode="&#xf1;" horiz-adv-x="907" d="M133 0v1042q61 41 141 61.5t191 20.5q141 0 225 -74.5t84 -240.5v-809h-123v809q0 221 -205 221q-70 0 -108.5 -9t-81.5 -30v-991h-123zM211 1303q14 47 37.5 74.5t73.5 35.5q47 6 115.5 -37t101.5 -37q31 6 50 32t29 56l60 -67q-12 -47 -37 -73t-78 -36 q-45 -8 -111.5 35t-105.5 37q-31 -6 -49 -30.5t-31 -55.5z" />
<glyph unicode="&#xf2;" horiz-adv-x="911" d="M104 551q0 258 85 415.5t266 157.5q182 0 267 -156.5t85 -416.5q0 -254 -85 -412.5t-265 -158.5q-182 0 -267.5 157.5t-85.5 413.5zM227 551q0 -205 51.5 -339t178.5 -134q129 0 178 132t49 341t-49 348t-178 139q-127 0 -178.5 -139t-51.5 -348zM258 1503q6 31 49 31 t84 -31l121 -274h-61z" />
<glyph unicode="&#xf3;" horiz-adv-x="911" d="M104 551q0 258 85 415.5t266 157.5q182 0 267 -156.5t85 -416.5q0 -254 -85 -412.5t-265 -158.5q-182 0 -267.5 157.5t-85.5 413.5zM227 551q0 -205 51.5 -339t178.5 -134q129 0 178 132t49 341t-49 348t-178 139q-127 0 -178.5 -139t-51.5 -348zM403 1225l121 274 q41 31 86 31q41 0 47 -29l-188 -276h-66z" />
<glyph unicode="&#xf4;" horiz-adv-x="911" d="M104 551q0 258 85 415.5t266 157.5q182 0 267 -156.5t85 -416.5q0 -254 -85 -412.5t-265 -158.5q-182 0 -267.5 157.5t-85.5 413.5zM227 551q0 -205 51.5 -339t178.5 -134q129 0 178 132t49 341t-49 348t-178 139q-127 0 -178.5 -139t-51.5 -348zM246 1253l164 201 q20 27 47 27q29 0 49 -27l164 -201l-29 -30l-182 155l-185 -155z" />
<glyph unicode="&#xf5;" horiz-adv-x="911" d="M104 551q0 258 85 415.5t266 157.5q182 0 267 -156.5t85 -416.5q0 -254 -85 -412.5t-265 -158.5q-182 0 -267.5 157.5t-85.5 413.5zM217 1303q18 51 40 76.5t71 33.5q47 6 115.5 -37t101.5 -37t52 32t28 56l59 -67q-12 -45 -37 -72t-78 -37q-45 -8 -110.5 35t-104.5 37 q-33 -6 -51 -29.5t-31 -56.5zM227 551q0 -205 51.5 -339t178.5 -134q129 0 178 132t49 341t-49 348t-178 139q-127 0 -178.5 -139t-51.5 -348z" />
<glyph unicode="&#xf6;" horiz-adv-x="911" d="M104 551q0 258 85 415.5t266 157.5q182 0 267 -156.5t85 -416.5q0 -254 -85 -412.5t-265 -158.5q-182 0 -267.5 157.5t-85.5 413.5zM227 551q0 -205 51.5 -339t178.5 -134q129 0 178 132t49 341t-49 348t-178 139q-127 0 -178.5 -139t-51.5 -348zM240 1333 q0 31 20.5 53.5t52.5 22.5q31 0 53.5 -22.5t22.5 -53.5t-22.5 -53.5t-53.5 -22.5q-29 0 -51 23t-22 53zM524 1333q0 31 20.5 53.5t53.5 22.5q29 0 51.5 -22.5t22.5 -53.5t-20.5 -53.5t-53.5 -22.5q-29 0 -51.5 23t-22.5 53z" />
<glyph unicode="&#xf7;" d="M125 635v98h663v-98h-663zM360 1018q0 41 28 68.5t69 27.5q39 0 66.5 -27.5t27.5 -66.5q0 -41 -27.5 -68.5t-66.5 -27.5q-41 0 -69 27.5t-28 66.5zM362 352q0 41 28 69t67 28q41 0 68.5 -28t27.5 -69t-27.5 -68.5t-68.5 -27.5q-39 0 -67 27.5t-28 68.5z" />
<glyph unicode="&#xf8;" horiz-adv-x="923" d="M111 551q0 258 86 415.5t266 157.5q119 0 209 -82l96 199l43 -20l-106 -220q57 -80 82.5 -193.5t25.5 -256.5q0 -254 -85 -412.5t-265 -158.5q-119 0 -209 81l-98 -202l-43 20l106 223q-57 82 -82.5 194t-25.5 255zM213 551q0 -106 10 -183t45 -165l365 758 q-29 39 -74 64.5t-96 25.5q-147 0 -198.5 -149.5t-51.5 -350.5zM297 154q61 -84 166 -84q143 0 195.5 141t52.5 340q0 102 -10.5 188t-41.5 170z" />
<glyph unicode="&#xf9;" horiz-adv-x="894" d="M133 332v772h123v-787q0 -117 54.5 -179t148.5 -62q61 0 101 11t79 38v979h123v-1032q-55 -41 -132 -68t-181 -27q-315 0 -316 355zM252 1503q6 31 49 31t84 -31l121 -274h-62z" />
<glyph unicode="&#xfa;" horiz-adv-x="894" d="M133 332v772h123v-787q0 -117 54.5 -179t148.5 -62q61 0 101 11t79 38v979h123v-1032q-55 -41 -132 -68t-181 -27q-315 0 -316 355zM383 1225l121 274q41 31 86 31q41 0 47 -29l-188 -276h-66z" />
<glyph unicode="&#xfb;" horiz-adv-x="894" d="M133 332v772h123v-787q0 -117 54.5 -179t148.5 -62q61 0 101 11t79 38v979h123v-1032q-55 -41 -132 -68t-181 -27q-315 0 -316 355zM236 1253l163 201q20 27 47 27q29 0 50 -27l163 -201l-28 -30l-182 155l-185 -155z" />
<glyph unicode="&#xfc;" horiz-adv-x="894" d="M133 332v772h123v-787q0 -117 54.5 -179t148.5 -62q61 0 101 11t79 38v979h123v-1032q-55 -41 -132 -68t-181 -27q-315 0 -316 355zM231 1331q0 31 20.5 53.5t53.5 22.5q31 0 53.5 -22.5t22.5 -53.5t-22.5 -53.5t-53.5 -22.5q-29 0 -51.5 22.5t-22.5 53.5zM516 1331 q0 31 20.5 53.5t53.5 22.5q29 0 51.5 -22.5t22.5 -53.5t-20.5 -53.5t-53.5 -22.5q-29 0 -51.5 22.5t-22.5 53.5z" />
<glyph unicode="&#xfd;" horiz-adv-x="864" d="M68 1104h131l215 -940l266 940h121l-473 -1544h-127l161 440zM365 1225l120 274q41 31 86 31q41 0 47 -29l-190 -276h-63z" />
<glyph unicode="&#xfe;" horiz-adv-x="899" d="M127 -440v2048h121v-525q23 14 66.5 26.5t84.5 12.5q195 0 296.5 -149.5t101.5 -403.5q0 -274 -116 -429.5t-300 -155.5q-70 0 -131 20v-444h-123zM250 94q31 -8 63.5 -14t53.5 -6q160 0 233.5 140t73.5 343q0 219 -68 348t-215 129q-84 0 -141 -37v-903z" />
<glyph unicode="&#xff;" horiz-adv-x="864" d="M68 1104h131l215 -940l266 940h121l-473 -1544h-127l161 440zM223 1327q0 33 21.5 54.5t52.5 21.5t52.5 -21.5t21.5 -54.5q0 -31 -21.5 -52.5t-52.5 -21.5t-52.5 21.5t-21.5 52.5zM506 1327q0 33 21.5 54.5t54.5 21.5q31 0 52 -21.5t21 -54.5q0 -31 -21 -52.5t-52 -21.5 q-33 0 -54.5 21.5t-21.5 52.5z" />
<glyph unicode="&#x152;" horiz-adv-x="1382" d="M117 705q0 317 118.5 521t356.5 204q43 0 76.5 -4.5t64.5 -16.5h561v-102h-417v-525h380v-104h-380v-576h417v-102h-561q-53 -20 -141 -20q-238 0 -356.5 203.5t-118.5 521.5zM252 705q0 -244 74.5 -432.5t265.5 -188.5q61 0 94 4t64 21v1187q-59 39 -158 39 q-188 0 -264 -191.5t-76 -438.5z" />
<glyph unicode="&#x153;" horiz-adv-x="1472" d="M104 551q0 258 86 415.5t267 157.5q102 0 170.5 -56t111.5 -167q51 115 124 169t167 54q168 0 256 -128t88 -412l-586 -72q0 -248 93.5 -340t203.5 -92q86 0 144.5 18.5t103.5 53.5l29 -91q-43 -37 -111.5 -59t-171.5 -22q-115 0 -195.5 53t-142.5 180 q-43 -117 -110.5 -175t-173.5 -58q-178 0 -265.5 159.5t-87.5 411.5zM227 551q0 -246 65.5 -359.5t164.5 -113.5q133 0 180 141t47 332q0 205 -44 343t-183 138q-131 0 -180.5 -144.5t-49.5 -336.5zM786 608l463 58q0 182 -58.5 274t-162.5 92q-106 0 -174 -107.5 t-68 -316.5z" />
<glyph unicode="&#x178;" horiz-adv-x="866" d="M35 1409h145l258 -657l267 657h126l-331 -770v-639h-131v639zM225 1614q0 33 21.5 54.5t52.5 21.5t52.5 -21.5t21.5 -54.5q0 -31 -20.5 -53.5t-53.5 -22.5q-29 0 -51.5 22.5t-22.5 53.5zM508 1614q0 33 21.5 54.5t52.5 21.5q33 0 54 -21.5t21 -54.5t-21 -54.5t-54 -21.5 q-29 0 -51.5 22.5t-22.5 53.5z" />
<glyph unicode="&#x2000;" horiz-adv-x="910" />
<glyph unicode="&#x2001;" horiz-adv-x="1821" />
<glyph unicode="&#x2002;" horiz-adv-x="910" />
<glyph unicode="&#x2003;" horiz-adv-x="1821" />
<glyph unicode="&#x2004;" horiz-adv-x="607" />
<glyph unicode="&#x2005;" horiz-adv-x="455" />
<glyph unicode="&#x2006;" horiz-adv-x="303" />
<glyph unicode="&#x2007;" horiz-adv-x="303" />
<glyph unicode="&#x2008;" horiz-adv-x="227" />
<glyph unicode="&#x2009;" horiz-adv-x="364" />
<glyph unicode="&#x200a;" horiz-adv-x="101" />
<glyph unicode="&#x2010;" horiz-adv-x="600" d="M109 623v122h383v-122h-383z" />
<glyph unicode="&#x2011;" horiz-adv-x="600" d="M109 623v122h383v-122h-383z" />
<glyph unicode="&#x2012;" horiz-adv-x="600" d="M109 623v122h383v-122h-383z" />
<glyph unicode="&#x2013;" horiz-adv-x="663" d="M0 635v98h664v-96z" />
<glyph unicode="&#x2014;" horiz-adv-x="1327" d="M0 643v82h1327v-82h-1327z" />
<glyph unicode="&#x2018;" horiz-adv-x="485" d="M88 1122l242 486h67l-149 -482q-12 -25 -39 -40t-59 -15q-55 0 -62 51z" />
<glyph unicode="&#x2019;" horiz-adv-x="485" d="M88 1079l150 482q12 25 38.5 40t59.5 15q55 0 61 -51l-241 -486h-68z" />
<glyph unicode="&#x201a;" horiz-adv-x="485" d="M88 -352l150 483q27 53 98 53q55 0 61 -51l-241 -485h-68z" />
<glyph unicode="&#x201c;" horiz-adv-x="966" d="M170 1122l242 486h67l-149 -482q-12 -25 -39 -40t-60 -15q-55 0 -61 51zM487 1122l242 486h68l-150 -482q-12 -25 -38.5 -40t-59.5 -15q-55 0 -62 51z" />
<glyph unicode="&#x201d;" horiz-adv-x="966" d="M170 1077l149 484q27 53 99 53q55 0 61 -49l-241 -488h-68zM487 1077l150 484q27 53 98 53q55 0 62 -49l-242 -488h-68z" />
<glyph unicode="&#x201e;" horiz-adv-x="966" d="M170 -352l149 483q27 53 99 53q55 0 61 -51l-241 -485h-68zM487 -352l150 483q27 53 98 53q55 0 62 -51l-242 -485h-68z" />
<glyph unicode="&#x2022;" horiz-adv-x="681" d="M150 725q0 80 55 135t137 55q78 0 134 -54t56 -136q0 -80 -56 -136.5t-134 -56.5q-80 0 -136 56.5t-56 136.5z" />
<glyph unicode="&#x2026;" horiz-adv-x="1658" d="M182 82q0 41 27 69.5t67 28.5q41 0 68 -28.5t27 -69.5q0 -39 -27 -67.5t-68 -28.5q-39 0 -66.5 27.5t-27.5 68.5zM735 82q0 41 26.5 69.5t67.5 28.5t68 -28.5t27 -69.5q0 -39 -27 -67.5t-68 -28.5q-39 0 -66.5 27.5t-27.5 68.5zM1288 82q0 41 26.5 69.5t67.5 28.5 t68 -28.5t27 -69.5q0 -39 -27 -67.5t-68 -28.5q-39 0 -66.5 27.5t-27.5 68.5z" />
<glyph unicode="&#x202f;" horiz-adv-x="364" />
<glyph unicode="&#x2039;" horiz-adv-x="514" d="M82 684l268 430l62 -55l-228 -375l228 -375l-62 -55z" />
<glyph unicode="&#x203a;" horiz-adv-x="514" d="M102 309l230 375l-230 375l64 55l266 -430l-266 -430z" />
<glyph unicode="&#x205f;" horiz-adv-x="455" />
<glyph unicode="&#x2122;" horiz-adv-x="1388" d="M98 1339v70h416v-70h-168v-612h-78v612h-170zM557 727l74 682h110l152 -584l151 584h113l74 -682h-78l-61 616l-162 -616h-76l-162 616l-59 -616h-76z" />
<glyph unicode="&#x25fc;" horiz-adv-x="1105" d="M0 0v1106h1106v-1106h-1106z" />
</font>
</defs>
</svg>
