<?xml version="1.0" standalone="no"?>
<!DOCTYPE svg PUBLIC "-//W3C//DTD SVG 1.1//EN" "http://www.w3.org/Graphics/SVG/1.1/DTD/svg11.dtd" >
<svg>
<metadata>
Created by FontForge 20090914 at Tue Apr  7 18:39:03 2015
 By www-data
Copyright (c) 2002 by Dylan Smith &#38; Kienan Smith. Published by GarageFonts USA 301-879-9222 - - www.garagefonts.com. All rights reserved.
</metadata>
<defs>
<font id="DistrictPro-Thin" horiz-adv-x="580" >
  <font-face 
    font-family="District Pro Thin"
    font-weight="100"
    font-stretch="normal"
    units-per-em="1000"
    panose-1="2 0 5 6 4 0 0 2 0 4"
    ascent="800"
    descent="-200"
    x-height="501"
    cap-height="703"
    bbox="-88 -237.001 1235 1065"
    underline-thickness="20"
    underline-position="-113"
    unicode-range="U+0020-U+FB04"
  />
<missing-glyph horiz-adv-x="541" 
d="M471 0h-401v703h401v-703zM110 99l137 253l-137 253v-506zM270 394l147 269h-294zM417 40l-147 270l-147 -270h294zM431 99v506l-138 -253z" />
    <glyph glyph-name="f_f" unicode="ff" horiz-adv-x="558" 
d="M404 0h-41.002v463h-216v-463h-41v463h-81v38h81v88c0 38 9.66699 68.5 29 91.5s44 34.5 74 34.5c18.667 0 37.667 -5 57 -15v-44c-17.333 14 -34.666 21 -51.999 21c-18 0 -33.667 -7.5 -47 -22.5s-20 -34.5 -20 -58.5v-95h216v88c0 38 9.66699 68.5 29 91.5
s44 34.5 74 34.5c18.667 0 37.667 -5 57 -15v-44c-17.333 14 -34.666 21 -51.999 21c-18 0 -33.667 -7.5 -47 -22.5s-20 -34.5 -20 -58.5v-95h117v-38h-117v-463z" />
    <glyph glyph-name="fi" unicode="fi" horiz-adv-x="481" 
d="M404 0h-41.001v463h-216v-463h-41v463h-81v38h81v88c0 38 9.66699 68.5 29 91.5s44 34.5 74 34.5c18.667 0 37.667 -5 57 -15v-44c-17.333 14 -34.666 21 -51.999 21c-18 0 -33.667 -7.5 -47 -22.5s-20 -34.5 -20 -58.5v-95h257v-501z" />
    <glyph glyph-name="fl" unicode="fl" horiz-adv-x="482" 
d="M147 0h-41.001v463h-81v38h81v88c0 38 9.66699 68.5 29 91.5s44 34.5 74 34.5c18.667 0 37.667 -5 57 -15v-44c-17.333 14 -34.666 21 -51.999 21c-18 0 -33.667 -7.5 -47 -22.5s-20 -34.5 -20 -58.5v-95h117v-38h-117v-463zM411.999 0h-41v703h41v-703z" />
    <glyph glyph-name="f_f_i" unicode="ffi" horiz-adv-x="737" 
d="M660 0h-41.002v463h-215v-463h-41v463h-216v-463h-41v463h-81v38h81v88c0 38 9.66699 68.5 29 91.5s44 34.5 74 34.5c18.667 0 37.667 -5 57 -15v-44c-17.333 14 -34.666 21 -51.999 21c-18 0 -33.667 -7.5 -47 -22.5s-20 -34.5 -20 -58.5v-95h216v88
c0 38 9.66699 68.5 29 91.5s44 34.5 74 34.5c18.667 0 37.667 -5 57 -15v-44c-17.333 14 -34.666 21 -51.999 21c-18 0 -33.667 -7.5 -47 -22.5s-20 -34.5 -20 -58.5v-95h256v-501z" />
    <glyph glyph-name="f_f_l" unicode="ffl" horiz-adv-x="739" 
d="M404 0h-41.002v463h-216v-463h-41v463h-81v38h81v88c0 38 9.66699 68.5 29 91.5s44 34.5 74 34.5c18.667 0 37.667 -5 57 -15v-44c-17.333 14 -34.666 21 -51.999 21c-18 0 -33.667 -7.5 -47 -22.5s-20 -34.5 -20 -58.5v-95h216v88c0 38 9.66699 68.5 29 91.5
s44 34.5 74 34.5c18.667 0 37.667 -5 57 -15v-44c-17.333 14 -34.666 21 -51.999 21c-18 0 -33.667 -7.5 -47 -22.5s-20 -34.5 -20 -58.5v-95h117v-38h-117v-463zM668.998 0h-41v703h41v-703z" />
    <glyph glyph-name=".notdef" horiz-adv-x="541" 
d="M471 0h-401v703h401v-703zM110 99l137 253l-137 253v-506zM270 394l147 269h-294zM417 40l-147 270l-147 -270h294zM431 99v506l-138 -253z" />
    <glyph glyph-name=".notdef" horiz-adv-x="541" 
d="M471 0h-401v703h401v-703zM110 99l137 253l-137 253v-506zM270 394l147 269h-294zM417 40l-147 270l-147 -270h294zM431 99v506l-138 -253z" />
    <glyph glyph-name="space" unicode=" " horiz-adv-x="240" 
 />
    <glyph glyph-name="exclam" unicode="!" horiz-adv-x="221" 
d="M129 182h-22l-11 247v274h45v-274zM161 30c0 -11.333 -4 -21 -12 -29s-17.667 -12 -29 -12s-20.833 4 -28.5 12s-11.5 17.667 -11.5 29c0 10.667 4 20 12 28s17.333 12 28 12c11.333 0 21 -3.83301 29 -11.5s12 -17.167 12 -28.5z" />
    <glyph glyph-name="quotedbl" unicode="&#x22;" horiz-adv-x="313" 
d="M94 429h-23l-19 274h62zM241 429h-23l-19 274h62z" />
    <glyph glyph-name="numbersign" unicode="#" 
d="M386 0h-40l15 230h-162l-15 -230h-40l15 230h-125v36h128l13 198h-129v37h132l13 202h40l-14 -202h163l13 202h40l-14 -202h126v-37h-128l-13 -198h130v-36h-133zM364 266l13 198h-162l-13 -198h162z" />
    <glyph glyph-name="dollar" unicode="$" 
d="M318 -55l-41.999 -0.00292969v120c-83.333 4.66699 -142.333 46.667 -177 126l35 20c12.667 -35.333 32.667 -62.166 60 -80.499s59.666 -27.5 96.999 -27.5c46.667 0 82.834 11 108.501 33s38.5 52 38.5 90c0 28 -12.833 53 -38.5 75s-70.5 44.333 -134.5 67
c-56.667 20.667 -97 43.5 -121 68.5s-36 55.167 -36 90.5c0 44 16 78.833 48 104.5s72 39.834 120 42.501v113h42v-115c69.333 -7.33301 122.666 -39.333 159.999 -96l-32 -24c-36.667 56.667 -89.667 85 -159 85c-39.333 0 -71.833 -9.33301 -97.5 -28
s-38.5 -45.334 -38.5 -80.001c0 -30 9.33301 -53.167 28 -69.5s55.334 -35.166 110.001 -56.499c71.333 -27.333 121.166 -54.666 149.499 -81.999s42.5 -59.333 42.5 -96c0 -44.667 -15.333 -81 -46 -109s-69.667 -44.667 -117 -50v-121z" />
    <glyph glyph-name="percent" unicode="%" horiz-adv-x="790" 
d="M194 340c-46 0 -81.5 17.668 -106.5 53.001s-37.5 80 -37.5 134c0 51.333 11.833 95.666 35.5 132.999s60.5 56 110.5 56c48 0 84.167 -17.833 108.5 -53.5s36.5 -80.5 36.5 -134.5c0 -49.333 -12 -93 -36 -131s-61 -57 -111 -57zM196 375.001
c26 0 47.5 8.99805 64.5 26.998s28.167 37.5 33.5 58.5s8 42.833 8 65.5c0 44.667 -9.33301 81.834 -28 111.501s-45 44.5 -79 44.5c-33.333 0 -59.333 -14.667 -78 -44s-28 -65.666 -28 -108.999c0 -15.333 1.5 -31 4.5 -47s8 -32.5 15 -49.5s18.167 -30.833 33.5 -41.5
s33.333 -16 54 -16zM213 -36.001l-34 17l409 760l34 -16zM603 -13.001c-46 0 -81.5 17.668 -106.5 53.001s-37.5 80 -37.5 134c0 51.333 11.833 95.666 35.5 132.999s60.5 56 110.5 56c48 0 84.167 -17.833 108.5 -53.5s36.5 -80.5 36.5 -134.5c0 -49.333 -12 -93 -36 -131
s-61 -57 -111 -57zM605 22c26 0 47.5 8.99805 64.5 26.998s28.167 37.5 33.5 58.5s8 42.833 8 65.5c0 44.667 -9.33301 81.834 -28 111.501s-45 44.5 -79 44.5c-33.333 0 -59.333 -14.667 -78 -44s-28 -65.666 -28 -108.999c0 -15.333 1.5 -31 4.5 -47s8 -32.5 15 -49.5
s18.167 -30.833 33.5 -41.5s33.333 -16 54 -16z" />
    <glyph glyph-name="ampersand" unicode="&#x26;" horiz-adv-x="596" 
d="M556 -21l-31 -25.999l-70 86c-47.333 -34.667 -105.666 -52 -174.999 -52c-71.333 0 -128.333 19.667 -171 59s-64 86.666 -64 141.999c0 38.667 11 75.667 33 111s53.667 63.333 95 84l-19 23c-40 48 -60 98 -60 150c0 45.333 16.333 83.333 49 114s76.667 46 132 46
c88.667 0 147.667 -38 177 -114l-39 -16c-23.333 61.333 -69.333 92 -138 92c-44.667 0 -78.834 -11.333 -102.501 -34s-35.5 -51 -35.5 -85c0 -44.667 16 -87 48 -127l274 -336c28.667 31.333 43 68.333 43 111h42c0 -54 -19.667 -101.333 -59 -142zM430 69.001
l-232.999 285c-36.667 -18 -64 -42.167 -82 -72.5s-27 -61.5 -27 -93.5c0 -44.667 17.167 -83 51.5 -115s81.166 -48 140.499 -48c60.667 0 110.667 14.667 150 44z" />
    <glyph glyph-name="quotesingle" unicode="'" horiz-adv-x="166" 
d="M94 429h-23l-20 274h64z" />
    <glyph glyph-name="parenleft" unicode="(" horiz-adv-x="350" 
d="M290 -106l-11 -34c-70 52.667 -125.667 120.5 -167 203.5s-62 170.167 -62 261.5c0 92 20.667 179.333 62 262s97 150.334 167 203.001l11 -34c-60.667 -54 -108 -118.833 -142 -194.5s-51 -154.5 -51 -236.5c0 -81.333 17.333 -160.333 52 -237
s81.667 -141.334 141 -194.001z" />
    <glyph glyph-name="parenright" unicode=")" horiz-adv-x="350" 
d="M71 -140l-11 34c59.333 52.667 106.333 117.334 141 194.001s52 155.667 52 237c0 82 -17 160.833 -51 236.5s-81.333 140.5 -142 194.5l11 34c70 -52.667 125.667 -120.334 167 -203.001s62 -170 62 -262c0 -91.333 -20.667 -178.5 -62 -261.5s-97 -150.833 -167 -203.5
z" />
    <glyph glyph-name="asterisk" unicode="*" horiz-adv-x="399" 
d="M328 451l-118 76l12 -144h-46l14 144l-120 -76l-20 40l130 52l-130 52l20 40l120 -76l-14 144h46l-12 -143l118 75l21 -40l-130 -52l130 -52z" />
    <glyph glyph-name="plus" unicode="+" 
d="M311 66h-41v232h-230v39h229v232h41v-232h230v-39h-229v-232z" />
    <glyph glyph-name="comma" unicode="," horiz-adv-x="187" 
d="M49 -139l-29 11l56 194h63z" />
    <glyph glyph-name="hyphen" unicode="-" horiz-adv-x="320" 
d="M270 272h-220v38h220v-38z" />
    <glyph glyph-name="period" unicode="." horiz-adv-x="187" 
d="M134 30c0 -11.333 -4 -21 -12 -29s-17.667 -12 -29 -12s-20.833 4 -28.5 12s-11.5 17.667 -11.5 29c0 10.667 3.83301 20 11.5 28s17.167 12 28.5 12s21 -3.83301 29 -11.5s12 -17.167 12 -28.5z" />
    <glyph glyph-name="slash" unicode="/" horiz-adv-x="498" 
d="M19 -143l-34 19l485 897l33 -18z" />
    <glyph glyph-name="zero" unicode="0" 
d="M290 -13c-78 0 -137.5 32.167 -178.5 96.5s-61.5 153.833 -61.5 268.5s20.5 204 61.5 268s100.5 96 178.5 96s137.5 -32 178.5 -96s61.5 -153.333 61.5 -268s-20.5 -204.167 -61.5 -268.5s-100.5 -96.5 -178.5 -96.5zM289 24c46.667 0 85.168 15 115.501 45
s51.666 68.667 63.999 116s18.5 103.333 18.5 168c0 98.667 -16 177.667 -48 237s-82 89 -150 89c-46.667 0 -85 -14.833 -115 -44.5s-51 -68.167 -63 -115.5s-18 -103.333 -18 -168s6 -120.5 18 -167.5s33 -85.333 63 -115s68.333 -44.5 115 -44.5z" />
    <glyph glyph-name="one" unicode="1" 
d="M339 0h-42.001v614c-40 -35.333 -89 -53 -147 -53v38c88.667 6.66699 140.334 43.667 155.001 111h34v-710z" />
    <glyph glyph-name="two" unicode="2" 
d="M509 0l-445 0.00488281c2.66699 25.333 10 49.666 22 72.999s29 46 51 68s42.167 40.667 60.5 56s42.166 33.666 71.499 54.999s50 37 62 47c32 26 56.333 47 73 63s32.667 38 48 66s23 57.333 23 88c0 52 -16.833 92.167 -50.5 120.5s-78.167 42.5 -133.5 42.5
c-40.667 0 -76.167 -10.333 -106.5 -31s-52.166 -45.334 -65.499 -74.001l-33 20c16.667 34.667 43.667 63.667 81 87s79.666 35 126.999 35c70.667 0 125.667 -18.167 165 -54.5s59 -84.833 59 -145.5c0 -48.667 -12.5 -91.334 -37.5 -128.001s-65.5 -75.667 -121.5 -117
l-44.5 -32l-50 -37l-45 -36c-19.667 -16 -34.667 -29.667 -45 -41s-21.166 -24.833 -32.499 -40.5s-20 -30.834 -26 -45.501h393v-39z" />
    <glyph glyph-name="three" unicode="3" 
d="M64 129l37 21.001c13.333 -42.667 35.833 -74.334 67.5 -95.001s68.5 -31 110.5 -31c54 0 98.333 13.5 133 40.5s52 68.5 52 124.5c0 106 -64 159 -192 159h-72v37h66c119.333 0 179 48.667 179 146c0 44 -14.5 79.667 -43.5 107s-70.5 41 -124.5 41
c-35.333 0 -67.166 -10.167 -95.499 -30.5s-48.5 -45.5 -60.5 -75.5l-35 20c40 82 106 123 198 123c65.333 0 115.666 -17 150.999 -51s53 -77.333 53 -130c0 -90.667 -40.667 -146.334 -122 -167.001c44 -8.66699 78.5 -28.167 103.5 -58.5s37.5 -69.166 37.5 -116.499
c0 -62.667 -20.167 -112.667 -60.5 -150s-96.833 -56 -169.5 -56c-50 0 -94 12.333 -132 37s-65 59.667 -81 105z" />
    <glyph glyph-name="four" unicode="4" 
d="M445 0h-42v179h-366v40l349 484h59v-486h110v-38h-110v-179zM403 217v445l-324 -445h324z" />
    <glyph glyph-name="five" unicode="5" 
d="M55 105l30.9971 23.999c44.667 -70 108.334 -105 191.001 -105c64.667 0 115.334 18.5 152.001 55.5s55 87.167 55 150.5c0 58 -17.5 104.167 -52.5 138.5s-82.833 51.5 -143.5 51.5c-34 0 -66.667 -8.33301 -98 -25s-56.666 -40 -75.999 -70l-37 12l18 366h386v-39h-348
l-17 -283c46.667 50.667 106.667 76 180 76c72 0 128.5 -20.167 169.5 -60.5s61.5 -95.166 61.5 -164.499c0 -76 -22.5 -135.833 -67.5 -179.5s-106.167 -65.5 -183.5 -65.5c-47.333 0 -91 10.167 -131 30.5s-70 49.5 -90 87.5z" />
    <glyph glyph-name="six" unicode="6" 
d="M473 681l-19.999 -36.001c-32.667 22.667 -74.334 34 -125.001 34c-141.333 0 -221 -119.333 -239 -358c40.667 89.333 111 134 211 134c72 0 128.333 -21.167 169 -63.5s61 -98.166 61 -167.499c0 -72.667 -21.333 -130.334 -64 -173.001s-100.334 -64 -173.001 -64
c-44 0 -82.333 8.33301 -115 25s-58 39.334 -76 68.001s-31.167 59.667 -39.5 93s-12.5 69.333 -12.5 108c0 60 5.33301 115.5 16 166.5s26.834 96.833 48.501 137.5s51.167 72.667 88.5 96s81 35 131 35c24 0 49.5 -3.33301 76.5 -10s47.833 -15 62.5 -25zM294.001 23.999
c59.333 0 106.334 18.832 141.001 56.499s52 86.834 52 147.501c0 58 -17.167 104.167 -51.5 138.5s-80.833 51.5 -139.5 51.5s-106.667 -18.333 -144 -55s-56 -82.667 -56 -138c0 -17.333 3.5 -36.5 10.5 -57.5s17.5 -42.667 31.5 -65s34.667 -41 62 -56
s58.666 -22.5 93.999 -22.5z" />
    <glyph glyph-name="seven" unicode="7" 
d="M258 0h-49.001c22 236 111.333 457.333 268 664h-414v39h454v-48c-80.667 -104 -141.667 -208.333 -183 -313s-66.666 -218.667 -75.999 -342z" />
    <glyph glyph-name="eight" unicode="8" 
d="M383 375c98.667 -31.333 147.999 -93.668 147.999 -187.001c0 -59.333 -20.667 -107.666 -62 -144.999s-101 -56 -179 -56s-137.5 18.833 -178.5 56.5s-61.5 85.834 -61.5 144.501c0 93.333 49.333 155.666 148 186.999c-80.667 28.667 -121 82.667 -121 162
c0 52 18.833 94.833 56.5 128.5s89.834 50.5 156.501 50.5c67.333 0 119.833 -16.833 157.5 -50.5s56.5 -76.5 56.5 -128.5c0 -79.333 -40.333 -133.333 -121 -162zM460.999 535.998c0 40 -14.167 73.833 -42.5 101.5s-71.166 41.5 -128.499 41.5
c-56.667 0 -99.167 -13.833 -127.5 -41.5s-42.5 -61.5 -42.5 -101.5c0 -42 15.667 -76.667 47 -104s72.333 -41 123 -41c51.333 0 92.666 13.667 123.999 41s47 62 47 104zM487.999 189.998c0 52.667 -18.8311 93.667 -56.498 123s-84.834 44 -141.501 44
c-56 0 -102.833 -14.667 -140.5 -44s-56.5 -70.333 -56.5 -123c0 -50.667 17.667 -91 53 -121s83.333 -45 144 -45c61.333 0 109.666 15 144.999 45s53 70.333 53 121z" />
    <glyph glyph-name="nine" unicode="9" 
d="M107 22l19.999 36.001c32.667 -22.667 74.334 -34 125.001 -34c141.333 0 221 119.333 239 358c-40.667 -89.333 -111 -134 -211 -134c-72 0 -128.333 21.167 -169 63.5s-61 98.166 -61 167.499c0 72.667 21.333 130.334 64 173.001s100.334 64 173.001 64
c44 0 82.333 -8.33301 115 -25s58 -39.334 76 -68.001s31.167 -59.667 39.5 -93s12.5 -69.333 12.5 -108c0 -60 -5.33301 -115.5 -16 -166.5s-26.834 -96.833 -48.501 -137.5s-51.167 -72.667 -88.5 -96s-81 -35 -131 -35c-24 0 -49.5 3.33301 -76.5 10s-47.833 15 -62.5 25
zM483.999 478.001c0 17.333 -3.50098 36.501 -10.501 57.501s-17.5 42.667 -31.5 65s-34.667 41 -62 56s-58.666 22.5 -93.999 22.5c-59.333 0 -106.333 -18.833 -141 -56.5s-52 -86.834 -52 -147.501c0 -58 17.167 -104.167 51.5 -138.5s80.833 -51.5 139.5 -51.5
s106.667 18.333 144 55s56 82.667 56 138z" />
    <glyph glyph-name="colon" unicode=":" horiz-adv-x="221" 
d="M151 30c0 -11.333 -4 -21 -12 -29s-17.667 -12 -29 -12s-20.833 4 -28.5 12s-11.5 17.667 -11.5 29c0 10.667 4 20 12 28s17.333 12 28 12c11.333 0 21 -3.83301 29 -11.5s12 -17.167 12 -28.5zM151 461c0 -11.333 -4 -21 -12 -29s-17.667 -12 -29 -12
s-20.833 4 -28.5 12s-11.5 17.667 -11.5 29s4 20.833 12 28.5s17.333 11.5 28 11.5c11.333 0 21 -3.83301 29 -11.5s12 -17.167 12 -28.5z" />
    <glyph glyph-name="semicolon" unicode=";" horiz-adv-x="221" 
d="M151 461c0 -11.333 -4 -21 -12 -29s-17.667 -12 -29 -12s-20.833 4 -28.5 12s-11.5 17.667 -11.5 29s4 20.833 12 28.5s17.333 11.5 28 11.5c11.333 0 21 -3.83301 29 -11.5s12 -17.167 12 -28.5zM62 -139l-29 11l56 194h63z" />
    <glyph glyph-name="less" unicode="&#x3c;" 
d="M494 56l-444 269v48l444 268v-45l-412 -246l412 -248v-46z" />
    <glyph glyph-name="equal" unicode="=" 
d="M530 401h-480v39h480v-39zM530 197h-480v39h480v-39z" />
    <glyph glyph-name="greater" unicode="&#x3e;" 
d="M530 325l-444 -269v46l412 248l-412 246v45l444 -268v-48z" />
    <glyph glyph-name="question" unicode="?" horiz-adv-x="479" 
d="M257 30c0 -11.333 -4 -21 -12 -29s-17.667 -12 -29 -12s-20.833 4 -28.5 12s-11.5 17.667 -11.5 29c0 10.667 4 20 12 28s17.333 12 28 12c11.333 0 21 -3.83301 29 -11.5s12 -17.167 12 -28.5zM233 186h-38.0029v18c0 33.333 6.33301 63 19 89s25.5 45 38.5 57
s31.167 26.333 54.5 43c31.333 23.333 54 45.833 68 67.5s21 48.5 21 80.5c0 42 -14.667 75.333 -44 100s-66.333 37 -111 37c-37.333 0 -72.5 -9.33301 -105.5 -28s-55.833 -44.667 -68.5 -78l-37 16c14.667 40.667 41.834 72.167 81.501 94.5s82.834 33.5 129.501 33.5
c60.667 0 108.834 -16.5 144.501 -49.5s53.5 -74.833 53.5 -125.5c0 -38 -8.16699 -70.167 -24.5 -96.5s-44.5 -54.166 -84.5 -83.499c-17.333 -12.667 -30 -22.5 -38 -29.5s-17.5 -17 -28.5 -30s-18.833 -27.333 -23.5 -43s-7 -33.834 -7 -54.501v-18z" />
    <glyph glyph-name="at" unicode="@" horiz-adv-x="840" 
d="M656 48l12.001 -20.998c-76 -60.667 -158 -91 -246 -91c-100 0 -185.333 32.167 -256 96.5s-106 151.833 -106 262.5c0 116 38.167 215 114.5 297s171.5 123 285.5 123c96 0 173.333 -30.167 232 -90.5s88 -136.166 88 -227.499c0 -74.667 -20.167 -139.5 -60.5 -194.5
s-86.166 -82.5 -137.499 -82.5c-24.667 0 -44.834 6.33301 -60.501 19s-23.5 32.334 -23.5 59.001v4c-36.667 -48 -79.667 -72 -129 -72c-36.667 0 -65.834 14 -87.501 42s-32.5 65.333 -32.5 112c0 65.333 21.333 124.666 64 177.999s92.334 80 149.001 80
c28 0 52.167 -8.83301 72.5 -26.5s32.166 -38.834 35.499 -63.501l22 71h38l-88 -283c-6 -16 -9 -30.333 -9 -43c0 -32.667 16.333 -49 49 -49c34.667 0 65.5 14.167 92.5 42.5s46.667 61.166 59 98.499s18.5 73.333 18.5 108c0 87.333 -27 157.833 -81 211.5
s-124.667 80.5 -212 80.5c-104 0 -191.833 -37.833 -263.5 -113.5s-107.5 -169.167 -107.5 -280.5c0 -102.667 31.833 -183.834 95.5 -243.501s142.834 -89.5 237.501 -89.5c83.333 0 161.666 28.667 234.999 86zM525.001 309.002c13.333 45.333 19.998 78 19.998 98
c0 29.333 -7.33301 53.5 -22 72.5s-37.334 28.5 -68.001 28.5c-29.333 0 -57.166 -12.167 -83.499 -36.5s-46.833 -53.5 -61.5 -87.5s-22 -66.667 -22 -98c0 -36.667 7.83301 -66 23.5 -88s37.834 -33 66.501 -33c30.667 0 59.834 14 87.501 42s47.5 62 59.5 102z" />
    <glyph glyph-name="A" unicode="A" horiz-adv-x="589" 
d="M569 0h-44l-72 203h-317l-72 -203h-44l251 703h47zM441 239l-147 413l-146 -413h293z" />
    <glyph glyph-name="B" unicode="B" horiz-adv-x="598" 
d="M360 0l-285 0.000976562v703h283c47.333 0 87.333 -16.333 120 -49s49 -72.334 49 -119.001c0 -35.333 -9.83301 -66.833 -29.5 -94.5s-45.5 -47.5 -77.5 -59.5c40.667 -12 73.834 -34.833 99.501 -68.5s38.5 -72.167 38.5 -115.5c0 -54.667 -19.333 -101.167 -58 -139.5
s-85.334 -57.5 -140.001 -57.5zM117 396.001l226 0.00195312c38 0 71 13.167 99 39.5s42 58.166 42 95.499s-12.5 69.166 -37.5 95.499s-56.5 39.5 -94.5 39.5h-235v-270zM117 37.0029h236.999c46.667 0 85 15.5 115 46.5s45 69.167 45 114.5s-16.167 83.5 -48.5 114.5
s-73.166 46.5 -122.499 46.5h-226v-322z" />
    <glyph glyph-name="C" unicode="C" horiz-adv-x="616" 
d="M517 149l40 -16.999c-24 -45.333 -55.833 -80.833 -95.5 -106.5s-84.5 -38.5 -134.5 -38.5c-85.333 0 -153.666 34.833 -204.999 104.5s-77 156.5 -77 260.5s26 190.667 78 260s120.667 104 206 104c57.333 0 107.166 -16.333 149.499 -49s74.833 -77.667 97.5 -135
l-40 -15c-19.333 50 -46.833 89.333 -82.5 118s-77.167 43 -124.5 43c-71.333 0 -129.166 -31.167 -173.499 -93.5s-66.5 -139.833 -66.5 -232.5s21.833 -170.334 65.5 -233.001s101.167 -94 172.5 -94c83.333 0 146.666 41.333 189.999 124z" />
    <glyph glyph-name="D" unicode="D" horiz-adv-x="622" 
d="M295 0h-220v703h220c85.333 0 153.666 -33.5 204.999 -100.5s77 -150.5 77 -250.5s-25.667 -183.667 -77 -251s-119.666 -101 -204.999 -101zM117 38h178c71.333 0 128.833 30 172.5 90s65.5 134.667 65.5 224c0 88.667 -21.833 163 -65.5 223s-101.167 90 -172.5 90
h-178v-627z" />
    <glyph glyph-name="E" unicode="E" horiz-adv-x="552" 
d="M517 0h-442v703h422v-38h-380v-278h289v-38h-289v-311h400v-38z" />
    <glyph glyph-name="F" unicode="F" horiz-adv-x="522" 
d="M117 0h-42v703h422v-38h-380v-278h309v-38h-309v-349z" />
    <glyph glyph-name="G" unicode="G" horiz-adv-x="643" 
d="M598 342l-0.000976562 -11c0 -98.667 -25.667 -180.667 -77 -246s-116 -98 -194 -98c-85.333 0 -153.666 34.667 -204.999 104s-77 156 -77 260s26 190.833 78 260.5s120.667 104.5 206 104.5c57.333 0 107.166 -16.333 149.499 -49s74.833 -77.667 97.5 -135l-40 -15
c-19.333 50 -46.833 89.333 -82.5 118s-77.167 43 -124.5 43c-71.333 0 -129.166 -31.333 -173.499 -94s-66.5 -140.334 -66.5 -233.001s21.833 -170.167 65.5 -232.5s101.167 -93.5 172.5 -93.5c62 0 114.167 26.333 156.5 79s66.5 119.334 72.5 200.001h-197v38h239z" />
    <glyph glyph-name="H" unicode="H" horiz-adv-x="636" 
d="M561 0h-42v345h-402v-345h-42v703h42v-320h402v320h42v-703z" />
    <glyph glyph-name="I" unicode="I" horiz-adv-x="192" 
d="M117 0h-42v703h42v-703z" />
    <glyph glyph-name="J" unicode="J" horiz-adv-x="505" 
d="M393 195l-0.000976562 507.999h42v-490c0 -70.667 -18 -126 -54 -166s-85 -60 -147 -60c-55.333 0 -102.333 17.833 -141 53.5s-59.667 80.167 -63 133.5l40 10c2 -44.667 18.667 -82.5 50 -113.5s69.333 -46.5 114 -46.5c46.667 0 84.834 16.333 114.501 49
s44.5 73.334 44.5 122.001z" />
    <glyph glyph-name="K" unicode="K" horiz-adv-x="593" 
d="M568 0h-47l-236 394l-168 -191v-203h-42v703h42v-444l388 444h51l-244 -277z" />
    <glyph glyph-name="L" unicode="L" horiz-adv-x="496" 
d="M476 0h-401v703h42v-665h359v-38z" />
    <glyph glyph-name="M" unicode="M" horiz-adv-x="751" 
d="M676 0h-42v614l-243 -614h-31l-243 614v-614h-42v703h49l251 -636l252 636h49v-703z" />
    <glyph glyph-name="N" unicode="N" horiz-adv-x="650" 
d="M575 0h-47l-411 636v-636h-42v703h46l412 -637v637h42v-703z" />
    <glyph glyph-name="O" unicode="O" horiz-adv-x="654" 
d="M327 -13c-85.333 0 -153.666 34.667 -204.999 104s-77 156 -77 260s25.667 190.833 77 260.5s119.666 104.5 204.999 104.5s153.666 -34.833 204.999 -104.5s77 -156.5 77 -260.5s-25.667 -190.667 -77 -260s-119.666 -104 -204.999 -104zM327 25
c72 0 129.667 31.1689 173 93.502s65 139.833 65 232.5c0 93.333 -21.667 171.166 -65 233.499s-101 93.5 -173 93.5c-71.333 0 -128.833 -31.333 -172.5 -94s-65.5 -140.334 -65.5 -233.001s21.833 -170.167 65.5 -232.5s101.167 -93.5 172.5 -93.5z" />
    <glyph glyph-name="P" unicode="P" horiz-adv-x="585" 
d="M117 0h-42v703h294c55.333 0 100.166 -19.167 134.499 -57.5s51.5 -84.833 51.5 -139.5s-17.167 -101.167 -51.5 -139.5s-79.166 -57.5 -134.499 -57.5h-252v-309zM117 347h249c43.333 0 78.333 15.5 105 46.5s40 68.5 40 112.5s-13.333 81.5 -40 112.5
s-61.667 46.5 -105 46.5h-249v-318z" />
    <glyph glyph-name="Q" unicode="Q" horiz-adv-x="654" 
d="M548 -88l-31.999 -23.001l-85 119c-31.333 -14 -66 -21 -104 -21c-85.333 0 -153.666 34.667 -204.999 104s-77 156 -77 260s25.667 190.833 77 260.5s119.666 104.5 204.999 104.5s153.666 -34.667 204.999 -104s77 -156 77 -260
c0 -71.333 -12.5 -135.666 -37.5 -192.999s-60.167 -101 -105.5 -131zM408.001 40.999l-64 90l33 23l66 -93c38 26.667 67.833 65.834 89.5 117.501s32.5 109.5 32.5 173.5c0 92.667 -21.833 170.167 -65.5 232.5s-101.167 93.5 -172.5 93.5s-128.833 -31.333 -172.5 -94
s-65.5 -140.334 -65.5 -233.001s21.833 -170.167 65.5 -232.5s101.167 -93.5 172.5 -93.5c30 0 57 5.33301 81 16z" />
    <glyph glyph-name="R" unicode="R" horiz-adv-x="603" 
d="M558 0h-49.999l-197 315h-194v-315h-42v703h294c55.333 0 100.166 -18.667 134.499 -56s51.5 -83.333 51.5 -138s-18 -100.667 -54 -138s-82.667 -56 -140 -56zM117.001 353h249c43.333 0 78.333 15 105 45s40 67 40 111s-13.333 81 -40 111s-61.667 45 -105 45h-249
v-312z" />
    <glyph glyph-name="S" unicode="S" horiz-adv-x="540" 
d="M40 138l36.999 22.001c16 -44 40.167 -77.5 72.5 -100.5s71.166 -34.5 116.499 -34.5c56 0 100 14.167 132 42.5s48 66.5 48 114.5c0 33.333 -15.667 63.5 -47 90.5s-85.333 54.5 -162 82.5c-67.333 24.667 -115.166 52 -143.499 82s-42.5 66 -42.5 108
c0 55.333 19.833 97.666 59.5 126.999s90.5 44 152.5 44c97.333 0 171.666 -39.333 222.999 -118l-33 -26c-46 70.667 -110.333 106 -193 106c-47.333 0 -86.666 -11.167 -117.999 -33.5s-47 -54.166 -47 -95.499c0 -36.667 11.833 -66 35.5 -88s67.834 -45.333 132.501 -70
c85.333 -32.667 144.5 -65.334 177.5 -98.001s49.5 -71 49.5 -115c0 -59.333 -21.333 -106 -64 -140s-96.667 -51 -162 -51c-105.333 0 -180 50.333 -224 151z" />
    <glyph glyph-name="T" unicode="T" horiz-adv-x="521" 
d="M281 0h-42v665h-214v38h471v-37h-215v-666z" />
    <glyph glyph-name="U" unicode="U" horiz-adv-x="626" 
d="M514 285v418h42v-413c0 -102 -18.5 -178 -55.5 -228s-99.5 -75 -187.5 -75s-150.5 25 -187.5 75s-55.5 126 -55.5 228v413h42v-418c0 -88.667 15 -154.167 45 -196.5s82 -63.5 156 -63.5s126 21.167 156 63.5s45 107.833 45 196.5z" />
    <glyph glyph-name="V" unicode="V" horiz-adv-x="589" 
d="M318 0h-47l-251 703h44l231 -651l230 651h44z" />
    <glyph glyph-name="W" unicode="W" horiz-adv-x="827" 
d="M630 0h-52l-164 641l-165 -641h-52l-167 703h42l153 -647l166 647h45l166 -647l153 647h42z" />
    <glyph glyph-name="X" unicode="X" horiz-adv-x="547" 
d="M527 0h-48l-206 347l-205 -347h-48l223 375l-195 328h47l178 -300l179 300h47l-196 -328z" />
    <glyph glyph-name="Y" unicode="Y" horiz-adv-x="566" 
d="M304 0h-42v283l-242 420h46l217 -379l216 379h47l-242 -420v-283z" />
    <glyph glyph-name="Z" unicode="Z" horiz-adv-x="550" 
d="M511 0h-481v40l439 625h-416v38h462v-40l-439 -625h435v-38z" />
    <glyph glyph-name="bracketleft" unicode="[" horiz-adv-x="292" 
d="M242 -127h-172v902h172v-36h-130v-830h130v-36z" />
    <glyph glyph-name="backslash" unicode="\" horiz-adv-x="488" 
d="M518 -124l-34 -19l-484 898l33 18z" />
    <glyph glyph-name="bracketright" unicode="]" horiz-adv-x="292" 
d="M222 -127h-172v36h130v830h-130v36h172v-902z" />
    <glyph glyph-name="asciicircum" unicode="^" horiz-adv-x="529" 
d="M457 366h-42l-150 298l-152 -298h-41l175 337h38z" />
    <glyph glyph-name="underscore" unicode="_" horiz-adv-x="507" 
d="M512 -127h-517v32h517v-32z" />
    <glyph glyph-name="grave" unicode="`" horiz-adv-x="450" 
d="M302 577h-38l-162 150h72z" />
    <glyph glyph-name="a" unicode="a" horiz-adv-x="496" 
d="M456 0l-22 0.00195312c-36 0 -54 18.667 -54 56v17c-19.333 -26 -45.833 -46.5 -79.5 -61.5s-68.167 -22.5 -103.5 -22.5c-44 0 -80.833 12.167 -110.5 36.5s-44.5 60.166 -44.5 107.499c0 55.333 20.333 97.833 61 127.5s90.334 44.5 149.001 44.5
c45.333 0 88 -9 128 -27v69c0 39.333 -13.333 70.833 -40 94.5s-58.667 35.5 -96 35.5c-26.667 0 -52.667 -7.16699 -78 -21.5s-46.333 -34.833 -63 -61.5l-32 24c16.667 29.333 41.167 52.666 73.5 69.999s67.166 26 104.499 26c48 0 88.667 -14.5 122 -43.5
s50 -72.5 50 -130.5v-286c0 -11.333 6.33301 -17 19 -17h16v-37zM380 126.002v108.999c-32 22 -73.667 33 -125 33c-48 0 -88.333 -12 -121 -36s-49 -55.667 -49 -95c0 -35.333 11 -62.666 33 -81.999s49.667 -29 83 -29c32 0 64.5 8.83301 97.5 26.5
s60.167 42.167 81.5 73.5z" />
    <glyph glyph-name="b" unicode="b" horiz-adv-x="495" 
d="M111 0h-41v703h41v-292c38 68.667 91.333 103 160 103c53.333 0 97 -25.333 131 -76s51 -113 51 -187s-17.5 -136.5 -52.5 -187.5s-79.5 -76.5 -133.5 -76.5c-70 0 -122 31.333 -156 94v-81zM111 314v-152c13.333 -41.333 33.333 -74.833 60 -100.5s57 -38.5 91 -38.5
c43.333 0 78.833 22 106.5 66s41.5 98 41.5 162s-13.5 117.833 -40.5 161.5s-61.833 65.5 -104.5 65.5c-36 0 -68.167 -15.5 -96.5 -46.5s-47.5 -70.167 -57.5 -117.5z" />
    <glyph glyph-name="c" unicode="c" horiz-adv-x="456" 
d="M380 104l33.9971 -22.999c-39.333 -62.667 -94.333 -94 -165 -94c-63.333 0 -113.666 24 -150.999 72s-56 111.667 -56 191s18.667 143.166 56 191.499s87.666 72.5 150.999 72.5c72.667 0 128.334 -31 167.001 -93l-34 -24c-35.333 53.333 -79.666 80 -132.999 80
c-49.333 0 -89 -21 -119 -63s-45 -96.667 -45 -164c0 -66.667 15 -121 45 -163s69.667 -63 119 -63c52.667 0 96.334 26.667 131.001 80z" />
    <glyph glyph-name="d" unicode="d" horiz-adv-x="495" 
d="M425 0h-40.999v81c-34 -62.667 -86 -94 -156 -94c-54 0 -98.5 25.5 -133.5 76.5s-52.5 113.5 -52.5 187.5s17 136.333 51 187s77.667 76 131 76c69.333 0 122.666 -34 159.999 -102v291h41v-703zM384.001 162v153c-10 47.333 -29.167 86.333 -57.5 117s-60.5 46 -96.5 46
c-42.667 0 -77.5 -21.833 -104.5 -65.5s-40.5 -97.5 -40.5 -161.5s13.833 -118 41.5 -162s63.167 -66 106.5 -66c34 0 64.333 12.833 91 38.5s46.667 59.167 60 100.5z" />
    <glyph glyph-name="e" unicode="e" horiz-adv-x="479" 
d="M386 104l32 -23.002c-18.667 -29.333 -43 -52.333 -73 -69s-63 -25 -99 -25c-60.667 0 -109.834 24.333 -147.501 73s-56.5 112.334 -56.5 191.001s18.167 142.167 54.5 190.5s84.833 72.5 145.5 72.5s108.334 -24 143.001 -72s52 -111.667 52 -191v-9h-352
c1.33301 -64 17 -116.5 47 -157.5s68 -61.5 114 -61.5c28 0 54.667 7.33301 80 22s45.333 34.334 60 59.001zM86 277.998h308.998c-4 60 -19.667 108.333 -47 145s-62.666 55 -105.999 55s-79.166 -18.333 -107.499 -55s-44.5 -85 -48.5 -145z" />
    <glyph glyph-name="f" unicode="f" horiz-adv-x="301" 
d="M147 0h-41.001v463h-81v38h81v88c0 38 9.66699 68.5 29 91.5s44 34.5 74 34.5c18.667 0 37.667 -5 57 -15v-44c-17.333 14 -34.666 21 -51.999 21c-18 0 -33.667 -7.5 -47 -22.5s-20 -34.5 -20 -58.5v-95h117v-38h-117v-463z" />
    <glyph glyph-name="g" unicode="g" horiz-adv-x="494" 
d="M383 17l-0.000976562 77c-35.333 -71.333 -88.333 -107 -159 -107c-53.333 0 -97 25.333 -131 76s-51 113 -51 187s17.5 136.5 52.5 187.5s79.5 76.5 133.5 76.5c70.667 0 122.334 -30.667 155.001 -92v79h41v-475c0 -77.333 -20 -136.333 -60 -177s-87 -61 -141 -61
c-31.333 0 -60.333 7 -87 21s-47.667 33.667 -63 59l28 25c32 -45.333 72.333 -68 121 -68c42.667 0 80.167 18 112.5 54s48.5 82 48.5 138zM382.999 187l-0.000976562 153c-13.333 41.333 -33 74.666 -59 99.999s-56 38 -90 38c-43.333 0 -79 -22.167 -107 -66.5
s-42 -98.166 -42 -161.499c0 -64 13.5 -117.833 40.5 -161.5s61.833 -65.5 104.5 -65.5c36.667 0 68.834 15.333 96.501 46s46.5 70 56.5 118z" />
    <glyph glyph-name="h" unicode="h" horiz-adv-x="493" 
d="M428 0l-40.999 -0.000976562v315c0 50.667 -11.333 90.334 -34 119.001s-54.334 43 -95.001 43c-38.667 0 -72.834 -14.5 -102.501 -43.5s-44.5 -71.167 -44.5 -126.5v-307h-41v703h41v-275c15.333 28 36.5 49.333 63.5 64s56.5 22 88.5 22
c54.667 0 95.834 -19.5 123.501 -58.5s41.5 -89.5 41.5 -151.5v-304z" />
    <glyph glyph-name="i" unicode="i" horiz-adv-x="195" 
d="M118 0h-41v501h41v-501zM98 644c-10 0 -18.5 3.5 -25.5 10.5s-10.5 15.5 -10.5 25.5c0 9.33301 3.5 17.5 10.5 24.5s15.5 10.5 25.5 10.5c9.33301 0 17.5 -3.5 24.5 -10.5s10.5 -15.167 10.5 -24.5c0 -10 -3.5 -18.5 -10.5 -25.5s-15.167 -10.5 -24.5 -10.5z" />
    <glyph glyph-name="j" unicode="j" horiz-adv-x="195" 
d="M98 644c-10 0 -18.5 3.5 -25.5 10.5s-10.5 15.5 -10.5 25.5c0 9.33301 3.5 17.5 10.5 24.5s15.5 10.5 25.5 10.5c9.33301 0 17.5 -3.5 24.5 -10.5s10.5 -15.167 10.5 -24.5c0 -10 -3.5 -18.5 -10.5 -25.5s-15.167 -10.5 -24.5 -10.5zM77 -92l-0.000976562 593h41v-583
c0 -38 -9.16699 -68.5 -27.5 -91.5s-41.833 -34.5 -70.5 -34.5c-18 0 -36.333 5 -55 15l13 35c11.333 -9.33301 24.333 -14 39 -14c16.667 0 30.834 7.33301 42.501 22s17.5 34 17.5 58z" />
    <glyph glyph-name="k" unicode="k" horiz-adv-x="458" 
d="M433 0h-45l-168 281l-109 -125v-156h-41v703h41v-490l251 288h51l-166 -189z" />
    <glyph glyph-name="l" unicode="l" horiz-adv-x="181" 
d="M111 0h-41v703h41v-703z" />
    <glyph glyph-name="m" unicode="m" horiz-adv-x="762" 
d="M697 0l-40.999 -0.00195312v315c0 50.667 -10.333 90.334 -31 119.001s-49.334 43 -86.001 43c-40 0 -72.5 -16 -97.5 -48s-37.5 -70.667 -37.5 -116v-313h-41v315c0 50.667 -10.333 90.334 -31 119.001s-49.334 43 -86.001 43c-35.333 0 -66.666 -14.5 -93.999 -43.5
s-41 -71.167 -41 -126.5v-307h-41v501h41v-68c31.333 54 77.666 81 138.999 81c69.333 0 116 -36.667 140 -110c14.667 36.667 35.334 64.167 62.001 82.5s57 27.5 91 27.5c51.333 0 89.833 -19.5 115.5 -58.5s38.5 -89.5 38.5 -151.5v-304z" />
    <glyph glyph-name="n" unicode="n" horiz-adv-x="493" 
d="M428 0l-41.001 -0.000976562v315c0 50.667 -11.167 90.334 -33.5 119.001s-53.833 43 -94.5 43c-38.667 0 -73 -14.5 -103 -43.5s-45 -71.167 -45 -126.5v-307h-41v501h41v-73c15.333 28 36.5 49.333 63.5 64s56.5 22 88.5 22c54.667 0 95.834 -19.5 123.501 -58.5
s41.5 -89.5 41.5 -151.5v-304z" />
    <glyph glyph-name="o" unicode="o" horiz-adv-x="498" 
d="M249 -13c-64.667 0 -115.334 24 -152.001 72s-55 112 -55 192s18.333 143.833 55 191.5s87.334 71.5 152.001 71.5s115.334 -23.833 152.001 -71.5s55 -111.5 55 -191.5s-18.333 -144 -55 -192s-87.334 -72 -152.001 -72zM249 23c51.333 0 91.5 21 120.5 63
s43.5 97 43.5 165s-14.5 122.833 -43.5 164.5s-69.167 62.5 -120.5 62.5s-91.5 -20.833 -120.5 -62.5s-43.5 -96.5 -43.5 -164.5s14.5 -123 43.5 -165s69.167 -63 120.5 -63z" />
    <glyph glyph-name="p" unicode="p" horiz-adv-x="495" 
d="M111 -200h-41v701h41v-80c33.333 62 85.333 93 156 93c54 0 98.5 -25.5 133.5 -76.5s52.5 -113.5 52.5 -187.5s-17 -136.333 -51 -187s-77.667 -76 -131 -76c-68.667 0 -122 34.333 -160 103v-290zM111 340l0.00195312 -153.001c10 -47.333 29.167 -86.5 57.5 -117.5
s60.5 -46.5 96.5 -46.5c42.667 0 77.5 21.833 104.5 65.5s40.5 97.5 40.5 161.5s-13.833 118 -41.5 162s-63.167 66 -106.5 66c-34.667 0 -65.334 -12.667 -92.001 -38s-46.334 -58.666 -59.001 -99.999z" />
    <glyph glyph-name="q" unicode="q" horiz-adv-x="495" 
d="M425 -200h-41.001v289c-37.333 -68 -90.666 -102 -159.999 -102c-53.333 0 -97 25.333 -131 76s-51 113 -51 187s17.5 136.5 52.5 187.5s79.5 76.5 133.5 76.5c70 0 122 -31.333 156 -94v81h41v-701zM383.999 186v153c-13.333 41.333 -33.333 74.833 -60 100.5
s-57 38.5 -91 38.5c-43.333 0 -78.833 -22 -106.5 -66s-41.5 -98 -41.5 -162s13.5 -117.833 40.5 -161.5s61.833 -65.5 104.5 -65.5c36 0 68.167 15.333 96.5 46s47.5 69.667 57.5 117z" />
    <glyph glyph-name="r" unicode="r" horiz-adv-x="349" 
d="M111 0l-41.001 -0.000976562v501h41v-73c15.333 28 36.333 49.333 63 64s55.667 22 87 22c20 0 41 -3.66699 63 -11l-16 -39c-17.333 7.33301 -34.666 11 -51.999 11c-38.667 0 -72.5 -14.667 -101.5 -44s-43.5 -71.666 -43.5 -126.999v-304z" />
    <glyph glyph-name="s" unicode="s" horiz-adv-x="419" 
d="M45 83l32.002 23.999c34.667 -56 80 -84 136 -84c37.333 0 66.333 9.5 87 28.5s31 42.833 31 71.5c0 26.667 -10.833 49.334 -32.5 68.001s-61.5 38.334 -119.5 59.001c-86 30 -129 76.333 -129 139c0 36 13.667 65.833 41 89.5s65.333 35.5 114 35.5
c64.667 0 118 -27.333 160 -82l-32 -25c-32.667 47.333 -75.667 71 -129 71c-33.333 0 -60.166 -7.83301 -80.499 -23.5s-30.5 -37.5 -30.5 -65.5c0 -25.333 9.16699 -45.833 27.5 -61.5s48.166 -30.834 89.499 -45.501c60.667 -22 103.167 -45.167 127.5 -69.5
s36.5 -53.833 36.5 -88.5c0 -40.667 -14.333 -73.667 -43 -99s-68.334 -38 -119.001 -38c-74.667 0 -130.334 32 -167.001 96z" />
    <glyph glyph-name="t" unicode="t" horiz-adv-x="306" 
d="M266 45v-43c-17.333 -10 -36.333 -15 -57 -15c-30 0 -54.667 11 -74 33s-29 52 -29 90v353h-81v38h81v202h41v-202h117v-38h-117v-358c0 -24 6.66699 -43.167 20 -57.5s29.333 -21.5 48 -21.5s35.667 6.33301 51 19z" />
    <glyph glyph-name="u" unicode="u" horiz-adv-x="493" 
d="M423 0l-40.999 0.000976562v73c-15.333 -28 -36.5 -49.333 -63.5 -64s-56.5 -22 -88.5 -22c-54.667 0 -95.834 19.5 -123.501 58.5s-41.5 89.5 -41.5 151.5v304h41v-315c0 -50.667 11.167 -90.334 33.5 -119.001s53.833 -43 94.5 -43c38.667 0 73 14.5 103 43.5
s45 71.167 45 126.5v307h41v-501z" />
    <glyph glyph-name="v" unicode="v" horiz-adv-x="455" 
d="M243 0h-41l-177 501h45l154 -455l162 455h44z" />
    <glyph glyph-name="w" unicode="w" horiz-adv-x="708" 
d="M528 0h-45l-129 452l-129 -452h-46l-149 501h44l128 -456l129 456h45l130 -456l128 456h44z" />
    <glyph glyph-name="x" unicode="x" horiz-adv-x="441" 
d="M411 0h-48l-143 230l-142 -230h-48l164 258l-153 243h46l133 -214l133 214h47l-154 -243z" />
    <glyph glyph-name="y" unicode="y" horiz-adv-x="454" 
d="M154 -129l49 127l-178 503h44l155 -454l161 454h44l-242 -644c-16.667 -43.333 -45.667 -65 -87 -65c-11.333 0 -23 2.66699 -35 8v34c10.667 -5.33301 22 -8 34 -8c26 0 44.333 15 55 45z" />
    <glyph glyph-name="z" unicode="z" horiz-adv-x="403" 
d="M368 0h-333v33l281 430h-259v38h308v-32l-283 -431h286v-38z" />
    <glyph glyph-name="braceleft" unicode="{" horiz-adv-x="310" 
d="M270 -92v-35.998c-50 0 -91 18.167 -123 54.5s-48 81.5 -48 135.5v122c0 69.333 -26.333 114.666 -79 135.999v32c52.667 21.333 79 66.666 79 135.999v99c0 54 16 99.333 48 136s73 55 123 55v-36c-37.333 0 -68.166 -13.333 -92.499 -40s-36.5 -63 -36.5 -109v-120
c0 -28 -6.5 -54.5 -19.5 -79.5s-30.5 -44.167 -52.5 -57.5c22 -13.333 39.5 -32.5 52.5 -57.5s19.5 -51.5 19.5 -79.5v-143c0 -45.333 12.167 -81.333 36.5 -108s55.166 -40 92.499 -40z" />
    <glyph glyph-name="bar" unicode="|" horiz-adv-x="246" 
d="M146 -130h-46v873h46v-873z" />
    <glyph glyph-name="braceright" unicode="}" horiz-adv-x="310" 
d="M40 -128v35.998c37.333 0 68.166 13.333 92.499 40s36.5 62.667 36.5 108v143c0 28 6.5 54.5 19.5 79.5s30.5 44.167 52.5 57.5c-22 13.333 -39.5 32.5 -52.5 57.5s-19.5 51.5 -19.5 79.5v120c0 46 -12.167 82.333 -36.5 109s-55.166 40 -92.499 40v36
c50 0 91 -18.333 123 -55s48 -82 48 -136v-99c0 -69.333 26.333 -114.666 79 -135.999v-32c-52.667 -21.333 -79 -66.666 -79 -135.999v-122c0 -54 -16 -99.167 -48 -135.5s-73 -54.5 -123 -54.5z" />
    <glyph glyph-name="asciitilde" unicode="~" 
d="M482 380l30.999 -21c-32.667 -56 -73.667 -84 -123 -84c-21.333 0 -55.333 12.167 -102 36.5s-80.334 36.5 -101.001 36.5c-32 0 -61.333 -21.667 -88 -65l-32 20c28 56.667 70 85 126 85c22.667 0 57.334 -12.167 104.001 -36.5s79.334 -36.5 98.001 -36.5
c19.333 0 35.5 5.33301 48.5 16s25.833 27 38.5 49z" />
    <glyph glyph-name="uni00A0" unicode="&#xa0;" horiz-adv-x="240" 
 />
    <glyph glyph-name="exclamdown" unicode="&#xa1;" horiz-adv-x="221" 
d="M145 -200h-45v274l12 247h22l11 -247v-274zM121 432c-11.333 0 -21 3.83301 -29 11.5s-12 17.167 -12 28.5s4 21 12 29s17.667 12 29 12s20.833 -4 28.5 -12s11.5 -17.667 11.5 -29c0 -10.667 -3.83301 -20 -11.5 -28s-17.167 -12 -28.5 -12z" />
    <glyph glyph-name="cent" unicode="&#xa2;" 
d="M326 -56l-42.999 0.000976562v126c-56 7.33301 -100.667 33.833 -134 79.5s-50 104.5 -50 176.5s16.667 130.833 50 176.5s78 72.167 134 79.5v121h43v-119c66.667 -4 118.334 -35 155.001 -93l-37 -25c-31.333 52.667 -75.333 79 -132 79c-50 0 -90 -19.833 -120 -59.5
s-45 -92.834 -45 -159.501c0 -66 15.167 -119 45.5 -159s70.166 -60 119.499 -60c56.667 0 100.667 26.333 132 79l37 -24c-36.667 -58.667 -88.334 -90 -155.001 -94v-124z" />
    <glyph glyph-name="sterling" unicode="&#xa3;" 
d="M367 0l-278 -0.000976562v533c0 54.667 15.833 98.834 47.5 132.501s77.834 50.5 138.501 50.5c65.333 0 119 -21.667 161 -65l-28 -28c-38 36.667 -82 55 -132 55c-50.667 0 -87.5 -14 -110.5 -42s-34.5 -63.333 -34.5 -106v-117h227v-37h-227v-339h228
c38 0 67.833 9 89.5 27s32.5 43.667 32.5 77c0 44 -21.667 78.667 -65 104l21 31c23.333 -12.667 43.166 -31 59.499 -55s24.5 -50 24.5 -78c0 -44.667 -14 -79.667 -42 -105s-65.333 -38 -112 -38z" />
    <glyph glyph-name="currency" unicode="&#xa4;" 
d="M563 97l-29 -28.999l-106 105c-40 -33.333 -86.333 -50 -139 -50c-52 0 -98 16.667 -138 50l-105 -105l-29 29l106 106c-32 39.333 -48 85.666 -48 138.999c0 52 16 97.333 48 136l-105 105l29 29l105 -104c38 32.667 83.667 49 137 49c52.667 0 99 -16.667 139 -50
l104 105l29 -29l-105 -105c31.333 -38.667 47 -84 47 -136c0 -52.667 -15.667 -99 -47 -139zM289 165.001c49.333 0 89.667 16.835 121 50.502s47 75.834 47 126.501c0 49.333 -15.833 90.666 -47.5 123.999s-71.834 50 -120.501 50c-48 0 -88 -16.833 -120 -50.5
s-48 -74.834 -48 -123.501c0 -50.667 15.833 -92.834 47.5 -126.501s71.834 -50.5 120.501 -50.5z" />
    <glyph glyph-name="yen" unicode="&#xa5;" 
d="M487 175h-176v-175h-42v175h-176v35h176v73l-13 23h-163v35h143l-209 362h49l214 -381l216 381h47l-209 -362h143v-35h-163l-13 -23v-73h176v-35z" />
    <glyph glyph-name="brokenbar" unicode="&#xa6;" horiz-adv-x="246" 
d="M146 394h-46v349h46v-349zM146 -130h-46v358h46v-358z" />
    <glyph glyph-name="section" unicode="&#xa7;" horiz-adv-x="468" 
d="M82 -125l32.001 21.998c30 -48.667 72.333 -73 127 -73c30 0 55.5 9.66699 76.5 29s31.5 45.333 31.5 78c0 20.667 -3.33301 38.5 -10 53.5s-17.5 27.833 -32.5 38.5s-28.667 19 -41 25s-29.833 13.333 -52.5 22c-22 8.66699 -41 17.334 -57 26.001
s-32.833 20.334 -50.5 35.001s-31.334 33.167 -41.001 55.5s-14.5 47.5 -14.5 75.5c0 36.667 10 69.834 30 99.501s46.667 54.167 80 73.5c-54.667 34 -82 81 -82 141c0 40.667 14.667 74.167 44 100.5s64 39.5 104 39.5c65.333 0 118.666 -29.333 159.999 -88l-32 -22
c-30 48.667 -72.667 73 -128 73c-30 0 -55.5 -9.66699 -76.5 -29s-31.5 -45.333 -31.5 -78c0 -20.667 3.33301 -38.5 10 -53.5s17.5 -28 32.5 -39s28.667 -19.333 41 -25s29.833 -12.834 52.5 -21.501c22 -8.66699 41 -17.334 57 -26.001s33 -20.5 51 -35.5
s31.833 -33.667 41.5 -56s14.5 -47.5 14.5 -75.5c0 -36.667 -10.167 -69.667 -30.5 -99s-47.166 -53.666 -80.499 -72.999c55.333 -33.333 83 -80.333 83 -141c0 -40 -14.833 -73.333 -44.5 -100s-64.5 -40 -104.5 -40c-65.333 0 -118.333 29.333 -159 88zM275.001 84.998
c33.333 18 59 41.3311 77 69.998s27 57 27 85c0 40.667 -12.167 72.834 -36.5 96.501s-57.833 43.834 -100.5 60.501c-12 4.66699 -28.667 11.667 -50 21c-33.333 -18 -59 -41.5 -77 -70.5s-27 -57.5 -27 -85.5c0 -40.667 12.167 -72.667 36.5 -96s57.833 -43.333 100.5 -60
c20 -8 36.667 -15 50 -21z" />
    <glyph glyph-name="dieresis" unicode="&#xa8;" horiz-adv-x="450" 
d="M340 647c0 -8.66699 -3.33301 -16.167 -10 -22.5s-14.334 -9.5 -23.001 -9.5s-16.167 3.16699 -22.5 9.5s-9.5 13.833 -9.5 22.5s3.16699 16.334 9.5 23.001s13.833 10 22.5 10s16.334 -3.33301 23.001 -10s10 -14.334 10 -23.001zM175 647
c0 -8.66699 -3.33105 -16.167 -9.99805 -22.5s-14.334 -9.5 -23.001 -9.5s-16.167 3.16699 -22.5 9.5s-9.5 13.833 -9.5 22.5s3.16699 16.334 9.5 23.001s13.833 10 22.5 10c9.33301 0 17.166 -3.33301 23.499 -10s9.5 -14.334 9.5 -23.001z" />
    <glyph glyph-name="copyright" unicode="&#xa9;" horiz-adv-x="849" 
d="M553 233l25 -22.001c-40 -48.667 -90.333 -73 -151 -73c-53.333 0 -98.5 19.833 -135.5 59.5s-55.5 90.834 -55.5 153.501c0 61.333 18.167 112.333 54.5 153s82.5 61 138.5 61c59.333 0 108.666 -23.333 147.999 -70l-27 -23c-37.333 40 -77.666 60 -120.999 60
c-44.667 0 -82 -17 -112 -51s-45 -76.333 -45 -127c0 -52.667 15.167 -96.167 45.5 -130.5s67.5 -51.5 111.5 -51.5c46 0 87.333 20.333 124 61zM789 350.999c0 -100.667 -35.667 -186.5 -107 -257.5s-157.333 -106.5 -258 -106.5s-186.5 35.5 -257.5 106.5
s-106.5 156.833 -106.5 257.5s35.5 186.667 106.5 258s156.833 107 257.5 107c101.333 0 187.5 -35.667 258.5 -107s106.5 -157.333 106.5 -258zM760 350.999c0 92.667 -32.6689 171.834 -98.002 237.501s-144.666 98.5 -237.999 98.5
c-92.667 0 -171.667 -32.833 -237 -98.5s-98 -144.834 -98 -237.501s32.667 -171.667 98 -237s144.333 -98 237 -98s171.834 32.667 237.501 98s98.5 144.333 98.5 237z" />
    <glyph glyph-name="ordfeminine" unicode="&#xaa;" horiz-adv-x="370" 
d="M320 391l-17.999 0.000976562c-12.667 0 -23.667 3.83301 -33 11.5s-14.333 19.167 -15 34.5c-32.667 -34.667 -67.334 -52 -104.001 -52c-29.333 0 -53.333 8.16699 -72 24.5s-28 39.166 -28 68.499c0 34.667 13.167 61 39.5 79s58.833 27 97.5 27c26 0 49 -4 69 -12v34
c0 48.667 -25.333 73 -76 73c-22 0 -39.5 -3.5 -52.5 -10.5s-25.167 -19.167 -36.5 -36.5l-26 20c25.333 38.667 65.333 58 120 58c30 0 55.167 -8.33301 75.5 -25s30.5 -39 30.5 -67v-174c0 -14.667 7 -22 21 -22h8v-31zM256.001 494.001l0.000976562 40.998
c-10 13.333 -34 20 -72 20c-24 0 -46.333 -6.66699 -67 -20s-31 -32.666 -31 -57.999c0 -20.667 6.33301 -36 19 -46s28.334 -15 47.001 -15c23.333 0 45.666 8.33301 66.999 25s33.666 34.334 36.999 53.001z" />
    <glyph glyph-name="guillemotleft" unicode="&#xab;" horiz-adv-x="479" 
d="M233 75l-40 -9l-158 220l158 220l40 -9l-151 -211zM419 75l-40 -9l-158 220l158 220l40 -9l-151 -211z" />
    <glyph glyph-name="logicalnot" unicode="&#xac;" 
d="M540 119h-37v177h-463v39h500v-216z" />
    <glyph glyph-name="uni00AD" unicode="&#xad;" horiz-adv-x="320" 
d="M270 272h-220v38h220v-38z" />
    <glyph glyph-name="registered" unicode="&#xae;" horiz-adv-x="626" 
d="M576 453c0 -72.667 -25.667 -134.667 -77 -186s-113.333 -77 -186 -77s-134.667 25.667 -186 77s-77 113.333 -77 186s25.667 134.667 77 186s113.333 77 186 77s134.667 -25.667 186 -77s77 -113.333 77 -186zM313 215c65.333 0 121.166 23.333 167.499 70
s69.5 102.667 69.5 168s-23.167 121.166 -69.5 167.499s-102.166 69.5 -167.499 69.5s-121.333 -23.167 -168 -69.5s-70 -102.166 -70 -167.499s23.333 -121.333 70 -168s102.667 -70 168 -70zM438 290l-31.999 -0.00195312l-91 145h-72v-145h-29v325h136
c26 0 47 -8.66699 63 -26s24 -38.666 24 -63.999s-8.33301 -46.666 -25 -63.999s-38.334 -26 -65.001 -26zM243.001 460.998h103c19.333 0 34.5 6 45.5 18s16.5 27.333 16.5 46s-5.5 34 -16.5 46s-26.167 18 -45.5 18h-103v-128z" />
    <glyph glyph-name="macron" unicode="&#xaf;" horiz-adv-x="450" 
d="M352 621h-253v37h253v-37z" />
    <glyph glyph-name="degree" unicode="&#xb0;" horiz-adv-x="474" 
d="M237 397c-46.667 0 -86.167 16.5 -118.5 49.5s-48.5 73.5 -48.5 121.5c0 47.333 16.167 87.166 48.5 119.499s71.833 48.5 118.5 48.5c47.333 0 87 -16.167 119 -48.5s48 -72.166 48 -119.499c0 -48 -16 -88.5 -48 -121.5s-71.667 -49.5 -119 -49.5zM237 433
c37.333 0 67.833 12.833 91.5 38.5s35.5 57.834 35.5 96.501c0 37.333 -12 68.833 -36 94.5s-54.333 38.5 -91 38.5s-67 -12.833 -91 -38.5s-36 -57.167 -36 -94.5c0 -38.667 12 -70.834 36 -96.501s54.333 -38.5 91 -38.5z" />
    <glyph glyph-name="plusminus" unicode="&#xb1;" 
d="M311 66h-41v232h-230v39h229v232h41v-232h230v-39h-229v-232zM540 0h-500v39h500v-39z" />
    <glyph glyph-name="twosuperior" unicode="&#xb2;" horiz-adv-x="439" 
d="M389 203l-332.997 0.000976562c6 40.667 24.333 78.5 55 113.5s80 76.833 148 125.5c57.333 40.667 86 85 86 133c0 28 -11.667 52.167 -35 72.5s-53.333 30.5 -90 30.5c-30.667 0 -57.834 -7.83301 -81.501 -23.5s-41.834 -37.5 -54.501 -65.5l-34 19
c35.333 69.333 93.333 104 174 104c47.333 0 86.333 -13 117 -39s46 -60 46 -102c0 -33.333 -9.5 -62.833 -28.5 -88.5s-51.5 -54.167 -97.5 -85.5c-40.667 -27.333 -73.334 -52.833 -98.001 -76.5s-44 -50.834 -58 -81.501h284v-36z" />
    <glyph glyph-name="threesuperior" unicode="&#xb3;" horiz-adv-x="454" 
d="M233 448h-65.999v35h53c38.667 0 69.5 9.83301 92.5 29.5s34.5 42.5 34.5 68.5c0 26.667 -10 49.334 -30 68.001s-48 28 -84 28c-32.667 0 -60.167 -7 -82.5 -21s-38.833 -31.667 -49.5 -53l-35 16c34 62 89 93 165 93c51.333 0 90.5 -12 117.5 -36s40.5 -55 40.5 -93
c0 -54.667 -27.667 -92 -83 -112c32.667 -10 57.167 -27.833 73.5 -53.5s24.5 -52.834 24.5 -81.501c0 -38.667 -14.333 -72 -43 -100s-73 -42 -133 -42c-41.333 0 -78.333 10 -111 30s-55 45.667 -67 77l33 18c11.333 -25.333 30 -46.833 56 -64.5s55 -26.5 87 -26.5
c41.333 0 74.166 10 98.499 30s36.5 46.333 36.5 79c0 32 -11.333 58.5 -34 79.5s-54 31.5 -94 31.5z" />
    <glyph glyph-name="acute" unicode="&#xb4;" horiz-adv-x="450" 
d="M348 727l-162 -150h-38l128 150h72z" />
    <glyph glyph-name="mu" unicode="&#xb5;" 
d="M469 0h-41v72c-31.333 -56.667 -81.333 -85 -150 -85c-60 0 -102 23.333 -126 70v-257h-41v701h41v-301c0 -117.333 43.333 -176 130 -176c40.667 0 75.167 15.833 103.5 47.5s42.5 74.5 42.5 128.5v301h41v-501z" />
    <glyph glyph-name="paragraph" unicode="&#xb6;" horiz-adv-x="522" 
d="M452 -200l-41 0.000976562v867h-128v-867h-41v502h-12c-55.333 0 -102.5 19.667 -141.5 59s-58.5 86.666 -58.5 141.999s19.5 102.5 58.5 141.5s86.167 58.5 141.5 58.5h222v-903z" />
    <glyph glyph-name="periodcentered" unicode="&#xb7;" horiz-adv-x="181" 
d="M131 315c0 -11.333 -4 -21 -12 -29s-17.667 -12 -29 -12s-20.833 4 -28.5 12s-11.5 17.667 -11.5 29s4 20.833 12 28.5s17.333 11.5 28 11.5c11.333 0 21 -3.83301 29 -11.5s12 -17.167 12 -28.5z" />
    <glyph glyph-name="cedilla" unicode="&#xb8;" horiz-adv-x="450" 
d="M113 -196l8.00195 30.002c26.667 -12 53 -18 79 -18s45.667 4.66699 59 14s20 20.666 20 33.999c0 12 -4.66699 21.667 -14 29s-22 11 -38 11c-16.667 0 -34.334 -4.33301 -53.001 -13l-27 7l52 109h31l-42 -85c16 7.33301 32.333 11 49 11
c23.333 0 42.5 -6.33301 57.5 -19s22.5 -29.334 22.5 -50.001c0 -22.667 -10.167 -41.167 -30.5 -55.5s-48.5 -21.5 -84.5 -21.5c-30.667 0 -60.334 5.66699 -89.001 17z" />
    <glyph glyph-name="onesuperior" unicode="&#xb9;" horiz-adv-x="293" 
d="M203 203h-41v421c-34.667 -29.333 -78.667 -44 -132 -44v37c40 2 71 10.5 93 25.5s37.333 38.167 46 69.5h34v-509z" />
    <glyph glyph-name="ordmasculine" unicode="&#xba;" horiz-adv-x="376" 
d="M188 385c-41.333 0 -74.666 15 -99.999 45s-38 69.333 -38 118s12.667 88 38 118s58.666 45 99.999 45c40.667 0 73.834 -15 99.501 -45s38.5 -69.333 38.5 -118s-12.833 -88 -38.5 -118s-58.834 -45 -99.501 -45zM188 416c30.667 0 55.167 12.167 73.5 36.5
s27.5 56.166 27.5 95.499s-9.16699 71.333 -27.5 96s-42.833 37 -73.5 37c-31.333 0 -56 -12.333 -74 -37s-27 -56.667 -27 -96s9 -71.166 27 -95.499s42.667 -36.5 74 -36.5z" />
    <glyph glyph-name="guillemotright" unicode="&#xbb;" horiz-adv-x="479" 
d="M286 66l-40 9l151 211l-151 211l40 9l158 -220zM100 66l-40 9l151 211l-151 211l40 9l158 -220z" />
    <glyph glyph-name="onequarter" unicode="&#xbc;" horiz-adv-x="1000" 
d="M302 -36l-34 17l409 760l34 -16zM870 0h-41v132h-271v30l270 344h42v-339h80v-35h-80v-132zM829 167v283l-221 -283h221zM242 203h-41v419c-33.333 -28 -77.333 -42 -132 -42v37c40 2 71 10.5 93 25.5s37.333 38.167 46 69.5h34v-509z" />
    <glyph glyph-name="onehalf" unicode="&#xbd;" horiz-adv-x="1000" 
d="M265 -36l-34 17l409 760l34 -16zM955 0h-332.996c3.33301 38.667 22.166 77 56.499 115s88.5 83.333 162.5 136c46.667 33.333 70 73.666 70 120.999c0 28.667 -11.333 53 -34 73s-52.334 30 -89.001 30c-30.667 0 -58.834 -8.33301 -84.501 -25s-43.5 -38.667 -53.5 -66
l-34 21c15.333 34 39.333 59.833 72 77.5s68.667 26.5 108 26.5c45.333 0 82.833 -13.167 112.5 -39.5s44.5 -60.166 44.5 -101.499c0 -34.667 -9.33301 -65 -28 -91s-51.334 -53.667 -98.001 -83c-38 -24 -69.667 -48.333 -95 -73s-46.333 -53 -63 -85h286v-36z
M215.004 203h-41v419c-33.333 -28 -77.333 -42 -132 -42v37c40 2 71 10.5 93 25.5s37.333 38.167 46 69.5h34v-509z" />
    <glyph glyph-name="threequarters" unicode="&#xbe;" horiz-adv-x="1000" 
d="M352 -36l-34 17l409 760l34 -16zM890 0h-41v132h-271v30l270 344h42v-339h80v-35h-80v-132zM849 167v283l-221 -283h221zM213 448h-65.999v35h53c38.667 0 69.5 9.83301 92.5 29.5s34.5 42.5 34.5 68.5c0 26.667 -10 49.334 -30 68.001s-48 28 -84 28
c-32.667 0 -60.167 -7 -82.5 -21s-38.833 -31.667 -49.5 -53l-35 16c34 62 89 93 165 93c51.333 0 90.5 -12 117.5 -36s40.5 -55 40.5 -93c0 -54.667 -27.667 -92 -83 -112c32.667 -10 57.167 -27.833 73.5 -53.5s24.5 -52.834 24.5 -81.501c0 -38.667 -14.333 -72 -43 -100
s-73 -42 -133 -42c-41.333 0 -78.333 10 -111 30s-55 45.667 -67 77l33 18c11.333 -25.333 30 -46.833 56 -64.5s55 -26.5 87 -26.5c41.333 0 74.166 10 98.499 30s36.5 46.333 36.5 79c0 32 -11.333 58.5 -34 79.5s-54 31.5 -94 31.5z" />
    <glyph glyph-name="questiondown" unicode="&#xbf;" horiz-adv-x="399" 
d="M303 473c0 -11.333 -3.83301 -20.833 -11.5 -28.5s-17.167 -11.5 -28.5 -11.5s-21 3.83301 -29 11.5s-12 17.167 -12 28.5s4 21 12 29s17.667 12 29 12s20.833 -4 28.5 -12s11.5 -17.667 11.5 -29zM412 -69l37.0029 -16c-14.667 -40.667 -41.834 -72.167 -81.501 -94.5
s-82.834 -33.5 -129.501 -33.5c-60.667 0 -108.834 16.5 -144.501 49.5s-53.5 74.833 -53.5 125.5c0 38 8.16699 70.167 24.5 96.5s44.5 54.166 84.5 83.499c17.333 12.667 30 22.5 38 29.5s17.5 17 28.5 30s18.833 27.333 23.5 43s7 33.834 7 54.501v18h38v-18
c0 -33.333 -6.33301 -63 -19 -89s-25.5 -45 -38.5 -57s-31.167 -26.333 -54.5 -43c-31.333 -23.333 -54 -45.833 -68 -67.5s-21 -48.5 -21 -80.5c0 -42 14.667 -75.333 44 -100s66.333 -37 111 -37c37.333 0 72.5 9.33301 105.5 28s55.833 44.667 68.5 78z" />
    <glyph glyph-name="Agrave" unicode="&#xc0;" horiz-adv-x="609" 
d="M579 0h-44l-72 203h-317l-72 -203h-44l251 703h47zM451 239l-147 413l-146 -413h293zM332 762h-38l-162 150h72z" />
    <glyph glyph-name="Aacute" unicode="&#xc1;" horiz-adv-x="589" 
d="M569 0h-44l-72 203h-317l-72 -203h-44l251 703h47zM441 239l-147 413l-146 -413h293zM468 912l-162 -150h-38l128 150h72z" />
    <glyph glyph-name="Acircumflex" unicode="&#xc2;" horiz-adv-x="589" 
d="M569 0h-44l-72 203h-317l-72 -203h-44l251 703h47zM441 239l-147 413l-146 -413h293zM446 762h-38l-114 117l-116 -117h-36l125 150h55z" />
    <glyph glyph-name="Atilde" unicode="&#xc3;" horiz-adv-x="589" 
d="M569 0h-44l-72 203h-317l-72 -203h-44l251 703h47zM441 239l-147 413l-146 -413h293zM420 887l30.9971 -5.00098c-9.33301 -59.333 -40 -89 -92 -89c-21.333 0 -44.666 9.83301 -69.999 29.5s-45.333 29.5 -60 29.5c-29.333 0 -48.666 -19.667 -57.999 -59l-32 4
c2.66699 28.667 11.834 51.167 27.501 67.5s37.167 24.5 64.5 24.5c22.667 0 47.167 -9.83301 73.5 -29.5s45.833 -29.5 58.5 -29.5c16.667 0 29.167 4.83301 37.5 14.5s14.833 23.834 19.5 42.501z" />
    <glyph glyph-name="Adieresis" unicode="&#xc4;" horiz-adv-x="589" 
d="M569 0h-44l-72 203h-317l-72 -203h-44l251 703h47zM441 239l-147 413l-146 -413h293zM409 832c0 -8.66699 -3.33105 -16.1689 -9.99805 -22.502s-14.334 -9.5 -23.001 -9.5s-16.167 3.16699 -22.5 9.5s-9.5 13.833 -9.5 22.5s3.16699 16.334 9.5 23.001
s13.833 10 22.5 10c9.33301 0 17.166 -3.16699 23.499 -9.5s9.5 -14.166 9.5 -23.499zM244.002 831.998c0 -8.66699 -3.33301 -16.1689 -10 -22.502s-14.334 -9.5 -23.001 -9.5s-16.167 3.16699 -22.5 9.5s-9.5 13.833 -9.5 22.5s3.16699 16.334 9.5 23.001
s13.833 10 22.5 10s16.334 -3.16699 23.001 -9.5s10 -14.166 10 -23.499z" />
    <glyph glyph-name="Aring" unicode="&#xc5;" horiz-adv-x="589" 
d="M569 0h-44.002l-72 203h-317l-72 -203h-44l248 699c-21.333 5.33301 -38.666 16.833 -51.999 34.5s-20 37.834 -20 60.501c0 27.333 9.33301 50.5 28 69.5s42 28.5 70 28.5s51.333 -9.5 70 -28.5s28 -42.167 28 -69.5c0 -22.667 -6.66699 -42.834 -20 -60.501
s-30.666 -29.167 -51.999 -34.5zM439.998 239l-146 416l-145 -416h291zM358.998 794c0 18.667 -6.33301 34.334 -19 47.001s-28.334 19 -47.001 19s-34.167 -6.33301 -46.5 -19s-18.5 -28.334 -18.5 -47.001s6.16699 -34.334 18.5 -47.001s27.833 -19 46.5 -19
s34.334 6.33301 47.001 19s19 28.334 19 47.001z" />
    <glyph glyph-name="AE" unicode="&#xc6;" horiz-adv-x="954" 
d="M919 0h-442v199h-291l-128 -199h-48l455 703h434v-38h-380v-278h289v-38h-289v-311h400v-38zM477 237v412l-266 -412h266z" />
    <glyph glyph-name="Ccedilla" unicode="&#xc7;" horiz-adv-x="616" 
d="M234 -196l8.00195 30.001c26.667 -12 53 -18 79 -18s45.667 4.66699 59 14s20 20.666 20 33.999c0 12 -4.66699 21.667 -14 29s-22 11 -38 11c-16.667 0 -34.334 -4.33301 -53.001 -13l-27 7l43 90c-81.333 4.66699 -146 41.334 -194 110.001s-72 153.334 -72 254.001
c0 104 26 190.667 78 260s120.667 104 206 104c57.333 0 107.166 -16.333 149.499 -49s74.833 -77.667 97.5 -135l-40 -15c-19.333 50 -46.833 89.333 -82.5 118s-77.167 43 -124.5 43c-71.333 0 -129.166 -31.167 -173.499 -93.5s-66.5 -139.833 -66.5 -232.5
s21.833 -170.334 65.5 -233.001s101.167 -94 172.5 -94c83.333 0 146.666 41.333 189.999 124l40 -17c-23.333 -42.667 -53.333 -76.667 -90 -102s-78.667 -39.333 -126 -42l-32 -66c16 7.33301 32.333 11 49 11c23.333 0 42.5 -6.33301 57.5 -19s22.5 -29.334 22.5 -50.001
c0 -22.667 -10.167 -41.167 -30.5 -55.5s-48.5 -21.5 -84.5 -21.5c-31.333 0 -61 5.66699 -89 17z" />
    <glyph glyph-name="Egrave" unicode="&#xc8;" horiz-adv-x="552" 
d="M517 0h-442v703h422v-38h-380v-278h289v-38h-289v-311h400v-38zM347 762h-38l-162 150h72z" />
    <glyph glyph-name="Eacute" unicode="&#xc9;" horiz-adv-x="552" 
d="M517 0h-442v703h422v-38h-380v-278h289v-38h-289v-311h400v-38zM423 912l-162 -150h-38l128 150h72z" />
    <glyph glyph-name="Ecircumflex" unicode="&#xca;" horiz-adv-x="552" 
d="M517 0h-442v703h422v-38h-380v-278h289v-38h-289v-311h400v-38zM447 762h-38l-114 117l-116 -117h-36l125 150h55z" />
    <glyph glyph-name="Edieresis" unicode="&#xcb;" horiz-adv-x="552" 
d="M517 0h-442v703h422v-38h-380v-278h289v-38h-289v-311h400v-38zM405 832c0 -8.66699 -3.33105 -16.1689 -9.99805 -22.502s-14.334 -9.5 -23.001 -9.5s-16.167 3.16699 -22.5 9.5s-9.5 13.833 -9.5 22.5s3.16699 16.334 9.5 23.001s13.833 10 22.5 10
c9.33301 0 17.166 -3.16699 23.499 -9.5s9.5 -14.166 9.5 -23.499zM240.002 831.998c0 -8.66699 -3.33301 -16.1689 -10 -22.502s-14.334 -9.5 -23.001 -9.5s-16.167 3.16699 -22.5 9.5s-9.5 13.833 -9.5 22.5s3.16699 16.334 9.5 23.001s13.833 10 22.5 10
s16.334 -3.16699 23.001 -9.5s10 -14.166 10 -23.499z" />
    <glyph glyph-name="Igrave" unicode="&#xcc;" horiz-adv-x="192" 
d="M117 0h-42v703h42v-703zM117 762h-38l-162 150h72z" />
    <glyph glyph-name="Iacute" unicode="&#xcd;" horiz-adv-x="192" 
d="M117 0h-42v703h42v-703zM275 912l-162 -150h-38l128 150h72z" />
    <glyph glyph-name="Icircumflex" unicode="&#xce;" horiz-adv-x="192" 
d="M117 0h-42v703h42v-703zM248 762h-38l-114 117l-116 -117h-36l125 150h55z" />
    <glyph glyph-name="Idieresis" unicode="&#xcf;" horiz-adv-x="192" 
d="M117 0h-42v703h42v-703zM211 832c0 -8.66699 -3.33105 -16.1689 -9.99805 -22.502s-14.334 -9.5 -23.001 -9.5s-16.167 3.16699 -22.5 9.5s-9.5 13.833 -9.5 22.5s3.16699 16.334 9.5 23.001s13.833 10 22.5 10c9.33301 0 17.166 -3.16699 23.499 -9.5
s9.5 -14.166 9.5 -23.499zM46.002 831.998c0 -8.66699 -3.33301 -16.1689 -10 -22.502s-14.334 -9.5 -23.001 -9.5s-16.167 3.16699 -22.5 9.5s-9.5 13.833 -9.5 22.5s3.16699 16.334 9.5 23.001s13.833 10 22.5 10s16.334 -3.16699 23.001 -9.5s10 -14.166 10 -23.499z" />
    <glyph glyph-name="Eth" unicode="&#xd0;" horiz-adv-x="639" 
d="M312 0h-220v346h-82v36h82v321h220c85.333 0 153.666 -33.5 204.999 -100.5s77 -150.5 77 -250.5s-25.667 -183.667 -77 -251s-119.666 -101 -204.999 -101zM135 38h177c71.333 0 128.666 30.167 171.999 90.5s65 134.833 65 223.5s-21.667 163 -65 223
s-100.666 90 -171.999 90h-177v-283h186v-36h-186v-308z" />
    <glyph glyph-name="Ntilde" unicode="&#xd1;" horiz-adv-x="650" 
d="M575 0h-47l-411 636v-636h-42v703h46l412 -637v637h42v-703zM451 887l30.9971 -5.00098c-9.33301 -59.333 -40 -89 -92 -89c-21.333 0 -44.666 9.83301 -69.999 29.5s-45.333 29.5 -60 29.5c-29.333 0 -48.666 -19.667 -57.999 -59l-32 4
c2.66699 28.667 11.834 51.167 27.501 67.5s37.167 24.5 64.5 24.5c22.667 0 47.167 -9.83301 73.5 -29.5s45.833 -29.5 58.5 -29.5c16.667 0 29.167 4.83301 37.5 14.5s14.833 23.834 19.5 42.501z" />
    <glyph glyph-name="Ograve" unicode="&#xd2;" horiz-adv-x="654" 
d="M327 -13c-85.333 0 -153.666 34.667 -204.999 104s-77 156 -77 260s25.667 190.833 77 260.5s119.666 104.5 204.999 104.5s153.666 -34.833 204.999 -104.5s77 -156.5 77 -260.5s-25.667 -190.667 -77 -260s-119.666 -104 -204.999 -104zM327 25
c72 0 129.667 31.1689 173 93.502s65 139.833 65 232.5c0 93.333 -21.667 171.166 -65 233.499s-101 93.5 -173 93.5c-71.333 0 -128.833 -31.333 -172.5 -94s-65.5 -140.334 -65.5 -233.001s21.833 -170.167 65.5 -232.5s101.167 -93.5 172.5 -93.5zM357 762.002h-38
l-162 150h72z" />
    <glyph glyph-name="Oacute" unicode="&#xd3;" horiz-adv-x="654" 
d="M327 -13c-85.333 0 -153.666 34.667 -204.999 104s-77 156 -77 260s25.667 190.833 77 260.5s119.666 104.5 204.999 104.5s153.666 -34.833 204.999 -104.5s77 -156.5 77 -260.5s-25.667 -190.667 -77 -260s-119.666 -104 -204.999 -104zM327 25
c72 0 129.667 31.1689 173 93.502s65 139.833 65 232.5c0 93.333 -21.667 171.166 -65 233.499s-101 93.5 -173 93.5c-71.333 0 -128.833 -31.333 -172.5 -94s-65.5 -140.334 -65.5 -233.001s21.833 -170.167 65.5 -232.5s101.167 -93.5 172.5 -93.5zM493 912.002l-162 -150
h-38l128 150h72z" />
    <glyph glyph-name="Ocircumflex" unicode="&#xd4;" horiz-adv-x="654" 
d="M327 -13c-85.333 0 -153.666 34.667 -204.999 104s-77 156 -77 260s25.667 190.833 77 260.5s119.666 104.5 204.999 104.5s153.666 -34.833 204.999 -104.5s77 -156.5 77 -260.5s-25.667 -190.667 -77 -260s-119.666 -104 -204.999 -104zM327 25
c72 0 129.667 31.1689 173 93.502s65 139.833 65 232.5c0 93.333 -21.667 171.166 -65 233.499s-101 93.5 -173 93.5c-71.333 0 -128.833 -31.333 -172.5 -94s-65.5 -140.334 -65.5 -233.001s21.833 -170.167 65.5 -232.5s101.167 -93.5 172.5 -93.5zM479 762.002h-38
l-114 117l-116 -117h-36l125 150h55z" />
    <glyph glyph-name="Otilde" unicode="&#xd5;" horiz-adv-x="654" 
d="M327 -13c-85.333 0 -153.666 34.667 -204.999 104s-77 156 -77 260s25.667 190.833 77 260.5s119.666 104.5 204.999 104.5s153.666 -34.833 204.999 -104.5s77 -156.5 77 -260.5s-25.667 -190.667 -77 -260s-119.666 -104 -204.999 -104zM327 25
c72 0 129.667 31.1689 173 93.502s65 139.833 65 232.5c0 93.333 -21.667 171.166 -65 233.499s-101 93.5 -173 93.5c-71.333 0 -128.833 -31.333 -172.5 -94s-65.5 -140.334 -65.5 -233.001s21.833 -170.167 65.5 -232.5s101.167 -93.5 172.5 -93.5zM453 887.002
l30.9971 -5.00098c-9.33301 -59.333 -40 -89 -92 -89c-21.333 0 -44.666 9.83301 -69.999 29.5s-45.333 29.5 -60 29.5c-29.333 0 -48.666 -19.667 -57.999 -59l-32 4c2.66699 28.667 11.834 51.167 27.501 67.5s37.167 24.5 64.5 24.5c22.667 0 47.167 -9.83301 73.5 -29.5
s45.833 -29.5 58.5 -29.5c16.667 0 29.167 4.83301 37.5 14.5s14.833 23.834 19.5 42.501z" />
    <glyph glyph-name="Odieresis" unicode="&#xd6;" horiz-adv-x="654" 
d="M327 -13c-85.333 0 -153.666 34.667 -204.999 104s-77 156 -77 260s25.667 190.833 77 260.5s119.666 104.5 204.999 104.5s153.666 -34.833 204.999 -104.5s77 -156.5 77 -260.5s-25.667 -190.667 -77 -260s-119.666 -104 -204.999 -104zM327 25
c72 0 129.667 31.1689 173 93.502s65 139.833 65 232.5c0 93.333 -21.667 171.166 -65 233.499s-101 93.5 -173 93.5c-71.333 0 -128.833 -31.333 -172.5 -94s-65.5 -140.334 -65.5 -233.001s21.833 -170.167 65.5 -232.5s101.167 -93.5 172.5 -93.5zM442 832.002
c0 -8.66699 -3.33301 -16.1689 -10 -22.502s-14.334 -9.5 -23.001 -9.5s-16.167 3.16699 -22.5 9.5s-9.5 13.833 -9.5 22.5s3.16699 16.334 9.5 23.001s13.833 10 22.5 10s16.334 -3.16699 23.001 -9.5s10 -14.166 10 -23.499zM277 832
c0 -8.66699 -3.33105 -16.1689 -9.99805 -22.502s-14.334 -9.5 -23.001 -9.5s-16.167 3.16699 -22.5 9.5s-9.5 13.833 -9.5 22.5s3.16699 16.334 9.5 23.001s13.833 10 22.5 10c9.33301 0 17.166 -3.16699 23.499 -9.5s9.5 -14.166 9.5 -23.499z" />
    <glyph glyph-name="multiply" unicode="&#xd7;" 
d="M503 66l-28 -28l-184 187l-185 -187l-28 28l185 187l-185 187l28 28l185 -187l184 187l28 -28l-184 -187z" />
    <glyph glyph-name="Oslash" unicode="&#xd8;" horiz-adv-x="654" 
d="M93 -56l-28 17l71 113c-60.667 68.667 -91 161 -91 277c0 104 25.667 190.833 77 260.5s119.666 104.5 204.999 104.5c65.333 0 121 -21 167 -63l66 106l28 -17l-70 -113c60.667 -70 91 -162.667 91 -278c0 -104 -25.667 -190.667 -77 -260s-119.666 -104 -204.999 -104
c-64.667 0 -120.667 21 -168 63zM160 111l313 505.001c-41.333 41.333 -90 62 -146 62c-71.333 0 -128.833 -31.333 -172.5 -94s-65.5 -140.334 -65.5 -233.001c0 -98 23.667 -178 71 -240zM494 592.001l-313 -505c41.333 -41.333 90 -62 146 -62
c72 0 129.667 31.167 173 93.5s65 139.833 65 232.5c0 98.667 -23.667 179 -71 241z" />
    <glyph glyph-name="Ugrave" unicode="&#xd9;" horiz-adv-x="626" 
d="M514 285v418h42v-413c0 -102 -18.5 -178 -55.5 -228s-99.5 -75 -187.5 -75s-150.5 25 -187.5 75s-55.5 126 -55.5 228v413h42v-418c0 -88.667 15 -154.167 45 -196.5s82 -63.5 156 -63.5s126 21.167 156 63.5s45 107.833 45 196.5zM347 762h-38l-162 150h72z" />
    <glyph glyph-name="Uacute" unicode="&#xda;" horiz-adv-x="626" 
d="M514 285v418h42v-413c0 -102 -18.5 -178 -55.5 -228s-99.5 -75 -187.5 -75s-150.5 25 -187.5 75s-55.5 126 -55.5 228v413h42v-418c0 -88.667 15 -154.167 45 -196.5s82 -63.5 156 -63.5s126 21.167 156 63.5s45 107.833 45 196.5zM463 912l-162 -150h-38l128 150h72z
" />
    <glyph glyph-name="Ucircumflex" unicode="&#xdb;" horiz-adv-x="626" 
d="M514 285v418h42v-413c0 -102 -18.5 -178 -55.5 -228s-99.5 -75 -187.5 -75s-150.5 25 -187.5 75s-55.5 126 -55.5 228v413h42v-418c0 -88.667 15 -154.167 45 -196.5s82 -63.5 156 -63.5s126 21.167 156 63.5s45 107.833 45 196.5zM465 762h-38l-114 117l-116 -117h-36
l125 150h55z" />
    <glyph glyph-name="Udieresis" unicode="&#xdc;" horiz-adv-x="626" 
d="M514 285v418h42v-413c0 -102 -18.5 -178 -55.5 -228s-99.5 -75 -187.5 -75s-150.5 25 -187.5 75s-55.5 126 -55.5 228v413h42v-418c0 -88.667 15 -154.167 45 -196.5s82 -63.5 156 -63.5s126 21.167 156 63.5s45 107.833 45 196.5zM428 832
c0 -8.66699 -3.33301 -16.1689 -10 -22.502s-14.334 -9.5 -23.001 -9.5s-16.167 3.16699 -22.5 9.5s-9.5 13.833 -9.5 22.5s3.16699 16.334 9.5 23.001s13.833 10 22.5 10s16.334 -3.16699 23.001 -9.5s10 -14.166 10 -23.499zM263 831.998
c0 -8.66699 -3.33105 -16.1689 -9.99805 -22.502s-14.334 -9.5 -23.001 -9.5s-16.167 3.16699 -22.5 9.5s-9.5 13.833 -9.5 22.5s3.16699 16.334 9.5 23.001s13.833 10 22.5 10c9.33301 0 17.166 -3.16699 23.499 -9.5s9.5 -14.166 9.5 -23.499z" />
    <glyph glyph-name="Yacute" unicode="&#xdd;" horiz-adv-x="566" 
d="M304 0h-42v283l-242 420h46l217 -379l216 379h47l-242 -420v-283zM438 912l-162 -150h-38l128 150h72z" />
    <glyph glyph-name="Thorn" unicode="&#xde;" horiz-adv-x="570" 
d="M117 0h-42.002v703h42v-123h174c76.667 0 136.5 -14.5 179.5 -43.5s64.5 -79.167 64.5 -150.5c0 -38.667 -6.83301 -71.5 -20.5 -98.5s-33.167 -47.5 -58.5 -61.5s-52.666 -24 -81.999 -30s-62.666 -9 -99.999 -9h-157v-187zM116.998 224h154c80 0 136.667 12.5 170 37.5
s50 66.167 50 123.5s-16 98 -48 122s-84.333 36 -157 36h-169v-319z" />
    <glyph glyph-name="germandbls" unicode="&#xdf;" horiz-adv-x="515" 
d="M197 1l0.000976562 39.001c20.667 -9.33301 44.334 -14 71.001 -14c49.333 0 88.666 14.167 117.999 42.5s44 69.5 44 123.5c0 53.333 -22 96.666 -66 129.999s-97.667 51.333 -161 54v34c45.333 0 86.166 12.167 122.499 36.5s54.5 58.5 54.5 102.5
c0 37.333 -11.5 68.5 -34.5 93.5s-54.5 37.5 -94.5 37.5c-93.333 0 -140 -68.333 -140 -205v-475h-41v473c0 35.333 2.5 66.166 7.5 92.499s13.667 51.5 26 75.5s31.166 42.5 56.499 55.5s56.333 19.5 93 19.5c56 0 98.333 -15.833 127 -47.5s43 -70.5 43 -116.5
c0 -80 -44 -132.333 -132 -157c61.333 -16 107 -42.5 137 -79.5s45 -79.5 45 -127.5c0 -63.333 -18.667 -112.166 -56 -146.499s-87.333 -51.5 -150 -51.5c-29.333 0 -52.666 3.66699 -69.999 11z" />
    <glyph glyph-name="agrave" unicode="&#xe0;" horiz-adv-x="496" 
d="M456 0l-22 0.00195312c-36 0 -54 18.667 -54 56v17c-19.333 -26 -45.833 -46.5 -79.5 -61.5s-68.167 -22.5 -103.5 -22.5c-44 0 -80.833 12.167 -110.5 36.5s-44.5 60.166 -44.5 107.499c0 55.333 20.333 97.833 61 127.5s90.334 44.5 149.001 44.5
c45.333 0 88 -9 128 -27v69c0 39.333 -13.333 70.833 -40 94.5s-58.667 35.5 -96 35.5c-26.667 0 -52.667 -7.16699 -78 -21.5s-46.333 -34.833 -63 -61.5l-32 24c16.667 29.333 41.167 52.666 73.5 69.999s67.166 26 104.499 26c48 0 88.667 -14.5 122 -43.5
s50 -72.5 50 -130.5v-286c0 -11.333 6.33301 -17 19 -17h16v-37zM380 126.002v108.999c-32 22 -73.667 33 -125 33c-48 0 -88.333 -12 -121 -36s-49 -55.667 -49 -95c0 -35.333 11 -62.666 33 -81.999s49.667 -29 83 -29c32 0 64.5 8.83301 97.5 26.5
s60.167 42.167 81.5 73.5zM294 577.001h-38l-162 150h72z" />
    <glyph glyph-name="aacute" unicode="&#xe1;" horiz-adv-x="496" 
d="M456 0l-22 0.00195312c-36 0 -54 18.667 -54 56v17c-19.333 -26 -45.833 -46.5 -79.5 -61.5s-68.167 -22.5 -103.5 -22.5c-44 0 -80.833 12.167 -110.5 36.5s-44.5 60.166 -44.5 107.499c0 55.333 20.333 97.833 61 127.5s90.334 44.5 149.001 44.5
c45.333 0 88 -9 128 -27v69c0 39.333 -13.333 70.833 -40 94.5s-58.667 35.5 -96 35.5c-26.667 0 -52.667 -7.16699 -78 -21.5s-46.333 -34.833 -63 -61.5l-32 24c16.667 29.333 41.167 52.666 73.5 69.999s67.166 26 104.499 26c48 0 88.667 -14.5 122 -43.5
s50 -72.5 50 -130.5v-286c0 -11.333 6.33301 -17 19 -17h16v-37zM380 126.002v108.999c-32 22 -73.667 33 -125 33c-48 0 -88.333 -12 -121 -36s-49 -55.667 -49 -95c0 -35.333 11 -62.666 33 -81.999s49.667 -29 83 -29c32 0 64.5 8.83301 97.5 26.5
s60.167 42.167 81.5 73.5zM390 727.001l-162 -150h-38l128 150h72z" />
    <glyph glyph-name="acircumflex" unicode="&#xe2;" horiz-adv-x="496" 
d="M456 0l-22 0.00195312c-36 0 -54 18.667 -54 56v17c-19.333 -26 -45.833 -46.5 -79.5 -61.5s-68.167 -22.5 -103.5 -22.5c-44 0 -80.833 12.167 -110.5 36.5s-44.5 60.166 -44.5 107.499c0 55.333 20.333 97.833 61 127.5s90.334 44.5 149.001 44.5
c45.333 0 88 -9 128 -27v69c0 39.333 -13.333 70.833 -40 94.5s-58.667 35.5 -96 35.5c-26.667 0 -52.667 -7.16699 -78 -21.5s-46.333 -34.833 -63 -61.5l-32 24c16.667 29.333 41.167 52.666 73.5 69.999s67.166 26 104.499 26c48 0 88.667 -14.5 122 -43.5
s50 -72.5 50 -130.5v-286c0 -11.333 6.33301 -17 19 -17h16v-37zM380 126.002v108.999c-32 22 -73.667 33 -125 33c-48 0 -88.333 -12 -121 -36s-49 -55.667 -49 -95c0 -35.333 11 -62.666 33 -81.999s49.667 -29 83 -29c32 0 64.5 8.83301 97.5 26.5
s60.167 42.167 81.5 73.5zM399 577.001h-38l-114 117l-116 -117h-36l125 150h55z" />
    <glyph glyph-name="atilde" unicode="&#xe3;" horiz-adv-x="496" 
d="M456 0l-22 0.00195312c-36 0 -54 18.667 -54 56v17c-19.333 -26 -45.833 -46.5 -79.5 -61.5s-68.167 -22.5 -103.5 -22.5c-44 0 -80.833 12.167 -110.5 36.5s-44.5 60.166 -44.5 107.499c0 55.333 20.333 97.833 61 127.5s90.334 44.5 149.001 44.5
c45.333 0 88 -9 128 -27v69c0 39.333 -13.333 70.833 -40 94.5s-58.667 35.5 -96 35.5c-26.667 0 -52.667 -7.16699 -78 -21.5s-46.333 -34.833 -63 -61.5l-32 24c16.667 29.333 41.167 52.666 73.5 69.999s67.166 26 104.499 26c48 0 88.667 -14.5 122 -43.5
s50 -72.5 50 -130.5v-286c0 -11.333 6.33301 -17 19 -17h16v-37zM380 126.002v108.999c-32 22 -73.667 33 -125 33c-48 0 -88.333 -12 -121 -36s-49 -55.667 -49 -95c0 -35.333 11 -62.666 33 -81.999s49.667 -29 83 -29c32 0 64.5 8.83301 97.5 26.5
s60.167 42.167 81.5 73.5zM372 702.001l30.9971 -5.00098c-9.33301 -59.333 -40 -89 -92 -89c-21.333 0 -44.666 9.83301 -69.999 29.5s-45.333 29.5 -60 29.5c-29.333 0 -48.666 -19.667 -57.999 -59l-32 4c2.66699 28.667 11.834 51.167 27.501 67.5
s37.167 24.5 64.5 24.5c22.667 0 47.167 -9.83301 73.5 -29.5s45.833 -29.5 58.5 -29.5c16.667 0 29.167 4.83301 37.5 14.5s14.833 23.834 19.5 42.501z" />
    <glyph glyph-name="adieresis" unicode="&#xe4;" horiz-adv-x="496" 
d="M456 0l-22 0.00195312c-36 0 -54 18.667 -54 56v17c-19.333 -26 -45.833 -46.5 -79.5 -61.5s-68.167 -22.5 -103.5 -22.5c-44 0 -80.833 12.167 -110.5 36.5s-44.5 60.166 -44.5 107.499c0 55.333 20.333 97.833 61 127.5s90.334 44.5 149.001 44.5
c45.333 0 88 -9 128 -27v69c0 39.333 -13.333 70.833 -40 94.5s-58.667 35.5 -96 35.5c-26.667 0 -52.667 -7.16699 -78 -21.5s-46.333 -34.833 -63 -61.5l-32 24c16.667 29.333 41.167 52.666 73.5 69.999s67.166 26 104.499 26c48 0 88.667 -14.5 122 -43.5
s50 -72.5 50 -130.5v-286c0 -11.333 6.33301 -17 19 -17h16v-37zM380 126.002v108.999c-32 22 -73.667 33 -125 33c-48 0 -88.333 -12 -121 -36s-49 -55.667 -49 -95c0 -35.333 11 -62.666 33 -81.999s49.667 -29 83 -29c32 0 64.5 8.83301 97.5 26.5
s60.167 42.167 81.5 73.5zM352 647.001c0 -8.66699 -3.33301 -16.167 -10 -22.5s-14.334 -9.5 -23.001 -9.5s-16.167 3.16699 -22.5 9.5s-9.5 13.833 -9.5 22.5s3.16699 16.334 9.5 23.001s13.833 10 22.5 10s16.334 -3.33301 23.001 -10s10 -14.334 10 -23.001z
M187 647.001c0 -8.66699 -3.33105 -16.167 -9.99805 -22.5s-14.334 -9.5 -23.001 -9.5s-16.167 3.16699 -22.5 9.5s-9.5 13.833 -9.5 22.5s3.16699 16.334 9.5 23.001s13.833 10 22.5 10c9.33301 0 17.166 -3.33301 23.499 -10s9.5 -14.334 9.5 -23.001z" />
    <glyph glyph-name="aring" unicode="&#xe5;" horiz-adv-x="496" 
d="M456 0l-22 0.00195312c-36 0 -54 18.667 -54 56v17c-19.333 -26 -45.833 -46.5 -79.5 -61.5s-68.167 -22.5 -103.5 -22.5c-44 0 -80.833 12.167 -110.5 36.5s-44.5 60.166 -44.5 107.499c0 55.333 20.333 97.833 61 127.5s90.334 44.5 149.001 44.5
c45.333 0 88 -9 128 -27v69c0 39.333 -13.333 70.833 -40 94.5s-58.667 35.5 -96 35.5c-26.667 0 -52.667 -7.16699 -78 -21.5s-46.333 -34.833 -63 -61.5l-32 24c16.667 29.333 41.167 52.666 73.5 69.999s67.166 26 104.499 26c48 0 88.667 -14.5 122 -43.5
s50 -72.5 50 -130.5v-286c0 -11.333 6.33301 -17 19 -17h16v-37zM380 126.002v108.999c-32 22 -73.667 33 -125 33c-48 0 -88.333 -12 -121 -36s-49 -55.667 -49 -95c0 -35.333 11 -62.666 33 -81.999s49.667 -29 83 -29c32 0 64.5 8.83301 97.5 26.5
s60.167 42.167 81.5 73.5zM343 673.001c0 -27.333 -9.33301 -50.5 -28 -69.5s-42 -28.5 -70 -28.5s-51.333 9.5 -70 28.5s-28 42.167 -28 69.5s9.33301 50.5 28 69.5s42 28.5 70 28.5s51.333 -9.5 70 -28.5s28 -42.167 28 -69.5zM310 673.001
c0 18.667 -6.33301 34.334 -19 47.001s-28.334 19 -47.001 19s-34.167 -6.33301 -46.5 -19s-18.5 -28.334 -18.5 -47.001s6.16699 -34.334 18.5 -47.001s27.833 -19 46.5 -19s34.334 6.33301 47.001 19s19 28.334 19 47.001z" />
    <glyph glyph-name="ae" unicode="&#xe6;" horiz-adv-x="820" 
d="M721 104l33.9961 -22.9971c-18.667 -29.333 -43 -52.333 -73 -69s-63 -25 -99 -25c-39.333 0 -74.166 10.5 -104.499 31.5s-54.166 50.167 -71.499 87.5c-23.333 -32.667 -54 -60.334 -92 -83.001s-77.333 -34 -118 -34c-44 0 -80.833 12.167 -110.5 36.5
s-44.5 60.166 -44.5 107.499c0 55.333 20.333 97.833 61 127.5s90.334 44.5 149.001 44.5c45.333 0 88 -9 128 -27v69c0 39.333 -13.333 70.666 -40 93.999s-58.667 35 -96 35c-26.667 0 -52.667 -7 -78 -21s-46 -34.333 -62 -61l-33 24
c16.667 29.333 41.167 52.666 73.5 69.999s67.166 26 104.499 26c38 0 71.833 -9.16699 101.5 -27.5s49.834 -45.833 60.501 -82.5c36 73.333 92.333 110 169 110c60.667 0 109.167 -24.167 145.5 -72.5s54.5 -111.833 54.5 -190.5v-9h-358c1.33301 -64 17 -116.5 47 -157.5
s68 -61.5 114 -61.5c28 0 54.333 7.33301 79 22s44.334 34.334 59.001 59.001zM392.996 144.003c-8.66699 29.333 -13.334 59.999 -14.001 91.999c-32.667 21.333 -74 32 -124 32c-48 0 -88.333 -12 -121 -36s-49 -55.667 -49 -95c0 -35.333 11 -62.666 33 -81.999
s49.667 -29 83 -29c34.667 0 69.334 10.667 104.001 32s64 50 88 86zM422.996 278.002h314c-4 60 -20.333 108.333 -49 145s-64.667 55 -108 55c-44 0 -80.167 -18.333 -108.5 -55s-44.5 -85 -48.5 -145z" />
    <glyph glyph-name="ccedilla" unicode="&#xe7;" horiz-adv-x="456" 
d="M154 -196l8 30.0039c26.667 -12 53 -18 79 -18s45.667 4.66699 59 14s20 20.666 20 33.999c0 12 -4.66699 21.667 -14 29s-22 11 -38 11c-16.667 0 -34.334 -4.33301 -53.001 -13l-27 7l43 90c-58 4.66699 -104 30.667 -138 78s-51 108.666 -51 183.999
c0 79.333 18.667 143.166 56 191.499s87.666 72.5 150.999 72.5c72.667 0 128.334 -31 167.001 -93l-34 -24c-35.333 53.333 -79.666 80 -132.999 80c-49.333 0 -89 -21 -119 -63s-45 -96.667 -45 -164c0 -66.667 15 -121 45 -163s69.667 -63 119 -63
c52.667 0 96.334 26.667 131.001 80l34 -23c-36 -58 -87 -89 -153 -93l-32 -66c16 7.33301 32.333 11 49 11c23.333 0 42.5 -6.33301 57.5 -19s22.5 -29.334 22.5 -50.001c0 -22.667 -10.167 -41.167 -30.5 -55.5s-48.5 -21.5 -84.5 -21.5
c-30.667 0 -60.334 5.66699 -89.001 17z" />
    <glyph glyph-name="egrave" unicode="&#xe8;" horiz-adv-x="479" 
d="M386 104l32 -23.002c-18.667 -29.333 -43 -52.333 -73 -69s-63 -25 -99 -25c-60.667 0 -109.834 24.333 -147.501 73s-56.5 112.334 -56.5 191.001s18.167 142.167 54.5 190.5s84.833 72.5 145.5 72.5s108.334 -24 143.001 -72s52 -111.667 52 -191v-9h-352
c1.33301 -64 17 -116.5 47 -157.5s68 -61.5 114 -61.5c28 0 54.667 7.33301 80 22s45.333 34.334 60 59.001zM86 277.998h308.998c-4 60 -19.667 108.333 -47 145s-62.666 55 -105.999 55s-79.166 -18.333 -107.499 -55s-44.5 -85 -48.5 -145zM283.998 576.998h-38l-162 150
h72z" />
    <glyph glyph-name="eacute" unicode="&#xe9;" horiz-adv-x="479" 
d="M386 104l32 -23.002c-18.667 -29.333 -43 -52.333 -73 -69s-63 -25 -99 -25c-60.667 0 -109.834 24.333 -147.501 73s-56.5 112.334 -56.5 191.001s18.167 142.167 54.5 190.5s84.833 72.5 145.5 72.5s108.334 -24 143.001 -72s52 -111.667 52 -191v-9h-352
c1.33301 -64 17 -116.5 47 -157.5s68 -61.5 114 -61.5c28 0 54.667 7.33301 80 22s45.333 34.334 60 59.001zM86 277.998h308.998c-4 60 -19.667 108.333 -47 145s-62.666 55 -105.999 55s-79.166 -18.333 -107.499 -55s-44.5 -85 -48.5 -145zM379.998 726.998l-162 -150
h-38l128 150h72z" />
    <glyph glyph-name="ecircumflex" unicode="&#xea;" horiz-adv-x="479" 
d="M386 104l32 -23.002c-18.667 -29.333 -43 -52.333 -73 -69s-63 -25 -99 -25c-60.667 0 -109.834 24.333 -147.501 73s-56.5 112.334 -56.5 191.001s18.167 142.167 54.5 190.5s84.833 72.5 145.5 72.5s108.334 -24 143.001 -72s52 -111.667 52 -191v-9h-352
c1.33301 -64 17 -116.5 47 -157.5s68 -61.5 114 -61.5c28 0 54.667 7.33301 80 22s45.333 34.334 60 59.001zM86 277.998h308.998c-4 60 -19.667 108.333 -47 145s-62.666 55 -105.999 55s-79.166 -18.333 -107.499 -55s-44.5 -85 -48.5 -145zM398.998 576.998h-38l-114 117
l-116 -117h-36l125 150h55z" />
    <glyph glyph-name="edieresis" unicode="&#xeb;" horiz-adv-x="479" 
d="M386 104l32 -23.002c-18.667 -29.333 -43 -52.333 -73 -69s-63 -25 -99 -25c-60.667 0 -109.834 24.333 -147.501 73s-56.5 112.334 -56.5 191.001s18.167 142.167 54.5 190.5s84.833 72.5 145.5 72.5s108.334 -24 143.001 -72s52 -111.667 52 -191v-9h-352
c1.33301 -64 17 -116.5 47 -157.5s68 -61.5 114 -61.5c28 0 54.667 7.33301 80 22s45.333 34.334 60 59.001zM86 277.998h308.998c-4 60 -19.667 108.333 -47 145s-62.666 55 -105.999 55s-79.166 -18.333 -107.499 -55s-44.5 -85 -48.5 -145zM361.998 646.998
c0 -8.66699 -3.33301 -16.167 -10 -22.5s-14.334 -9.5 -23.001 -9.5s-16.167 3.16699 -22.5 9.5s-9.5 13.833 -9.5 22.5s3.16699 16.334 9.5 23.001s13.833 10 22.5 10s16.334 -3.33301 23.001 -10s10 -14.334 10 -23.001zM196.998 646.998
c0 -8.66699 -3.33105 -16.167 -9.99805 -22.5s-14.334 -9.5 -23.001 -9.5s-16.167 3.16699 -22.5 9.5s-9.5 13.833 -9.5 22.5s3.16699 16.334 9.5 23.001s13.833 10 22.5 10c9.33301 0 17.166 -3.33301 23.499 -10s9.5 -14.334 9.5 -23.001z" />
    <glyph glyph-name="igrave" unicode="&#xec;" horiz-adv-x="195" 
d="M118 0h-41v501h41v-501zM117 577h-38l-162 150h72z" />
    <glyph glyph-name="iacute" unicode="&#xed;" horiz-adv-x="195" 
d="M118 0h-41v501h41v-501zM278 727l-162 -150h-38l128 150h72z" />
    <glyph glyph-name="icircumflex" unicode="&#xee;" horiz-adv-x="195" 
d="M118 0h-41v501h41v-501zM249 577h-38l-114 117l-116 -117h-36l125 150h55z" />
    <glyph glyph-name="idieresis" unicode="&#xef;" horiz-adv-x="195" 
d="M118 0h-41v501h41v-501zM212 647c0 -8.66699 -3.33301 -16.167 -10 -22.5s-14.334 -9.5 -23.001 -9.5s-16.167 3.16699 -22.5 9.5s-9.5 13.833 -9.5 22.5s3.16699 16.334 9.5 23.001s13.833 10 22.5 10s16.334 -3.33301 23.001 -10s10 -14.334 10 -23.001zM47 647
c0 -8.66699 -3.33105 -16.167 -9.99805 -22.5s-14.334 -9.5 -23.001 -9.5s-16.167 3.16699 -22.5 9.5s-9.5 13.833 -9.5 22.5s3.16699 16.334 9.5 23.001s13.833 10 22.5 10c9.33301 0 17.166 -3.33301 23.499 -10s9.5 -14.334 9.5 -23.001z" />
    <glyph glyph-name="eth" unicode="&#xf0;" horiz-adv-x="523" 
d="M418 659l-65.002 -35c85.333 -88 128 -206.667 128 -356c0 -32 -3.83301 -63.5 -11.5 -94.5s-19.667 -61 -36 -90s-39.666 -52.333 -69.999 -70s-65.833 -26.5 -106.5 -26.5c-66 0 -118.333 23 -157 69s-58 104.333 -58 175c0 74 19.5 133.833 58.5 179.5
s88.167 68.5 147.5 68.5c43.333 0 82.5 -11 117.5 -33s61.167 -55.667 78.5 -101c-10.667 60 -25.667 109.833 -45 149.5s-45 76.834 -77 111.501l-102 -57l-22 28l98 53c-29.333 23.333 -60.333 42.666 -93 57.999l16 30c36.667 -15.333 73.334 -38 110.001 -68l66 38z
M256.998 23c54 0 96.499 19.167 127.499 57.5s46.833 89.166 47.5 152.499c0 17.333 -1.5 34.833 -4.5 52.5s-8.66699 36.167 -17 55.5s-18.833 36.333 -31.5 51s-29.667 26.834 -51 36.501s-45.666 14.5 -72.999 14.5c-40 0 -73.333 -11 -100 -33s-45 -48 -55 -78
s-15 -63.333 -15 -100c0 -66 16.167 -117.333 48.5 -154s73.5 -55 123.5 -55z" />
    <glyph glyph-name="ntilde" unicode="&#xf1;" horiz-adv-x="493" 
d="M428 0l-41.001 -0.000976562v315c0 50.667 -11.167 90.334 -33.5 119.001s-53.833 43 -94.5 43c-38.667 0 -73 -14.5 -103 -43.5s-45 -71.167 -45 -126.5v-307h-41v501h41v-73c15.333 28 36.5 49.333 63.5 64s56.5 22 88.5 22c54.667 0 95.834 -19.5 123.501 -58.5
s41.5 -89.5 41.5 -151.5v-304zM368.999 701.999l30.9971 -5.00098c-9.33301 -59.333 -40 -89 -92 -89c-21.333 0 -44.666 9.83301 -69.999 29.5s-45.333 29.5 -60 29.5c-29.333 0 -48.666 -19.667 -57.999 -59l-32 4c2.66699 28.667 11.834 51.167 27.501 67.5
s37.167 24.5 64.5 24.5c22.667 0 47.167 -9.83301 73.5 -29.5s45.833 -29.5 58.5 -29.5c16.667 0 29.167 4.83301 37.5 14.5s14.833 23.834 19.5 42.501z" />
    <glyph glyph-name="ograve" unicode="&#xf2;" horiz-adv-x="498" 
d="M249 -13c-64.667 0 -115.334 24 -152.001 72s-55 112 -55 192s18.333 143.833 55 191.5s87.334 71.5 152.001 71.5s115.334 -23.833 152.001 -71.5s55 -111.5 55 -191.5s-18.333 -144 -55 -192s-87.334 -72 -152.001 -72zM249 23c51.333 0 91.5 21 120.5 63
s43.5 97 43.5 165s-14.5 122.833 -43.5 164.5s-69.167 62.5 -120.5 62.5s-91.5 -20.833 -120.5 -62.5s-43.5 -96.5 -43.5 -164.5s14.5 -123 43.5 -165s69.167 -63 120.5 -63zM284 577h-38l-162 150h72z" />
    <glyph glyph-name="oacute" unicode="&#xf3;" horiz-adv-x="498" 
d="M249 -13c-64.667 0 -115.334 24 -152.001 72s-55 112 -55 192s18.333 143.833 55 191.5s87.334 71.5 152.001 71.5s115.334 -23.833 152.001 -71.5s55 -111.5 55 -191.5s-18.333 -144 -55 -192s-87.334 -72 -152.001 -72zM249 23c51.333 0 91.5 21 120.5 63
s43.5 97 43.5 165s-14.5 122.833 -43.5 164.5s-69.167 62.5 -120.5 62.5s-91.5 -20.833 -120.5 -62.5s-43.5 -96.5 -43.5 -164.5s14.5 -123 43.5 -165s69.167 -63 120.5 -63zM412 727l-162 -150h-38l128 150h72z" />
    <glyph glyph-name="ocircumflex" unicode="&#xf4;" horiz-adv-x="498" 
d="M249 -13c-64.667 0 -115.334 24 -152.001 72s-55 112 -55 192s18.333 143.833 55 191.5s87.334 71.5 152.001 71.5s115.334 -23.833 152.001 -71.5s55 -111.5 55 -191.5s-18.333 -144 -55 -192s-87.334 -72 -152.001 -72zM249 23c51.333 0 91.5 21 120.5 63
s43.5 97 43.5 165s-14.5 122.833 -43.5 164.5s-69.167 62.5 -120.5 62.5s-91.5 -20.833 -120.5 -62.5s-43.5 -96.5 -43.5 -164.5s14.5 -123 43.5 -165s69.167 -63 120.5 -63zM398 577h-38l-114 117l-116 -117h-36l125 150h55z" />
    <glyph glyph-name="otilde" unicode="&#xf5;" horiz-adv-x="498" 
d="M249 -13c-64.667 0 -115.334 24 -152.001 72s-55 112 -55 192s18.333 143.833 55 191.5s87.334 71.5 152.001 71.5s115.334 -23.833 152.001 -71.5s55 -111.5 55 -191.5s-18.333 -144 -55 -192s-87.334 -72 -152.001 -72zM249 23c51.333 0 91.5 21 120.5 63
s43.5 97 43.5 165s-14.5 122.833 -43.5 164.5s-69.167 62.5 -120.5 62.5s-91.5 -20.833 -120.5 -62.5s-43.5 -96.5 -43.5 -164.5s14.5 -123 43.5 -165s69.167 -63 120.5 -63zM372 702l30.9971 -5.00098c-9.33301 -59.333 -40 -89 -92 -89
c-21.333 0 -44.666 9.83301 -69.999 29.5s-45.333 29.5 -60 29.5c-29.333 0 -48.666 -19.667 -57.999 -59l-32 4c2.66699 28.667 11.834 51.167 27.501 67.5s37.167 24.5 64.5 24.5c22.667 0 47.167 -9.83301 73.5 -29.5s45.833 -29.5 58.5 -29.5
c16.667 0 29.167 4.83301 37.5 14.5s14.833 23.834 19.5 42.501z" />
    <glyph glyph-name="odieresis" unicode="&#xf6;" horiz-adv-x="498" 
d="M249 -13c-64.667 0 -115.334 24 -152.001 72s-55 112 -55 192s18.333 143.833 55 191.5s87.334 71.5 152.001 71.5s115.334 -23.833 152.001 -71.5s55 -111.5 55 -191.5s-18.333 -144 -55 -192s-87.334 -72 -152.001 -72zM249 23c51.333 0 91.5 21 120.5 63
s43.5 97 43.5 165s-14.5 122.833 -43.5 164.5s-69.167 62.5 -120.5 62.5s-91.5 -20.833 -120.5 -62.5s-43.5 -96.5 -43.5 -164.5s14.5 -123 43.5 -165s69.167 -63 120.5 -63zM361 647c0 -8.66699 -3.33105 -16.167 -9.99805 -22.5s-14.334 -9.5 -23.001 -9.5
s-16.167 3.16699 -22.5 9.5s-9.5 13.833 -9.5 22.5s3.16699 16.334 9.5 23.001s13.833 10 22.5 10c9.33301 0 17.166 -3.33301 23.499 -10s9.5 -14.334 9.5 -23.001zM196.002 647c0 -8.66699 -3.33301 -16.167 -10 -22.5s-14.334 -9.5 -23.001 -9.5
s-16.167 3.16699 -22.5 9.5s-9.5 13.833 -9.5 22.5s3.16699 16.334 9.5 23.001s13.833 10 22.5 10s16.334 -3.33301 23.001 -10s10 -14.334 10 -23.001z" />
    <glyph glyph-name="divide" unicode="&#xf7;" 
d="M326 480c0 -10 -3.5 -18.5 -10.5 -25.5s-15.5 -10.5 -25.5 -10.5c-9.33301 0 -17.5 3.5 -24.5 10.5s-10.5 15.5 -10.5 25.5c0 9.33301 3.5 17.5 10.5 24.5s15.167 10.5 24.5 10.5c10 0 18.5 -3.5 25.5 -10.5s10.5 -15.167 10.5 -24.5zM540 296h-500v39h500v-39zM326 149
c0 -9.33301 -3.5 -17.5 -10.5 -24.5s-15.5 -10.5 -25.5 -10.5c-9.33301 0 -17.5 3.5 -24.5 10.5s-10.5 15.167 -10.5 24.5c0 10 3.5 18.5 10.5 25.5s15.167 10.5 24.5 10.5c10 0 18.5 -3.5 25.5 -10.5s10.5 -15.5 10.5 -25.5z" />
    <glyph glyph-name="oslash" unicode="&#xf8;" horiz-adv-x="524" 
d="M67 -49l-25 19l62 87c-41.333 47.333 -62 112 -62 194c0 78.667 20.167 142.167 60.5 190.5s93.5 72.5 159.5 72.5c50.667 0 95.667 -16.333 135 -49l60 83l25 -19l-62 -87c41.333 -48.667 62 -112.667 62 -192c0 -78.667 -20.167 -142.167 -60.5 -190.5
s-93.5 -72.5 -159.5 -72.5c-52.667 0 -97.667 15.667 -135 47zM130 92l244.001 339c-32.667 31.333 -70 47 -112 47c-52.667 0 -95.334 -21.167 -128.001 -63.5s-49 -96.833 -49 -163.5c0 -65.333 15 -118.333 45 -159zM394.001 408l-244 -340.001
c31.333 -30 68.666 -45 111.999 -45c52.667 0 95.334 21.167 128.001 63.5s49 96.833 49 163.5c0 62.667 -15 115.334 -45 158.001z" />
    <glyph glyph-name="ugrave" unicode="&#xf9;" horiz-adv-x="493" 
d="M423 0l-40.999 0.000976562v73c-15.333 -28 -36.5 -49.333 -63.5 -64s-56.5 -22 -88.5 -22c-54.667 0 -95.834 19.5 -123.501 58.5s-41.5 89.5 -41.5 151.5v304h41v-315c0 -50.667 11.167 -90.334 33.5 -119.001s53.833 -43 94.5 -43c38.667 0 73 14.5 103 43.5
s45 71.167 45 126.5v307h41v-501zM262.001 577.001h-38l-162 150h72z" />
    <glyph glyph-name="uacute" unicode="&#xfa;" horiz-adv-x="493" 
d="M423 0l-40.999 0.000976562v73c-15.333 -28 -36.5 -49.333 -63.5 -64s-56.5 -22 -88.5 -22c-54.667 0 -95.834 19.5 -123.501 58.5s-41.5 89.5 -41.5 151.5v304h41v-315c0 -50.667 11.167 -90.334 33.5 -119.001s53.833 -43 94.5 -43c38.667 0 73 14.5 103 43.5
s45 71.167 45 126.5v307h41v-501zM398.001 727.001l-162 -150h-38l128 150h72z" />
    <glyph glyph-name="ucircumflex" unicode="&#xfb;" horiz-adv-x="493" 
d="M423 0l-40.999 0.000976562v73c-15.333 -28 -36.5 -49.333 -63.5 -64s-56.5 -22 -88.5 -22c-54.667 0 -95.834 19.5 -123.501 58.5s-41.5 89.5 -41.5 151.5v304h41v-315c0 -50.667 11.167 -90.334 33.5 -119.001s53.833 -43 94.5 -43c38.667 0 73 14.5 103 43.5
s45 71.167 45 126.5v307h41v-501zM395.001 577.001h-38l-114 117l-116 -117h-36l125 150h55z" />
    <glyph glyph-name="udieresis" unicode="&#xfc;" horiz-adv-x="493" 
d="M423 0l-40.999 0.000976562v73c-15.333 -28 -36.5 -49.333 -63.5 -64s-56.5 -22 -88.5 -22c-54.667 0 -95.834 19.5 -123.501 58.5s-41.5 89.5 -41.5 151.5v304h41v-315c0 -50.667 11.167 -90.334 33.5 -119.001s53.833 -43 94.5 -43c38.667 0 73 14.5 103 43.5
s45 71.167 45 126.5v307h41v-501zM358.001 647.001c0 -8.66699 -3.33301 -16.167 -10 -22.5s-14.334 -9.5 -23.001 -9.5s-16.167 3.16699 -22.5 9.5s-9.5 13.833 -9.5 22.5s3.16699 16.334 9.5 23.001s13.833 10 22.5 10s16.334 -3.33301 23.001 -10s10 -14.334 10 -23.001z
M193.001 647.001c0 -8.66699 -3.33105 -16.167 -9.99805 -22.5s-14.334 -9.5 -23.001 -9.5s-16.167 3.16699 -22.5 9.5s-9.5 13.833 -9.5 22.5s3.16699 16.334 9.5 23.001s13.833 10 22.5 10c9.33301 0 17.166 -3.33301 23.499 -10s9.5 -14.334 9.5 -23.001z" />
    <glyph glyph-name="yacute" unicode="&#xfd;" horiz-adv-x="454" 
d="M154 -129l49 127l-178 503h44l155 -454l161 454h44l-242 -644c-16.667 -43.333 -45.667 -65 -87 -65c-11.333 0 -23 2.66699 -35 8v34c10.667 -5.33301 22 -8 34 -8c26 0 44.333 15 55 45zM383 727l-162 -150h-38l128 150h72z" />
    <glyph glyph-name="thorn" unicode="&#xfe;" horiz-adv-x="495" 
d="M111 -200h-41v904h41v-281c32.667 60.667 84.667 91 156 91c54 0 98.5 -25.5 133.5 -76.5s52.5 -113.5 52.5 -187.5s-17 -136.333 -51 -187s-77.667 -76 -131 -76c-68.667 0 -122 34.333 -160 103v-290zM111 340l0.00195312 -153.001
c10 -47.333 29.167 -86.5 57.5 -117.5s60.5 -46.5 96.5 -46.5c42.667 0 77.5 21.833 104.5 65.5s40.5 97.5 40.5 161.5s-13.833 118 -41.5 162s-63.167 66 -106.5 66c-34.667 0 -65.334 -12.667 -92.001 -38s-46.334 -58.666 -59.001 -99.999z" />
    <glyph glyph-name="ydieresis" unicode="&#xff;" horiz-adv-x="454" 
d="M154 -129l49 127l-178 503h44l155 -454l161 454h44l-242 -644c-16.667 -43.333 -45.667 -65 -87 -65c-11.333 0 -23 2.66699 -35 8v34c10.667 -5.33301 22 -8 34 -8c26 0 44.333 15 55 45zM339 647c0 -8.66699 -3.33105 -16.167 -9.99805 -22.5
s-14.334 -9.5 -23.001 -9.5s-16.167 3.16699 -22.5 9.5s-9.5 13.833 -9.5 22.5s3.16699 16.334 9.5 23.001s13.833 10 22.5 10c9.33301 0 17.166 -3.33301 23.499 -10s9.5 -14.334 9.5 -23.001zM174.002 647c0 -8.66699 -3.33301 -16.167 -10 -22.5
s-14.334 -9.5 -23.001 -9.5s-16.167 3.16699 -22.5 9.5s-9.5 13.833 -9.5 22.5s3.16699 16.334 9.5 23.001s13.833 10 22.5 10s16.334 -3.33301 23.001 -10s10 -14.334 10 -23.001z" />
    <glyph glyph-name="Amacron" unicode="&#x100;" horiz-adv-x="589" 
d="M569 0h-44l-72 203h-317l-72 -203h-44l251 703h47zM441 239l-147 413l-146 -413h293zM421 806h-253v37h253v-37z" />
    <glyph glyph-name="amacron" unicode="&#x101;" horiz-adv-x="496" 
d="M456 0l-22 0.00195312c-36 0 -54 18.667 -54 56v17c-19.333 -26 -45.833 -46.5 -79.5 -61.5s-68.167 -22.5 -103.5 -22.5c-44 0 -80.833 12.167 -110.5 36.5s-44.5 60.166 -44.5 107.499c0 55.333 20.333 97.833 61 127.5s90.334 44.5 149.001 44.5
c45.333 0 88 -9 128 -27v69c0 39.333 -13.333 70.833 -40 94.5s-58.667 35.5 -96 35.5c-26.667 0 -52.667 -7.16699 -78 -21.5s-46.333 -34.833 -63 -61.5l-32 24c16.667 29.333 41.167 52.666 73.5 69.999s67.166 26 104.499 26c48 0 88.667 -14.5 122 -43.5
s50 -72.5 50 -130.5v-286c0 -11.333 6.33301 -17 19 -17h16v-37zM380 126.002v108.999c-32 22 -73.667 33 -125 33c-48 0 -88.333 -12 -121 -36s-49 -55.667 -49 -95c0 -35.333 11 -62.666 33 -81.999s49.667 -29 83 -29c32 0 64.5 8.83301 97.5 26.5
s60.167 42.167 81.5 73.5zM368 621.001h-253v37h253v-37z" />
    <glyph glyph-name="Abreve" unicode="&#x102;" horiz-adv-x="589" 
d="M569 0h-44l-72 203h-317l-72 -203h-44l251 703h47zM441 239l-147 413l-146 -413h293zM397 907h33.001c-2 -36 -15.167 -65.667 -39.5 -89s-57.5 -35 -99.5 -35c-38.667 0 -69.834 11.167 -93.501 33.5s-36.834 52.5 -39.501 90.5h35c2.66699 -26 13 -47.333 31 -64
s41 -25 69 -25c26.667 0 49.834 8.16699 69.501 24.5s31.167 37.833 34.5 64.5z" />
    <glyph glyph-name="abreve" unicode="&#x103;" horiz-adv-x="496" 
d="M456 0l-22 0.00195312c-36 0 -54 18.667 -54 56v17c-19.333 -26 -45.833 -46.5 -79.5 -61.5s-68.167 -22.5 -103.5 -22.5c-44 0 -80.833 12.167 -110.5 36.5s-44.5 60.166 -44.5 107.499c0 55.333 20.333 97.833 61 127.5s90.334 44.5 149.001 44.5
c45.333 0 88 -9 128 -27v69c0 39.333 -13.333 70.833 -40 94.5s-58.667 35.5 -96 35.5c-26.667 0 -52.667 -7.16699 -78 -21.5s-46.333 -34.833 -63 -61.5l-32 24c16.667 29.333 41.167 52.666 73.5 69.999s67.166 26 104.499 26c48 0 88.667 -14.5 122 -43.5
s50 -72.5 50 -130.5v-286c0 -11.333 6.33301 -17 19 -17h16v-37zM380 126.002v108.999c-32 22 -73.667 33 -125 33c-48 0 -88.333 -12 -121 -36s-49 -55.667 -49 -95c0 -35.333 11 -62.666 33 -81.999s49.667 -29 83 -29c32 0 64.5 8.83301 97.5 26.5
s60.167 42.167 81.5 73.5zM346 722.001h33.001c-2 -36 -15.167 -65.667 -39.5 -89s-57.5 -35 -99.5 -35c-38.667 0 -69.834 11.167 -93.501 33.5s-36.834 52.5 -39.501 90.5h35c2.66699 -26 13 -47.333 31 -64s41 -25 69 -25c26.667 0 49.834 8.16699 69.501 24.5
s31.167 37.833 34.5 64.5z" />
    <glyph glyph-name="Aogonek" unicode="&#x104;" horiz-adv-x="589" 
d="M591 -165l8.00098 -28.002c-26.667 -13.333 -51.334 -20 -74.001 -20c-28.667 0 -52.167 7.83301 -70.5 23.5s-27.5 35.5 -27.5 59.5c0 22.667 9.66699 46.334 29 71.001s42.333 44.334 69 59.001l-72 203h-317l-72 -203h-44l251 703h47l251 -703
c-28.667 -15.333 -53.5 -35 -74.5 -59s-31.5 -46 -31.5 -66c0 -38 21.667 -57 65 -57c15.333 0 36.333 5.66699 63 17zM440.001 238.998l-146 412l-145 -412h291z" />
    <glyph glyph-name="aogonek" unicode="&#x105;" horiz-adv-x="496" 
d="M482 -165l8 -27.999c-26.667 -13.333 -51.334 -20 -74.001 -20c-28.667 0 -52.167 7.83301 -70.5 23.5s-27.5 35.5 -27.5 59.5c0 23.333 10 47.333 30 72s42.667 44.334 68 59.001c-24 3.33301 -36 21 -36 53v19c-19.333 -26 -45.833 -46.5 -79.5 -61.5
s-68.167 -22.5 -103.5 -22.5c-44 0 -80.833 12.167 -110.5 36.5s-44.5 60.166 -44.5 107.499c0 55.333 20.333 97.833 61 127.5s90.334 44.5 149.001 44.5c45.333 0 88 -9 128 -27v68c0 39.333 -13.333 71 -40 95s-58.667 36 -96 36c-26.667 0 -53 -7.16699 -79 -21.5
s-47 -34.833 -63 -61.5l-31 24c16.667 29.333 41.167 52.666 73.5 69.999s67.166 26 104.499 26c48 0 88.667 -14.667 122 -44s50 -73 50 -131v-285c0 -11.333 6.66699 -17 20 -17h15v-37c-25.333 -14 -48.666 -33.5 -69.999 -58.5s-32 -47.167 -32 -66.5
c0 -38 21.667 -57 65 -57c15.333 0 36.333 5.66699 63 17zM380 126.001v108.999c-32 22 -73.667 33 -125 33c-48 0 -88.333 -12 -121 -36s-49 -55.667 -49 -95c0 -35.333 11 -62.666 33 -81.999s49.667 -29 83 -29c32 0 64.5 8.83301 97.5 26.5s60.167 42.167 81.5 73.5z
" />
    <glyph glyph-name="Cacute" unicode="&#x106;" horiz-adv-x="616" 
d="M517 149l40 -16.999c-24 -45.333 -55.833 -80.833 -95.5 -106.5s-84.5 -38.5 -134.5 -38.5c-85.333 0 -153.666 34.833 -204.999 104.5s-77 156.5 -77 260.5s26 190.667 78 260s120.667 104 206 104c57.333 0 107.166 -16.333 149.499 -49s74.833 -77.667 97.5 -135
l-40 -15c-19.333 50 -46.833 89.333 -82.5 118s-77.167 43 -124.5 43c-71.333 0 -129.166 -31.167 -173.499 -93.5s-66.5 -139.833 -66.5 -232.5s21.833 -170.334 65.5 -233.001s101.167 -94 172.5 -94c83.333 0 146.666 41.333 189.999 124zM483 912.001l-162 -150h-38
l128 150h72z" />
    <glyph glyph-name="cacute" unicode="&#x107;" horiz-adv-x="456" 
d="M380 104l33.9971 -22.999c-39.333 -62.667 -94.333 -94 -165 -94c-63.333 0 -113.666 24 -150.999 72s-56 111.667 -56 191s18.667 143.166 56 191.499s87.666 72.5 150.999 72.5c72.667 0 128.334 -31 167.001 -93l-34 -24c-35.333 53.333 -79.666 80 -132.999 80
c-49.333 0 -89 -21 -119 -63s-45 -96.667 -45 -164c0 -66.667 15 -121 45 -163s69.667 -63 119 -63c52.667 0 96.334 26.667 131.001 80zM408.997 727.001l-162 -150h-38l128 150h72z" />
    <glyph glyph-name="Ccircumflex" unicode="&#x108;" horiz-adv-x="616" 
d="M517 149l40 -16.999c-24 -45.333 -55.833 -80.833 -95.5 -106.5s-84.5 -38.5 -134.5 -38.5c-85.333 0 -153.666 34.833 -204.999 104.5s-77 156.5 -77 260.5s26 190.667 78 260s120.667 104 206 104c57.333 0 107.166 -16.333 149.499 -49s74.833 -77.667 97.5 -135
l-40 -15c-19.333 50 -46.833 89.333 -82.5 118s-77.167 43 -124.5 43c-71.333 0 -129.166 -31.167 -173.499 -93.5s-66.5 -139.833 -66.5 -232.5s21.833 -170.334 65.5 -233.001s101.167 -94 172.5 -94c83.333 0 146.666 41.333 189.999 124zM487 762.001h-38l-114 117
l-116 -117h-36l125 150h55z" />
    <glyph glyph-name="ccircumflex" unicode="&#x109;" horiz-adv-x="456" 
d="M380 104l33.9971 -22.999c-39.333 -62.667 -94.333 -94 -165 -94c-63.333 0 -113.666 24 -150.999 72s-56 111.667 -56 191s18.667 143.166 56 191.499s87.666 72.5 150.999 72.5c72.667 0 128.334 -31 167.001 -93l-34 -24c-35.333 53.333 -79.666 80 -132.999 80
c-49.333 0 -89 -21 -119 -63s-45 -96.667 -45 -164c0 -66.667 15 -121 45 -163s69.667 -63 119 -63c52.667 0 96.334 26.667 131.001 80zM405.997 577.001h-38l-114 117l-116 -117h-36l125 150h55z" />
    <glyph glyph-name="Cdotaccent" unicode="&#x10a;" horiz-adv-x="616" 
d="M517 149l40 -16.999c-24 -45.333 -55.833 -80.833 -95.5 -106.5s-84.5 -38.5 -134.5 -38.5c-85.333 0 -153.666 34.833 -204.999 104.5s-77 156.5 -77 260.5s26 190.667 78 260s120.667 104 206 104c57.333 0 107.166 -16.333 149.499 -49s74.833 -77.667 97.5 -135
l-40 -15c-19.333 50 -46.833 89.333 -82.5 118s-77.167 43 -124.5 43c-71.333 0 -129.166 -31.167 -173.499 -93.5s-66.5 -139.833 -66.5 -232.5s21.833 -170.334 65.5 -233.001s101.167 -94 172.5 -94c83.333 0 146.666 41.333 189.999 124zM368 832.001
c0 -8.66699 -3.33301 -16.1689 -10 -22.502s-14.334 -9.5 -23.001 -9.5s-16.167 3.16699 -22.5 9.5s-9.5 13.833 -9.5 22.5s3.16699 16.334 9.5 23.001s13.833 10 22.5 10s16.334 -3.16699 23.001 -9.5s10 -14.166 10 -23.499z" />
    <glyph glyph-name="cdotaccent" unicode="&#x10b;" horiz-adv-x="456" 
d="M380 104l33.9971 -22.999c-39.333 -62.667 -94.333 -94 -165 -94c-63.333 0 -113.666 24 -150.999 72s-56 111.667 -56 191s18.667 143.166 56 191.499s87.666 72.5 150.999 72.5c72.667 0 128.334 -31 167.001 -93l-34 -24c-35.333 53.333 -79.666 80 -132.999 80
c-49.333 0 -89 -21 -119 -63s-45 -96.667 -45 -164c0 -66.667 15 -121 45 -163s69.667 -63 119 -63c52.667 0 96.334 26.667 131.001 80zM285.997 647.001c0 -8.66699 -3.33301 -16.167 -10 -22.5s-14.334 -9.5 -23.001 -9.5s-16.167 3.16699 -22.5 9.5
s-9.5 13.833 -9.5 22.5s3.16699 16.334 9.5 23.001s13.833 10 22.5 10s16.334 -3.33301 23.001 -10s10 -14.334 10 -23.001z" />
    <glyph glyph-name="Ccaron" unicode="&#x10c;" horiz-adv-x="616" 
d="M517 149l40 -16.999c-24 -45.333 -55.833 -80.833 -95.5 -106.5s-84.5 -38.5 -134.5 -38.5c-85.333 0 -153.666 34.833 -204.999 104.5s-77 156.5 -77 260.5s26 190.667 78 260s120.667 104 206 104c57.333 0 107.166 -16.333 149.499 -49s74.833 -77.667 97.5 -135
l-40 -15c-19.333 50 -46.833 89.333 -82.5 118s-77.167 43 -124.5 43c-71.333 0 -129.166 -31.167 -173.499 -93.5s-66.5 -139.833 -66.5 -232.5s21.833 -170.334 65.5 -233.001s101.167 -94 172.5 -94c83.333 0 146.666 41.333 189.999 124zM364 762.001h-55l-129 150h37
l121 -117l116 117h36z" />
    <glyph glyph-name="ccaron" unicode="&#x10d;" horiz-adv-x="456" 
d="M380 104l33.9971 -22.999c-39.333 -62.667 -94.333 -94 -165 -94c-63.333 0 -113.666 24 -150.999 72s-56 111.667 -56 191s18.667 143.166 56 191.499s87.666 72.5 150.999 72.5c72.667 0 128.334 -31 167.001 -93l-34 -24c-35.333 53.333 -79.666 80 -132.999 80
c-49.333 0 -89 -21 -119 -63s-45 -96.667 -45 -164c0 -66.667 15 -121 45 -163s69.667 -63 119 -63c52.667 0 96.334 26.667 131.001 80zM272.997 577.001h-55l-129 150h37l121 -117l116 117h36z" />
    <glyph glyph-name="Dcaron" unicode="&#x10e;" horiz-adv-x="622" 
d="M295 0h-220v703h220c85.333 0 153.666 -33.5 204.999 -100.5s77 -150.5 77 -250.5s-25.667 -183.667 -77 -251s-119.666 -101 -204.999 -101zM117 38h178c71.333 0 128.833 30 172.5 90s65.5 134.667 65.5 224c0 88.667 -21.833 163 -65.5 223s-101.167 90 -172.5 90
h-178v-627zM295 762h-55l-129 150h37l121 -117l116 117h36z" />
    <glyph glyph-name="dcaron" unicode="&#x10f;" horiz-adv-x="643" 
d="M425 0h-40.999v81c-34 -62.667 -86 -94 -156 -94c-54 0 -98.5 25.5 -133.5 76.5s-52.5 113.5 -52.5 187.5s17 136.333 51 187s77.667 76 131 76c69.333 0 122.666 -34 159.999 -102v291h41v-703zM384.001 162v153c-10 47.333 -29.167 86.333 -57.5 117s-60.5 46 -96.5 46
c-42.667 0 -77.5 -21.833 -104.5 -65.5s-40.5 -97.5 -40.5 -161.5s13.833 -118 41.5 -162s63.167 -66 106.5 -66c34 0 64.333 12.833 91 38.5s46.667 59.167 60 100.5zM535.001 454l-29 11l75 238h63z" />
    <glyph glyph-name="Dcroat" unicode="&#x110;" horiz-adv-x="639" 
d="M312 0h-220v346h-82v36h82v321h220c85.333 0 153.666 -33.5 204.999 -100.5s77 -150.5 77 -250.5s-25.667 -183.667 -77 -251s-119.666 -101 -204.999 -101zM135 38h177c71.333 0 128.666 30.167 171.999 90.5s65 134.833 65 223.5s-21.667 163 -65 223
s-100.666 90 -171.999 90h-177v-283h186v-36h-186v-308z" />
    <glyph glyph-name="dcroat" unicode="&#x111;" horiz-adv-x="495" 
d="M425 0h-40.999v79c-33.333 -61.333 -85.333 -92 -156 -92c-54 0 -98.5 25.333 -133.5 76s-52.5 113 -52.5 187s17 136.5 51 187.5s77.667 76.5 131 76.5c69.333 0 122.666 -34 159.999 -102v154h-104v31h104v106h41v-106h75v-31h-75v-566zM384.001 162v153
c-10 47.333 -29.167 86.333 -57.5 117s-60.5 46 -96.5 46c-42.667 0 -77.5 -22 -104.5 -66s-40.5 -98 -40.5 -162s13.833 -117.833 41.5 -161.5s63.167 -65.5 106.5 -65.5c34 0 64.333 12.833 91 38.5s46.667 59.167 60 100.5z" />
    <glyph glyph-name="Emacron" unicode="&#x112;" horiz-adv-x="552" 
d="M517 0h-442v703h422v-38h-380v-278h289v-38h-289v-311h400v-38zM420 806h-253v37h253v-37z" />
    <glyph glyph-name="emacron" unicode="&#x113;" horiz-adv-x="479" 
d="M386 104l32 -23.002c-18.667 -29.333 -43 -52.333 -73 -69s-63 -25 -99 -25c-60.667 0 -109.834 24.333 -147.501 73s-56.5 112.334 -56.5 191.001s18.167 142.167 54.5 190.5s84.833 72.5 145.5 72.5s108.334 -24 143.001 -72s52 -111.667 52 -191v-9h-352
c1.33301 -64 17 -116.5 47 -157.5s68 -61.5 114 -61.5c28 0 54.667 7.33301 80 22s45.333 34.334 60 59.001zM86 277.998h308.998c-4 60 -19.667 108.333 -47 145s-62.666 55 -105.999 55s-79.166 -18.333 -107.499 -55s-44.5 -85 -48.5 -145zM369.998 620.998h-253v37h253
v-37z" />
    <glyph glyph-name="Ebreve" unicode="&#x114;" horiz-adv-x="552" 
d="M517 0h-442v703h422v-38h-380v-278h289v-38h-289v-311h400v-38zM396 907h33.001c-2 -36 -15.167 -65.667 -39.5 -89s-57.5 -35 -99.5 -35c-38.667 0 -69.834 11.167 -93.501 33.5s-36.834 52.5 -39.501 90.5h35c2.66699 -26 13 -47.333 31 -64s41 -25 69 -25
c26.667 0 49.834 8.16699 69.501 24.5s31.167 37.833 34.5 64.5z" />
    <glyph glyph-name="ebreve" unicode="&#x115;" horiz-adv-x="479" 
d="M386 104l32 -23.002c-18.667 -29.333 -43 -52.333 -73 -69s-63 -25 -99 -25c-60.667 0 -109.834 24.333 -147.501 73s-56.5 112.334 -56.5 191.001s18.167 142.167 54.5 190.5s84.833 72.5 145.5 72.5s108.334 -24 143.001 -72s52 -111.667 52 -191v-9h-352
c1.33301 -64 17 -116.5 47 -157.5s68 -61.5 114 -61.5c28 0 54.667 7.33301 80 22s45.333 34.334 60 59.001zM86 277.998h308.998c-4 60 -19.667 108.333 -47 145s-62.666 55 -105.999 55s-79.166 -18.333 -107.499 -55s-44.5 -85 -48.5 -145zM346.998 721.998h33.001
c-2 -36 -15.167 -65.667 -39.5 -89s-57.5 -35 -99.5 -35c-38.667 0 -69.834 11.167 -93.501 33.5s-36.834 52.5 -39.501 90.5h35c2.66699 -26 13 -47.333 31 -64s41 -25 69 -25c26.667 0 49.834 8.16699 69.501 24.5s31.167 37.833 34.5 64.5z" />
    <glyph glyph-name="Edotaccent" unicode="&#x116;" horiz-adv-x="552" 
d="M517 0h-442v703h422v-38h-380v-278h289v-38h-289v-311h400v-38zM327 832c0 -8.66699 -3.33105 -16.1689 -9.99805 -22.502s-14.334 -9.5 -23.001 -9.5s-16.167 3.16699 -22.5 9.5s-9.5 13.833 -9.5 22.5s3.16699 16.334 9.5 23.001s13.833 10 22.5 10
c9.33301 0 17.166 -3.16699 23.499 -9.5s9.5 -14.166 9.5 -23.499z" />
    <glyph glyph-name="edotaccent" unicode="&#x117;" horiz-adv-x="479" 
d="M386 104l32 -23.002c-18.667 -29.333 -43 -52.333 -73 -69s-63 -25 -99 -25c-60.667 0 -109.834 24.333 -147.501 73s-56.5 112.334 -56.5 191.001s18.167 142.167 54.5 190.5s84.833 72.5 145.5 72.5s108.334 -24 143.001 -72s52 -111.667 52 -191v-9h-352
c1.33301 -64 17 -116.5 47 -157.5s68 -61.5 114 -61.5c28 0 54.667 7.33301 80 22s45.333 34.334 60 59.001zM86 277.998h308.998c-4 60 -19.667 108.333 -47 145s-62.666 55 -105.999 55s-79.166 -18.333 -107.499 -55s-44.5 -85 -48.5 -145zM273.998 646.998
c0 -8.66699 -3.33301 -16.167 -10 -22.5s-14.334 -9.5 -23.001 -9.5s-16.167 3.16699 -22.5 9.5s-9.5 13.833 -9.5 22.5s3.16699 16.334 9.5 23.001s13.833 10 22.5 10s16.334 -3.33301 23.001 -10s10 -14.334 10 -23.001z" />
    <glyph glyph-name="Eogonek" unicode="&#x118;" horiz-adv-x="552" 
d="M499 -165l8.00098 -28c-26.667 -13.333 -51.334 -20 -74.001 -20c-28.667 0 -52.167 7.83301 -70.5 23.5s-27.5 35.5 -27.5 59.5c0 22 8.83301 45 26.5 69s39.167 44.333 64.5 61h-351v703h422v-38h-380v-278h289v-38h-289v-311h400v-38h-53
c-22 -16.667 -43 -37.5 -63 -62.5s-30 -45.833 -30 -62.5c0 -38 21.667 -57 65 -57c15.333 0 36.333 5.66699 63 17z" />
    <glyph glyph-name="eogonek" unicode="&#x119;" horiz-adv-x="479" 
d="M369 -165l8 -28c-26.667 -13.333 -51.334 -20 -74.001 -20c-28.667 0 -52.167 7.83301 -70.5 23.5s-27.5 35.5 -27.5 59.5c0 19.333 7.66699 40.166 23 62.499s33.333 41.5 54 57.5c-12 -2 -24 -3 -36 -3c-60.667 0 -109.834 24.333 -147.501 73
s-56.5 112.334 -56.5 191.001s18.167 142.167 54.5 190.5s84.833 72.5 145.5 72.5s108.334 -24 143.001 -72s52 -111.667 52 -191v-9h-352c1.33301 -64 17 -116.5 47 -157.5s68 -61.5 114 -61.5c28 0 54.667 7.33301 80 22s45.333 34.334 60 59.001l32 -23
c-18 -27.333 -39 -48.333 -63 -63c-27.333 -19.333 -53.166 -43.333 -77.499 -72s-36.5 -52.334 -36.5 -71.001c0 -38 21.667 -57 65 -57c15.333 0 36.333 5.66699 63 17zM86 278h308.998c-4 60 -19.667 108.333 -47 145s-62.666 55 -105.999 55
s-79.166 -18.333 -107.499 -55s-44.5 -85 -48.5 -145z" />
    <glyph glyph-name="Ecaron" unicode="&#x11a;" horiz-adv-x="552" 
d="M517 0h-442v703h422v-38h-380v-278h289v-38h-289v-311h400v-38zM324 762h-55l-129 150h37l121 -117l116 117h36z" />
    <glyph glyph-name="ecaron" unicode="&#x11b;" horiz-adv-x="479" 
d="M386 104l32 -23.002c-18.667 -29.333 -43 -52.333 -73 -69s-63 -25 -99 -25c-60.667 0 -109.834 24.333 -147.501 73s-56.5 112.334 -56.5 191.001s18.167 142.167 54.5 190.5s84.833 72.5 145.5 72.5s108.334 -24 143.001 -72s52 -111.667 52 -191v-9h-352
c1.33301 -64 17 -116.5 47 -157.5s68 -61.5 114 -61.5c28 0 54.667 7.33301 80 22s45.333 34.334 60 59.001zM86 277.998h308.998c-4 60 -19.667 108.333 -47 145s-62.666 55 -105.999 55s-79.166 -18.333 -107.499 -55s-44.5 -85 -48.5 -145zM275.998 576.998h-55l-129 150
h37l121 -117l116 117h36z" />
    <glyph glyph-name="Gcircumflex" unicode="&#x11c;" horiz-adv-x="643" 
d="M598 342l-0.000976562 -11c0 -98.667 -25.667 -180.667 -77 -246s-116 -98 -194 -98c-85.333 0 -153.666 34.667 -204.999 104s-77 156 -77 260s26 190.833 78 260.5s120.667 104.5 206 104.5c57.333 0 107.166 -16.333 149.499 -49s74.833 -77.667 97.5 -135l-40 -15
c-19.333 50 -46.833 89.333 -82.5 118s-77.167 43 -124.5 43c-71.333 0 -129.166 -31.333 -173.499 -94s-66.5 -140.334 -66.5 -233.001s21.833 -170.167 65.5 -232.5s101.167 -93.5 172.5 -93.5c62 0 114.167 26.333 156.5 79s66.5 119.334 72.5 200.001h-197v38h239z
M485.999 762h-38l-114 117l-116 -117h-36l125 150h55z" />
    <glyph glyph-name="gcircumflex" unicode="&#x11d;" horiz-adv-x="494" 
d="M383 17l-0.000976562 77c-35.333 -71.333 -88.333 -107 -159 -107c-53.333 0 -97 25.333 -131 76s-51 113 -51 187s17.5 136.5 52.5 187.5s79.5 76.5 133.5 76.5c70.667 0 122.334 -30.667 155.001 -92v79h41v-475c0 -77.333 -20 -136.333 -60 -177s-87 -61 -141 -61
c-31.333 0 -60.333 7 -87 21s-47.667 33.667 -63 59l28 25c32 -45.333 72.333 -68 121 -68c42.667 0 80.167 18 112.5 54s48.5 82 48.5 138zM382.999 187l-0.000976562 153c-13.333 41.333 -33 74.666 -59 99.999s-56 38 -90 38c-43.333 0 -79 -22.167 -107 -66.5
s-42 -98.166 -42 -161.499c0 -64 13.5 -117.833 40.5 -161.5s61.833 -65.5 104.5 -65.5c36.667 0 68.834 15.333 96.501 46s46.5 70 56.5 118zM397.998 577h-38l-114 117l-116 -117h-36l125 150h55z" />
    <glyph glyph-name="Gbreve" unicode="&#x11e;" horiz-adv-x="643" 
d="M598 342l-0.000976562 -11c0 -98.667 -25.667 -180.667 -77 -246s-116 -98 -194 -98c-85.333 0 -153.666 34.667 -204.999 104s-77 156 -77 260s26 190.833 78 260.5s120.667 104.5 206 104.5c57.333 0 107.166 -16.333 149.499 -49s74.833 -77.667 97.5 -135l-40 -15
c-19.333 50 -46.833 89.333 -82.5 118s-77.167 43 -124.5 43c-71.333 0 -129.166 -31.333 -173.499 -94s-66.5 -140.334 -66.5 -233.001s21.833 -170.167 65.5 -232.5s101.167 -93.5 172.5 -93.5c62 0 114.167 26.333 156.5 79s66.5 119.334 72.5 200.001h-197v38h239z
M432.999 907h33.001c-2 -36 -15.167 -65.667 -39.5 -89s-57.5 -35 -99.5 -35c-38.667 0 -69.834 11.167 -93.501 33.5s-36.834 52.5 -39.501 90.5h35c2.66699 -26 13 -47.333 31 -64s41 -25 69 -25c26.667 0 49.834 8.16699 69.501 24.5s31.167 37.833 34.5 64.5z" />
    <glyph glyph-name="gbreve" unicode="&#x11f;" horiz-adv-x="494" 
d="M383 17l-0.000976562 77c-35.333 -71.333 -88.333 -107 -159 -107c-53.333 0 -97 25.333 -131 76s-51 113 -51 187s17.5 136.5 52.5 187.5s79.5 76.5 133.5 76.5c70.667 0 122.334 -30.667 155.001 -92v79h41v-475c0 -77.333 -20 -136.333 -60 -177s-87 -61 -141 -61
c-31.333 0 -60.333 7 -87 21s-47.667 33.667 -63 59l28 25c32 -45.333 72.333 -68 121 -68c42.667 0 80.167 18 112.5 54s48.5 82 48.5 138zM382.999 187l-0.000976562 153c-13.333 41.333 -33 74.666 -59 99.999s-56 38 -90 38c-43.333 0 -79 -22.167 -107 -66.5
s-42 -98.166 -42 -161.499c0 -64 13.5 -117.833 40.5 -161.5s61.833 -65.5 104.5 -65.5c36.667 0 68.834 15.333 96.501 46s46.5 70 56.5 118zM350.998 722h33.001c-2 -36 -15.167 -65.667 -39.5 -89s-57.5 -35 -99.5 -35c-38.667 0 -69.834 11.167 -93.501 33.5
s-36.834 52.5 -39.501 90.5h35c2.66699 -26 13 -47.333 31 -64s41 -25 69 -25c26.667 0 49.834 8.16699 69.501 24.5s31.167 37.833 34.5 64.5z" />
    <glyph glyph-name="Gdotaccent" unicode="&#x120;" horiz-adv-x="643" 
d="M598 342l-0.000976562 -11c0 -98.667 -25.667 -180.667 -77 -246s-116 -98 -194 -98c-85.333 0 -153.666 34.667 -204.999 104s-77 156 -77 260s26 190.833 78 260.5s120.667 104.5 206 104.5c57.333 0 107.166 -16.333 149.499 -49s74.833 -77.667 97.5 -135l-40 -15
c-19.333 50 -46.833 89.333 -82.5 118s-77.167 43 -124.5 43c-71.333 0 -129.166 -31.333 -173.499 -94s-66.5 -140.334 -66.5 -233.001s21.833 -170.167 65.5 -232.5s101.167 -93.5 172.5 -93.5c62 0 114.167 26.333 156.5 79s66.5 119.334 72.5 200.001h-197v38h239z
M365.999 832c0 -8.66699 -3.33301 -16.1689 -10 -22.502s-14.334 -9.5 -23.001 -9.5s-16.167 3.16699 -22.5 9.5s-9.5 13.833 -9.5 22.5s3.16699 16.334 9.5 23.001s13.833 10 22.5 10s16.334 -3.16699 23.001 -9.5s10 -14.166 10 -23.499z" />
    <glyph glyph-name="gdotaccent" unicode="&#x121;" horiz-adv-x="494" 
d="M383 17l-0.000976562 77c-35.333 -71.333 -88.333 -107 -159 -107c-53.333 0 -97 25.333 -131 76s-51 113 -51 187s17.5 136.5 52.5 187.5s79.5 76.5 133.5 76.5c70.667 0 122.334 -30.667 155.001 -92v79h41v-475c0 -77.333 -20 -136.333 -60 -177s-87 -61 -141 -61
c-31.333 0 -60.333 7 -87 21s-47.667 33.667 -63 59l28 25c32 -45.333 72.333 -68 121 -68c42.667 0 80.167 18 112.5 54s48.5 82 48.5 138zM382.999 187l-0.000976562 153c-13.333 41.333 -33 74.666 -59 99.999s-56 38 -90 38c-43.333 0 -79 -22.167 -107 -66.5
s-42 -98.166 -42 -161.499c0 -64 13.5 -117.833 40.5 -161.5s61.833 -65.5 104.5 -65.5c36.667 0 68.834 15.333 96.501 46s46.5 70 56.5 118zM274.998 647c0 -8.66699 -3.33105 -16.167 -9.99805 -22.5s-14.334 -9.5 -23.001 -9.5s-16.167 3.16699 -22.5 9.5
s-9.5 13.833 -9.5 22.5s3.16699 16.334 9.5 23.001s13.833 10 22.5 10c9.33301 0 17.166 -3.33301 23.499 -10s9.5 -14.334 9.5 -23.001z" />
    <glyph glyph-name="Gcommaaccent" unicode="&#x122;" horiz-adv-x="643" 
d="M598 342l-0.000976562 -11c0 -98.667 -25.667 -180.667 -77 -246s-116 -98 -194 -98c-85.333 0 -153.666 34.667 -204.999 104s-77 156 -77 260s26 190.833 78 260.5s120.667 104.5 206 104.5c57.333 0 107.166 -16.333 149.499 -49s74.833 -77.667 97.5 -135l-40 -15
c-19.333 50 -46.833 89.333 -82.5 118s-77.167 43 -124.5 43c-71.333 0 -129.166 -31.333 -173.499 -94s-66.5 -140.334 -66.5 -233.001s21.833 -170.167 65.5 -232.5s101.167 -93.5 172.5 -93.5c62 0 114.167 26.333 156.5 79s66.5 119.334 72.5 200.001h-197v38h239z
M292.999 -237l-26 10l44 159h57z" />
    <glyph glyph-name="gcommaaccent" unicode="&#x123;" horiz-adv-x="494" 
d="M383 17l-0.000976562 77c-35.333 -71.333 -88.333 -107 -159 -107c-53.333 0 -97 25.333 -131 76s-51 113 -51 187s17.5 136.5 52.5 187.5s79.5 76.5 133.5 76.5c70.667 0 122.334 -30.667 155.001 -92v79h41v-475c0 -77.333 -20 -136.333 -60 -177s-87 -61 -141 -61
c-31.333 0 -60.333 7 -87 21s-47.667 33.667 -63 59l28 25c32 -45.333 72.333 -68 121 -68c42.667 0 80.167 18 112.5 54s48.5 82 48.5 138zM382.999 187l-0.000976562 153c-13.333 41.333 -33 74.666 -59 99.999s-56 38 -90 38c-43.333 0 -79 -22.167 -107 -66.5
s-42 -98.166 -42 -161.499c0 -64 13.5 -117.833 40.5 -161.5s61.833 -65.5 104.5 -65.5c36.667 0 68.834 15.333 96.501 46s46.5 70 56.5 118zM251.998 597h-57l75 169l26 -10z" />
    <glyph glyph-name="Hcircumflex" unicode="&#x124;" horiz-adv-x="636" 
d="M561 0h-42v345h-402v-345h-42v703h42v-320h402v320h42v-703zM470 762h-38l-114 117l-116 -117h-36l125 150h55z" />
    <glyph glyph-name="hcircumflex" unicode="&#x125;" horiz-adv-x="493" 
d="M428 0l-40.999 -0.000976562v315c0 50.667 -11.333 90.334 -34 119.001s-54.334 43 -95.001 43c-38.667 0 -72.834 -14.5 -102.501 -43.5s-44.5 -71.167 -44.5 -126.5v-307h-41v703h41v-275c15.333 28 36.5 49.333 63.5 64s56.5 22 88.5 22
c54.667 0 95.834 -19.5 123.501 -58.5s41.5 -89.5 41.5 -151.5v-304zM257.001 761.999h-38l-114 117l-116 -117h-36l125 150h55z" />
    <glyph glyph-name="Hbar" unicode="&#x126;" horiz-adv-x="636" 
d="M561 0h-42v345h-402v-345h-42v513h-70v38h70v152h42v-152h402v152h42v-152h70v-38h-70v-513zM519 383v130h-402v-130h402z" />
    <glyph glyph-name="hbar" unicode="&#x127;" horiz-adv-x="493" 
d="M428 0l-40.999 -0.000976562v315c0 50.667 -11.333 90.334 -34 119.001s-54.334 43 -95.001 43c-38.667 0 -72.834 -14.5 -102.501 -43.5s-44.5 -71.167 -44.5 -126.5v-307h-41v560h-75v37h75v106h41v-106h137v-37h-137v-132c15.333 28 36.5 49.333 63.5 64
s56.5 22 88.5 22c54.667 0 95.834 -19.5 123.501 -58.5s41.5 -89.5 41.5 -151.5v-304z" />
    <glyph glyph-name="Imacron" unicode="&#x12a;" horiz-adv-x="192" 
d="M117 0h-42v703h42v-703zM223 806h-253v37h253v-37z" />
    <glyph glyph-name="imacron" unicode="&#x12b;" horiz-adv-x="195" 
d="M118 0h-41v501h41v-501zM224 621h-253v37h253v-37z" />
    <glyph glyph-name="Ibreve" unicode="&#x12c;" horiz-adv-x="192" 
d="M117 0h-42v703h42v-703zM199 907h33.001c-2 -36 -15.167 -65.667 -39.5 -89s-57.5 -35 -99.5 -35c-38.667 0 -69.834 11.167 -93.501 33.5s-36.834 52.5 -39.501 90.5h35c2.66699 -26 13 -47.333 31 -64s41 -25 69 -25c26.667 0 49.834 8.16699 69.501 24.5
s31.167 37.833 34.5 64.5z" />
    <glyph glyph-name="ibreve" unicode="&#x12d;" horiz-adv-x="195" 
d="M118 0h-41v501h41v-501zM200 722h33.001c-2 -36 -15.167 -65.667 -39.5 -89s-57.5 -35 -99.5 -35c-38.667 0 -69.834 11.167 -93.501 33.5s-36.834 52.5 -39.501 90.5h35c2.66699 -26 13 -47.333 31 -64s41 -25 69 -25c26.667 0 49.834 8.16699 69.501 24.5
s31.167 37.833 34.5 64.5z" />
    <glyph glyph-name="Iogonek" unicode="&#x12e;" horiz-adv-x="192" 
d="M152 -163l8.00195 -28c-26.667 -13.333 -51.334 -20 -74.001 -20c-28.667 0 -51.834 7.83301 -69.501 23.5s-26.5 35.5 -26.5 59.5c0 24.667 8.16699 48.5 24.5 71.5s36.5 41.833 60.5 56.5v703h42v-703c-24.667 -14.667 -46 -34 -64 -58s-27 -45.667 -27 -65
c0 -38 21 -57 63 -57c15.333 0 36.333 5.66699 63 17z" />
    <glyph glyph-name="iogonek" unicode="&#x12f;" horiz-adv-x="195" 
d="M164 -165l8.00098 -28.001c-26.667 -13.333 -51.334 -20 -74.001 -20c-28.667 0 -52.167 7.83301 -70.5 23.5s-27.5 35.5 -27.5 59.5c0 22.667 7.5 45.667 22.5 69s33.167 43.666 54.5 60.999v501h41v-501c-20.667 -15.333 -39.5 -35.166 -56.5 -59.499
s-25.5 -46.166 -25.5 -65.499c0 -38 21.667 -57 65 -57c15.333 0 36.333 5.66699 63 17zM98.001 643.999c-10 0 -18.5 3.5 -25.5 10.5s-10.5 15.5 -10.5 25.5c0 9.33301 3.5 17.5 10.5 24.5s15.5 10.5 25.5 10.5c9.33301 0 17.5 -3.5 24.5 -10.5s10.5 -15.167 10.5 -24.5
c0 -10 -3.5 -18.5 -10.5 -25.5s-15.167 -10.5 -24.5 -10.5z" />
    <glyph glyph-name="Idotaccent" unicode="&#x130;" horiz-adv-x="192" 
d="M117 0h-42v703h42v-703zM129 832c0 -8.66699 -3.33105 -16.1689 -9.99805 -22.502s-14.334 -9.5 -23.001 -9.5s-16.167 3.16699 -22.5 9.5s-9.5 13.833 -9.5 22.5s3.16699 16.334 9.5 23.001s13.833 10 22.5 10c9.33301 0 17.166 -3.16699 23.499 -9.5
s9.5 -14.166 9.5 -23.499z" />
    <glyph glyph-name="dotlessi" unicode="&#x131;" horiz-adv-x="195" 
d="M118 0h-41v501h41v-501z" />
    <glyph glyph-name="Jcircumflex" unicode="&#x134;" horiz-adv-x="505" 
d="M393 195l-0.000976562 507.999h42v-490c0 -70.667 -18 -126 -54 -166s-85 -60 -147 -60c-55.333 0 -102.333 17.833 -141 53.5s-59.667 80.167 -63 133.5l40 10c2 -44.667 18.667 -82.5 50 -113.5s69.333 -46.5 114 -46.5c46.667 0 84.834 16.333 114.501 49
s44.5 73.334 44.5 122.001zM562.999 761.999h-38l-114 117l-116 -117h-36l125 150h55z" />
    <glyph glyph-name="jcircumflex" unicode="&#x135;" horiz-adv-x="203" 
d="M85 -92l-0.000976562 593h41v-583c0 -38 -9.16699 -68.5 -27.5 -91.5s-41.833 -34.5 -70.5 -34.5c-18 0 -36.333 5 -55 15l13 35c11.333 -9.33301 24.333 -14 39 -14c16.667 0 30.834 7.33301 42.501 22s17.5 34 17.5 58zM254.999 577h-38l-114 117l-116 -117h-36
l125 150h55z" />
    <glyph glyph-name="Kcommaaccent" unicode="&#x136;" horiz-adv-x="593" 
d="M568 0h-47l-236 394l-168 -191v-203h-42v703h42v-444l388 444h51l-244 -277zM278 -237l-26 10l44 159h57z" />
    <glyph glyph-name="kcommaaccent" unicode="&#x137;" horiz-adv-x="458" 
d="M433 0h-45l-168 281l-109 -125v-156h-41v703h41v-490l251 288h51l-166 -189zM200 -237l-26 10l44 159h57z" />
    <glyph glyph-name="Lacute" unicode="&#x139;" horiz-adv-x="496" 
d="M476 0h-401v703h42v-665h359v-38zM271 912l-162 -150h-38l128 150h72z" />
    <glyph glyph-name="lacute" unicode="&#x13a;" horiz-adv-x="181" 
d="M111 0h-41v703h41v-703zM263 912l-162 -150h-38l128 150h72z" />
    <glyph glyph-name="Lcommaaccent" unicode="&#x13b;" horiz-adv-x="496" 
d="M476 0h-401v703h42v-665h359v-38zM233 -237l-26 10l44 159h57z" />
    <glyph glyph-name="lcommaaccent" unicode="&#x13c;" horiz-adv-x="181" 
d="M111 0h-41v703h41v-703zM47 -237l-26 10l44 159h57z" />
    <glyph glyph-name="Lcaron" unicode="&#x13d;" horiz-adv-x="539" 
d="M476 0h-401v703h42v-665h359v-38zM405 454l-29 11l75 238h63z" />
    <glyph glyph-name="lcaron" unicode="&#x13e;" horiz-adv-x="372" 
d="M111 0h-41v703h41v-703zM247 454l-29 11l75 238h63z" />
    <glyph glyph-name="Ldot" unicode="&#x13f;" horiz-adv-x="555" 
d="M476 0h-401v703h42v-665h359v-38zM519 315c0 -11.333 -4 -21 -12 -29s-17.667 -12 -29 -12s-20.833 4 -28.5 12s-11.5 17.667 -11.5 29s4 20.833 12 28.5s17.333 11.5 28 11.5c11.333 0 21 -3.83301 29 -11.5s12 -17.167 12 -28.5z" />
    <glyph glyph-name="ldotaccent" unicode="&#x140;" horiz-adv-x="311" 
d="M111 0h-41v703h41v-703zM304 315c0 -11.333 -4 -21 -12 -29s-17.667 -12 -29 -12s-20.833 4 -28.5 12s-11.5 17.667 -11.5 29s3.83301 20.833 11.5 28.5s17.167 11.5 28.5 11.5s21 -3.83301 29 -11.5s12 -17.167 12 -28.5z" />
    <glyph glyph-name="Lslash" unicode="&#x141;" horiz-adv-x="496" 
d="M476 0h-401v282l-70 -45v42l70 44v380h42v-354l188 118v-41l-188 -118v-270h359v-38z" />
    <glyph glyph-name="lslash" unicode="&#x142;" horiz-adv-x="198" 
d="M120 0h-41v335l-79 -50v42l79 50v326h41v-301l78 49v-41l-78 -49v-361z" />
    <glyph glyph-name="Nacute" unicode="&#x143;" horiz-adv-x="650" 
d="M575 0h-47l-411 636v-636h-42v703h46l412 -637v637h42v-703zM503 912l-162 -150h-38l128 150h72z" />
    <glyph glyph-name="nacute" unicode="&#x144;" horiz-adv-x="493" 
d="M428 0l-41.001 -0.000976562v315c0 50.667 -11.167 90.334 -33.5 119.001s-53.833 43 -94.5 43c-38.667 0 -73 -14.5 -103 -43.5s-45 -71.167 -45 -126.5v-307h-41v501h41v-73c15.333 28 36.5 49.333 63.5 64s56.5 22 88.5 22c54.667 0 95.834 -19.5 123.501 -58.5
s41.5 -89.5 41.5 -151.5v-304zM417.999 726.999l-162 -150h-38l128 150h72z" />
    <glyph glyph-name="Ncommaaccent" unicode="&#x145;" horiz-adv-x="650" 
d="M575 0h-47l-411 636v-636h-42v703h46l412 -637v637h42v-703zM302 -237l-26 10l44 159h57z" />
    <glyph glyph-name="ncommaaccent" unicode="&#x146;" horiz-adv-x="493" 
d="M428 0l-41.001 -0.000976562v315c0 50.667 -11.167 90.334 -33.5 119.001s-53.833 43 -94.5 43c-38.667 0 -73 -14.5 -103 -43.5s-45 -71.167 -45 -126.5v-307h-41v501h41v-73c15.333 28 36.5 49.333 63.5 64s56.5 22 88.5 22c54.667 0 95.834 -19.5 123.501 -58.5
s41.5 -89.5 41.5 -151.5v-304zM227.999 -237.001l-26 10l44 159h57z" />
    <glyph glyph-name="Ncaron" unicode="&#x147;" horiz-adv-x="650" 
d="M575 0h-47l-411 636v-636h-42v703h46l412 -637v637h42v-703zM374 762h-55l-129 150h37l121 -117l116 117h36z" />
    <glyph glyph-name="ncaron" unicode="&#x148;" horiz-adv-x="493" 
d="M428 0l-41.001 -0.000976562v315c0 50.667 -11.167 90.334 -33.5 119.001s-53.833 43 -94.5 43c-38.667 0 -73 -14.5 -103 -43.5s-45 -71.167 -45 -126.5v-307h-41v501h41v-73c15.333 28 36.5 49.333 63.5 64s56.5 22 88.5 22c54.667 0 95.834 -19.5 123.501 -58.5
s41.5 -89.5 41.5 -151.5v-304zM270.999 576.999h-55l-129 150h37l121 -117l116 117h36z" />
    <glyph glyph-name="Eng" unicode="&#x14a;" horiz-adv-x="649" 
d="M463 -200h-61.999v35h56c23.333 0 41.666 7.83301 54.999 23.5s20 38.5 20 68.5v73l-415 636v-636h-42v703h45l412 -630v630h42v-775c0 -38 -9.5 -68.833 -28.5 -92.5s-46.5 -35.5 -82.5 -35.5z" />
    <glyph glyph-name="eng" unicode="&#x14b;" horiz-adv-x="493" 
d="M317 -200l-57 -0.000976562v35h52c23.333 0 41.666 8 54.999 24s20 39 20 69v387c0 50.667 -11.167 90.334 -33.5 119.001s-53.833 43 -94.5 43c-38.667 0 -73 -14.5 -103 -43.5s-45 -71.167 -45 -126.5v-307h-41v501h41v-73c15.333 28 36.5 49.333 63.5 64
s56.5 22 88.5 22c54.667 0 95.834 -19.5 123.501 -58.5s41.5 -89.5 41.5 -151.5v-376c0 -38 -9.5 -68.833 -28.5 -92.5s-46.5 -35.5 -82.5 -35.5z" />
    <glyph glyph-name="Omacron" unicode="&#x14c;" horiz-adv-x="654" 
d="M327 -13c-85.333 0 -153.666 34.667 -204.999 104s-77 156 -77 260s25.667 190.833 77 260.5s119.666 104.5 204.999 104.5s153.666 -34.833 204.999 -104.5s77 -156.5 77 -260.5s-25.667 -190.667 -77 -260s-119.666 -104 -204.999 -104zM327 25
c72 0 129.667 31.1689 173 93.502s65 139.833 65 232.5c0 93.333 -21.667 171.166 -65 233.499s-101 93.5 -173 93.5c-71.333 0 -128.833 -31.333 -172.5 -94s-65.5 -140.334 -65.5 -233.001s21.833 -170.167 65.5 -232.5s101.167 -93.5 172.5 -93.5zM454 806.002h-253v37
h253v-37z" />
    <glyph glyph-name="omacron" unicode="&#x14d;" horiz-adv-x="498" 
d="M249 -13c-64.667 0 -115.334 24 -152.001 72s-55 112 -55 192s18.333 143.833 55 191.5s87.334 71.5 152.001 71.5s115.334 -23.833 152.001 -71.5s55 -111.5 55 -191.5s-18.333 -144 -55 -192s-87.334 -72 -152.001 -72zM249 23c51.333 0 91.5 21 120.5 63
s43.5 97 43.5 165s-14.5 122.833 -43.5 164.5s-69.167 62.5 -120.5 62.5s-91.5 -20.833 -120.5 -62.5s-43.5 -96.5 -43.5 -164.5s14.5 -123 43.5 -165s69.167 -63 120.5 -63zM373 621h-253v37h253v-37z" />
    <glyph glyph-name="Obreve" unicode="&#x14e;" horiz-adv-x="654" 
d="M327 -13c-85.333 0 -153.666 34.667 -204.999 104s-77 156 -77 260s25.667 190.833 77 260.5s119.666 104.5 204.999 104.5s153.666 -34.833 204.999 -104.5s77 -156.5 77 -260.5s-25.667 -190.667 -77 -260s-119.666 -104 -204.999 -104zM327 25
c72 0 129.667 31.1689 173 93.502s65 139.833 65 232.5c0 93.333 -21.667 171.166 -65 233.499s-101 93.5 -173 93.5c-71.333 0 -128.833 -31.333 -172.5 -94s-65.5 -140.334 -65.5 -233.001s21.833 -170.167 65.5 -232.5s101.167 -93.5 172.5 -93.5zM430 907.002h33.001
c-2 -36 -15.167 -65.667 -39.5 -89s-57.5 -35 -99.5 -35c-38.667 0 -69.834 11.167 -93.501 33.5s-36.834 52.5 -39.501 90.5h35c2.66699 -26 13 -47.333 31 -64s41 -25 69 -25c26.667 0 49.834 8.16699 69.501 24.5s31.167 37.833 34.5 64.5z" />
    <glyph glyph-name="obreve" unicode="&#x14f;" horiz-adv-x="498" 
d="M249 -13c-64.667 0 -115.334 24 -152.001 72s-55 112 -55 192s18.333 143.833 55 191.5s87.334 71.5 152.001 71.5s115.334 -23.833 152.001 -71.5s55 -111.5 55 -191.5s-18.333 -144 -55 -192s-87.334 -72 -152.001 -72zM249 23c51.333 0 91.5 21 120.5 63
s43.5 97 43.5 165s-14.5 122.833 -43.5 164.5s-69.167 62.5 -120.5 62.5s-91.5 -20.833 -120.5 -62.5s-43.5 -96.5 -43.5 -164.5s14.5 -123 43.5 -165s69.167 -63 120.5 -63zM349 722h33.001c-2 -36 -15.167 -65.667 -39.5 -89s-57.5 -35 -99.5 -35
c-38.667 0 -69.834 11.167 -93.501 33.5s-36.834 52.5 -39.501 90.5h35c2.66699 -26 13 -47.333 31 -64s41 -25 69 -25c26.667 0 49.834 8.16699 69.501 24.5s31.167 37.833 34.5 64.5z" />
    <glyph glyph-name="Ohungarumlaut" unicode="&#x150;" horiz-adv-x="654" 
d="M327 -13c-85.333 0 -153.666 34.667 -204.999 104s-77 156 -77 260s25.667 190.833 77 260.5s119.666 104.5 204.999 104.5s153.666 -34.833 204.999 -104.5s77 -156.5 77 -260.5s-25.667 -190.667 -77 -260s-119.666 -104 -204.999 -104zM327 25
c72 0 129.667 31.1689 173 93.502s65 139.833 65 232.5c0 93.333 -21.667 171.166 -65 233.499s-101 93.5 -173 93.5c-71.333 0 -128.833 -31.333 -172.5 -94s-65.5 -140.334 -65.5 -233.001s21.833 -170.167 65.5 -232.5s101.167 -93.5 172.5 -93.5zM273 761.002h-38
l113 151h66zM432 761.002h-38l113 151h66z" />
    <glyph glyph-name="ohungarumlaut" unicode="&#x151;" horiz-adv-x="498" 
d="M249 -13c-64.667 0 -115.334 24 -152.001 72s-55 112 -55 192s18.333 143.833 55 191.5s87.334 71.5 152.001 71.5s115.334 -23.833 152.001 -71.5s55 -111.5 55 -191.5s-18.333 -144 -55 -192s-87.334 -72 -152.001 -72zM249 23c51.333 0 91.5 21 120.5 63
s43.5 97 43.5 165s-14.5 122.833 -43.5 164.5s-69.167 62.5 -120.5 62.5s-91.5 -20.833 -120.5 -62.5s-43.5 -96.5 -43.5 -164.5s14.5 -123 43.5 -165s69.167 -63 120.5 -63zM187 576h-38l113 151h66zM346 576h-38l113 151h66z" />
    <glyph glyph-name="OE" unicode="&#x152;" horiz-adv-x="980" 
d="M945 0h-618c-85.333 0 -153.666 33.667 -204.999 101s-77 151 -77 251s25.667 183.5 77 250.5s119.666 100.5 204.999 100.5h598v-38h-378v-278h287v-38h-287v-311h398v-38zM503 37v628.999h-176c-71.333 0 -128.833 -30.167 -172.5 -90.5s-65.5 -134.833 -65.5 -223.5
c0 -89.333 21.833 -164.166 65.5 -224.499s101.167 -90.5 172.5 -90.5h176z" />
    <glyph glyph-name="oe" unicode="&#x153;" horiz-adv-x="848" 
d="M755 104l31.999 -23.002c-18.667 -29.333 -43 -52.333 -73 -69s-63 -25 -99 -25c-42.667 0 -79.667 12 -111 36s-55 57.667 -71 101c-33.333 -91.333 -94.666 -137 -183.999 -137c-64.667 0 -115.334 24 -152.001 72s-55 112 -55 192s18.333 143.833 55 191.5
s87.334 71.5 152.001 71.5c89.333 0 150.666 -45 183.999 -135c15.333 42.667 38.333 75.834 69 99.501s67 35.5 109 35.5c60.667 0 108.334 -24 143.001 -72s52 -111.667 52 -191v-9h-352c1.33301 -64 17 -116.5 47 -157.5s68 -61.5 114 -61.5c28 0 54.667 7.33301 80 22
s45.333 34.334 60 59.001zM248.999 22.998c51.333 0 91.5 20.833 120.5 62.5s43.5 96.5 43.5 164.5s-14.5 123 -43.5 165s-69.167 63 -120.5 63s-91.5 -20.833 -120.5 -62.5s-43.5 -96.5 -43.5 -164.5s14.5 -123 43.5 -165s69.167 -63 120.5 -63zM454.999 277.998h308.998
c-4 60 -19.667 108.333 -47 145s-62.666 55 -105.999 55s-79.166 -18.333 -107.499 -55s-44.5 -85 -48.5 -145z" />
    <glyph glyph-name="Racute" unicode="&#x154;" horiz-adv-x="603" 
d="M558 0h-49.999l-197 315h-194v-315h-42v703h294c55.333 0 100.166 -18.667 134.499 -56s51.5 -83.333 51.5 -138s-18 -100.667 -54 -138s-82.667 -56 -140 -56zM117.001 353h249c43.333 0 78.333 15 105 45s40 67 40 111s-13.333 81 -40 111s-61.667 45 -105 45h-249
v-312zM424.001 912l-162 -150h-38l128 150h72z" />
    <glyph glyph-name="racute" unicode="&#x155;" horiz-adv-x="349" 
d="M111 0l-41.001 -0.000976562v501h41v-73c15.333 28 36.333 49.333 63 64s55.667 22 87 22c20 0 41 -3.66699 63 -11l-16 -39c-17.333 7.33301 -34.666 11 -51.999 11c-38.667 0 -72.5 -14.667 -101.5 -44s-43.5 -71.666 -43.5 -126.999v-304zM341.999 726.999l-162 -150
h-38l128 150h72z" />
    <glyph glyph-name="Rcommaaccent" unicode="&#x156;" horiz-adv-x="603" 
d="M558 0h-49.999l-197 315h-194v-315h-42v703h294c55.333 0 100.166 -18.667 134.499 -56s51.5 -83.333 51.5 -138s-18 -100.667 -54 -138s-82.667 -56 -140 -56zM117.001 353h249c43.333 0 78.333 15 105 45s40 67 40 111s-13.333 81 -40 111s-61.667 45 -105 45h-249
v-312zM250.001 -237l-26 10l44 159h57z" />
    <glyph glyph-name="rcommaaccent" unicode="&#x157;" horiz-adv-x="349" 
d="M111 0l-41.001 -0.000976562v501h41v-73c15.333 28 36.333 49.333 63 64s55.667 22 87 22c20 0 41 -3.66699 63 -11l-16 -39c-17.333 7.33301 -34.666 11 -51.999 11c-38.667 0 -72.5 -14.667 -101.5 -44s-43.5 -71.666 -43.5 -126.999v-304zM58.999 -237.001l-26 10
l44 159h57z" />
    <glyph glyph-name="Rcaron" unicode="&#x158;" horiz-adv-x="603" 
d="M558 0h-49.999l-197 315h-194v-315h-42v703h294c55.333 0 100.166 -18.667 134.499 -56s51.5 -83.333 51.5 -138s-18 -100.667 -54 -138s-82.667 -56 -140 -56zM117.001 353h249c43.333 0 78.333 15 105 45s40 67 40 111s-13.333 81 -40 111s-61.667 45 -105 45h-249
v-312zM323.001 762h-55l-129 150h37l121 -117l116 117h36z" />
    <glyph glyph-name="rcaron" unicode="&#x159;" horiz-adv-x="349" 
d="M111 0l-41.001 -0.000976562v501h41v-73c15.333 28 36.333 49.333 63 64s55.667 22 87 22c20 0 41 -3.66699 63 -11l-16 -39c-17.333 7.33301 -34.666 11 -51.999 11c-38.667 0 -72.5 -14.667 -101.5 -44s-43.5 -71.666 -43.5 -126.999v-304zM220.999 576.999h-55
l-129 150h37l121 -117l116 117h36z" />
    <glyph glyph-name="Sacute" unicode="&#x15a;" horiz-adv-x="540" 
d="M40 138l36.999 22.001c16 -44 40.167 -77.5 72.5 -100.5s71.166 -34.5 116.499 -34.5c56 0 100 14.167 132 42.5s48 66.5 48 114.5c0 33.333 -15.667 63.5 -47 90.5s-85.333 54.5 -162 82.5c-67.333 24.667 -115.166 52 -143.499 82s-42.5 66 -42.5 108
c0 55.333 19.833 97.666 59.5 126.999s90.5 44 152.5 44c97.333 0 171.666 -39.333 222.999 -118l-33 -26c-46 70.667 -110.333 106 -193 106c-47.333 0 -86.666 -11.167 -117.999 -33.5s-47 -54.166 -47 -95.499c0 -36.667 11.833 -66 35.5 -88s67.834 -45.333 132.501 -70
c85.333 -32.667 144.5 -65.334 177.5 -98.001s49.5 -71 49.5 -115c0 -59.333 -21.333 -106 -64 -140s-96.667 -51 -162 -51c-105.333 0 -180 50.333 -224 151zM429.999 912.001l-162 -150h-38l128 150h72z" />
    <glyph glyph-name="sacute" unicode="&#x15b;" horiz-adv-x="419" 
d="M45 83l32.002 23.999c34.667 -56 80 -84 136 -84c37.333 0 66.333 9.5 87 28.5s31 42.833 31 71.5c0 26.667 -10.833 49.334 -32.5 68.001s-61.5 38.334 -119.5 59.001c-86 30 -129 76.333 -129 139c0 36 13.667 65.833 41 89.5s65.333 35.5 114 35.5
c64.667 0 118 -27.333 160 -82l-32 -25c-32.667 47.333 -75.667 71 -129 71c-33.333 0 -60.166 -7.83301 -80.499 -23.5s-30.5 -37.5 -30.5 -65.5c0 -25.333 9.16699 -45.833 27.5 -61.5s48.166 -30.834 89.499 -45.501c60.667 -22 103.167 -45.167 127.5 -69.5
s36.5 -53.833 36.5 -88.5c0 -40.667 -14.333 -73.667 -43 -99s-68.334 -38 -119.001 -38c-74.667 0 -130.334 32 -167.001 96zM377.002 726.999l-162 -150h-38l128 150h72z" />
    <glyph glyph-name="Scircumflex" unicode="&#x15c;" horiz-adv-x="540" 
d="M40 138l36.999 22.001c16 -44 40.167 -77.5 72.5 -100.5s71.166 -34.5 116.499 -34.5c56 0 100 14.167 132 42.5s48 66.5 48 114.5c0 33.333 -15.667 63.5 -47 90.5s-85.333 54.5 -162 82.5c-67.333 24.667 -115.166 52 -143.499 82s-42.5 66 -42.5 108
c0 55.333 19.833 97.666 59.5 126.999s90.5 44 152.5 44c97.333 0 171.666 -39.333 222.999 -118l-33 -26c-46 70.667 -110.333 106 -193 106c-47.333 0 -86.666 -11.167 -117.999 -33.5s-47 -54.166 -47 -95.499c0 -36.667 11.833 -66 35.5 -88s67.834 -45.333 132.501 -70
c85.333 -32.667 144.5 -65.334 177.5 -98.001s49.5 -71 49.5 -115c0 -59.333 -21.333 -106 -64 -140s-96.667 -51 -162 -51c-105.333 0 -180 50.333 -224 151zM411.999 762.001h-38l-114 117l-116 -117h-36l125 150h55z" />
    <glyph glyph-name="scircumflex" unicode="&#x15d;" horiz-adv-x="419" 
d="M45 83l32.002 23.999c34.667 -56 80 -84 136 -84c37.333 0 66.333 9.5 87 28.5s31 42.833 31 71.5c0 26.667 -10.833 49.334 -32.5 68.001s-61.5 38.334 -119.5 59.001c-86 30 -129 76.333 -129 139c0 36 13.667 65.833 41 89.5s65.333 35.5 114 35.5
c64.667 0 118 -27.333 160 -82l-32 -25c-32.667 47.333 -75.667 71 -129 71c-33.333 0 -60.166 -7.83301 -80.499 -23.5s-30.5 -37.5 -30.5 -65.5c0 -25.333 9.16699 -45.833 27.5 -61.5s48.166 -30.834 89.499 -45.501c60.667 -22 103.167 -45.167 127.5 -69.5
s36.5 -53.833 36.5 -88.5c0 -40.667 -14.333 -73.667 -43 -99s-68.334 -38 -119.001 -38c-74.667 0 -130.334 32 -167.001 96zM359.002 576.999h-38l-114 117l-116 -117h-36l125 150h55z" />
    <glyph glyph-name="Scedilla" unicode="&#x15e;" horiz-adv-x="540" 
d="M175 -196l8.00098 30.002c26.667 -12 53 -18 79 -18s45.667 4.66699 59 14s20 20.666 20 33.999c0 12 -4.66699 21.667 -14 29s-22 11 -38 11c-16.667 0 -34.334 -4.33301 -53.001 -13l-27 7l42 90c-98.667 4.66699 -169 54.667 -211 150l37 22
c16 -44 40.167 -77.5 72.5 -100.5s71.166 -34.5 116.499 -34.5c56 0 100 14.167 132 42.5s48 66.5 48 114.5c0 33.333 -15.667 63.5 -47 90.5s-85.333 54.5 -162 82.5c-67.333 24.667 -115.166 52 -143.499 82s-42.5 66 -42.5 108c0 55.333 19.833 97.666 59.5 126.999
s90.5 44 152.5 44c97.333 0 171.666 -39.333 222.999 -118l-33 -26c-46 70.667 -110.333 106 -193 106c-47.333 0 -86.666 -11.167 -117.999 -33.5s-47 -54.166 -47 -95.499c0 -36.667 11.833 -66 35.5 -88s67.834 -45.333 132.501 -70
c85.333 -32.667 144.5 -65.334 177.5 -98.001s49.5 -71 49.5 -115c0 -56.667 -19.333 -101.667 -58 -135s-88.667 -51.666 -150 -54.999l-32 -66c16 7.33301 32.333 11 49 11c23.333 0 42.5 -6.33301 57.5 -19s22.5 -29.334 22.5 -50.001
c0 -22.667 -10.167 -41.167 -30.5 -55.5s-48.5 -21.5 -84.5 -21.5c-30.667 0 -60.334 5.66699 -89.001 17z" />
    <glyph glyph-name="scedilla" unicode="&#x15f;" horiz-adv-x="419" 
d="M121 -196l8.00195 30.001c26.667 -12 53 -18 79 -18s45.667 4.66699 59 14s20 20.666 20 33.999c0 12 -4.66699 21.667 -14 29s-22 11 -38 11c-16.667 0 -34.334 -4.33301 -53.001 -13l-27 7l42 90c-67.333 3.33301 -118 35 -152 95l32 24c34.667 -56 80 -84 136 -84
c37.333 0 66.333 9.5 87 28.5s31 42.833 31 71.5c0 26.667 -10.833 49.334 -32.5 68.001s-61.5 38.334 -119.5 59.001c-86 30 -129 76.333 -129 139c0 36 13.667 65.833 41 89.5s65.333 35.5 114 35.5c64.667 0 118 -27.333 160 -82l-32 -25
c-32.667 47.333 -75.667 71 -129 71c-33.333 0 -60.166 -7.83301 -80.499 -23.5s-30.5 -37.5 -30.5 -65.5c0 -25.333 9.16699 -45.833 27.5 -61.5s48.166 -30.834 89.499 -45.501c60.667 -22 103.167 -45.167 127.5 -69.5s36.5 -53.833 36.5 -88.5
c0 -38 -12.833 -69.5 -38.5 -94.5s-61.5 -38.833 -107.5 -41.5l-32 -66c16 7.33301 32.333 11 49 11c23.333 0 42.5 -6.33301 57.5 -19s22.5 -29.334 22.5 -50.001c0 -22.667 -10.167 -41.167 -30.5 -55.5s-48.5 -21.5 -84.5 -21.5c-30.667 0 -60.334 5.66699 -89.001 17z
" />
    <glyph glyph-name="Scaron" unicode="&#x160;" horiz-adv-x="540" 
d="M40 138l36.999 22.001c16 -44 40.167 -77.5 72.5 -100.5s71.166 -34.5 116.499 -34.5c56 0 100 14.167 132 42.5s48 66.5 48 114.5c0 33.333 -15.667 63.5 -47 90.5s-85.333 54.5 -162 82.5c-67.333 24.667 -115.166 52 -143.499 82s-42.5 66 -42.5 108
c0 55.333 19.833 97.666 59.5 126.999s90.5 44 152.5 44c97.333 0 171.666 -39.333 222.999 -118l-33 -26c-46 70.667 -110.333 106 -193 106c-47.333 0 -86.666 -11.167 -117.999 -33.5s-47 -54.166 -47 -95.499c0 -36.667 11.833 -66 35.5 -88s67.834 -45.333 132.501 -70
c85.333 -32.667 144.5 -65.334 177.5 -98.001s49.5 -71 49.5 -115c0 -59.333 -21.333 -106 -64 -140s-96.667 -51 -162 -51c-105.333 0 -180 50.333 -224 151zM293.999 762.001h-55l-129 150h37l121 -117l116 117h36z" />
    <glyph glyph-name="scaron" unicode="&#x161;" horiz-adv-x="419" 
d="M45 83l32.002 23.999c34.667 -56 80 -84 136 -84c37.333 0 66.333 9.5 87 28.5s31 42.833 31 71.5c0 26.667 -10.833 49.334 -32.5 68.001s-61.5 38.334 -119.5 59.001c-86 30 -129 76.333 -129 139c0 36 13.667 65.833 41 89.5s65.333 35.5 114 35.5
c64.667 0 118 -27.333 160 -82l-32 -25c-32.667 47.333 -75.667 71 -129 71c-33.333 0 -60.166 -7.83301 -80.499 -23.5s-30.5 -37.5 -30.5 -65.5c0 -25.333 9.16699 -45.833 27.5 -61.5s48.166 -30.834 89.499 -45.501c60.667 -22 103.167 -45.167 127.5 -69.5
s36.5 -53.833 36.5 -88.5c0 -40.667 -14.333 -73.667 -43 -99s-68.334 -38 -119.001 -38c-74.667 0 -130.334 32 -167.001 96zM230.002 576.999h-55l-129 150h37l121 -117l116 117h36z" />
    <glyph glyph-name="uni0162" unicode="&#x162;" horiz-adv-x="521" 
d="M281 0h-42v665h-214v38h471v-37h-215v-666zM215 -237l-26 10l44 159h57z" />
    <glyph glyph-name="uni0163" unicode="&#x163;" horiz-adv-x="306" 
d="M266 45v-43c-17.333 -10 -36.333 -15 -57 -15c-30 0 -54.667 11 -74 33s-29 52 -29 90v353h-81v38h81v202h41v-202h117v-38h-117v-358c0 -24 6.66699 -43.167 20 -57.5s29.333 -21.5 48 -21.5s35.667 6.33301 51 19zM151 -237l-26 10l44 159h57z" />
    <glyph glyph-name="Tcaron" unicode="&#x164;" horiz-adv-x="521" 
d="M281 0h-42v665h-214v38h471v-37h-215v-666zM289 762h-55l-129 150h37l121 -117l116 117h36z" />
    <glyph glyph-name="tcaron" unicode="&#x165;" horiz-adv-x="322" 
d="M266 45v-43c-17.333 -10 -36.333 -15 -57 -15c-30 0 -54.667 11 -74 33s-29 52 -29 90v353h-81v38h81v202h41v-202h117v-38h-117v-358c0 -24 6.66699 -43.167 20 -57.5s29.333 -21.5 48 -21.5s35.667 6.33301 51 19zM260 577l-26 10l44 159h57z" />
    <glyph glyph-name="Tbar" unicode="&#x166;" horiz-adv-x="521" 
d="M281 0h-42v346h-105v36h105v283h-214v38h471v-37h-215v-284h106v-36h-106v-346z" />
    <glyph glyph-name="tbar" unicode="&#x167;" horiz-adv-x="306" 
d="M266 45v-43c-17.333 -10 -36.333 -15 -57 -15c-30 0 -54.667 11 -74 33s-29 52 -29 90v185h-81v38h81v130h-81v38h81v202h41v-202h117v-38h-117v-130h117v-38h-117v-190c0 -24 6.66699 -43.167 20 -57.5s29.333 -21.5 48 -21.5s35.667 6.33301 51 19z" />
    <glyph glyph-name="Umacron" unicode="&#x16a;" horiz-adv-x="626" 
d="M514 285v418h42v-413c0 -102 -18.5 -178 -55.5 -228s-99.5 -75 -187.5 -75s-150.5 25 -187.5 75s-55.5 126 -55.5 228v413h42v-418c0 -88.667 15 -154.167 45 -196.5s82 -63.5 156 -63.5s126 21.167 156 63.5s45 107.833 45 196.5zM440 806h-253v37h253v-37z" />
    <glyph glyph-name="umacron" unicode="&#x16b;" horiz-adv-x="493" 
d="M423 0l-40.999 0.000976562v73c-15.333 -28 -36.5 -49.333 -63.5 -64s-56.5 -22 -88.5 -22c-54.667 0 -95.834 19.5 -123.501 58.5s-41.5 89.5 -41.5 151.5v304h41v-315c0 -50.667 11.167 -90.334 33.5 -119.001s53.833 -43 94.5 -43c38.667 0 73 14.5 103 43.5
s45 71.167 45 126.5v307h41v-501zM368.001 621.001h-253v37h253v-37z" />
    <glyph glyph-name="Ubreve" unicode="&#x16c;" horiz-adv-x="626" 
d="M514 285v418h42v-413c0 -102 -18.5 -178 -55.5 -228s-99.5 -75 -187.5 -75s-150.5 25 -187.5 75s-55.5 126 -55.5 228v413h42v-418c0 -88.667 15 -154.167 45 -196.5s82 -63.5 156 -63.5s126 21.167 156 63.5s45 107.833 45 196.5zM416 907h33.001
c-2 -36 -15.167 -65.667 -39.5 -89s-57.5 -35 -99.5 -35c-38.667 0 -69.834 11.167 -93.501 33.5s-36.834 52.5 -39.501 90.5h35c2.66699 -26 13 -47.333 31 -64s41 -25 69 -25c26.667 0 49.834 8.16699 69.501 24.5s31.167 37.833 34.5 64.5z" />
    <glyph glyph-name="ubreve" unicode="&#x16d;" horiz-adv-x="493" 
d="M423 0l-40.999 0.000976562v73c-15.333 -28 -36.5 -49.333 -63.5 -64s-56.5 -22 -88.5 -22c-54.667 0 -95.834 19.5 -123.501 58.5s-41.5 89.5 -41.5 151.5v304h41v-315c0 -50.667 11.167 -90.334 33.5 -119.001s53.833 -43 94.5 -43c38.667 0 73 14.5 103 43.5
s45 71.167 45 126.5v307h41v-501zM344.001 722.001h33.001c-2 -36 -15.167 -65.667 -39.5 -89s-57.5 -35 -99.5 -35c-38.667 0 -69.834 11.167 -93.501 33.5s-36.834 52.5 -39.501 90.5h35c2.66699 -26 13 -47.333 31 -64s41 -25 69 -25
c26.667 0 49.834 8.16699 69.501 24.5s31.167 37.833 34.5 64.5z" />
    <glyph glyph-name="Uring" unicode="&#x16e;" horiz-adv-x="626" 
d="M514 285v418h42v-413c0 -102 -18.5 -178 -55.5 -228s-99.5 -75 -187.5 -75s-150.5 25 -187.5 75s-55.5 126 -55.5 228v413h42v-418c0 -88.667 15 -154.167 45 -196.5s82 -63.5 156 -63.5s126 21.167 156 63.5s45 107.833 45 196.5zM411 858
c0 -27.333 -9.33301 -50.5 -28 -69.5s-42 -28.5 -70 -28.5s-51.333 9.5 -70 28.5s-28 42.167 -28 69.5s9.33301 50.5 28 69.5s42 28.5 70 28.5s51.333 -9.5 70 -28.5s28 -42.167 28 -69.5zM378 858c0 18.667 -6.33301 34.334 -19 47.001s-28.334 19 -47.001 19
s-34.167 -6.33301 -46.5 -19s-18.5 -28.334 -18.5 -47.001s6.16699 -34.334 18.5 -47.001s27.833 -19 46.5 -19s34.334 6.33301 47.001 19s19 28.334 19 47.001z" />
    <glyph glyph-name="uring" unicode="&#x16f;" horiz-adv-x="493" 
d="M423 0l-40.999 0.000976562v73c-15.333 -28 -36.5 -49.333 -63.5 -64s-56.5 -22 -88.5 -22c-54.667 0 -95.834 19.5 -123.501 58.5s-41.5 89.5 -41.5 151.5v304h41v-315c0 -50.667 11.167 -90.334 33.5 -119.001s53.833 -43 94.5 -43c38.667 0 73 14.5 103 43.5
s45 71.167 45 126.5v307h41v-501zM335.001 673.001c0 -27.333 -9.33301 -50.5 -28 -69.5s-42 -28.5 -70 -28.5s-51.333 9.5 -70 28.5s-28 42.167 -28 69.5s9.33301 50.5 28 69.5s42 28.5 70 28.5s51.333 -9.5 70 -28.5s28 -42.167 28 -69.5zM302.001 673.001
c0 18.667 -6.33301 34.334 -19 47.001s-28.334 19 -47.001 19s-34.167 -6.33301 -46.5 -19s-18.5 -28.334 -18.5 -47.001s6.16699 -34.334 18.5 -47.001s27.833 -19 46.5 -19s34.334 6.33301 47.001 19s19 28.334 19 47.001z" />
    <glyph glyph-name="Uhungarumlaut" unicode="&#x170;" horiz-adv-x="626" 
d="M514 285v418h42v-413c0 -102 -18.5 -178 -55.5 -228s-99.5 -75 -187.5 -75s-150.5 25 -187.5 75s-55.5 126 -55.5 228v413h42v-418c0 -88.667 15 -154.167 45 -196.5s82 -63.5 156 -63.5s126 21.167 156 63.5s45 107.833 45 196.5zM245 761h-38l113 151h66zM404 761h-38
l113 151h66z" />
    <glyph glyph-name="uhungarumlaut" unicode="&#x171;" horiz-adv-x="493" 
d="M423 0l-40.999 0.000976562v73c-15.333 -28 -36.5 -49.333 -63.5 -64s-56.5 -22 -88.5 -22c-54.667 0 -95.834 19.5 -123.501 58.5s-41.5 89.5 -41.5 151.5v304h41v-315c0 -50.667 11.167 -90.334 33.5 -119.001s53.833 -43 94.5 -43c38.667 0 73 14.5 103 43.5
s45 71.167 45 126.5v307h41v-501zM180.001 576.001h-38l113 151h66zM339.001 576.001h-38l113 151h66z" />
    <glyph glyph-name="Uogonek" unicode="&#x172;" horiz-adv-x="626" 
d="M490 -165l8.00195 -28c-26.667 -13.333 -51.334 -20 -74.001 -20c-28.667 0 -52.167 7.83301 -70.5 23.5s-27.5 35.5 -27.5 59.5c0 21.333 8.33301 44 25 68s35.667 44.333 57 61c-28.667 -8 -60.334 -12 -95.001 -12c-88 0 -150.5 25 -187.5 75s-55.5 126 -55.5 228v413
h42v-418c0 -88.667 15 -154.167 45 -196.5s82 -63.5 156 -63.5s126 21.167 156 63.5s45 107.833 45 196.5v418h42v-413c0 -118.667 -24 -200 -72 -244c-81.333 -75.333 -122 -132.333 -122 -171c0 -38 21.667 -57 65 -57c15.333 0 36.333 5.66699 63 17z" />
    <glyph glyph-name="uogonek" unicode="&#x173;" horiz-adv-x="493" 
d="M450 -165l8.00195 -27.999c-26.667 -13.333 -51.334 -20 -74.001 -20c-28.667 0 -52.167 7.83301 -70.5 23.5s-27.5 35.5 -27.5 59.5s9.5 47.833 28.5 71.5s41.5 43.167 67.5 58.5v73c-15.333 -28 -36.5 -49.333 -63.5 -64s-56.5 -22 -88.5 -22
c-54.667 0 -95.834 19.5 -123.501 58.5s-41.5 89.5 -41.5 151.5v304h41v-315c0 -50.667 11.167 -90.334 33.5 -119.001s53.833 -43 94.5 -43c38.667 0 73 14.5 103 43.5s45 71.167 45 126.5v307h41v-501c-26 -16 -49.333 -36 -70 -60s-31 -45.667 -31 -65
c0 -38 21.667 -57 65 -57c15.333 0 36.333 5.66699 63 17z" />
    <glyph glyph-name="Wcircumflex" unicode="&#x174;" horiz-adv-x="825" 
d="M630 0h-52l-164 641l-165 -641h-52l-167 703h42l153 -647l166 647h45l166 -647l153 647h42zM564 762h-38l-114 117l-116 -117h-36l125 150h55z" />
    <glyph glyph-name="wcircumflex" unicode="&#x175;" horiz-adv-x="708" 
d="M528 0h-45l-129 452l-129 -452h-46l-149 501h44l128 -456l129 456h45l130 -456l128 456h44zM506 577h-38l-114 117l-116 -117h-36l125 150h55z" />
    <glyph glyph-name="Ycircumflex" unicode="&#x176;" horiz-adv-x="566" 
d="M304 0h-42v283l-242 420h46l217 -379l216 379h47l-242 -420v-283zM435 762h-38l-114 117l-116 -117h-36l125 150h55z" />
    <glyph glyph-name="ycircumflex" unicode="&#x177;" horiz-adv-x="454" 
d="M154 -129l49 127l-178 503h44l155 -454l161 454h44l-242 -644c-16.667 -43.333 -45.667 -65 -87 -65c-11.333 0 -23 2.66699 -35 8v34c10.667 -5.33301 22 -8 34 -8c26 0 44.333 15 55 45zM378 577h-38l-114 117l-116 -117h-36l125 150h55z" />
    <glyph glyph-name="Ydieresis" unicode="&#x178;" horiz-adv-x="566" 
d="M304 0h-42v283l-242 420h46l217 -379l216 379h47l-242 -420v-283zM398 832c0 -8.66699 -3.33301 -16.1689 -10 -22.502s-14.334 -9.5 -23.001 -9.5s-16.167 3.16699 -22.5 9.5s-9.5 13.833 -9.5 22.5s3.16699 16.334 9.5 23.001s13.833 10 22.5 10
s16.334 -3.16699 23.001 -9.5s10 -14.166 10 -23.499zM233 831.998c0 -8.66699 -3.33105 -16.1689 -9.99805 -22.502s-14.334 -9.5 -23.001 -9.5s-16.167 3.16699 -22.5 9.5s-9.5 13.833 -9.5 22.5s3.16699 16.334 9.5 23.001s13.833 10 22.5 10
c9.33301 0 17.166 -3.16699 23.499 -9.5s9.5 -14.166 9.5 -23.499z" />
    <glyph glyph-name="Zacute" unicode="&#x179;" horiz-adv-x="550" 
d="M511 0h-481v40l439 625h-416v38h462v-40l-439 -625h435v-38zM412 912l-162 -150h-38l128 150h72z" />
    <glyph glyph-name="zacute" unicode="&#x17a;" horiz-adv-x="403" 
d="M368 0h-333v33l281 430h-259v38h308v-32l-283 -431h286v-38zM358 727l-162 -150h-38l128 150h72z" />
    <glyph glyph-name="Zdotaccent" unicode="&#x17b;" horiz-adv-x="550" 
d="M511 0h-481v40l439 625h-416v38h462v-40l-439 -625h435v-38zM305 832c0 -8.66699 -3.33105 -16.1689 -9.99805 -22.502s-14.334 -9.5 -23.001 -9.5s-16.167 3.16699 -22.5 9.5s-9.5 13.833 -9.5 22.5s3.16699 16.334 9.5 23.001s13.833 10 22.5 10
c9.33301 0 17.166 -3.16699 23.499 -9.5s9.5 -14.166 9.5 -23.499z" />
    <glyph glyph-name="zdotaccent" unicode="&#x17c;" horiz-adv-x="403" 
d="M368 0h-333v33l281 430h-259v38h308v-32l-283 -431h286v-38zM244 647c0 -8.66699 -3.33301 -16.167 -10 -22.5s-14.334 -9.5 -23.001 -9.5s-16.167 3.16699 -22.5 9.5s-9.5 13.833 -9.5 22.5s3.16699 16.334 9.5 23.001s13.833 10 22.5 10s16.334 -3.33301 23.001 -10
s10 -14.334 10 -23.001z" />
    <glyph glyph-name="Zcaron" unicode="&#x17d;" horiz-adv-x="550" 
d="M511 0h-481v40l439 625h-416v38h462v-40l-439 -625h435v-38zM309 762h-55l-129 150h37l121 -117l116 117h36z" />
    <glyph glyph-name="zcaron" unicode="&#x17e;" horiz-adv-x="403" 
d="M368 0h-333v33l281 430h-259v38h308v-32l-283 -431h286v-38zM238 577h-55l-129 150h37l121 -117l116 117h36z" />
    <glyph glyph-name="florin" unicode="&#x192;" 
d="M77 -205l0.00195312 39.002c15.333 4.66699 29 13.667 41 27s19.667 28.666 23 45.999l116 560h-87v34h94l19 89c17.333 80 60 120 128 120c20.667 0 37.334 -4.33301 50.001 -13l-1 -39c-14.667 9.33301 -31.334 14 -50.001 14
c-20.667 0 -38.834 -6.83301 -54.501 -20.5s-25.834 -31.834 -30.501 -54.501l-20 -96h109v-34h-117l-115 -554c-14 -68 -49 -107.333 -105 -118z" />
    <glyph glyph-name="Aringacute" unicode="&#x1fa;" horiz-adv-x="589" 
d="M569 0h-44.002l-72 203h-317l-72 -203h-44l248 699c-21.333 5.33301 -38.666 16.833 -51.999 34.5s-20 37.834 -20 60.501c0 27.333 9.33301 50.5 28 69.5s42 28.5 70 28.5s51.333 -9.5 70 -28.5s28 -42.167 28 -69.5c0 -22.667 -6.66699 -42.834 -20 -60.501
s-30.666 -29.167 -51.999 -34.5zM439.998 239l-146 416l-145 -416h291zM358.998 794c0 18.667 -6.33301 34.334 -19 47.001s-28.334 19 -47.001 19s-34.167 -6.33301 -46.5 -19s-18.5 -28.334 -18.5 -47.001s6.16699 -34.334 18.5 -47.001s27.833 -19 46.5 -19
s34.334 6.33301 47.001 19s19 28.334 19 47.001zM464.998 1065l-162 -150h-38l128 150h72z" />
    <glyph glyph-name="aringacute" unicode="&#x1fb;" horiz-adv-x="496" 
d="M456 0l-22 0.00195312c-36 0 -54 18.667 -54 56v17c-19.333 -26 -45.833 -46.5 -79.5 -61.5s-68.167 -22.5 -103.5 -22.5c-44 0 -80.833 12.167 -110.5 36.5s-44.5 60.166 -44.5 107.499c0 55.333 20.333 97.833 61 127.5s90.334 44.5 149.001 44.5
c45.333 0 88 -9 128 -27v69c0 39.333 -13.333 70.833 -40 94.5s-58.667 35.5 -96 35.5c-26.667 0 -52.667 -7.16699 -78 -21.5s-46.333 -34.833 -63 -61.5l-32 24c16.667 29.333 41.167 52.666 73.5 69.999s67.166 26 104.499 26c48 0 88.667 -14.5 122 -43.5
s50 -72.5 50 -130.5v-286c0 -11.333 6.33301 -17 19 -17h16v-37zM380 126.002v108.999c-32 22 -73.667 33 -125 33c-48 0 -88.333 -12 -121 -36s-49 -55.667 -49 -95c0 -35.333 11 -62.666 33 -81.999s49.667 -29 83 -29c32 0 64.5 8.83301 97.5 26.5
s60.167 42.167 81.5 73.5zM343 656.001c0 -27.333 -9.33301 -50.5 -28 -69.5s-42 -28.5 -70 -28.5s-51.333 9.5 -70 28.5s-28 42.167 -28 69.5s9.33301 50.5 28 69.5s42 28.5 70 28.5s51.333 -9.5 70 -28.5s28 -42.167 28 -69.5zM310 656.001
c0 18.667 -6.33301 34.334 -19 47.001s-28.334 19 -47.001 19s-34.167 -6.33301 -46.5 -19s-18.5 -28.334 -18.5 -47.001s6.16699 -34.334 18.5 -47.001s27.833 -19 46.5 -19s34.334 6.33301 47.001 19s19 28.334 19 47.001zM410 940.001l-162 -150h-38l128 150h72z" />
    <glyph glyph-name="AEacute" unicode="&#x1fc;" horiz-adv-x="954" 
d="M919 0h-442v199h-291l-128 -199h-48l455 703h434v-38h-380v-278h289v-38h-289v-311h400v-38zM477 237v412l-266 -412h266zM807 912l-162 -150h-38l128 150h72z" />
    <glyph glyph-name="aeacute" unicode="&#x1fd;" horiz-adv-x="820" 
d="M721 104l33.9961 -22.9971c-18.667 -29.333 -43 -52.333 -73 -69s-63 -25 -99 -25c-39.333 0 -74.166 10.5 -104.499 31.5s-54.166 50.167 -71.499 87.5c-23.333 -32.667 -54 -60.334 -92 -83.001s-77.333 -34 -118 -34c-44 0 -80.833 12.167 -110.5 36.5
s-44.5 60.166 -44.5 107.499c0 55.333 20.333 97.833 61 127.5s90.334 44.5 149.001 44.5c45.333 0 88 -9 128 -27v69c0 39.333 -13.333 70.666 -40 93.999s-58.667 35 -96 35c-26.667 0 -52.667 -7 -78 -21s-46 -34.333 -62 -61l-33 24
c16.667 29.333 41.167 52.666 73.5 69.999s67.166 26 104.499 26c38 0 71.833 -9.16699 101.5 -27.5s49.834 -45.833 60.501 -82.5c36 73.333 92.333 110 169 110c60.667 0 109.167 -24.167 145.5 -72.5s54.5 -111.833 54.5 -190.5v-9h-358c1.33301 -64 17 -116.5 47 -157.5
s68 -61.5 114 -61.5c28 0 54.333 7.33301 79 22s44.334 34.334 59.001 59.001zM392.996 144.003c-8.66699 29.333 -13.334 59.999 -14.001 91.999c-32.667 21.333 -74 32 -124 32c-48 0 -88.333 -12 -121 -36s-49 -55.667 -49 -95c0 -35.333 11 -62.666 33 -81.999
s49.667 -29 83 -29c34.667 0 69.334 10.667 104.001 32s64 50 88 86zM422.996 278.002h314c-4 60 -20.333 108.333 -49 145s-64.667 55 -108 55c-44 0 -80.167 -18.333 -108.5 -55s-44.5 -85 -48.5 -145zM575.996 727.002l-162 -150h-38l128 150h72z" />
    <glyph glyph-name="Oslashacute" unicode="&#x1fe;" horiz-adv-x="654" 
d="M497 912l-162 -150h-38l128 150h72zM93 -56l-28 17l71 113c-60.667 68.667 -91 161 -91 277c0 104 25.667 190.833 77 260.5s119.666 104.5 204.999 104.5c65.333 0 121 -21 167 -63l66 106l28 -17l-70 -113c60.667 -70 91 -162.667 91 -278
c0 -104 -25.667 -190.667 -77 -260s-119.666 -104 -204.999 -104c-64.667 0 -120.667 21 -168 63zM160 111l313 505.001c-41.333 41.333 -90 62 -146 62c-71.333 0 -128.833 -31.333 -172.5 -94s-65.5 -140.334 -65.5 -233.001c0 -98 23.667 -178 71 -240zM494 592.001
l-313 -505c41.333 -41.333 90 -62 146 -62c72 0 129.667 31.167 173 93.5s65 139.833 65 232.5c0 98.667 -23.667 179 -71 241z" />
    <glyph glyph-name="oslashacute" unicode="&#x1ff;" horiz-adv-x="524" 
d="M67 -49l-25 19l62 87c-41.333 47.333 -62 112 -62 194c0 78.667 20.167 142.167 60.5 190.5s93.5 72.5 159.5 72.5c50.667 0 95.667 -16.333 135 -49l60 83l25 -19l-62 -87c41.333 -48.667 62 -112.667 62 -192c0 -78.667 -20.167 -142.167 -60.5 -190.5
s-93.5 -72.5 -159.5 -72.5c-52.667 0 -97.667 15.667 -135 47zM130 92l244.001 339c-32.667 31.333 -70 47 -112 47c-52.667 0 -95.334 -21.167 -128.001 -63.5s-49 -96.833 -49 -163.5c0 -65.333 15 -118.333 45 -159zM394.001 408l-244 -340.001
c31.333 -30 68.666 -45 111.999 -45c52.667 0 95.334 21.167 128.001 63.5s49 96.833 49 163.5c0 62.667 -15 115.334 -45 158.001zM434.001 726.999l-162 -150h-38l128 150h72z" />
    <glyph glyph-name="uni0218" unicode="&#x218;" horiz-adv-x="540" 
d="M40 138l36.999 22.001c16 -44 40.167 -77.5 72.5 -100.5s71.166 -34.5 116.499 -34.5c56 0 100 14.167 132 42.5s48 66.5 48 114.5c0 33.333 -15.667 63.5 -47 90.5s-85.333 54.5 -162 82.5c-67.333 24.667 -115.166 52 -143.499 82s-42.5 66 -42.5 108
c0 55.333 19.833 97.666 59.5 126.999s90.5 44 152.5 44c97.333 0 171.666 -39.333 222.999 -118l-33 -26c-46 70.667 -110.333 106 -193 106c-47.333 0 -86.666 -11.167 -117.999 -33.5s-47 -54.166 -47 -95.499c0 -36.667 11.833 -66 35.5 -88s67.834 -45.333 132.501 -70
c85.333 -32.667 144.5 -65.334 177.5 -98.001s49.5 -71 49.5 -115c0 -59.333 -21.333 -106 -64 -140s-96.667 -51 -162 -51c-105.333 0 -180 50.333 -224 151zM227.999 -236.999l-26 10l44 159h57z" />
    <glyph glyph-name="uni0219" unicode="&#x219;" horiz-adv-x="419" 
d="M45 83l32.002 23.999c34.667 -56 80 -84 136 -84c37.333 0 66.333 9.5 87 28.5s31 42.833 31 71.5c0 26.667 -10.833 49.334 -32.5 68.001s-61.5 38.334 -119.5 59.001c-86 30 -129 76.333 -129 139c0 36 13.667 65.833 41 89.5s65.333 35.5 114 35.5
c64.667 0 118 -27.333 160 -82l-32 -25c-32.667 47.333 -75.667 71 -129 71c-33.333 0 -60.166 -7.83301 -80.499 -23.5s-30.5 -37.5 -30.5 -65.5c0 -25.333 9.16699 -45.833 27.5 -61.5s48.166 -30.834 89.499 -45.501c60.667 -22 103.167 -45.167 127.5 -69.5
s36.5 -53.833 36.5 -88.5c0 -40.667 -14.333 -73.667 -43 -99s-68.334 -38 -119.001 -38c-74.667 0 -130.334 32 -167.001 96zM174.002 -237.001l-26 10l44 159h57z" />
    <glyph glyph-name="uni021A" unicode="&#x21a;" horiz-adv-x="521" 
d="M167 -196l8.00195 30.002c26.667 -12 53 -18 79 -18s45.667 4.66699 59 14s20 20.666 20 33.999c0 12 -4.66699 21.667 -14 29s-22 11 -38 11c-16.667 0 -34.334 -4.33301 -53.001 -13l-27 7l49 102h-11v665h-214v38h471v-37h-215v-666l-39 -78
c16 7.33301 32.333 11 49 11c23.333 0 42.5 -6.33301 57.5 -19s22.5 -29.334 22.5 -50.001c0 -22.667 -10.167 -41.167 -30.5 -55.5s-48.5 -21.5 -84.5 -21.5c-30.667 0 -60.334 5.66699 -89.001 17z" />
    <glyph glyph-name="uni021B" unicode="&#x21b;" horiz-adv-x="306" 
d="M102 -196l8.00098 30.002c26.667 -12 53 -18 79 -18s45.667 4.66699 59 14s20 20.666 20 33.999c0 12 -4.66699 21.667 -14 29s-22 11 -38 11c-16.667 0 -34.334 -4.33301 -53.001 -13l-27 7l44 93c-22 6 -39.833 19.5 -53.5 40.5s-20.5 47.167 -20.5 78.5v353h-81v38h81
v202h41v-202h117v-38h-117v-358c0 -24 6.66699 -43.167 20 -57.5s29.333 -21.5 48 -21.5s35.667 6.33301 51 19v-43c-17.333 -10 -36.333 -15 -57 -15l-32 -65c16 7.33301 32.333 11 49 11c23.333 0 42.5 -6.33301 57.5 -19s22.5 -29.334 22.5 -50.001
c0 -22.667 -10.167 -41.167 -30.5 -55.5s-48.5 -21.5 -84.5 -21.5c-31.333 0 -61 5.66699 -89 17z" />
    <glyph glyph-name="dotlessj" unicode="&#x237;" horiz-adv-x="195" 
d="M77 -92l-0.000976562 593h41v-583c0 -38 -9.16699 -68.5 -27.5 -91.5s-41.833 -34.5 -70.5 -34.5c-18 0 -36.333 5 -55 15l13 35c11.333 -9.33301 24.333 -14 39 -14c16.667 0 30.834 7.33301 42.501 22s17.5 34 17.5 58z" />
    <glyph glyph-name="circumflex" unicode="&#x2c6;" horiz-adv-x="450" 
d="M377 577h-38l-114 117l-116 -117h-36l125 150h55z" />
    <glyph glyph-name="caron" unicode="&#x2c7;" horiz-adv-x="450" 
d="M254 577h-55l-129 150h37l121 -117l116 117h36z" />
    <glyph glyph-name="breve" unicode="&#x2d8;" horiz-adv-x="450" 
d="M328 722h33.001c-2 -36 -15.167 -65.667 -39.5 -89s-57.5 -35 -99.5 -35c-38.667 0 -69.834 11.167 -93.501 33.5s-36.834 52.5 -39.501 90.5h35c2.66699 -26 13 -47.333 31 -64s41 -25 69 -25c26.667 0 49.834 8.16699 69.501 24.5s31.167 37.833 34.5 64.5z" />
    <glyph glyph-name="dotaccent" unicode="&#x2d9;" horiz-adv-x="450" 
d="M257 647c0 -8.66699 -3.33105 -16.167 -9.99805 -22.5s-14.334 -9.5 -23.001 -9.5s-16.167 3.16699 -22.5 9.5s-9.5 13.833 -9.5 22.5s3.16699 16.334 9.5 23.001s13.833 10 22.5 10c9.33301 0 17.166 -3.33301 23.499 -10s9.5 -14.334 9.5 -23.001z" />
    <glyph glyph-name="ring" unicode="&#x2da;" horiz-adv-x="450" 
d="M323 673c0 -27.333 -9.33301 -50.5 -28 -69.5s-42 -28.5 -70 -28.5s-51.333 9.5 -70 28.5s-28 42.167 -28 69.5s9.33301 50.5 28 69.5s42 28.5 70 28.5s51.333 -9.5 70 -28.5s28 -42.167 28 -69.5zM290 673c0 18.667 -6.33301 34.334 -19 47.001s-28.334 19 -47.001 19
s-34.167 -6.33301 -46.5 -19s-18.5 -28.334 -18.5 -47.001s6.16699 -34.334 18.5 -47.001s27.833 -19 46.5 -19s34.334 6.33301 47.001 19s19 28.334 19 47.001z" />
    <glyph glyph-name="ogonek" unicode="&#x2db;" horiz-adv-x="450" 
d="M295 -165l8 -28c-26.667 -13.333 -51.334 -20 -74.001 -20c-28.667 0 -52.167 7.83301 -70.5 23.5s-27.5 35.5 -27.5 59.5c0 22.667 10.667 47.167 32 73.5s44 47.833 68 64.5h41c-23.333 -16 -46.666 -37.5 -69.999 -64.5s-35 -49.833 -35 -68.5
c0 -38 21.667 -57 65 -57c15.333 0 36.333 5.66699 63 17z" />
    <glyph glyph-name="tilde" unicode="&#x2dc;" horiz-adv-x="450" 
d="M350 702l30.9971 -5.00098c-9.33301 -59.333 -40 -89 -92 -89c-21.333 0 -44.666 9.83301 -69.999 29.5s-45.333 29.5 -60 29.5c-29.333 0 -48.666 -19.667 -57.999 -59l-32 4c2.66699 28.667 11.834 51.167 27.501 67.5s37.167 24.5 64.5 24.5
c22.667 0 47.167 -9.83301 73.5 -29.5s45.833 -29.5 58.5 -29.5c16.667 0 29.167 4.83301 37.5 14.5s14.833 23.834 19.5 42.501z" />
    <glyph glyph-name="hungarumlaut" unicode="&#x2dd;" horiz-adv-x="450" 
d="M180 576h-38l113 151h66zM339 576h-38l113 151h66z" />
    <glyph glyph-name="Wgrave" unicode="&#x1e80;" horiz-adv-x="825" 
d="M630 0h-52l-164 641l-165 -641h-52l-167 703h42l153 -647l166 647h45l166 -647l153 647h42zM432 762h-38l-162 150h72z" />
    <glyph glyph-name="wgrave" unicode="&#x1e81;" horiz-adv-x="708" 
d="M528 0h-45l-129 452l-129 -452h-46l-149 501h44l128 -456l129 456h45l130 -456l128 456h44zM384 577h-38l-162 150h72z" />
    <glyph glyph-name="Wacute" unicode="&#x1e82;" horiz-adv-x="825" 
d="M630 0h-52l-164 641l-165 -641h-52l-167 703h42l153 -647l166 647h45l166 -647l153 647h42zM582 912l-162 -150h-38l128 150h72z" />
    <glyph glyph-name="wacute" unicode="&#x1e83;" horiz-adv-x="708" 
d="M528 0h-45l-129 452l-129 -452h-46l-149 501h44l128 -456l129 456h45l130 -456l128 456h44zM524 727l-162 -150h-38l128 150h72z" />
    <glyph glyph-name="Wdieresis" unicode="&#x1e84;" horiz-adv-x="825" 
d="M630 0h-52l-164 641l-165 -641h-52l-167 703h42l153 -647l166 647h45l166 -647l153 647h42zM527 832c0 -8.66699 -3.33105 -16.1689 -9.99805 -22.502s-14.334 -9.5 -23.001 -9.5s-16.167 3.16699 -22.5 9.5s-9.5 13.833 -9.5 22.5s3.16699 16.334 9.5 23.001
s13.833 10 22.5 10c9.33301 0 17.166 -3.16699 23.499 -9.5s9.5 -14.166 9.5 -23.499zM362.002 831.998c0 -8.66699 -3.33301 -16.1689 -10 -22.502s-14.334 -9.5 -23.001 -9.5s-16.167 3.16699 -22.5 9.5s-9.5 13.833 -9.5 22.5s3.16699 16.334 9.5 23.001
s13.833 10 22.5 10s16.334 -3.16699 23.001 -9.5s10 -14.166 10 -23.499z" />
    <glyph glyph-name="wdieresis" unicode="&#x1e85;" horiz-adv-x="708" 
d="M528 0h-45l-129 452l-129 -452h-46l-149 501h44l128 -456l129 456h45l130 -456l128 456h44zM469 647c0 -8.66699 -3.33105 -16.167 -9.99805 -22.5s-14.334 -9.5 -23.001 -9.5s-16.167 3.16699 -22.5 9.5s-9.5 13.833 -9.5 22.5s3.16699 16.334 9.5 23.001
s13.833 10 22.5 10c9.33301 0 17.166 -3.33301 23.499 -10s9.5 -14.334 9.5 -23.001zM304.002 647c0 -8.66699 -3.33301 -16.167 -10 -22.5s-14.334 -9.5 -23.001 -9.5s-16.167 3.16699 -22.5 9.5s-9.5 13.833 -9.5 22.5s3.16699 16.334 9.5 23.001s13.833 10 22.5 10
s16.334 -3.33301 23.001 -10s10 -14.334 10 -23.001z" />
    <glyph glyph-name="thinspace" unicode="&#x2009;" horiz-adv-x="120" 
 />
    <glyph glyph-name="endash" unicode="&#x2013;" horiz-adv-x="515" 
d="M465 272h-415v38h415v-38z" />
    <glyph glyph-name="emdash" unicode="&#x2014;" horiz-adv-x="575" 
d="M525 272h-475v38h475v-38z" />
    <glyph glyph-name="quoteleft" unicode="&#x2018;" horiz-adv-x="210" 
d="M95 467h-63l109 249l29 -11z" />
    <glyph glyph-name="quoteright" unicode="&#x2019;" horiz-adv-x="210" 
d="M69 454l-29 11l75 238h63z" />
    <glyph glyph-name="quotesinglbase" unicode="&#x201a;" horiz-adv-x="188" 
d="M49 -138l-29 11l75 238h63z" />
    <glyph glyph-name="quotedblleft" unicode="&#x201c;" horiz-adv-x="370" 
d="M95 467h-63l109 249l29 -11zM255 467h-63l109 249l29 -11z" />
    <glyph glyph-name="quotedblright" unicode="&#x201d;" horiz-adv-x="370" 
d="M229 454l-29 11l75 238h63zM69 454l-29 11l75 238h63z" />
    <glyph glyph-name="quotedblbase" unicode="&#x201e;" horiz-adv-x="348" 
d="M209 -138l-29 11l75 238h63zM49 -138l-29 11l75 238h63z" />
    <glyph glyph-name="dagger" unicode="&#x2020;" horiz-adv-x="480" 
d="M261 -150h-42v613h-179v38h179v202h42v-202h179v-37h-179v-614z" />
    <glyph glyph-name="daggerdbl" unicode="&#x2021;" horiz-adv-x="480" 
d="M261 -150h-42v419h-179v37h179v157h-179v38h179v202h42v-202h179v-37h-179v-158h179v-37h-179v-419z" />
    <glyph glyph-name="bullet" unicode="&#x2022;" horiz-adv-x="356" 
d="M178 246c-30.667 0 -57.167 10.998 -79.5 32.998s-33.5 48.667 -33.5 80s11 58.333 33 81s48.667 34 80 34c30.667 0 57.167 -11.167 79.5 -33.5s33.5 -49.166 33.5 -80.499s-11 -58.166 -33 -80.499s-48.667 -33.5 -80 -33.5z" />
    <glyph glyph-name="ellipsis" unicode="&#x2026;" horiz-adv-x="659" 
d="M578 -10c-14 0 -25.833 4.83301 -35.5 14.5s-14.5 21.167 -14.5 34.5c0 14 4.83301 25.833 14.5 35.5s21.167 14.5 34.5 14.5c14 0 25.833 -4.83301 35.5 -14.5s14.5 -21.167 14.5 -34.5c0 -14 -4.83301 -25.833 -14.5 -35.5s-21.167 -14.5 -34.5 -14.5zM341 -10
c-14 0 -25.833 4.83301 -35.5 14.5s-14.5 21.167 -14.5 34.5c0 14 4.83301 25.833 14.5 35.5s21.167 14.5 34.5 14.5c14 0 25.833 -4.83301 35.5 -14.5s14.5 -21.167 14.5 -34.5c0 -14 -4.83301 -25.833 -14.5 -35.5s-21.167 -14.5 -34.5 -14.5zM107 -10
c-14 0 -25.833 4.83301 -35.5 14.5s-14.5 21.167 -14.5 34.5c0 14 4.83301 25.833 14.5 35.5s21.167 14.5 34.5 14.5c14 0 25.833 -4.83301 35.5 -14.5s14.5 -21.167 14.5 -34.5c0 -14 -4.83301 -25.833 -14.5 -35.5s-21.167 -14.5 -34.5 -14.5z" />
    <glyph glyph-name="perthousand" unicode="&#x2030;" horiz-adv-x="1141" 
d="M194 340c-46 0 -81.5 17.668 -106.5 53.001s-37.5 80 -37.5 134c0 51.333 11.833 95.666 35.5 132.999s60.5 56 110.5 56c48 0 84.167 -17.833 108.5 -53.5s36.5 -80.5 36.5 -134.5c0 -49.333 -12 -93 -36 -131s-61 -57 -111 -57zM196 375.001
c26 0 47.5 8.99805 64.5 26.998s28.167 37.5 33.5 58.5s8 42.833 8 65.5c0 44.667 -9.33301 81.834 -28 111.501s-45 44.5 -79 44.5c-33.333 0 -59.333 -14.667 -78 -44s-28 -65.666 -28 -108.999c0 -15.333 1.5 -31 4.5 -47s8 -32.5 15 -49.5s18.167 -30.833 33.5 -41.5
s33.333 -16 54 -16zM213 -36.001l-34 17l409 760l34 -16zM603 -13.001c-46 0 -81.5 17.668 -106.5 53.001s-37.5 80 -37.5 134c0 51.333 11.833 95.666 35.5 132.999s60.5 56 110.5 56c48 0 84.167 -17.833 108.5 -53.5s36.5 -80.5 36.5 -134.5c0 -49.333 -12 -93 -36 -131
s-61 -57 -111 -57zM605 22c26 0 47.5 8.99805 64.5 26.998s28.167 37.5 33.5 58.5s8 42.833 8 65.5c0 44.667 -9.33301 81.834 -28 111.501s-45 44.5 -79 44.5c-33.333 0 -59.333 -14.667 -78 -44s-28 -65.666 -28 -108.999c0 -15.333 1.5 -31 4.5 -47s8 -32.5 15 -49.5
s18.167 -30.833 33.5 -41.5s33.333 -16 54 -16zM954 -13.002c-46 0 -81.5 17.668 -106.5 53.001s-37.5 80 -37.5 134c0 51.333 11.833 95.666 35.5 132.999s60.5 56 110.5 56c48 0 84.167 -17.833 108.5 -53.5s36.5 -80.5 36.5 -134.5c0 -49.333 -12 -93 -36 -131
s-61 -57 -111 -57zM956 21.999c26 0 47.5 8.99805 64.5 26.998s28.167 37.5 33.5 58.5s8 42.833 8 65.5c0 44.667 -9.33301 81.834 -28 111.501s-45 44.5 -79 44.5c-33.333 0 -59.333 -14.667 -78 -44s-28 -65.666 -28 -108.999c0 -15.333 1.5 -31 4.5 -47s8 -32.5 15 -49.5
s18.167 -30.833 33.5 -41.5s33.333 -16 54 -16z" />
    <glyph glyph-name="guilsinglleft" unicode="&#x2039;" horiz-adv-x="293" 
d="M233 75l-40 -9l-158 220l158 220l40 -9l-151 -211z" />
    <glyph glyph-name="guilsinglright" unicode="&#x203a;" horiz-adv-x="293" 
d="M100 66l-40 9l151 211l-151 211l40 9l158 -220z" />
    <glyph glyph-name="fraction" unicode="&#x2044;" horiz-adv-x="343" 
d="M-16 -36l-34 17l409 760l34 -16z" />
    <glyph glyph-name="zerosuperior" unicode="&#x2070;" horiz-adv-x="500" 
d="M249 194c-62 0 -110.667 23.833 -146 71.5s-53 110.5 -53 188.5c0 77.333 17.5 139.666 52.5 186.999s83.833 71 146.5 71c63.333 0 112.666 -23.667 147.999 -71s53 -109.666 53 -186.999c0 -78 -17.667 -140.833 -53 -188.5s-84.666 -71.5 -147.999 -71.5zM249 228
c50 0 89 21 117 63s42 96.333 42 163c0 66 -14 119.833 -42 161.5s-67 62.5 -117 62.5c-49.333 0 -87.833 -20.667 -115.5 -62s-41.5 -95.333 -41.5 -162s13.833 -121 41.5 -163s66.167 -63 115.5 -63z" />
    <glyph glyph-name="foursuperior" unicode="&#x2074;" horiz-adv-x="472" 
d="M357 203h-41v132h-271v30l270 344h42v-339h80v-35h-80v-132zM316 370v283l-222 -283h222z" />
    <glyph glyph-name="fivesuperior" unicode="&#x2075;" horiz-adv-x="443" 
d="M50 275l28 21.001c31.333 -48 75.333 -72 132 -72c46 0 81 12.667 105 38s36 59 36 101c0 39.333 -11.167 71.166 -33.5 95.499s-54.5 36.5 -96.5 36.5c-52.667 0 -94.667 -23 -126 -69l-30 10l13 267h283v-36h-251l-10 -188c34 33.333 76.667 50 128 50
c54 0 95 -15.5 123 -46.5s42 -70.167 42 -117.5c0 -54 -16 -96.667 -48 -128s-76.333 -47 -133 -47c-78 0 -132 28.333 -162 85z" />
    <glyph glyph-name="sixsuperior" unicode="&#x2076;" horiz-adv-x="463" 
d="M372 685l-15.001 -34c-26.667 17.333 -57.334 26 -92.001 26c-49.333 0 -89.666 -21.833 -120.999 -65.5s-49.333 -96.5 -54 -158.5c15.333 23.333 36.333 42 63 56s56.334 21 89.001 21c52 0 93.5 -15.667 124.5 -47s46.5 -71.333 46.5 -120
c0 -51.333 -16.667 -92.333 -50 -123s-77.333 -46 -132 -46c-32.667 0 -61.334 6.5 -86.001 19.5s-43.5 30.5 -56.5 52.5s-22.667 45.333 -29 70s-9.5 50.667 -9.5 78c0 36.667 4.33301 72 13 106s21.334 65.667 38.001 95s39.5 52.833 68.5 70.5s62.167 26.5 99.5 26.5
c42 0 76.333 -9 103 -27zM370.999 366c0 39.333 -12.167 70.832 -36.5 94.499s-57.833 35.5 -100.5 35.5c-37.333 0 -69.833 -13 -97.5 -39s-41.5 -56.667 -41.5 -92c0 -31.333 12.167 -62 36.5 -92s57.833 -45 100.5 -45c44 0 78.167 12.333 102.5 37
s36.5 58.334 36.5 101.001z" />
    <glyph glyph-name="sevensuperior" unicode="&#x2077;" horiz-adv-x="435" 
d="M175 202l-41.999 0.000976562c15.333 161.333 83.666 316.333 204.999 465h-298v36h345v-34c-127.333 -150.667 -197.333 -306.334 -210 -467.001z" />
    <glyph glyph-name="eightsuperior" unicode="&#x2078;" horiz-adv-x="470" 
d="M314 470c70.667 -20 106 -64.001 106 -132.001c0 -41.333 -15.667 -75.666 -47 -102.999s-77.333 -41 -138 -41c-60 0 -105.833 13.667 -137.5 41s-47.5 61.666 -47.5 102.999c0 68 35.333 112 106 132c-56 20.667 -84 59 -84 115c0 36 14.333 66.167 43 90.5
s68.667 36.5 120 36.5c52 0 92.333 -12.167 121 -36.5s43 -54.5 43 -90.5c0 -55.333 -28.333 -93.666 -85 -114.999zM357 580.999c0 26 -10.167 48.667 -30.5 68s-50.833 29 -91.5 29c-40 0 -70.333 -9.66699 -91 -29s-31 -42 -31 -68c0 -26.667 11.167 -49 33.5 -67
s51.833 -27 88.5 -27s66.167 8.83301 88.5 26.5s33.5 40.167 33.5 67.5zM378 340.999c0 34.667 -13.667 61.834 -41 81.501s-61.333 29.5 -102 29.5s-74.667 -9.83301 -102 -29.5s-41 -46.834 -41 -81.501c0 -33.333 12.833 -60.5 38.5 -81.5s60.5 -31.5 104.5 -31.5
s78.833 10.5 104.5 31.5s38.5 48.167 38.5 81.5z" />
    <glyph glyph-name="ninesuperior" unicode="&#x2079;" horiz-adv-x="463" 
d="M91 221l15.001 34c26.667 -17.333 57.334 -26 92.001 -26c49.333 0 89.666 21.833 120.999 65.5s49.333 96.5 54 158.5c-15.333 -23.333 -36.333 -42 -63 -56s-56.334 -21 -89.001 -21c-52 0 -93.5 15.667 -124.5 47s-46.5 71.333 -46.5 120
c0 51.333 16.667 92.333 50 123s77.333 46 132 46c32.667 0 61.334 -6.5 86.001 -19.5s43.5 -30.5 56.5 -52.5s22.667 -45.333 29 -70s9.5 -50.667 9.5 -78c0 -36.667 -4.33301 -72 -13 -106s-21.334 -65.667 -38.001 -95s-39.5 -52.833 -68.5 -70.5
s-62.167 -26.5 -99.5 -26.5c-42 0 -76.333 9 -103 27zM368.001 541c0 31.333 -12.167 62.001 -36.5 92.001s-57.833 45 -100.5 45c-44 0 -78.167 -12.333 -102.5 -37s-36.5 -58.334 -36.5 -101.001c0 -39.333 12.167 -70.833 36.5 -94.5s57.833 -35.5 100.5 -35.5
c37.333 0 69.833 13 97.5 39s41.5 56.667 41.5 92z" />
    <glyph glyph-name="zeroinferior" unicode="&#x2080;" horiz-adv-x="500" 
d="M249 -9c-62 0 -110.667 23.834 -146 71.501s-53 110.5 -53 188.5c0 77.333 17.5 139.666 52.5 186.999s83.833 71 146.5 71c63.333 0 112.666 -23.5 147.999 -70.5s53 -109.5 53 -187.5s-17.667 -140.833 -53 -188.5s-84.666 -71.5 -147.999 -71.5zM249 25.001
c50 0 89 21 117 63s42 96.333 42 163c0 66 -14 119.833 -42 161.5s-67 62.5 -117 62.5c-49.333 0 -87.833 -20.667 -115.5 -62s-41.5 -95.333 -41.5 -162s13.833 -121 41.5 -163s66.167 -63 115.5 -63z" />
    <glyph glyph-name="oneinferior" unicode="&#x2081;" horiz-adv-x="293" 
d="M203 0h-41v421c-34.667 -29.333 -78.667 -44 -132 -44v37c40 2 71 10.5 93 25.5s37.333 38.167 46 69.5h34v-509z" />
    <glyph glyph-name="twoinferior" unicode="&#x2082;" horiz-adv-x="439" 
d="M389 0l-332.997 0.000976562c6 40.667 24.333 78.5 55 113.5s80 76.833 148 125.5c57.333 40.667 86 85 86 133c0 28 -11.667 52.167 -35 72.5s-53.333 30.5 -90 30.5c-30.667 0 -57.834 -7.83301 -81.501 -23.5s-41.834 -37.5 -54.501 -65.5l-34 19
c35.333 69.333 93.333 104 174 104c47.333 0 86.333 -13 117 -39s46 -60 46 -102c0 -33.333 -9.5 -62.833 -28.5 -88.5s-51.5 -54.167 -97.5 -85.5c-40.667 -27.333 -73.334 -52.833 -98.001 -76.5s-44 -50.834 -58 -81.501h284v-36z" />
    <glyph glyph-name="threeinferior" unicode="&#x2083;" horiz-adv-x="454" 
d="M233 245h-65.999v35h53c38.667 0 69.5 9.83301 92.5 29.5s34.5 42.5 34.5 68.5c0 26.667 -10 49.334 -30 68.001s-48 28 -84 28c-32.667 0 -60.167 -7 -82.5 -21s-38.833 -31.667 -49.5 -53l-35 16c34 62 89 93 165 93c51.333 0 90.5 -12 117.5 -36s40.5 -55 40.5 -93
c0 -54.667 -27.667 -92 -83 -112c32.667 -10 57.167 -27.833 73.5 -53.5s24.5 -52.834 24.5 -81.501c0 -38.667 -14.333 -72 -43 -100s-73 -42 -133 -42c-41.333 0 -78.333 10 -111 30s-55 45.667 -67 77l33 18c11.333 -25.333 30 -46.833 56 -64.5s55 -26.5 87 -26.5
c41.333 0 74.166 10 98.499 30s36.5 46.333 36.5 79c0 32 -11.333 58.5 -34 79.5s-54 31.5 -94 31.5z" />
    <glyph glyph-name="fourinferior" unicode="&#x2084;" horiz-adv-x="472" 
d="M357 0h-41v132h-271v30l270 344h42v-339h80v-35h-80v-132zM316 167v283l-222 -283h222z" />
    <glyph glyph-name="fiveinferior" unicode="&#x2085;" horiz-adv-x="443" 
d="M50 72l28 21.001c31.333 -48 75.333 -72 132 -72c46 0 81 12.5 105 37.5s36 58.833 36 101.5c0 39.333 -11.167 71.166 -33.5 95.499s-54.5 36.5 -96.5 36.5c-52.667 0 -94.667 -23 -126 -69l-30 10l13 267h283v-36h-251l-10 -188c34 33.333 76.667 50 128 50
c54 0 95 -15.5 123 -46.5s42 -70.167 42 -117.5c0 -54 -16 -96.667 -48 -128s-76.333 -47 -133 -47c-78 0 -132 28.333 -162 85z" />
    <glyph glyph-name="sixinferior" unicode="&#x2086;" horiz-adv-x="463" 
d="M372 482l-15.001 -34c-26.667 17.333 -57.334 26 -92.001 26c-49.333 0 -89.666 -21.833 -120.999 -65.5s-49.333 -96.5 -54 -158.5c15.333 23.333 36.333 42 63 56s56.334 21 89.001 21c52 0 93.5 -15.667 124.5 -47s46.5 -71.333 46.5 -120
c0 -51.333 -16.667 -92.333 -50 -123s-77.333 -46 -132 -46c-32.667 0 -61.334 6.5 -86.001 19.5s-43.5 30.5 -56.5 52.5s-22.667 45.333 -29 70s-9.5 50.667 -9.5 78c0 36.667 4.33301 72 13 106s21.334 65.667 38.001 95s39.5 52.833 68.5 70.5s62.167 26.5 99.5 26.5
c42 0 76.333 -9 103 -27zM370.999 163c0 39.333 -12.167 70.832 -36.5 94.499s-57.833 35.5 -100.5 35.5c-37.333 0 -69.833 -13 -97.5 -39s-41.5 -56.667 -41.5 -92c0 -31.333 12.167 -62 36.5 -92s57.833 -45 100.5 -45c44 0 78.167 12.333 102.5 37
s36.5 58.334 36.5 101.001z" />
    <glyph glyph-name="seveninferior" unicode="&#x2087;" horiz-adv-x="435" 
d="M175 0l-41.999 0.000976562c15.333 161.333 83.666 316.333 204.999 465h-298v36h345v-34c-127.333 -150.667 -197.333 -306.334 -210 -467.001z" />
    <glyph glyph-name="eightinferior" unicode="&#x2088;" horiz-adv-x="470" 
d="M314 267c70.667 -20 106 -64.001 106 -132.001c0 -41.333 -15.667 -75.666 -47 -102.999s-77.333 -41 -138 -41c-60 0 -105.833 13.667 -137.5 41s-47.5 61.666 -47.5 102.999c0 68 35.333 112 106 132c-56 20.667 -84 59 -84 115c0 36 14.333 66.167 43 90.5
s68.667 36.5 120 36.5c52 0 92.333 -12.167 121 -36.5s43 -54.5 43 -90.5c0 -55.333 -28.333 -93.666 -85 -114.999zM357 377.999c0 26 -10.167 48.667 -30.5 68s-50.833 29 -91.5 29c-40 0 -70.333 -9.66699 -91 -29s-31 -42 -31 -68c0 -26.667 11.167 -49 33.5 -67
s51.833 -27 88.5 -27s66.167 8.83301 88.5 26.5s33.5 40.167 33.5 67.5zM378 137.999c0 34.667 -13.667 61.834 -41 81.501s-61.333 29.5 -102 29.5s-74.667 -9.83301 -102 -29.5s-41 -46.834 -41 -81.501c0 -33.333 12.833 -60.5 38.5 -81.5s60.5 -31.5 104.5 -31.5
s78.833 10.5 104.5 31.5s38.5 48.167 38.5 81.5z" />
    <glyph glyph-name="nineinferior" unicode="&#x2089;" horiz-adv-x="463" 
d="M91 18l15.001 34c26.667 -17.333 57.334 -26 92.001 -26c49.333 0 89.666 21.833 120.999 65.5s49.333 96.5 54 158.5c-15.333 -23.333 -36.333 -42 -63 -56s-56.334 -21 -89.001 -21c-52 0 -93.5 15.667 -124.5 47s-46.5 71.333 -46.5 120
c0 51.333 16.667 92.333 50 123s77.333 46 132 46c32.667 0 61.334 -6.5 86.001 -19.5s43.5 -30.5 56.5 -52.5s22.667 -45.333 29 -70s9.5 -50.667 9.5 -78c0 -36.667 -4.33301 -72 -13 -106s-21.334 -65.667 -38.001 -95s-39.5 -52.833 -68.5 -70.5
s-62.167 -26.5 -99.5 -26.5c-42 0 -76.333 9 -103 27zM368.001 338c0 31.333 -12.167 62.001 -36.5 92.001s-57.833 45 -100.5 45c-44 0 -78.167 -12.333 -102.5 -37s-36.5 -58.334 -36.5 -101.001c0 -39.333 12.167 -70.833 36.5 -94.5s57.833 -35.5 100.5 -35.5
c37.333 0 69.833 13 97.5 39s41.5 56.667 41.5 92z" />
    <glyph glyph-name="Euro" unicode="&#x20ac;" 
d="M490 148l37.001 -17.0029c-20.667 -45.333 -47.5 -80.666 -80.5 -105.999s-70.833 -38 -113.5 -38c-60.667 0 -111.5 25.5 -152.5 76.5s-67.5 117.5 -79.5 199.5h-101l5 37h92c-1.33301 22.667 -2 40 -2 52c0 18.667 1 37.667 3 57h-98l5 37h97
c12.667 80.667 39.334 145.834 80.001 195.501s91 74.5 151 74.5c48.667 0 91 -16.333 127 -49s63.667 -77.667 83 -135l-39 -15c-16 50 -38.833 89.333 -68.5 118s-63.834 43 -102.501 43c-47.333 0 -87.333 -21.333 -120 -64s-54.334 -98.667 -65.001 -168h248l-5 -37
h-247c-2 -19.333 -3 -38.333 -3 -57c0 -12 0.666992 -29.333 2 -52h253l-5 -37h-243c10.667 -71.333 32.167 -128.833 64.5 -172.5s72.5 -65.5 120.5 -65.5c34 0 64.667 10.833 92 32.5s49 51.834 65 90.501z" />
    <glyph glyph-name="trademark" unicode="&#x2122;" horiz-adv-x="757" 
d="M194 338h-35v334h-114v31h264v-31h-115v-334zM707 338h-33v323l-124 -325h-15l-124 325v-323h-33v365h50l115 -302l115 302h49v-365z" />
    <glyph glyph-name="minus" unicode="&#x2212;" 
d="M540 298h-500v39h500v-39z" />
    <glyph glyph-name="uni2215" unicode="&#x2215;" horiz-adv-x="343" 
d="M-16 -36l-34 17l409 760l34 -16z" />
    <glyph glyph-name="approxequal" unicode="&#x2248;" horiz-adv-x="579" 
d="M482 460l30.998 -21c-32.667 -56 -73.667 -84 -123 -84c-21.333 0 -55.333 12 -102 36s-80.334 36 -101.001 36c-32.667 0 -62 -21.333 -88 -64l-32 20c28 56.667 70 85 126 85c22.667 0 57.334 -12 104.001 -36s79.334 -36 98.001 -36c20 0 36.333 5.16699 49 15.5
s25.334 26.5 38.001 48.5zM481.998 275l30.998 -21c-32.667 -56 -73.667 -84 -123 -84c-21.333 0 -55.333 12 -102 36s-80.334 36 -101.001 36c-32.667 0 -62 -21.333 -88 -64l-32 21c27.333 56 69.333 84 126 84c22.667 0 57.334 -12 104.001 -36s79.334 -36 98.001 -36
c20 0 36.333 5.16699 49 15.5s25.334 26.5 38.001 48.5z" />
    <glyph glyph-name="notequal" unicode="&#x2260;" 
d="M530 197h-289l-70 -131l-34 17l61 114h-148v39h169l89 165h-258v39h279l70 130l34 -16l-61 -114h158v-39h-179l-89 -165h268v-39z" />
    <glyph glyph-name="lessequal" unicode="&#x2264;" 
d="M494 0h-429v39h429v-39zM494 116l-444 240v50l444 239v-45l-410 -218l410 -221v-45z" />
    <glyph glyph-name="greaterequal" unicode="&#x2265;" 
d="M515 0h-429v39h429v-39zM530 356l-444 -240v45l410 221l-410 218v45l444 -239v-50z" />
    <glyph glyph-name="pcircle" unicode="&#x24df;" horiz-adv-x="849" 
d="M789 351c0 -100.667 -35.5 -186.5 -106.5 -257.5s-156.833 -106.5 -257.5 -106.5s-186.667 35.5 -258 106.5s-107 156.833 -107 257.5s35.667 186.667 107 258s157.333 107 258 107s186.5 -35.667 257.5 -107s106.5 -157.333 106.5 -258zM760 351
c0 92.667 -32.667 171.834 -98 237.501s-144.333 98.5 -237 98.5s-171.834 -32.833 -237.501 -98.5s-98.5 -144.834 -98.5 -237.501s32.833 -171.667 98.5 -237s144.834 -98 237.501 -98s171.667 32.667 237 98s98 144.333 98 237zM346 144h-35v413h166
c34 0 62.167 -12 84.5 -36s33.5 -53 33.5 -87s-11.167 -63 -33.5 -87s-50.5 -36 -84.5 -36h-131v-167zM346 344l130 0.00195312c24.667 0 44.834 8.66699 60.501 26s23.5 38.666 23.5 63.999s-7.83301 46.666 -23.5 63.999s-35.834 26 -60.501 26h-130v-180z" />
    <glyph glyph-name="commaaccent" unicode="&#xf6c3;" horiz-adv-x="450" 
d="M198 -237l-26 10l44 159h57z" />
    <glyph glyph-name="apple" unicode="&#xf8ff;" horiz-adv-x="809" 
d="M689 67l-197 72l-88 -188l-87 187l-195 -71l71 195l-188 89l188 86l-71 197l195 -72l89 188l86 -188l197 72l-72 -197l187 -85l-187 -88zM629 127l-55 155l147 69l-147 69l55 154l-154 -55l-70 149l-70 -149l-154 55l56 -154l-149 -70l149 -70l-56 -153l154 57l69 -151
l71 151z" />
    <glyph glyph-name=".null" horiz-adv-x="0" 
 />
    <glyph glyph-name="nonmarkingreturn" horiz-adv-x="333" 
 />
    <glyph glyph-name="zero.onum" horiz-adv-x="523" 
d="M261 -13c-65.333 0 -116.833 24 -154.5 72s-56.5 112 -56.5 192c0 79.333 18.833 143 56.5 191s89.167 72 154.5 72c66 0 117.833 -24 155.5 -72s56.5 -111.667 56.5 -191c0 -80 -18.833 -144 -56.5 -192s-89.5 -72 -155.5 -72zM261 23c52 0 93.333 21 124 63
s46 97 46 165c0 67.333 -15.333 122 -46 164s-72 63 -124 63s-93.167 -21 -123.5 -63s-45.5 -96.667 -45.5 -164c0 -68 15.167 -123 45.5 -165s71.5 -63 123.5 -63z" />
    <glyph glyph-name="one.onum" horiz-adv-x="307" 
d="M212 0h-41v418c-42 -31.333 -89 -47 -141 -47v37c88 6.66699 137 40 147 100h35v-508z" />
    <glyph glyph-name="two.onum" horiz-adv-x="497" 
d="M426 0l-363.999 0.00292969c6.66699 41.333 27.5 79.166 62.5 113.499s93.5 75.166 175.5 122.499c66.667 38.667 100 83.667 100 135c0 30 -11.833 55.167 -35.5 75.5s-59.834 30.5 -108.501 30.5c-36.667 0 -70 -7.83301 -100 -23.5s-52.333 -37.5 -67 -65.5l-34 20
c42 70.667 109.667 106 203 106c59.333 0 104.833 -13 136.5 -39s47.5 -60.667 47.5 -104c0 -34 -9.5 -64.5 -28.5 -91.5s-56.5 -56.5 -112.5 -88.5c-55.333 -30.667 -96 -56.834 -122 -78.501s-46 -46.167 -60 -73.5h307v-39z" />
    <glyph glyph-name="three.onum" horiz-adv-x="500" 
d="M50 3l33 16.001c30.667 -68 85 -102 163 -102c49.333 0 88.666 11.667 117.999 35s44 57.666 44 102.999c0 90 -57.333 135 -172 135h-64v37h59c50.667 0 90 10.5 118 31.5s42 52.167 42 93.5c0 38 -12.5 68.333 -37.5 91s-60.833 34 -107.5 34
c-63.333 0 -111.333 -29.667 -144 -89l-32 19c36 71.333 95.667 107 179 107c58 0 103.167 -15 135.5 -45s48.5 -67.667 48.5 -113c0 -76 -35.333 -124 -106 -144c38.667 -8 68.834 -25.667 90.501 -53s32.5 -60.666 32.5 -99.999c0 -54.667 -18 -98.167 -54 -130.5
s-86.667 -48.5 -152 -48.5c-44.667 0 -84.667 10.667 -120 32s-60 51.666 -74 90.999z" />
    <glyph glyph-name="four.onum" horiz-adv-x="538" 
d="M398 -107h-41v156h-327v38l316 414h52v-414h100v-38h-100v-156zM357 87v367l-281 -367h281z" />
    <glyph glyph-name="five.onum" horiz-adv-x="513" 
d="M50 -18l30 20.002c34.667 -56.667 90 -85 166 -85c56.667 0 100 15.167 130 45.5s45 73.166 45 128.499c0 50.667 -15 90.167 -45 118.5s-71.333 42.5 -124 42.5c-28.667 0 -56.667 -7.5 -84 -22.5s-49.333 -35.5 -66 -61.5l-32 11l16 322h337v-39h-300l-14 -236
c41.333 41.333 92 62 152 62c62.667 0 112 -17.5 148 -52.5s54 -82.5 54 -142.5c0 -66 -19 -118 -57 -156s-90.667 -57 -158 -57c-45.333 0 -85.333 8.66699 -120 26s-60.667 42.666 -78 75.999z" />
    <glyph glyph-name="six.onum" horiz-adv-x="542" 
d="M442 588l-16.999 -33c-36 19.333 -73.333 29 -112 29c-66.667 0 -119 -28.667 -157 -86s-59 -126.666 -63 -207.999c18 33.333 43.333 59.333 76 78s70 28 112 28c64 0 115.167 -18.667 153.5 -56s57.5 -86 57.5 -146c0 -62.667 -20.333 -112.834 -61 -150.501
s-93.334 -56.5 -158.001 -56.5c-40 0 -75 8 -105 24s-53.167 37.5 -69.5 64.5s-28.5 55.667 -36.5 86s-12 62.5 -12 96.5c0 45.333 5.33301 88.833 16 130.5s26.334 80.167 47.001 115.5s48.667 63.666 84 84.999s75.666 32 120.999 32c21.333 0 43.833 -3.16699 67.5 -9.5
s42.5 -14.166 56.5 -23.499zM450.001 197c0 50 -15.999 89.666 -47.999 118.999s-74.333 44 -127 44c-46.667 0 -88.167 -15.167 -124.5 -45.5s-54.5 -67.166 -54.5 -110.499c0 -17.333 3.33301 -35.833 10 -55.5s16.667 -39 30 -58s32 -34.833 56 -47.5s51 -19 81 -19
c53.333 0 96.166 15.667 128.499 47s48.5 73.333 48.5 126z" />
    <glyph glyph-name="seven.onum" horiz-adv-x="500" 
d="M201 -108l-46.999 -0.000976562c17.333 188.667 100.666 378.667 249.999 570h-364v39h410v-42c-76 -94 -134.5 -186.167 -175.5 -276.5s-65.5 -187.166 -73.5 -290.499z" />
    <glyph glyph-name="eight.onum" horiz-adv-x="538" 
d="M352 325c90.667 -24.667 136 -78.667 136 -162c0 -51.333 -19 -93.5 -57 -126.5s-92 -49.5 -162 -49.5c-70.667 0 -124.834 16.5 -162.501 49.5s-56.5 75.167 -56.5 126.5c0 83.333 45 137.333 135 162c-74 25.333 -111 72 -111 140c0 44.667 17.333 81.834 52 111.501
s82.334 44.5 143.001 44.5s108.167 -14.833 142.5 -44.5s51.5 -66.834 51.5 -111.501c0 -68 -37 -114.667 -111 -140zM421 464c0 32.667 -12.833 61 -38.5 85s-63.5 36 -113.5 36s-87.833 -12 -113.5 -36s-38.5 -52.333 -38.5 -85c0 -34.667 14.167 -63.667 42.5 -87
s64.833 -35 109.5 -35s81.167 11.667 109.5 35s42.5 52.333 42.5 87zM446 165c0 44 -17.166 78.5 -51.499 103.5s-76.166 37.5 -125.499 37.5c-50 0 -92 -12.5 -126 -37.5s-51 -59.5 -51 -103.5c0 -42 16.167 -76.167 48.5 -102.5s75.166 -39.5 128.499 -39.5
s96.166 13.167 128.499 39.5s48.5 60.5 48.5 102.5z" />
    <glyph glyph-name="nine.onum" horiz-adv-x="542" 
d="M100 -88l16.998 33c36 -19.333 73.333 -29 112 -29c66.667 0 119 28.667 157 86s59 126.666 63 207.999c-18 -33.333 -43.333 -59.333 -76 -78s-70 -28 -112 -28c-64 0 -115.167 18.667 -153.5 56s-57.5 86 -57.5 146c0 62.667 20.333 113 61 151s93.334 57 158.001 57
c40 0 75 -8 105 -24s53.167 -37.5 69.5 -64.5s28.5 -55.833 36.5 -86.5s12 -63 12 -97c0 -45.333 -5.33301 -88.833 -16 -130.5s-26.334 -80.167 -47.001 -115.5s-48.667 -63.666 -84 -84.999s-75.666 -32 -120.999 -32c-49.333 0 -90.666 11 -123.999 33zM445.998 296
c0 17.333 -3.33398 35.835 -10.001 55.502s-16.667 39.167 -30 58.5s-32 35.333 -56 48s-51 19 -81 19c-53.333 0 -96.166 -15.833 -128.499 -47.5s-48.5 -73.834 -48.5 -126.501c0 -50 16 -89.667 48 -119s74.333 -44 127 -44c46.667 0 88.167 15.167 124.5 45.5
s54.5 67.166 54.5 110.499z" />
    <glyph glyph-name="zero.pnum" horiz-adv-x="610" 
d="M305 -13c-79.333 0 -141.666 32.5 -186.999 97.5s-68 154.167 -68 267.5c0 112.667 22.667 201.5 68 266.5s107.666 97.5 186.999 97.5s141.666 -32.5 186.999 -97.5s68 -153.833 68 -266.5c0 -113.333 -22.667 -202.5 -68 -267.5s-107.666 -97.5 -186.999 -97.5zM304 24
c69.333 0 122.166 30.499 158.499 91.499s54.5 140.167 54.5 237.5c0 96.667 -18.167 175.167 -54.5 235.5s-89.166 90.5 -158.499 90.5s-121.833 -30.333 -157.5 -91s-53.5 -139.667 -53.5 -237s17.833 -176.166 53.5 -236.499s88.167 -90.5 157.5 -90.5z" />
    <glyph glyph-name="one.pnum" horiz-adv-x="344" 
d="M229 0h-42.001v614c-40 -35.333 -89 -53 -147 -53v38c88.667 6.66699 140.334 43.667 155.001 111h34v-710z" />
    <glyph glyph-name="two.pnum" horiz-adv-x="564" 
d="M500 0l-445 0.00488281c2.66699 25.333 10 49.666 22 72.999s29 46 51 68s42.167 40.667 60.5 56s42.166 33.666 71.499 54.999s50 37 62 47c32 26 56.333 47 73 63s32.667 38 48 66s23 57.333 23 88c0 52 -16.833 92.167 -50.5 120.5s-78.167 42.5 -133.5 42.5
c-40.667 0 -76.167 -10.333 -106.5 -31s-52.166 -45.334 -65.499 -74.001l-33 20c16.667 34.667 43.667 63.667 81 87s79.666 35 126.999 35c70.667 0 125.667 -18.167 165 -54.5s59 -84.833 59 -145.5c0 -48.667 -12.5 -91.334 -37.5 -128.001s-65.5 -75.667 -121.5 -117
l-44.5 -32l-50 -37l-45 -36c-19.667 -16 -34.667 -29.667 -45 -41s-21.166 -24.833 -32.499 -40.5s-20 -30.834 -26 -45.501h393v-39z" />
    <glyph glyph-name="three.pnum" horiz-adv-x="553" 
d="M55 129l37 21.001c13.333 -42.667 35.833 -74.334 67.5 -95.001s68.5 -31 110.5 -31c54 0 98.333 13.5 133 40.5s52 68.5 52 124.5c0 106 -64 159 -192 159h-72v37h66c119.333 0 179 48.667 179 146c0 44 -14.5 79.667 -43.5 107s-70.5 41 -124.5 41
c-35.333 0 -67.166 -10.167 -95.499 -30.5s-48.5 -45.5 -60.5 -75.5l-35 20c40 82 106 123 198 123c65.333 0 115.666 -17 150.999 -51s53 -77.333 53 -130c0 -90.667 -40.667 -146.334 -122 -167.001c44 -8.66699 78.5 -28.167 103.5 -58.5s37.5 -69.166 37.5 -116.499
c0 -62.667 -20.167 -112.667 -60.5 -150s-96.833 -56 -169.5 -56c-50 0 -94 12.333 -132 37s-65 59.667 -81 105z" />
    <glyph glyph-name="four.pnum" horiz-adv-x="588" 
d="M448 0h-42v179h-366v40l349 484h59v-486h110v-38h-110v-179zM406 217v445l-324 -445h324z" />
    <glyph glyph-name="five.pnum" horiz-adv-x="572" 
d="M50 105l30.9971 23.999c44.667 -70 108.334 -105 191.001 -105c64.667 0 115.334 18.5 152.001 55.5s55 87.167 55 150.5c0 58 -17.5 104.167 -52.5 138.5s-82.833 51.5 -143.5 51.5c-34 0 -66.667 -8.33301 -98 -25s-56.666 -40 -75.999 -70l-37 12l18 366h386v-39h-348
l-17 -283c46.667 50.667 106.667 76 180 76c72 0 128.5 -20.167 169.5 -60.5s61.5 -95.166 61.5 -164.499c0 -76 -22.5 -135.833 -67.5 -179.5s-106.167 -65.5 -183.5 -65.5c-47.333 0 -91 10.167 -131 30.5s-70 49.5 -90 87.5z" />
    <glyph glyph-name="six.pnum" horiz-adv-x="599" 
d="M487 681l-20 -36.001c-32.667 22.667 -74.334 34 -125.001 34c-40 0 -75.833 -9.66699 -107.5 -29s-57.334 -46.166 -77.001 -80.499s-35.167 -72.166 -46.5 -113.499s-18.666 -86.333 -21.999 -135c20.667 44.667 50.5 78.167 89.5 100.5s82.5 33.5 130.5 33.5
c72.667 0 130.834 -21.333 174.501 -64s65.5 -98.334 65.5 -167.001c0 -72 -22.833 -129.5 -68.5 -172.5s-105.167 -64.5 -178.5 -64.5c-44 0 -82.833 8.33301 -116.5 25s-60 39.167 -79 67.5s-33.167 59.5 -42.5 93.5s-14 70 -14 108c0 80 10.167 152 30.5 216
s53.5 116.5 99.5 157.5s102 61.5 168 61.5c24 0 49.5 -3.33301 76.5 -10s47.833 -15 62.5 -25zM303 23.999c60 0 108.834 18.999 146.501 56.999s56.5 87 56.5 147c0 57.333 -18.667 103.333 -56 138s-85.666 52 -144.999 52s-109 -18.5 -149 -55.5s-60 -82.833 -60 -137.5
c0 -16.667 3.83301 -35.667 11.5 -57s19.167 -43.166 34.5 -65.499s37.166 -41 65.499 -56s60.166 -22.5 95.499 -22.5z" />
    <glyph glyph-name="seven.pnum" horiz-adv-x="544" 
d="M235 0h-49.001c22 236 111.333 457.333 268 664h-414v39h454v-48c-80.667 -104 -141.667 -208.333 -183 -313s-66.666 -218.667 -75.999 -342z" />
    <glyph glyph-name="eight.pnum" horiz-adv-x="581" 
d="M383 375c98.667 -31.333 147.999 -93.668 147.999 -187.001c0 -59.333 -20.667 -107.666 -62 -144.999s-101 -56 -179 -56s-137.5 18.833 -178.5 56.5s-61.5 85.834 -61.5 144.501c0 93.333 49.333 155.666 148 186.999c-80.667 28.667 -121 82.667 -121 162
c0 52 18.833 94.833 56.5 128.5s89.834 50.5 156.501 50.5c67.333 0 119.833 -16.833 157.5 -50.5s56.5 -76.5 56.5 -128.5c0 -79.333 -40.333 -133.333 -121 -162zM460.999 535.998c0 40 -14.167 73.833 -42.5 101.5s-71.166 41.5 -128.499 41.5
c-56.667 0 -99.167 -13.833 -127.5 -41.5s-42.5 -61.5 -42.5 -101.5c0 -42 15.667 -76.667 47 -104s72.333 -41 123 -41c51.333 0 92.666 13.667 123.999 41s47 62 47 104zM487.999 189.998c0 52.667 -18.8311 93.667 -56.498 123s-84.834 44 -141.501 44
c-56 0 -102.833 -14.667 -140.5 -44s-56.5 -70.333 -56.5 -123c0 -50.667 17.667 -91 53 -121s83.333 -45 144 -45c61.333 0 109.666 15 144.999 45s53 70.333 53 121z" />
    <glyph glyph-name="nine.pnum" horiz-adv-x="599" 
d="M112 22l20 36.001c32.667 -22.667 74.334 -34 125.001 -34c40 0 75.833 9.66699 107.5 29s57.334 46.166 77.001 80.499s35.167 72.166 46.5 113.499s18.666 86.333 21.999 135c-20.667 -44.667 -50.5 -78.167 -89.5 -100.5s-82.5 -33.5 -130.5 -33.5
c-72.667 0 -130.834 21.333 -174.501 64s-65.5 98.334 -65.5 167.001c0 72 22.833 129.5 68.5 172.5s105.167 64.5 178.5 64.5c44 0 82.833 -8.33301 116.5 -25s60 -39.167 79 -67.5s33.167 -59.5 42.5 -93.5s14 -70 14 -108c0 -80 -10.167 -152 -30.5 -216
s-53.5 -116.5 -99.5 -157.5s-102 -61.5 -168 -61.5c-24 0 -49.5 3.33301 -76.5 10s-47.833 15 -62.5 25zM503 478.001c0 16.667 -3.83398 35.668 -11.501 57.001s-19.167 43.166 -34.5 65.499s-37.166 41 -65.499 56s-60.166 22.5 -95.499 22.5
c-60 0 -108.833 -19 -146.5 -57s-56.5 -87 -56.5 -147c0 -57.333 18.667 -103.333 56 -138s85.666 -52 144.999 -52s109 18.5 149 55.5s60 82.833 60 137.5z" />
    <glyph glyph-name="dollar.pnum" horiz-adv-x="477" 
d="M259 -55l-41.999 -0.00292969v120c-83.333 4.66699 -142.333 46.667 -177 126l35 20c12.667 -35.333 32.667 -62.166 60 -80.499s59.666 -27.5 96.999 -27.5c46.667 0 82.834 11 108.501 33s38.5 52 38.5 90c0 28 -12.833 53 -38.5 75s-70.5 44.333 -134.5 67
c-56.667 20.667 -97 43.5 -121 68.5s-36 55.167 -36 90.5c0 44 16 78.833 48 104.5s72 39.834 120 42.501v113h42v-115c69.333 -7.33301 122.666 -39.333 159.999 -96l-32 -24c-36.667 56.667 -89.667 85 -159 85c-39.333 0 -71.833 -9.33301 -97.5 -28
s-38.5 -45.334 -38.5 -80.001c0 -30 9.33301 -53.167 28 -69.5s55.334 -35.166 110.001 -56.499c71.333 -27.333 121.166 -54.666 149.499 -81.999s42.5 -59.333 42.5 -96c0 -44.667 -15.333 -81 -46 -109s-69.667 -44.667 -117 -50v-121z" />
    <glyph glyph-name="cent.pnum" horiz-adv-x="482" 
d="M287 -56l-42.999 0.000976562v126c-56 7.33301 -100.667 33.833 -134 79.5s-50 104.5 -50 176.5s16.667 130.833 50 176.5s78 72.167 134 79.5v121h43v-119c66.667 -4 118.334 -35 155.001 -93l-37 -25c-31.333 52.667 -75.333 79 -132 79c-50 0 -90 -19.833 -120 -59.5
s-45 -92.834 -45 -159.501c0 -66 15.167 -119 45.5 -159s70.166 -60 119.499 -60c56.667 0 100.667 26.333 132 79l37 -24c-36.667 -58.667 -88.334 -90 -155.001 -94v-124z" />
    <glyph glyph-name="sterling.pnum" horiz-adv-x="557" 
d="M353 0l-278 -0.000976562v533c0 54.667 15.833 98.834 47.5 132.501s77.834 50.5 138.501 50.5c65.333 0 119 -21.667 161 -65l-28 -28c-38 36.667 -82 55 -132 55c-50.667 0 -87.5 -14 -110.5 -42s-34.5 -63.333 -34.5 -106v-117h227v-37h-227v-339h228
c38 0 67.833 9 89.5 27s32.5 43.667 32.5 77c0 44 -21.667 78.667 -65 104l21 31c23.333 -12.667 43.166 -31 59.499 -55s24.5 -50 24.5 -78c0 -44.667 -14 -79.667 -42 -105s-65.333 -38 -112 -38z" />
    <glyph glyph-name="yen.pnum" 
d="M487 175h-176v-175h-42v175h-176v35h176v73l-13 23h-163v35h143l-209 362h49l214 -381l216 381h47l-209 -362h143v-35h-163l-13 -23v-73h176v-35z" />
    <glyph glyph-name="florin.pnum" horiz-adv-x="421" 
d="M-13 -205l0.00195312 39.002c15.333 4.66699 29 13.667 41 27s19.667 28.666 23 45.999l116 560h-87v34h94l19 89c17.333 80 60 120 128 120c20.667 0 37.334 -4.33301 50.001 -13l-1 -39c-14.667 9.33301 -31.334 14 -50.001 14
c-20.667 0 -38.834 -6.83301 -54.501 -20.5s-25.834 -31.834 -30.501 -54.501l-20 -96h109v-34h-117l-115 -554c-14 -68 -49 -107.333 -105 -118z" />
    <glyph glyph-name="Euro.pnum" horiz-adv-x="593" 
d="M490 148l37.001 -17c-20.667 -45.333 -47.5 -80.833 -80.5 -106.5s-70.833 -38.5 -113.5 -38.5c-60.667 0 -111.5 25.667 -152.5 77s-67.5 118 -79.5 200h-101l5 37h92c-1.33301 22.667 -2 40 -2 52c0 18.667 1 37.667 3 57h-98l5 37h97
c12.667 80.667 39.334 146 80.001 196s91 75 151 75c48.667 0 91 -16.5 127 -49.5s63.667 -78.167 83 -135.5l-39 -15c-16 50 -38.833 89.5 -68.5 118.5s-63.834 43.5 -102.501 43.5c-47.333 0 -87.333 -21.5 -120 -64.5s-54.334 -99.167 -65.001 -168.5h248l-5 -37h-247
c-2 -19.333 -3 -38.333 -3 -57c0 -12 0.666992 -29.333 2 -52h253l-5 -37h-243c10.667 -71.333 32.167 -129 64.5 -173s72.5 -66 120.5 -66c34 0 64.667 11 92 33s49 52.333 65 91z" />
    <glyph glyph-name="currency.pnum" horiz-adv-x="626" 
d="M586 97l-29 -28.999l-106 105c-40 -33.333 -86.333 -50 -139 -50c-52 0 -98 16.667 -138 50l-105 -105l-29 29l106 106c-32 39.333 -48 85.666 -48 138.999c0 52 16 97.333 48 136l-105 105l29 29l105 -104c38 32.667 83.667 49 137 49c52.667 0 99 -16.667 139 -50
l104 105l29 -29l-105 -105c31.333 -38.667 47 -84 47 -136c0 -52.667 -15.667 -99 -47 -139zM312 165.001c49.333 0 89.667 16.835 121 50.502s47 75.834 47 126.501c0 49.333 -15.833 90.666 -47.5 123.999s-71.834 50 -120.501 50c-48 0 -88 -16.833 -120 -50.5
s-48 -74.834 -48 -123.501c0 -50.667 15.833 -92.834 47.5 -126.501s71.834 -50.5 120.501 -50.5z" />
    <glyph glyph-name="i.dot" horiz-adv-x="195" 
d="M118 0h-41v501h41v-501zM130 647c0 -8.66699 -3.33301 -16.167 -10 -22.5s-14.334 -9.5 -23.001 -9.5s-16.167 3.16699 -22.5 9.5s-9.5 13.833 -9.5 22.5s3.16699 16.334 9.5 23.001s13.833 10 22.5 10s16.334 -3.33301 23.001 -10s10 -14.334 10 -23.001z" />
    <glyph glyph-name="a.smcp" horiz-adv-x="486" 
d="M463 0h-43l-55 140h-244l-54 -140h-44l195 501h50zM351 175l-108 279l-108 -279h216z" />
    <glyph glyph-name="b.smcp" horiz-adv-x="489" 
d="M294 0h-218.999v501h218c36.667 0 68 -11.667 94 -35s39 -51.333 39 -84c0 -26 -6.5 -49 -19.5 -69s-31.833 -34 -56.5 -42c31.333 -8 55.666 -24 72.999 -48s26 -52 26 -84c0 -38.667 -15 -71.5 -45 -98.5s-66.667 -40.5 -110 -40.5zM116.001 285h178
c26 0 47.5 8.83301 64.5 26.5s25.5 39.167 25.5 64.5s-8.5 46.5 -25.5 63.5s-38.5 25.5 -64.5 25.5h-178v-180zM116.001 36h179c32.667 0 59.667 10.333 81 31s32 46 32 76s-10.667 55.333 -32 76s-48.333 31 -81 31h-179v-214z" />
    <glyph glyph-name="c.smcp" horiz-adv-x="509" 
d="M418 111l35.001 -19c-44 -70 -104.667 -105 -182 -105c-62 0 -115 23.5 -159 70.5s-66 111.5 -66 193.5c0 81.333 22 145.5 66 192.5s97 70.5 159 70.5c42.667 0 81.167 -11.5 115.5 -34.5s61.5 -55.833 81.5 -98.5l-38 -17c-16.667 37.333 -39 65.5 -67 84.5
s-58.333 28.5 -91 28.5c-50.667 0 -94 -20 -130 -60s-54 -95.333 -54 -166s18.167 -126.167 54.5 -166.5s79.833 -60.5 130.5 -60.5c59.333 0 107.666 29 144.999 87z" />
    <glyph glyph-name="d.smcp" horiz-adv-x="514" 
d="M264 0h-189v501h189c62 0 111.5 -23.833 148.5 -71.5s55.5 -107.167 55.5 -178.5s-18.5 -131 -55.5 -179s-86.5 -72 -148.5 -72zM116 37l148 -0.000976562c48.667 0 87.834 20.5 117.501 61.5s44.5 91.833 44.5 152.5s-14.833 111.334 -44.5 152.001
s-68.834 61 -117.501 61h-148v-427z" />
    <glyph glyph-name="e.smcp" horiz-adv-x="450" 
d="M413 0h-338v501h322v-37h-281v-184h216v-37h-216v-206h297v-37z" />
    <glyph glyph-name="f.smcp" horiz-adv-x="426" 
d="M116 0h-41v501h322v-37h-281v-187h228v-37h-228v-240z" />
    <glyph glyph-name="g.smcp" horiz-adv-x="534" 
d="M488 243v-5.99805c0 -42 -7.33301 -81.333 -22 -118s-38.834 -67.834 -72.501 -93.501s-74.5 -38.5 -122.5 -38.5c-62 0 -115 23.5 -159 70.5s-66 111.167 -66 192.5s22 145.666 66 192.999s97 71 159 71c42.667 0 81.167 -11.5 115.5 -34.5s61.5 -55.833 81.5 -98.5
l-38 -17c-16.667 37.333 -39 65.5 -67 84.5s-58.333 28.5 -91 28.5c-50 0 -93.167 -20.167 -129.5 -60.5s-54.5 -95.833 -54.5 -166.5s18.167 -126 54.5 -166s79.833 -60 130.5 -60c50 0 89.833 16.5 119.5 49.5s47.834 77.5 54.501 133.5h-149v36h190z" />
    <glyph glyph-name="h.smcp" horiz-adv-x="528" 
d="M453 0h-41v240h-296v-240h-41v501h41v-224h296v224h41v-501z" />
    <glyph glyph-name="i.smcp" horiz-adv-x="191" 
d="M116 0h-41v501h41v-501z" />
    <glyph glyph-name="j.smcp" horiz-adv-x="412" 
d="M301 140l-0.00195312 361h41v-352c0 -50.667 -14.167 -90.334 -42.5 -119.001s-66.833 -43 -115.5 -43c-43.333 0 -80.166 12.833 -110.499 38.5s-47.166 57.5 -50.499 95.5l39 11c1.33301 -30.667 13.5 -56.5 36.5 -77.5s51.167 -31.5 84.5 -31.5
c36 0 64.667 10.833 86 32.5s32 49.834 32 84.501z" />
    <glyph glyph-name="k.smcp" horiz-adv-x="484" 
d="M457 0h-46l-177 272l-118 -127v-145h-41v501h41v-301l280 301h53l-187 -199z" />
    <glyph glyph-name="l.smcp" horiz-adv-x="409" 
d="M386 0h-311v501h41v-464h270v-37z" />
    <glyph glyph-name="m.smcp" horiz-adv-x="626" 
d="M551 0h-41v428l-184 -428h-27l-183 428v-428h-41v501h50l188 -441l188 441h50v-501z" />
    <glyph glyph-name="n.smcp" horiz-adv-x="541" 
d="M466 0h-39l-311 431v-431h-41v501h38l312 -432v432h41v-501z" />
    <glyph glyph-name="o.smcp" horiz-adv-x="535" 
d="M268 -13c-67.333 0 -121.166 25.167 -161.499 75.5s-60.5 113.166 -60.5 188.499s20.167 138 60.5 188s94.166 75 161.499 75c66.667 0 120.167 -25 160.5 -75s60.5 -112.667 60.5 -188s-20.167 -138.166 -60.5 -188.499s-93.833 -75.5 -160.5 -75.5zM268 24
c54 0 97.333 21.667 130 65s49 97.333 49 162s-16.333 118.5 -49 161.5s-76 64.5 -130 64.5s-97.5 -21.5 -130.5 -64.5s-49.5 -96.833 -49.5 -161.5s16.5 -118.667 49.5 -162s76.5 -65 130.5 -65z" />
    <glyph glyph-name="p.smcp" horiz-adv-x="476" 
d="M116 0h-41v501h227c42 0 76.167 -14 102.5 -42s39.5 -61.667 39.5 -101c0 -40 -13.167 -74 -39.5 -102s-60.5 -42 -102.5 -42h-186v-214zM116 251h191c28.667 0 52 10.5 70 31.5s27 46.167 27 75.5s-9 54.333 -27 75s-41.333 31 -70 31h-191v-213z" />
    <glyph glyph-name="q.smcp" horiz-adv-x="535" 
d="M441 -66l-27.999 -21l-67 88c-24 -9.33301 -50 -14 -78 -14c-67.333 0 -121.166 25.167 -161.499 75.5s-60.5 113.166 -60.5 188.499s20.167 138 60.5 188s94.166 75 161.499 75c66.667 0 120.167 -25 160.5 -75s60.5 -112.667 60.5 -188
c0 -51.333 -9.83301 -97.666 -29.5 -138.999s-46.834 -73 -81.501 -95zM322.001 33l-46.001 60l28 21l50 -66c28.667 18.667 51.334 46 68.001 82s25 76.333 25 121c0 64.667 -16.333 118.5 -49 161.5s-76 64.5 -130 64.5s-97.5 -21.5 -130.5 -64.5
s-49.5 -96.833 -49.5 -161.5s16.5 -118.667 49.5 -162s76.5 -65 130.5 -65c18.667 0 36.667 3 54 9z" />
    <glyph glyph-name="r.smcp" horiz-adv-x="498" 
d="M452 0h-49l-147 221h-140v-221h-41v501h229c42 0 76.167 -13.5 102.5 -40.5s39.5 -60.167 39.5 -99.5s-13.167 -72.5 -39.5 -99.5s-60.5 -40.5 -102.5 -40.5zM116 257h185c30.667 0 55.667 10 75 30s29 44.667 29 74c0 28.667 -9.66699 53 -29 73s-44.333 30 -75 30h-185
v-207z" />
    <glyph glyph-name="s.smcp" horiz-adv-x="441" 
d="M393 427l-34.998 -20.999c-12.667 22.667 -32.334 40.5 -59.001 53.5s-55.667 19.5 -87 19.5c-36.667 0 -65.834 -7.33301 -87.501 -22s-32.5 -36.334 -32.5 -65.001s10.667 -51.167 32 -67.5s56.333 -32.166 105 -47.499c60.667 -20 103.5 -40.667 128.5 -62
s37.5 -52 37.5 -92c0 -40.667 -16 -73.5 -48 -98.5s-72.333 -37.5 -121 -37.5c-42 0 -80 9.33301 -114 28s-57.667 46 -71 82l37 17c10.667 -29.333 30 -51.833 58 -67.5s58.333 -23.5 91 -23.5c37.333 0 67.833 9.33301 91.5 28s35.5 43.667 35.5 75
c0 27.333 -9.83301 48.833 -29.5 64.5s-56.5 32.167 -110.5 49.5c-58 18.667 -99.667 39 -125 61s-38 52.333 -38 91c0 37.333 15.167 67 45.5 89s68.833 33 115.5 33c38 0 73.833 -7.33301 107.5 -22s58.167 -36.334 73.5 -65.001z" />
    <glyph glyph-name="t.smcp" horiz-adv-x="418" 
d="M230 0h-41v464h-162v37h364v-37h-161v-464z" />
    <glyph glyph-name="u.smcp" horiz-adv-x="518" 
d="M407 206l-0.00195312 294.999h41v-292c0 -74 -14.167 -129.5 -42.5 -166.5s-77.166 -55.5 -146.499 -55.5s-118.166 18.333 -146.499 55s-42.5 92.334 -42.5 167.001v292h41v-295c0 -62 10.833 -108 32.5 -138s60.167 -45 115.5 -45s93.833 15 115.5 45s32.5 76 32.5 138
z" />
    <glyph glyph-name="v.smcp" horiz-adv-x="486" 
d="M268 0h-50l-195 501h43l177 -454l176 454h44z" />
    <glyph glyph-name="w.smcp" horiz-adv-x="668" 
d="M505 0h-55l-116 449l-116 -449h-55l-131 501h43l118 -453l117 453h47l119 -453l117 453h43z" />
    <glyph glyph-name="x.smcp" horiz-adv-x="447" 
d="M425 0h-50l-151 243l-152 -243h-50l173 267l-151 234h49l131 -209l131 209h48l-150 -234z" />
    <glyph glyph-name="y.smcp" horiz-adv-x="456" 
d="M248 0h-41v199l-183 302h47l157 -261l157 261h47l-184 -302v-199z" />
    <glyph glyph-name="z.smcp" horiz-adv-x="435" 
d="M398 0h-366v40l321 424h-304v37h350v-39l-321 -425h320v-37z" />
    <glyph glyph-name="fi.smcp" horiz-adv-x="615" 
d="M540 0h-41v501h41v-501zM116 0h-41v501h322v-37h-281v-187h228v-37h-228v-240z" />
    <glyph glyph-name="fl.smcp" horiz-adv-x="833" 
d="M116 0h-41v501h322v-37h-281v-187h228v-37h-228v-240zM810 0h-311v501h41v-464h270v-37z" />
    <glyph glyph-name="ff.smcp" horiz-adv-x="848" 
d="M116 0h-41v501h322v-37h-281v-187h228v-37h-228v-240zM540 0h-41v501h322v-37h-281v-187h228v-37h-228v-240z" />
    <glyph glyph-name="ffi.smcp" horiz-adv-x="1039" 
d="M116 0h-41v501h322v-37h-281v-187h228v-37h-228v-240zM540 0h-41v501h322v-37h-281v-187h228v-37h-228v-240zM964 0h-41v501h41v-501z" />
    <glyph glyph-name="ffl.smcp" horiz-adv-x="1258" 
d="M116 0h-41v501h322v-37h-281v-187h228v-37h-228v-240zM540 0h-41v501h322v-37h-281v-187h228v-37h-228v-240zM1235 0h-311v501h41v-464h270v-37z" />
    <glyph glyph-name="germandbls.smcp" horiz-adv-x="882" 
d="M393 427l-34.998 -20.999c-12.667 22.667 -32.334 40.5 -59.001 53.5s-55.667 19.5 -87 19.5c-36.667 0 -65.834 -7.33301 -87.501 -22s-32.5 -36.334 -32.5 -65.001s10.667 -51.167 32 -67.5s56.333 -32.166 105 -47.499c60.667 -20 103.5 -40.667 128.5 -62
s37.5 -52 37.5 -92c0 -40.667 -16 -73.5 -48 -98.5s-72.333 -37.5 -121 -37.5c-42 0 -80 9.33301 -114 28s-57.667 46 -71 82l37 17c10.667 -29.333 30 -51.833 58 -67.5s58.333 -23.5 91 -23.5c37.333 0 67.833 9.33301 91.5 28s35.5 43.667 35.5 75
c0 27.333 -9.83301 48.833 -29.5 64.5s-56.5 32.167 -110.5 49.5c-58 18.667 -99.667 39 -125 61s-38 52.333 -38 91c0 37.333 15.167 67 45.5 89s68.833 33 115.5 33c38 0 73.833 -7.33301 107.5 -22s58.167 -36.334 73.5 -65.001zM834.002 427.001l-34.998 -20.999
c-12.667 22.667 -32.334 40.5 -59.001 53.5s-55.667 19.5 -87 19.5c-36.667 0 -65.834 -7.33301 -87.501 -22s-32.5 -36.334 -32.5 -65.001s10.667 -51.167 32 -67.5s56.333 -32.166 105 -47.499c60.667 -20 103.5 -40.667 128.5 -62s37.5 -52 37.5 -92
c0 -40.667 -16 -73.5 -48 -98.5s-72.333 -37.5 -121 -37.5c-42 0 -80 9.33301 -114 28s-57.667 46 -71 82l37 17c10.667 -29.333 30 -51.833 58 -67.5s58.333 -23.5 91 -23.5c37.333 0 67.833 9.33301 91.5 28s35.5 43.667 35.5 75c0 27.333 -9.83301 48.833 -29.5 64.5
s-56.5 32.167 -110.5 49.5c-58 18.667 -99.667 39 -125 61s-38 52.333 -38 91c0 37.333 15.167 67 45.5 89s68.833 33 115.5 33c38 0 73.833 -7.33301 107.5 -22s58.167 -36.334 73.5 -65.001z" />
    <glyph glyph-name="agrave.smcp" horiz-adv-x="486" 
d="M463 0h-43l-55 140h-244l-54 -140h-44l195 501h50zM351 175l-108 279l-108 -279h216zM266 577h-38l-162 150h72z" />
    <glyph glyph-name="aacute.smcp" horiz-adv-x="486" 
d="M420 727l-162 -150h-38l128 150h72zM463 0h-43l-55 140h-244l-54 -140h-44l195 501h50zM351 175l-108 279l-108 -279h216z" />
    <glyph glyph-name="acircumflex.smcp" horiz-adv-x="486" 
d="M463 0h-43l-55 140h-244l-54 -140h-44l195 501h50zM351 175l-108 279l-108 -279h216zM395 577h-38l-114 117l-116 -117h-36l125 150h55z" />
    <glyph glyph-name="atilde.smcp" horiz-adv-x="486" 
d="M463 0h-43l-55 140h-244l-54 -140h-44l195 501h50zM351 175l-108 279l-108 -279h216zM369 702l30.9971 -5.00098c-9.33301 -59.333 -40 -89 -92 -89c-21.333 0 -44.666 9.83301 -69.999 29.5s-45.333 29.5 -60 29.5c-29.333 0 -48.666 -19.667 -57.999 -59l-32 4
c2.66699 28.667 11.834 51.167 27.501 67.5s37.167 24.5 64.5 24.5c22.667 0 47.167 -9.83301 73.5 -29.5s45.833 -29.5 58.5 -29.5c16.667 0 29.167 4.83301 37.5 14.5s14.833 23.834 19.5 42.501z" />
    <glyph glyph-name="adieresis.smcp" horiz-adv-x="486" 
d="M463 0h-43l-55 140h-244l-54 -140h-44l195 501h50zM351 175l-108 279l-108 -279h216zM358 647c0 -8.66699 -3.33301 -16.167 -10 -22.5s-14.334 -9.5 -23.001 -9.5s-16.167 3.16699 -22.5 9.5s-9.5 13.833 -9.5 22.5s3.16699 16.334 9.5 23.001s13.833 10 22.5 10
s16.334 -3.33301 23.001 -10s10 -14.334 10 -23.001zM193 647c0 -8.66699 -3.33105 -16.167 -9.99805 -22.5s-14.334 -9.5 -23.001 -9.5s-16.167 3.16699 -22.5 9.5s-9.5 13.833 -9.5 22.5s3.16699 16.334 9.5 23.001s13.833 10 22.5 10
c9.33301 0 17.166 -3.33301 23.499 -10s9.5 -14.334 9.5 -23.001z" />
    <glyph glyph-name="aring.smcp" horiz-adv-x="486" 
d="M463 0h-43.001l-55 140h-244l-54 -140h-44l184 473c-18.667 7.33301 -33.667 19.333 -45 36s-17 35.334 -17 56.001c0 27.333 9.33301 50.5 28 69.5s42 28.5 70 28.5s51.333 -9.5 70 -28.5s28 -42.167 28 -69.5c0 -20.667 -5.66699 -39.334 -17 -56.001
s-26.666 -28.667 -45.999 -36zM350.999 175l-108 279l-108 -279h216zM307.999 565c0 18.667 -6.33301 34.334 -19 47.001s-28.334 19 -47.001 19s-34.167 -6.33301 -46.5 -19s-18.5 -28.334 -18.5 -47.001s6.16699 -34.334 18.5 -47.001s27.833 -19 46.5 -19
s34.334 6.33301 47.001 19s19 28.334 19 47.001z" />
    <glyph glyph-name="aringacute.smcp" horiz-adv-x="486" 
d="M463 0h-43.001l-55 140h-244l-54 -140h-44l184 473c-18.667 7.33301 -33.667 19.333 -45 36s-17 35.334 -17 56.001c0 27.333 9.33301 50.5 28 69.5s42 28.5 70 28.5s51.333 -9.5 70 -28.5s28 -42.167 28 -69.5c0 -20.667 -5.66699 -39.334 -17 -56.001
s-26.666 -28.667 -45.999 -36zM350.999 175l-108 279l-108 -279h216zM307.999 565c0 18.667 -6.33301 34.334 -19 47.001s-28.334 19 -47.001 19s-34.167 -6.33301 -46.5 -19s-18.5 -28.334 -18.5 -47.001s6.16699 -34.334 18.5 -47.001s27.833 -19 46.5 -19
s34.334 6.33301 47.001 19s19 28.334 19 47.001zM419.999 853l-162 -150h-38l128 150h72z" />
    <glyph glyph-name="amacron.smcp" horiz-adv-x="486" 
d="M463 0h-43l-55 140h-244l-54 -140h-44l195 501h50zM351 175l-108 279l-108 -279h216zM370 621h-253v37h253v-37z" />
    <glyph glyph-name="abreve.smcp" horiz-adv-x="486" 
d="M463 0h-43l-55 140h-244l-54 -140h-44l195 501h50zM351 175l-108 279l-108 -279h216zM346 722h33.001c-2 -36 -15.167 -65.667 -39.5 -89s-57.5 -35 -99.5 -35c-38.667 0 -69.834 11.167 -93.501 33.5s-36.834 52.5 -39.501 90.5h35c2.66699 -26 13 -47.333 31 -64
s41 -25 69 -25c26.667 0 49.834 8.16699 69.501 24.5s31.167 37.833 34.5 64.5z" />
    <glyph glyph-name="aogonek.smcp" horiz-adv-x="486" 
d="M485 -165l8.00098 -28c-26.667 -13.333 -51.334 -20 -74.001 -20c-28.667 0 -52.167 7.83301 -70.5 23.5s-27.5 35.5 -27.5 59.5c0 23.333 9.5 47.333 28.5 72s42.5 44 70.5 58l-55 140h-244l-54 -140h-44l195 501h50l195 -501c-28.667 -15.333 -53.5 -35 -74.5 -59
s-31.5 -46 -31.5 -66c0 -38 21.667 -57 65 -57c15.333 0 36.333 5.66699 63 17zM351.001 175l-108 279l-108 -279h216z" />
    <glyph glyph-name="ae.smcp" horiz-adv-x="753" 
d="M716 0h-339v135h-221l-94 -135h-48l348 501h338v-37h-281v-184h216v-37h-216v-206h297v-37zM377 172v283l-196 -283h196z" />
    <glyph glyph-name="aeacute.smcp" horiz-adv-x="753" 
d="M716 0h-339v135h-221l-94 -135h-48l348 501h338v-37h-281v-184h216v-37h-216v-206h297v-37zM377 172v283l-196 -283h196zM655 727l-162 -150h-38l128 150h72z" />
    <glyph glyph-name="ccedilla.smcp" horiz-adv-x="509" 
d="M177 -196l8.00391 30.002c26.667 -12 53 -18 79 -18s45.667 4.66699 59 14s20 20.666 20 33.999c0 12 -4.66699 21.667 -14 29s-22 11 -38 11c-16.667 0 -34.334 -4.33301 -53.001 -13l-27 7l42 90c-58.667 4.66699 -107.834 30.167 -147.501 76.5
s-59.5 108.5 -59.5 186.5c0 81.333 22 145.5 66 192.5s97 70.5 159 70.5c42.667 0 81.167 -11.5 115.5 -34.5s61.5 -55.833 81.5 -98.5l-38 -17c-16.667 37.333 -39 65.5 -67 84.5s-58.333 28.5 -91 28.5c-50.667 0 -94 -20 -130 -60s-54 -95.333 -54 -166
s18.167 -126.167 54.5 -166.5s79.833 -60.5 130.5 -60.5c59.333 0 107.666 29 144.999 87l35 -19c-42 -65.333 -98.333 -100 -169 -104l-32 -66c16 7.33301 32.333 11 49 11c23.333 0 42.5 -6.33301 57.5 -19s22.5 -29.334 22.5 -50.001
c0 -22.667 -10.167 -41.167 -30.5 -55.5s-48.5 -21.5 -84.5 -21.5c-30.667 0 -60.334 5.66699 -89.001 17z" />
    <glyph glyph-name="cacute.smcp" horiz-adv-x="509" 
d="M418 111l35.001 -19c-44 -70 -104.667 -105 -182 -105c-62 0 -115 23.5 -159 70.5s-66 111.5 -66 193.5c0 81.333 22 145.5 66 192.5s97 70.5 159 70.5c42.667 0 81.167 -11.5 115.5 -34.5s61.5 -55.833 81.5 -98.5l-38 -17c-16.667 37.333 -39 65.5 -67 84.5
s-58.333 28.5 -91 28.5c-50.667 0 -94 -20 -130 -60s-54 -95.333 -54 -166s18.167 -126.167 54.5 -166.5s79.833 -60.5 130.5 -60.5c59.333 0 107.666 29 144.999 87zM442.001 727l-162 -150h-38l128 150h72z" />
    <glyph glyph-name="ccircumflex.smcp" horiz-adv-x="509" 
d="M418 111l35.001 -19c-44 -70 -104.667 -105 -182 -105c-62 0 -115 23.5 -159 70.5s-66 111.5 -66 193.5c0 81.333 22 145.5 66 192.5s97 70.5 159 70.5c42.667 0 81.167 -11.5 115.5 -34.5s61.5 -55.833 81.5 -98.5l-38 -17c-16.667 37.333 -39 65.5 -67 84.5
s-58.333 28.5 -91 28.5c-50.667 0 -94 -20 -130 -60s-54 -95.333 -54 -166s18.167 -126.167 54.5 -166.5s79.833 -60.5 130.5 -60.5c59.333 0 107.666 29 144.999 87zM425.001 577h-38l-114 117l-116 -117h-36l125 150h55z" />
    <glyph glyph-name="cdotaccent.smcp" horiz-adv-x="509" 
d="M418 111l35.001 -19c-44 -70 -104.667 -105 -182 -105c-62 0 -115 23.5 -159 70.5s-66 111.5 -66 193.5c0 81.333 22 145.5 66 192.5s97 70.5 159 70.5c42.667 0 81.167 -11.5 115.5 -34.5s61.5 -55.833 81.5 -98.5l-38 -17c-16.667 37.333 -39 65.5 -67 84.5
s-58.333 28.5 -91 28.5c-50.667 0 -94 -20 -130 -60s-54 -95.333 -54 -166s18.167 -126.167 54.5 -166.5s79.833 -60.5 130.5 -60.5c59.333 0 107.666 29 144.999 87zM308.001 647c0 -8.66699 -3.33301 -16.167 -10 -22.5s-14.334 -9.5 -23.001 -9.5
s-16.167 3.16699 -22.5 9.5s-9.5 13.833 -9.5 22.5s3.16699 16.334 9.5 23.001s13.833 10 22.5 10s16.334 -3.33301 23.001 -10s10 -14.334 10 -23.001z" />
    <glyph glyph-name="ccaron.smcp" horiz-adv-x="509" 
d="M418 111l35.001 -19c-44 -70 -104.667 -105 -182 -105c-62 0 -115 23.5 -159 70.5s-66 111.5 -66 193.5c0 81.333 22 145.5 66 192.5s97 70.5 159 70.5c42.667 0 81.167 -11.5 115.5 -34.5s61.5 -55.833 81.5 -98.5l-38 -17c-16.667 37.333 -39 65.5 -67 84.5
s-58.333 28.5 -91 28.5c-50.667 0 -94 -20 -130 -60s-54 -95.333 -54 -166s18.167 -126.167 54.5 -166.5s79.833 -60.5 130.5 -60.5c59.333 0 107.666 29 144.999 87zM303.001 577h-55l-129 150h37l121 -117l116 117h36z" />
    <glyph glyph-name="dcaron.smcp" horiz-adv-x="514" 
d="M264 0h-189v501h189c62 0 111.5 -23.833 148.5 -71.5s55.5 -107.167 55.5 -178.5s-18.5 -131 -55.5 -179s-86.5 -72 -148.5 -72zM116 37l148 -0.000976562c48.667 0 87.834 20.5 117.501 61.5s44.5 91.833 44.5 152.5s-14.833 111.334 -44.5 152.001
s-68.834 61 -117.501 61h-148v-427zM259 576.999h-55l-129 150h37l121 -117l116 117h36z" />
    <glyph glyph-name="eth.smcp" horiz-adv-x="514" 
d="M264 0h-190v240h-60v37h60v224h190c62 0 111.5 -23.833 148.5 -71.5s55.5 -107.167 55.5 -178.5s-18.5 -131 -55.5 -179s-86.5 -72 -148.5 -72zM115 37l149 -0.000976562c48.667 0 87.834 20.5 117.501 61.5s44.5 91.833 44.5 152.5s-14.833 111.334 -44.5 152.001
s-68.834 61 -117.501 61h-149v-187h138v-37h-138v-203z" />
    <glyph glyph-name="dcroat.smcp" horiz-adv-x="514" 
d="M264 0h-190v240h-60v37h60v224h190c62 0 111.5 -23.833 148.5 -71.5s55.5 -107.167 55.5 -178.5s-18.5 -131 -55.5 -179s-86.5 -72 -148.5 -72zM115 37l149 -0.000976562c48.667 0 87.834 20.5 117.501 61.5s44.5 91.833 44.5 152.5s-14.833 111.334 -44.5 152.001
s-68.834 61 -117.501 61h-149v-187h138v-37h-138v-203z" />
    <glyph glyph-name="egrave.smcp" horiz-adv-x="450" 
d="M413 0h-338v501h322v-37h-281v-184h216v-37h-216v-206h297v-37zM276 577h-38l-162 150h72z" />
    </font>
</defs>
</svg>
